M48
; DRILL file {KiCad (5.1.5-0-10_14)} date 2020 July 25, Saturday 11:43:05
; FORMAT={-:-/ absolute / metric / decimal}
; #@! TF.CreationDate,2020-07-25T11:43:05+09:00
; #@! TF.GenerationSoftware,Kicad,Pcbnew,(5.1.5-0-10_14)
; #@! TF.FileFunction,NonPlated,1,2,NPTH
FMAT,2
METRIC
T1C1.200
T2C1.750
T3C2.200
T4C3.048
T5C3.988
%
G90
G05
T1
X66.675Y-25.312
X66.675Y-32.312
T2
X109.22Y-33.337
X119.38Y-33.337
X75.882Y-90.487
X86.042Y-90.487
X104.457Y-71.438
X114.617Y-71.438
X140.176Y-90.487
X150.336Y-90.487
X71.12Y-33.337
X81.28Y-33.337
X37.782Y-90.487
X47.942Y-90.487
X42.545Y-52.387
X52.705Y-52.387
X94.932Y-109.537
X105.093Y-109.537
X128.27Y-33.337
X138.43Y-33.337
X66.358Y-71.438
X76.517Y-71.438
X33.02Y-33.337
X43.18Y-33.337
X28.258Y-71.438
X38.417Y-71.438
X61.595Y-52.387
X71.755Y-52.387
X94.932Y-90.487
X105.093Y-90.487
X166.37Y-90.487
X176.53Y-90.487
X123.507Y-71.438
X133.667Y-71.438
X28.258Y-109.537
X38.417Y-109.537
X166.37Y-33.337
X176.53Y-33.337
X52.07Y-33.337
X62.23Y-33.337
X137.795Y-52.387
X147.955Y-52.387
X90.17Y-33.337
X100.33Y-33.337
X56.832Y-90.487
X66.992Y-90.487
X118.745Y-109.537
X128.905Y-109.537
X147.32Y-33.337
X157.48Y-33.337
X85.407Y-71.438
X95.567Y-71.438
X113.983Y-90.487
X124.142Y-90.487
X118.745Y-52.387
X128.905Y-52.387
X154.464Y-71.438
X164.624Y-71.438
X23.495Y-52.387
X33.655Y-52.387
X47.307Y-71.438
X57.467Y-71.438
X80.645Y-52.387
X90.805Y-52.387
X99.695Y-52.387
X109.855Y-52.387
X59.214Y-109.537
X69.374Y-109.537
X161.607Y-52.387
X171.767Y-52.387
T3
X42.862Y-117.062
X95.25Y-61.912
X114.3Y-117.062
X178.975Y-80.962
X161.925Y-25.812
X47.625Y-25.812
X35.337Y-80.962
T4
X147.606Y-78.422
X171.482Y-78.422
X52.356Y-116.522
X76.232Y-116.522
T5
X133.35Y-33.337
X71.438Y-71.438
X38.1Y-33.337
X33.337Y-71.438
X66.675Y-52.387
X100.012Y-90.487
X171.45Y-90.487
X128.588Y-71.438
X33.337Y-109.537
X171.45Y-33.337
X57.15Y-33.337
X142.875Y-52.387
X95.25Y-33.337
X61.912Y-90.487
X123.825Y-109.537
X152.4Y-33.337
X90.487Y-71.438
X119.062Y-90.487
X123.825Y-52.387
X147.606Y-63.182
X159.544Y-71.438
X171.482Y-63.182
X28.575Y-52.387
X52.387Y-71.438
X85.725Y-52.387
X104.775Y-52.387
X52.356Y-101.282
X64.294Y-109.537
X76.232Y-101.282
X166.688Y-52.387
X114.3Y-33.337
X80.962Y-90.487
X109.537Y-71.438
X145.256Y-90.487
X76.2Y-33.337
X42.862Y-90.487
X47.625Y-52.387
X100.012Y-109.537
T0
M30
