M48
; DRILL file {KiCad (5.1.5-0-10_14)} date 2020 July 25, Saturday 11:43:05
; FORMAT={-:-/ absolute / metric / decimal}
; #@! TF.CreationDate,2020-07-25T11:43:05+09:00
; #@! TF.GenerationSoftware,Kicad,Pcbnew,(5.1.5-0-10_14)
; #@! TF.FileFunction,Plated,1,2,PTH
FMAT,2
METRIC
T1C0.400
T2C0.813
T3C1.000
T4C1.300
T5C1.470
%
G90
G05
T1
X49.925Y-73.962
X50.062Y-42.062
X50.725Y-76.263
X51.725Y-38.663
X53.725Y-35.862
X58.725Y-95.662
X59.825Y-93.162
X60.125Y-57.362
X61.325Y-55.062
X66.362Y-36.163
X69.825Y-74.062
X70.625Y-38.762
X70.725Y-76.162
X72.825Y-36.163
X79.225Y-93.263
X80.125Y-95.362
X81.325Y-57.162
X82.925Y-55.162
X88.625Y-74.162
X89.625Y-76.362
X91.525Y-38.262
X92.225Y-35.962
X98.525Y-93.263
X99.725Y-95.462
X100.325Y-57.262
X102.125Y-55.062
X107.625Y-74.062
X108.425Y-76.263
X110.425Y-38.262
X111.425Y-36.062
X120.525Y-57.162
X121.225Y-55.162
X126.625Y-74.062
X127.662Y-101.462
X127.725Y-76.162
X129.525Y-38.262
X130.825Y-36.262
X134.362Y-57.762
X136.762Y-58.762
X137.225Y-47.962
X137.725Y-45.062
X138.362Y-85.062
X140.362Y-79.462
X143.963Y-74.688
X145.262Y-74.688
X146.262Y-51.062
X147.762Y-48.462
X148.325Y-38.062
X149.625Y-36.163
X153.963Y-48.162
X154.562Y-50.362
X155.162Y-79.562
X155.862Y-51.362
X156.062Y-48.362
X156.262Y-35.962
X159.362Y-48.362
X159.75Y-76.787
X162.35Y-74.287
X165.925Y-41.262
X166.662Y-63.062
X167.162Y-56.862
X168.95Y-82.987
T2
X115.825Y-48.578
X115.825Y-56.197
X103.25Y-29.527
X103.25Y-37.148
X98.487Y-67.627
X98.487Y-75.248
X160.4Y-29.527
X160.4Y-37.148
X74.675Y-48.578
X74.675Y-56.197
X55.625Y-48.578
X55.625Y-56.197
X41.337Y-105.727
X41.337Y-113.347
X153.256Y-86.677
X153.256Y-94.297
X84.2Y-29.527
X84.2Y-37.148
X72.294Y-105.727
X72.294Y-113.347
X122.3Y-29.527
X122.3Y-37.148
X93.725Y-48.578
X93.725Y-56.197
X88.962Y-86.677
X88.962Y-94.297
X136.588Y-67.627
X136.588Y-75.248
X108.012Y-86.677
X108.012Y-94.297
X36.575Y-48.527
X36.575Y-56.148
X69.912Y-86.677
X69.912Y-94.297
X115.825Y-105.727
X115.825Y-113.347
X131.825Y-48.578
X131.825Y-56.197
X163.45Y-86.677
X163.45Y-94.297
X141.35Y-29.527
X141.35Y-37.148
X134.825Y-48.578
X134.825Y-56.197
X46.0Y-29.527
X46.0Y-37.148
X127.062Y-86.677
X127.062Y-94.297
X49.15Y-29.527
X49.15Y-37.148
X60.387Y-67.627
X60.387Y-75.248
X50.862Y-86.677
X50.862Y-94.297
X163.45Y-29.527
X163.45Y-37.148
X108.012Y-105.727
X108.012Y-113.347
X167.544Y-67.627
X167.544Y-75.248
X41.337Y-67.627
X41.337Y-75.248
X149.225Y-44.731
X149.225Y-59.951
X151.766Y-44.731
X151.766Y-59.951
X154.305Y-44.731
X154.305Y-59.951
X156.845Y-44.731
X156.845Y-59.951
X159.385Y-44.731
X159.385Y-59.951
X161.925Y-44.731
X161.925Y-59.951
X164.465Y-44.731
X164.465Y-59.951
X167.005Y-44.731
X167.005Y-59.951
X169.546Y-44.731
X169.546Y-59.951
X172.085Y-44.731
X172.085Y-59.951
X174.625Y-44.731
X174.625Y-59.951
X177.165Y-44.731
X177.165Y-59.951
X112.775Y-48.578
X112.775Y-56.197
X117.537Y-67.627
X117.537Y-75.248
X79.438Y-67.627
X79.438Y-75.248
T4
X178.544Y-68.188
X178.544Y-74.688
T5
X29.527Y-106.997
X30.837Y-105.537
X35.837Y-105.037
X35.877Y-104.457
X167.64Y-30.797
X168.95Y-29.337
X173.95Y-28.837
X173.99Y-28.258
X53.34Y-30.797
X54.65Y-29.337
X59.65Y-28.837
X59.69Y-28.258
X139.065Y-49.847
X140.375Y-48.387
X145.375Y-47.887
X145.415Y-47.307
X91.44Y-30.797
X92.75Y-29.337
X97.75Y-28.837
X97.79Y-28.258
X58.102Y-87.947
X59.412Y-86.487
X64.412Y-85.987
X64.453Y-85.407
X120.015Y-106.997
X121.325Y-105.537
X126.325Y-105.037
X126.365Y-104.457
X148.59Y-30.797
X149.9Y-29.337
X154.9Y-28.837
X154.94Y-28.258
X86.677Y-68.897
X87.987Y-67.438
X92.987Y-66.938
X93.027Y-66.358
X115.252Y-87.947
X116.562Y-86.487
X121.562Y-85.987
X121.602Y-85.407
X120.015Y-49.847
X121.325Y-48.387
X126.325Y-47.887
X126.365Y-47.307
X155.734Y-68.897
X157.044Y-67.438
X162.044Y-66.938
X162.084Y-66.358
X24.765Y-49.847
X26.075Y-48.387
X31.075Y-47.887
X31.115Y-47.307
X48.578Y-68.897
X49.887Y-67.438
X54.887Y-66.938
X54.927Y-66.358
X81.915Y-49.847
X83.225Y-48.387
X88.225Y-47.887
X88.265Y-47.307
X100.965Y-49.847
X102.275Y-48.387
X107.275Y-47.887
X107.315Y-47.307
X60.484Y-106.997
X61.794Y-105.537
X66.794Y-105.037
X66.834Y-104.457
X162.877Y-49.847
X164.188Y-48.387
X169.188Y-47.887
X169.227Y-47.307
X110.49Y-30.797
X111.8Y-29.337
X116.8Y-28.837
X116.84Y-28.258
X77.153Y-87.947
X78.462Y-86.487
X83.462Y-85.987
X83.502Y-85.407
X105.727Y-68.897
X107.037Y-67.438
X112.037Y-66.938
X112.078Y-66.358
X141.446Y-87.947
X142.756Y-86.487
X147.756Y-85.987
X147.796Y-85.407
X72.39Y-30.797
X73.7Y-29.337
X78.7Y-28.837
X78.74Y-28.258
X39.052Y-87.947
X40.362Y-86.487
X45.362Y-85.987
X45.402Y-85.407
X43.815Y-49.847
X45.125Y-48.387
X50.125Y-47.887
X50.165Y-47.307
X96.203Y-106.997
X97.512Y-105.537
X102.512Y-105.037
X102.552Y-104.457
X129.54Y-30.797
X130.85Y-29.337
X135.85Y-28.837
X135.89Y-28.258
X67.627Y-68.897
X68.938Y-67.438
X73.938Y-66.938
X73.977Y-66.358
X34.29Y-30.797
X35.6Y-29.337
X40.6Y-28.837
X40.64Y-28.258
X29.527Y-68.897
X30.837Y-67.438
X35.837Y-66.938
X35.877Y-66.358
X62.865Y-49.847
X64.175Y-48.387
X69.175Y-47.887
X69.215Y-47.307
X96.203Y-87.947
X97.512Y-86.487
X102.512Y-85.987
X102.552Y-85.407
X167.64Y-87.947
X168.95Y-86.487
X173.95Y-85.987
X173.99Y-85.407
X124.777Y-68.897
X126.087Y-67.438
X131.088Y-66.938
X131.127Y-66.358
T3
G00X64.575Y-27.362
M15
G01X64.575Y-26.862
M16
G05
G00X64.575Y-30.362
M15
G01X64.575Y-29.862
M16
G05
G00X64.575Y-34.362
M15
G01X64.575Y-33.862
M16
G05
G00X68.775Y-35.862
M15
G01X68.775Y-35.362
M16
G05
T0
M30
