G04 #@! TF.GenerationSoftware,KiCad,Pcbnew,(5.1.5-0-10_14)*
G04 #@! TF.CreationDate,2020-08-12T23:14:55+09:00*
G04 #@! TF.ProjectId,iroha60-right,69726f68-6136-4302-9d72-696768742e6b,rev?*
G04 #@! TF.SameCoordinates,Original*
G04 #@! TF.FileFunction,Legend,Top*
G04 #@! TF.FilePolarity,Positive*
%FSLAX46Y46*%
G04 Gerber Fmt 4.6, Leading zero omitted, Abs format (unit mm)*
G04 Created by KiCad (PCBNEW (5.1.5-0-10_14)) date 2020-08-12 23:14:55*
%MOMM*%
%LPD*%
G04 APERTURE LIST*
%ADD10C,0.300000*%
%ADD11C,0.010000*%
%ADD12C,0.150000*%
G04 APERTURE END LIST*
D10*
X83182142Y-115441071D02*
X83182142Y-114441071D01*
X83182142Y-113941071D02*
X83110714Y-114012500D01*
X83182142Y-114083928D01*
X83253571Y-114012500D01*
X83182142Y-113941071D01*
X83182142Y-114083928D01*
X83896428Y-115441071D02*
X83896428Y-114441071D01*
X83896428Y-114726785D02*
X83967857Y-114583928D01*
X84039285Y-114512500D01*
X84182142Y-114441071D01*
X84325000Y-114441071D01*
X85039285Y-115441071D02*
X84896428Y-115369642D01*
X84825000Y-115298214D01*
X84753571Y-115155357D01*
X84753571Y-114726785D01*
X84825000Y-114583928D01*
X84896428Y-114512500D01*
X85039285Y-114441071D01*
X85253571Y-114441071D01*
X85396428Y-114512500D01*
X85467857Y-114583928D01*
X85539285Y-114726785D01*
X85539285Y-115155357D01*
X85467857Y-115298214D01*
X85396428Y-115369642D01*
X85253571Y-115441071D01*
X85039285Y-115441071D01*
X86182142Y-115441071D02*
X86182142Y-113941071D01*
X86825000Y-115441071D02*
X86825000Y-114655357D01*
X86753571Y-114512500D01*
X86610714Y-114441071D01*
X86396428Y-114441071D01*
X86253571Y-114512500D01*
X86182142Y-114583928D01*
X88182142Y-115441071D02*
X88182142Y-114655357D01*
X88110714Y-114512500D01*
X87967857Y-114441071D01*
X87682142Y-114441071D01*
X87539285Y-114512500D01*
X88182142Y-115369642D02*
X88039285Y-115441071D01*
X87682142Y-115441071D01*
X87539285Y-115369642D01*
X87467857Y-115226785D01*
X87467857Y-115083928D01*
X87539285Y-114941071D01*
X87682142Y-114869642D01*
X88039285Y-114869642D01*
X88182142Y-114798214D01*
X89539285Y-113941071D02*
X89253571Y-113941071D01*
X89110714Y-114012500D01*
X89039285Y-114083928D01*
X88896428Y-114298214D01*
X88825000Y-114583928D01*
X88825000Y-115155357D01*
X88896428Y-115298214D01*
X88967857Y-115369642D01*
X89110714Y-115441071D01*
X89396428Y-115441071D01*
X89539285Y-115369642D01*
X89610714Y-115298214D01*
X89682142Y-115155357D01*
X89682142Y-114798214D01*
X89610714Y-114655357D01*
X89539285Y-114583928D01*
X89396428Y-114512500D01*
X89110714Y-114512500D01*
X88967857Y-114583928D01*
X88896428Y-114655357D01*
X88825000Y-114798214D01*
X90610714Y-113941071D02*
X90753571Y-113941071D01*
X90896428Y-114012500D01*
X90967857Y-114083928D01*
X91039285Y-114226785D01*
X91110714Y-114512500D01*
X91110714Y-114869642D01*
X91039285Y-115155357D01*
X90967857Y-115298214D01*
X90896428Y-115369642D01*
X90753571Y-115441071D01*
X90610714Y-115441071D01*
X90467857Y-115369642D01*
X90396428Y-115298214D01*
X90325000Y-115155357D01*
X90253571Y-114869642D01*
X90253571Y-114512500D01*
X90325000Y-114226785D01*
X90396428Y-114083928D01*
X90467857Y-114012500D01*
X90610714Y-113941071D01*
X92896428Y-115441071D02*
X92896428Y-114441071D01*
X92896428Y-114726785D02*
X92967857Y-114583928D01*
X93039285Y-114512500D01*
X93182142Y-114441071D01*
X93325000Y-114441071D01*
X94396428Y-115369642D02*
X94253571Y-115441071D01*
X93967857Y-115441071D01*
X93825000Y-115369642D01*
X93753571Y-115226785D01*
X93753571Y-114655357D01*
X93825000Y-114512500D01*
X93967857Y-114441071D01*
X94253571Y-114441071D01*
X94396428Y-114512500D01*
X94467857Y-114655357D01*
X94467857Y-114798214D01*
X93753571Y-114941071D01*
X94967857Y-114441071D02*
X95325000Y-115441071D01*
X95682142Y-114441071D01*
X96253571Y-115298214D02*
X96325000Y-115369642D01*
X96253571Y-115441071D01*
X96182142Y-115369642D01*
X96253571Y-115298214D01*
X96253571Y-115441071D01*
X97753571Y-115441071D02*
X96896428Y-115441071D01*
X97325000Y-115441071D02*
X97325000Y-113941071D01*
X97182142Y-114155357D01*
X97039285Y-114298214D01*
X96896428Y-114369642D01*
X99467857Y-114083928D02*
X99539285Y-114012500D01*
X99682142Y-113941071D01*
X100039285Y-113941071D01*
X100182142Y-114012500D01*
X100253571Y-114083928D01*
X100325000Y-114226785D01*
X100325000Y-114369642D01*
X100253571Y-114583928D01*
X99396428Y-115441071D01*
X100325000Y-115441071D01*
X101253571Y-113941071D02*
X101396428Y-113941071D01*
X101539285Y-114012500D01*
X101610714Y-114083928D01*
X101682142Y-114226785D01*
X101753571Y-114512500D01*
X101753571Y-114869642D01*
X101682142Y-115155357D01*
X101610714Y-115298214D01*
X101539285Y-115369642D01*
X101396428Y-115441071D01*
X101253571Y-115441071D01*
X101110714Y-115369642D01*
X101039285Y-115298214D01*
X100967857Y-115155357D01*
X100896428Y-114869642D01*
X100896428Y-114512500D01*
X100967857Y-114226785D01*
X101039285Y-114083928D01*
X101110714Y-114012500D01*
X101253571Y-113941071D01*
X102325000Y-114083928D02*
X102396428Y-114012500D01*
X102539285Y-113941071D01*
X102896428Y-113941071D01*
X103039285Y-114012500D01*
X103110714Y-114083928D01*
X103182142Y-114226785D01*
X103182142Y-114369642D01*
X103110714Y-114583928D01*
X102253571Y-115441071D01*
X103182142Y-115441071D01*
X104110714Y-113941071D02*
X104253571Y-113941071D01*
X104396428Y-114012500D01*
X104467857Y-114083928D01*
X104539285Y-114226785D01*
X104610714Y-114512500D01*
X104610714Y-114869642D01*
X104539285Y-115155357D01*
X104467857Y-115298214D01*
X104396428Y-115369642D01*
X104253571Y-115441071D01*
X104110714Y-115441071D01*
X103967857Y-115369642D01*
X103896428Y-115298214D01*
X103825000Y-115155357D01*
X103753571Y-114869642D01*
X103753571Y-114512500D01*
X103825000Y-114226785D01*
X103896428Y-114083928D01*
X103967857Y-114012500D01*
X104110714Y-113941071D01*
X105253571Y-114869642D02*
X106396428Y-114869642D01*
X107396428Y-113941071D02*
X107539285Y-113941071D01*
X107682142Y-114012500D01*
X107753571Y-114083928D01*
X107825000Y-114226785D01*
X107896428Y-114512500D01*
X107896428Y-114869642D01*
X107825000Y-115155357D01*
X107753571Y-115298214D01*
X107682142Y-115369642D01*
X107539285Y-115441071D01*
X107396428Y-115441071D01*
X107253571Y-115369642D01*
X107182142Y-115298214D01*
X107110714Y-115155357D01*
X107039285Y-114869642D01*
X107039285Y-114512500D01*
X107110714Y-114226785D01*
X107182142Y-114083928D01*
X107253571Y-114012500D01*
X107396428Y-113941071D01*
X108753571Y-114583928D02*
X108610714Y-114512500D01*
X108539285Y-114441071D01*
X108467857Y-114298214D01*
X108467857Y-114226785D01*
X108539285Y-114083928D01*
X108610714Y-114012500D01*
X108753571Y-113941071D01*
X109039285Y-113941071D01*
X109182142Y-114012500D01*
X109253571Y-114083928D01*
X109325000Y-114226785D01*
X109325000Y-114298214D01*
X109253571Y-114441071D01*
X109182142Y-114512500D01*
X109039285Y-114583928D01*
X108753571Y-114583928D01*
X108610714Y-114655357D01*
X108539285Y-114726785D01*
X108467857Y-114869642D01*
X108467857Y-115155357D01*
X108539285Y-115298214D01*
X108610714Y-115369642D01*
X108753571Y-115441071D01*
X109039285Y-115441071D01*
X109182142Y-115369642D01*
X109253571Y-115298214D01*
X109325000Y-115155357D01*
X109325000Y-114869642D01*
X109253571Y-114726785D01*
X109182142Y-114655357D01*
X109039285Y-114583928D01*
X109967857Y-114869642D02*
X111110714Y-114869642D01*
X112610714Y-115441071D02*
X111753571Y-115441071D01*
X112182142Y-115441071D02*
X112182142Y-113941071D01*
X112039285Y-114155357D01*
X111896428Y-114298214D01*
X111753571Y-114369642D01*
X113182142Y-114083928D02*
X113253571Y-114012500D01*
X113396428Y-113941071D01*
X113753571Y-113941071D01*
X113896428Y-114012500D01*
X113967857Y-114083928D01*
X114039285Y-114226785D01*
X114039285Y-114369642D01*
X113967857Y-114583928D01*
X113110714Y-115441071D01*
X114039285Y-115441071D01*
X86682142Y-117991071D02*
X86682142Y-116491071D01*
X87039285Y-116491071D01*
X87253571Y-116562500D01*
X87396428Y-116705357D01*
X87467857Y-116848214D01*
X87539285Y-117133928D01*
X87539285Y-117348214D01*
X87467857Y-117633928D01*
X87396428Y-117776785D01*
X87253571Y-117919642D01*
X87039285Y-117991071D01*
X86682142Y-117991071D01*
X88753571Y-117919642D02*
X88610714Y-117991071D01*
X88325000Y-117991071D01*
X88182142Y-117919642D01*
X88110714Y-117776785D01*
X88110714Y-117205357D01*
X88182142Y-117062500D01*
X88325000Y-116991071D01*
X88610714Y-116991071D01*
X88753571Y-117062500D01*
X88825000Y-117205357D01*
X88825000Y-117348214D01*
X88110714Y-117491071D01*
X89396428Y-117919642D02*
X89539285Y-117991071D01*
X89825000Y-117991071D01*
X89967857Y-117919642D01*
X90039285Y-117776785D01*
X90039285Y-117705357D01*
X89967857Y-117562500D01*
X89825000Y-117491071D01*
X89610714Y-117491071D01*
X89467857Y-117419642D01*
X89396428Y-117276785D01*
X89396428Y-117205357D01*
X89467857Y-117062500D01*
X89610714Y-116991071D01*
X89825000Y-116991071D01*
X89967857Y-117062500D01*
X90682142Y-117991071D02*
X90682142Y-116991071D01*
X90682142Y-116491071D02*
X90610714Y-116562500D01*
X90682142Y-116633928D01*
X90753571Y-116562500D01*
X90682142Y-116491071D01*
X90682142Y-116633928D01*
X92039285Y-116991071D02*
X92039285Y-118205357D01*
X91967857Y-118348214D01*
X91896428Y-118419642D01*
X91753571Y-118491071D01*
X91539285Y-118491071D01*
X91396428Y-118419642D01*
X92039285Y-117919642D02*
X91896428Y-117991071D01*
X91610714Y-117991071D01*
X91467857Y-117919642D01*
X91396428Y-117848214D01*
X91325000Y-117705357D01*
X91325000Y-117276785D01*
X91396428Y-117133928D01*
X91467857Y-117062500D01*
X91610714Y-116991071D01*
X91896428Y-116991071D01*
X92039285Y-117062500D01*
X92753571Y-116991071D02*
X92753571Y-117991071D01*
X92753571Y-117133928D02*
X92825000Y-117062500D01*
X92967857Y-116991071D01*
X93182142Y-116991071D01*
X93325000Y-117062500D01*
X93396428Y-117205357D01*
X93396428Y-117991071D01*
X94682142Y-117919642D02*
X94539285Y-117991071D01*
X94253571Y-117991071D01*
X94110714Y-117919642D01*
X94039285Y-117776785D01*
X94039285Y-117205357D01*
X94110714Y-117062500D01*
X94253571Y-116991071D01*
X94539285Y-116991071D01*
X94682142Y-117062500D01*
X94753571Y-117205357D01*
X94753571Y-117348214D01*
X94039285Y-117491071D01*
X96039285Y-117991071D02*
X96039285Y-116491071D01*
X96039285Y-117919642D02*
X95896428Y-117991071D01*
X95610714Y-117991071D01*
X95467857Y-117919642D01*
X95396428Y-117848214D01*
X95325000Y-117705357D01*
X95325000Y-117276785D01*
X95396428Y-117133928D01*
X95467857Y-117062500D01*
X95610714Y-116991071D01*
X95896428Y-116991071D01*
X96039285Y-117062500D01*
X97896428Y-117991071D02*
X97896428Y-116491071D01*
X97896428Y-117062500D02*
X98039285Y-116991071D01*
X98325000Y-116991071D01*
X98467857Y-117062500D01*
X98539285Y-117133928D01*
X98610714Y-117276785D01*
X98610714Y-117705357D01*
X98539285Y-117848214D01*
X98467857Y-117919642D01*
X98325000Y-117991071D01*
X98039285Y-117991071D01*
X97896428Y-117919642D01*
X99110714Y-116991071D02*
X99467857Y-117991071D01*
X99825000Y-116991071D02*
X99467857Y-117991071D01*
X99325000Y-118348214D01*
X99253571Y-118419642D01*
X99110714Y-118491071D01*
X101539285Y-117991071D02*
X101539285Y-116491071D01*
X101682142Y-117419642D02*
X102110714Y-117991071D01*
X102110714Y-116991071D02*
X101539285Y-117562500D01*
X102753571Y-117991071D02*
X102753571Y-116991071D01*
X102753571Y-116491071D02*
X102682142Y-116562500D01*
X102753571Y-116633928D01*
X102825000Y-116562500D01*
X102753571Y-116491071D01*
X102753571Y-116633928D01*
X103467857Y-117991071D02*
X103467857Y-116991071D01*
X103467857Y-117276785D02*
X103539285Y-117133928D01*
X103610714Y-117062500D01*
X103753571Y-116991071D01*
X103896428Y-116991071D01*
X104610714Y-117991071D02*
X104467857Y-117919642D01*
X104396428Y-117848214D01*
X104325000Y-117705357D01*
X104325000Y-117276785D01*
X104396428Y-117133928D01*
X104467857Y-117062500D01*
X104610714Y-116991071D01*
X104825000Y-116991071D01*
X104967857Y-117062500D01*
X105039285Y-117133928D01*
X105110714Y-117276785D01*
X105110714Y-117705357D01*
X105039285Y-117848214D01*
X104967857Y-117919642D01*
X104825000Y-117991071D01*
X104610714Y-117991071D01*
X105753571Y-116991071D02*
X105753571Y-117991071D01*
X105753571Y-117133928D02*
X105825000Y-117062500D01*
X105967857Y-116991071D01*
X106182142Y-116991071D01*
X106325000Y-117062500D01*
X106396428Y-117205357D01*
X106396428Y-117991071D01*
X107325000Y-117991071D02*
X107182142Y-117919642D01*
X107110714Y-117848214D01*
X107039285Y-117705357D01*
X107039285Y-117276785D01*
X107110714Y-117133928D01*
X107182142Y-117062500D01*
X107325000Y-116991071D01*
X107539285Y-116991071D01*
X107682142Y-117062500D01*
X107753571Y-117133928D01*
X107825000Y-117276785D01*
X107825000Y-117705357D01*
X107753571Y-117848214D01*
X107682142Y-117919642D01*
X107539285Y-117991071D01*
X107325000Y-117991071D01*
X108467857Y-116991071D02*
X108467857Y-117991071D01*
X108467857Y-117133928D02*
X108539285Y-117062500D01*
X108682142Y-116991071D01*
X108896428Y-116991071D01*
X109039285Y-117062500D01*
X109110714Y-117205357D01*
X109110714Y-117991071D01*
X110039285Y-117991071D02*
X109896428Y-117919642D01*
X109825000Y-117848214D01*
X109753571Y-117705357D01*
X109753571Y-117276785D01*
X109825000Y-117133928D01*
X109896428Y-117062500D01*
X110039285Y-116991071D01*
X110253571Y-116991071D01*
X110396428Y-117062500D01*
X110467857Y-117133928D01*
X110539285Y-117276785D01*
X110539285Y-117705357D01*
X110467857Y-117848214D01*
X110396428Y-117919642D01*
X110253571Y-117991071D01*
X110039285Y-117991071D01*
D11*
G36*
X139031334Y-105909834D02*
G01*
X138269334Y-105909834D01*
X138269334Y-104893834D01*
X139031334Y-104893834D01*
X139031334Y-105909834D01*
G37*
X139031334Y-105909834D02*
X138269334Y-105909834D01*
X138269334Y-104893834D01*
X139031334Y-104893834D01*
X139031334Y-105909834D01*
G36*
X173621342Y-104937444D02*
G01*
X173996319Y-104944024D01*
X174267228Y-104960023D01*
X174466701Y-104989563D01*
X174627369Y-105036763D01*
X174781861Y-105105741D01*
X174887667Y-105160619D01*
X175293982Y-105422453D01*
X175614761Y-105741730D01*
X175857464Y-106137387D01*
X176029548Y-106628357D01*
X176138474Y-107233576D01*
X176191698Y-107971979D01*
X176200000Y-108492167D01*
X176176801Y-109321301D01*
X176102270Y-110005677D01*
X175969007Y-110564073D01*
X175769610Y-111015266D01*
X175496679Y-111378034D01*
X175142813Y-111671154D01*
X174887667Y-111821879D01*
X174708874Y-111910055D01*
X174540391Y-111972090D01*
X174346530Y-112013211D01*
X174091605Y-112038644D01*
X173739930Y-112053615D01*
X173255818Y-112063349D01*
X173236667Y-112063650D01*
X172774557Y-112065083D01*
X172352464Y-112055816D01*
X172009338Y-112037455D01*
X171784129Y-112011605D01*
X171743546Y-112002081D01*
X171228124Y-111762196D01*
X170776470Y-111391215D01*
X170432469Y-110926204D01*
X170402238Y-110869245D01*
X170314945Y-110694503D01*
X170249776Y-110541660D01*
X170203018Y-110382173D01*
X170170959Y-110187502D01*
X170149886Y-109929105D01*
X170136088Y-109578438D01*
X170125852Y-109106962D01*
X170118825Y-108690226D01*
X170115966Y-108356225D01*
X170905613Y-108356225D01*
X170908534Y-108864274D01*
X170923962Y-109343285D01*
X170951896Y-109753676D01*
X170992335Y-110055867D01*
X171018987Y-110159043D01*
X171259638Y-110625615D01*
X171610022Y-110966606D01*
X172077902Y-111188418D01*
X172347667Y-111254654D01*
X172723017Y-111293727D01*
X173167548Y-111293301D01*
X173625545Y-111258182D01*
X174041289Y-111193175D01*
X174359066Y-111103088D01*
X174419108Y-111075975D01*
X174706065Y-110903211D01*
X174926434Y-110698886D01*
X175088254Y-110439710D01*
X175199565Y-110102395D01*
X175268406Y-109663650D01*
X175302815Y-109100186D01*
X175311000Y-108492167D01*
X175300408Y-107805357D01*
X175263019Y-107263034D01*
X175190418Y-106841353D01*
X175074186Y-106516469D01*
X174905906Y-106264536D01*
X174677161Y-106061708D01*
X174392830Y-105891038D01*
X174205664Y-105806615D01*
X174004908Y-105752297D01*
X173747340Y-105721908D01*
X173389736Y-105709268D01*
X173109667Y-105707634D01*
X172671436Y-105712600D01*
X172359132Y-105731614D01*
X172129534Y-105770856D01*
X171939417Y-105836502D01*
X171826503Y-105891038D01*
X171414793Y-106181373D01*
X171128884Y-106569542D01*
X171018987Y-106825290D01*
X170971884Y-107053672D01*
X170937288Y-107411343D01*
X170915197Y-107858721D01*
X170905613Y-108356225D01*
X170115966Y-108356225D01*
X170112760Y-107981862D01*
X170123293Y-107416071D01*
X170154725Y-106966540D01*
X170211360Y-106606957D01*
X170297500Y-106311009D01*
X170417450Y-106052382D01*
X170575510Y-105804763D01*
X170595144Y-105777432D01*
X170809374Y-105547251D01*
X171100152Y-105313942D01*
X171295862Y-105190167D01*
X171472099Y-105095210D01*
X171624659Y-105027470D01*
X171786364Y-104982352D01*
X171990037Y-104955259D01*
X172268499Y-104941595D01*
X172654574Y-104936763D01*
X173109667Y-104936167D01*
X173621342Y-104937444D01*
G37*
X173621342Y-104937444D02*
X173996319Y-104944024D01*
X174267228Y-104960023D01*
X174466701Y-104989563D01*
X174627369Y-105036763D01*
X174781861Y-105105741D01*
X174887667Y-105160619D01*
X175293982Y-105422453D01*
X175614761Y-105741730D01*
X175857464Y-106137387D01*
X176029548Y-106628357D01*
X176138474Y-107233576D01*
X176191698Y-107971979D01*
X176200000Y-108492167D01*
X176176801Y-109321301D01*
X176102270Y-110005677D01*
X175969007Y-110564073D01*
X175769610Y-111015266D01*
X175496679Y-111378034D01*
X175142813Y-111671154D01*
X174887667Y-111821879D01*
X174708874Y-111910055D01*
X174540391Y-111972090D01*
X174346530Y-112013211D01*
X174091605Y-112038644D01*
X173739930Y-112053615D01*
X173255818Y-112063349D01*
X173236667Y-112063650D01*
X172774557Y-112065083D01*
X172352464Y-112055816D01*
X172009338Y-112037455D01*
X171784129Y-112011605D01*
X171743546Y-112002081D01*
X171228124Y-111762196D01*
X170776470Y-111391215D01*
X170432469Y-110926204D01*
X170402238Y-110869245D01*
X170314945Y-110694503D01*
X170249776Y-110541660D01*
X170203018Y-110382173D01*
X170170959Y-110187502D01*
X170149886Y-109929105D01*
X170136088Y-109578438D01*
X170125852Y-109106962D01*
X170118825Y-108690226D01*
X170115966Y-108356225D01*
X170905613Y-108356225D01*
X170908534Y-108864274D01*
X170923962Y-109343285D01*
X170951896Y-109753676D01*
X170992335Y-110055867D01*
X171018987Y-110159043D01*
X171259638Y-110625615D01*
X171610022Y-110966606D01*
X172077902Y-111188418D01*
X172347667Y-111254654D01*
X172723017Y-111293727D01*
X173167548Y-111293301D01*
X173625545Y-111258182D01*
X174041289Y-111193175D01*
X174359066Y-111103088D01*
X174419108Y-111075975D01*
X174706065Y-110903211D01*
X174926434Y-110698886D01*
X175088254Y-110439710D01*
X175199565Y-110102395D01*
X175268406Y-109663650D01*
X175302815Y-109100186D01*
X175311000Y-108492167D01*
X175300408Y-107805357D01*
X175263019Y-107263034D01*
X175190418Y-106841353D01*
X175074186Y-106516469D01*
X174905906Y-106264536D01*
X174677161Y-106061708D01*
X174392830Y-105891038D01*
X174205664Y-105806615D01*
X174004908Y-105752297D01*
X173747340Y-105721908D01*
X173389736Y-105709268D01*
X173109667Y-105707634D01*
X172671436Y-105712600D01*
X172359132Y-105731614D01*
X172129534Y-105770856D01*
X171939417Y-105836502D01*
X171826503Y-105891038D01*
X171414793Y-106181373D01*
X171128884Y-106569542D01*
X171018987Y-106825290D01*
X170971884Y-107053672D01*
X170937288Y-107411343D01*
X170915197Y-107858721D01*
X170905613Y-108356225D01*
X170115966Y-108356225D01*
X170112760Y-107981862D01*
X170123293Y-107416071D01*
X170154725Y-106966540D01*
X170211360Y-106606957D01*
X170297500Y-106311009D01*
X170417450Y-106052382D01*
X170575510Y-105804763D01*
X170595144Y-105777432D01*
X170809374Y-105547251D01*
X171100152Y-105313942D01*
X171295862Y-105190167D01*
X171472099Y-105095210D01*
X171624659Y-105027470D01*
X171786364Y-104982352D01*
X171990037Y-104955259D01*
X172268499Y-104941595D01*
X172654574Y-104936763D01*
X173109667Y-104936167D01*
X173621342Y-104937444D01*
G36*
X168072000Y-105634504D02*
G01*
X166610929Y-105670690D01*
X165967718Y-105693126D01*
X165468673Y-105729283D01*
X165088758Y-105786195D01*
X164802938Y-105870898D01*
X164586176Y-105990427D01*
X164413437Y-106151818D01*
X164284284Y-106324521D01*
X164222220Y-106424420D01*
X164175233Y-106528966D01*
X164141229Y-106662071D01*
X164118115Y-106847652D01*
X164103796Y-107109621D01*
X164096179Y-107471893D01*
X164093168Y-107958382D01*
X164092667Y-108512791D01*
X164094534Y-109190488D01*
X164103949Y-109720752D01*
X164126634Y-110125475D01*
X164168309Y-110426545D01*
X164234695Y-110645855D01*
X164331513Y-110805295D01*
X164464484Y-110926755D01*
X164639330Y-111032126D01*
X164768151Y-111097439D01*
X164944014Y-111175401D01*
X165123326Y-111228463D01*
X165343239Y-111261158D01*
X165640902Y-111278018D01*
X166053465Y-111283575D01*
X166294000Y-111283579D01*
X166782499Y-111278843D01*
X167137224Y-111264441D01*
X167393642Y-111236305D01*
X167587221Y-111190367D01*
X167753428Y-111122559D01*
X167770203Y-111114271D01*
X168088383Y-110918420D01*
X168293617Y-110686806D01*
X168406240Y-110380613D01*
X168446585Y-109961025D01*
X168447715Y-109820950D01*
X168427245Y-109381429D01*
X168358278Y-109037861D01*
X168222552Y-108777733D01*
X168001805Y-108588532D01*
X167677776Y-108457744D01*
X167232203Y-108372855D01*
X166646824Y-108321352D01*
X166230500Y-108301635D01*
X165024000Y-108255629D01*
X165024000Y-107501426D01*
X166442167Y-107531130D01*
X166966615Y-107543245D01*
X167354673Y-107557536D01*
X167639260Y-107578853D01*
X167853299Y-107612044D01*
X168029710Y-107661959D01*
X168201414Y-107733446D01*
X168368334Y-107814834D01*
X168748078Y-108055540D01*
X169017891Y-108357137D01*
X169194696Y-108749370D01*
X169295415Y-109261981D01*
X169316250Y-109480962D01*
X169314482Y-110203758D01*
X169191700Y-110809977D01*
X168948416Y-111298660D01*
X168585145Y-111668844D01*
X168102401Y-111919570D01*
X167993133Y-111954832D01*
X167645075Y-112024364D01*
X167180906Y-112070722D01*
X166644670Y-112094224D01*
X166080412Y-112095189D01*
X165532175Y-112073933D01*
X165044003Y-112030775D01*
X164659939Y-111966032D01*
X164532599Y-111929867D01*
X164014243Y-111671600D01*
X163619052Y-111298659D01*
X163406517Y-110947500D01*
X163356198Y-110822364D01*
X163317747Y-110676553D01*
X163289581Y-110486558D01*
X163270122Y-110228870D01*
X163257789Y-109879982D01*
X163251003Y-109416384D01*
X163248184Y-108814569D01*
X163247860Y-108586656D01*
X163249602Y-107859847D01*
X163258991Y-107279796D01*
X163280040Y-106823965D01*
X163316760Y-106469819D01*
X163373164Y-106194820D01*
X163453266Y-105976431D01*
X163561078Y-105792117D01*
X163700613Y-105619339D01*
X163794017Y-105519314D01*
X164008774Y-105320025D01*
X164238028Y-105166919D01*
X164507112Y-105054275D01*
X164841355Y-104976371D01*
X165266090Y-104927486D01*
X165806647Y-104901899D01*
X166488358Y-104893888D01*
X166563367Y-104893834D01*
X168072000Y-104893834D01*
X168072000Y-105634504D01*
G37*
X168072000Y-105634504D02*
X166610929Y-105670690D01*
X165967718Y-105693126D01*
X165468673Y-105729283D01*
X165088758Y-105786195D01*
X164802938Y-105870898D01*
X164586176Y-105990427D01*
X164413437Y-106151818D01*
X164284284Y-106324521D01*
X164222220Y-106424420D01*
X164175233Y-106528966D01*
X164141229Y-106662071D01*
X164118115Y-106847652D01*
X164103796Y-107109621D01*
X164096179Y-107471893D01*
X164093168Y-107958382D01*
X164092667Y-108512791D01*
X164094534Y-109190488D01*
X164103949Y-109720752D01*
X164126634Y-110125475D01*
X164168309Y-110426545D01*
X164234695Y-110645855D01*
X164331513Y-110805295D01*
X164464484Y-110926755D01*
X164639330Y-111032126D01*
X164768151Y-111097439D01*
X164944014Y-111175401D01*
X165123326Y-111228463D01*
X165343239Y-111261158D01*
X165640902Y-111278018D01*
X166053465Y-111283575D01*
X166294000Y-111283579D01*
X166782499Y-111278843D01*
X167137224Y-111264441D01*
X167393642Y-111236305D01*
X167587221Y-111190367D01*
X167753428Y-111122559D01*
X167770203Y-111114271D01*
X168088383Y-110918420D01*
X168293617Y-110686806D01*
X168406240Y-110380613D01*
X168446585Y-109961025D01*
X168447715Y-109820950D01*
X168427245Y-109381429D01*
X168358278Y-109037861D01*
X168222552Y-108777733D01*
X168001805Y-108588532D01*
X167677776Y-108457744D01*
X167232203Y-108372855D01*
X166646824Y-108321352D01*
X166230500Y-108301635D01*
X165024000Y-108255629D01*
X165024000Y-107501426D01*
X166442167Y-107531130D01*
X166966615Y-107543245D01*
X167354673Y-107557536D01*
X167639260Y-107578853D01*
X167853299Y-107612044D01*
X168029710Y-107661959D01*
X168201414Y-107733446D01*
X168368334Y-107814834D01*
X168748078Y-108055540D01*
X169017891Y-108357137D01*
X169194696Y-108749370D01*
X169295415Y-109261981D01*
X169316250Y-109480962D01*
X169314482Y-110203758D01*
X169191700Y-110809977D01*
X168948416Y-111298660D01*
X168585145Y-111668844D01*
X168102401Y-111919570D01*
X167993133Y-111954832D01*
X167645075Y-112024364D01*
X167180906Y-112070722D01*
X166644670Y-112094224D01*
X166080412Y-112095189D01*
X165532175Y-112073933D01*
X165044003Y-112030775D01*
X164659939Y-111966032D01*
X164532599Y-111929867D01*
X164014243Y-111671600D01*
X163619052Y-111298659D01*
X163406517Y-110947500D01*
X163356198Y-110822364D01*
X163317747Y-110676553D01*
X163289581Y-110486558D01*
X163270122Y-110228870D01*
X163257789Y-109879982D01*
X163251003Y-109416384D01*
X163248184Y-108814569D01*
X163247860Y-108586656D01*
X163249602Y-107859847D01*
X163258991Y-107279796D01*
X163280040Y-106823965D01*
X163316760Y-106469819D01*
X163373164Y-106194820D01*
X163453266Y-105976431D01*
X163561078Y-105792117D01*
X163700613Y-105619339D01*
X163794017Y-105519314D01*
X164008774Y-105320025D01*
X164238028Y-105166919D01*
X164507112Y-105054275D01*
X164841355Y-104976371D01*
X165266090Y-104927486D01*
X165806647Y-104901899D01*
X166488358Y-104893888D01*
X166563367Y-104893834D01*
X168072000Y-104893834D01*
X168072000Y-105634504D01*
G36*
X147901485Y-106673834D02*
G01*
X148215833Y-106684882D01*
X148447040Y-106712552D01*
X148638199Y-106764416D01*
X148832405Y-106848046D01*
X149026762Y-106947000D01*
X149344578Y-107131008D01*
X149562810Y-107316296D01*
X149741901Y-107559505D01*
X149817326Y-107687834D01*
X149919884Y-107874466D01*
X149991571Y-108033738D01*
X150037914Y-108201235D01*
X150064441Y-108412545D01*
X150076678Y-108703254D01*
X150080154Y-109108950D01*
X150080334Y-109381167D01*
X150078062Y-109873845D01*
X150068362Y-110232666D01*
X150046909Y-110493076D01*
X150009377Y-110690522D01*
X149951441Y-110860452D01*
X149881166Y-111013302D01*
X149579291Y-111456892D01*
X149161176Y-111786060D01*
X148772708Y-111961839D01*
X148475803Y-112027774D01*
X148060607Y-112069578D01*
X147576394Y-112087528D01*
X147072439Y-112081899D01*
X146598014Y-112052968D01*
X146202395Y-112001010D01*
X145984584Y-111946233D01*
X145614248Y-111752615D01*
X145272467Y-111464097D01*
X145007219Y-111128390D01*
X144879303Y-110847164D01*
X144846148Y-110643332D01*
X144818455Y-110312387D01*
X144798738Y-109896527D01*
X144789512Y-109437947D01*
X144789308Y-109381167D01*
X145593482Y-109381167D01*
X145613961Y-109974484D01*
X145683026Y-110425715D01*
X145813112Y-110758207D01*
X146016657Y-110995303D01*
X146306097Y-111160349D01*
X146589954Y-111251647D01*
X146843068Y-111287551D01*
X147191712Y-111300155D01*
X147584075Y-111291916D01*
X147968345Y-111265293D01*
X148292712Y-111222743D01*
X148505365Y-111166724D01*
X148519166Y-111160129D01*
X148841225Y-110933109D01*
X149068551Y-110624117D01*
X149207488Y-110214848D01*
X149264378Y-109686996D01*
X149248029Y-109056515D01*
X149178418Y-108513319D01*
X149043348Y-108104138D01*
X148824020Y-107812872D01*
X148501633Y-107623422D01*
X148057388Y-107519690D01*
X147472485Y-107485575D01*
X147413334Y-107485370D01*
X146845272Y-107511896D01*
X146412561Y-107598268D01*
X146088664Y-107754679D01*
X145847042Y-107991320D01*
X145762334Y-108119425D01*
X145686180Y-108274529D01*
X145636419Y-108455702D01*
X145607887Y-108701542D01*
X145595417Y-109050646D01*
X145593482Y-109381167D01*
X144789308Y-109381167D01*
X144789139Y-109334291D01*
X144791084Y-108852862D01*
X144800609Y-108503924D01*
X144822577Y-108250659D01*
X144861855Y-108056246D01*
X144923306Y-107883865D01*
X145003268Y-107713767D01*
X145232636Y-107345585D01*
X145520381Y-107067918D01*
X145888740Y-106871338D01*
X146359946Y-106746418D01*
X146956236Y-106683732D01*
X147460904Y-106671834D01*
X147901485Y-106673834D01*
G37*
X147901485Y-106673834D02*
X148215833Y-106684882D01*
X148447040Y-106712552D01*
X148638199Y-106764416D01*
X148832405Y-106848046D01*
X149026762Y-106947000D01*
X149344578Y-107131008D01*
X149562810Y-107316296D01*
X149741901Y-107559505D01*
X149817326Y-107687834D01*
X149919884Y-107874466D01*
X149991571Y-108033738D01*
X150037914Y-108201235D01*
X150064441Y-108412545D01*
X150076678Y-108703254D01*
X150080154Y-109108950D01*
X150080334Y-109381167D01*
X150078062Y-109873845D01*
X150068362Y-110232666D01*
X150046909Y-110493076D01*
X150009377Y-110690522D01*
X149951441Y-110860452D01*
X149881166Y-111013302D01*
X149579291Y-111456892D01*
X149161176Y-111786060D01*
X148772708Y-111961839D01*
X148475803Y-112027774D01*
X148060607Y-112069578D01*
X147576394Y-112087528D01*
X147072439Y-112081899D01*
X146598014Y-112052968D01*
X146202395Y-112001010D01*
X145984584Y-111946233D01*
X145614248Y-111752615D01*
X145272467Y-111464097D01*
X145007219Y-111128390D01*
X144879303Y-110847164D01*
X144846148Y-110643332D01*
X144818455Y-110312387D01*
X144798738Y-109896527D01*
X144789512Y-109437947D01*
X144789308Y-109381167D01*
X145593482Y-109381167D01*
X145613961Y-109974484D01*
X145683026Y-110425715D01*
X145813112Y-110758207D01*
X146016657Y-110995303D01*
X146306097Y-111160349D01*
X146589954Y-111251647D01*
X146843068Y-111287551D01*
X147191712Y-111300155D01*
X147584075Y-111291916D01*
X147968345Y-111265293D01*
X148292712Y-111222743D01*
X148505365Y-111166724D01*
X148519166Y-111160129D01*
X148841225Y-110933109D01*
X149068551Y-110624117D01*
X149207488Y-110214848D01*
X149264378Y-109686996D01*
X149248029Y-109056515D01*
X149178418Y-108513319D01*
X149043348Y-108104138D01*
X148824020Y-107812872D01*
X148501633Y-107623422D01*
X148057388Y-107519690D01*
X147472485Y-107485575D01*
X147413334Y-107485370D01*
X146845272Y-107511896D01*
X146412561Y-107598268D01*
X146088664Y-107754679D01*
X145847042Y-107991320D01*
X145762334Y-108119425D01*
X145686180Y-108274529D01*
X145636419Y-108455702D01*
X145607887Y-108701542D01*
X145595417Y-109050646D01*
X145593482Y-109381167D01*
X144789308Y-109381167D01*
X144789139Y-109334291D01*
X144791084Y-108852862D01*
X144800609Y-108503924D01*
X144822577Y-108250659D01*
X144861855Y-108056246D01*
X144923306Y-107883865D01*
X145003268Y-107713767D01*
X145232636Y-107345585D01*
X145520381Y-107067918D01*
X145888740Y-106871338D01*
X146359946Y-106746418D01*
X146956236Y-106683732D01*
X147460904Y-106671834D01*
X147901485Y-106673834D01*
G36*
X139031334Y-112090500D02*
G01*
X138269334Y-112090500D01*
X138269334Y-106587167D01*
X139031334Y-106587167D01*
X139031334Y-112090500D01*
G37*
X139031334Y-112090500D02*
X138269334Y-112090500D01*
X138269334Y-106587167D01*
X139031334Y-106587167D01*
X139031334Y-112090500D01*
G36*
X159330167Y-106685562D02*
G01*
X159841528Y-106698277D01*
X160215908Y-106714118D01*
X160485654Y-106737637D01*
X160683111Y-106773389D01*
X160840626Y-106825925D01*
X160990546Y-106899799D01*
X161037167Y-106925834D01*
X161265406Y-107060694D01*
X161440194Y-107189612D01*
X161569334Y-107336991D01*
X161660632Y-107527236D01*
X161721894Y-107784751D01*
X161760923Y-108133938D01*
X161785525Y-108599203D01*
X161803506Y-109204950D01*
X161806667Y-109331822D01*
X161824693Y-109965188D01*
X161846720Y-110449110D01*
X161877536Y-110803474D01*
X161921929Y-111048168D01*
X161984685Y-111203078D01*
X162070592Y-111288092D01*
X162184439Y-111323097D01*
X162287339Y-111328500D01*
X162410732Y-111341992D01*
X162466856Y-111411917D01*
X162475500Y-111582454D01*
X162467472Y-111730667D01*
X162441667Y-112132834D01*
X162039507Y-112127513D01*
X161737142Y-112096772D01*
X161517812Y-111994865D01*
X161403152Y-111897821D01*
X161168959Y-111673449D01*
X160705081Y-111903141D01*
X160492413Y-112001212D01*
X160295144Y-112067871D01*
X160071099Y-112110015D01*
X159778105Y-112134546D01*
X159373988Y-112148363D01*
X159182435Y-112152241D01*
X158603736Y-112152496D01*
X158165010Y-112127781D01*
X157838458Y-112076056D01*
X157727077Y-112045472D01*
X157272958Y-111826812D01*
X156947441Y-111498554D01*
X156746295Y-111056120D01*
X156721450Y-110957259D01*
X156656111Y-110368141D01*
X156737625Y-109854181D01*
X156963126Y-109422480D01*
X157329752Y-109080139D01*
X157524877Y-108964841D01*
X157715736Y-108874999D01*
X157904295Y-108812224D01*
X158129225Y-108770319D01*
X158429193Y-108743085D01*
X158842868Y-108724324D01*
X159070044Y-108717181D01*
X160198000Y-108684220D01*
X160198000Y-109381167D01*
X159532223Y-109381167D01*
X158869036Y-109403425D01*
X158356346Y-109474789D01*
X157980665Y-109602138D01*
X157728503Y-109792355D01*
X157586374Y-110052321D01*
X157540789Y-110388917D01*
X157540769Y-110397167D01*
X157585901Y-110762761D01*
X157734559Y-111026203D01*
X158006641Y-111207846D01*
X158422046Y-111328042D01*
X158457333Y-111334741D01*
X158922292Y-111382884D01*
X159429192Y-111374264D01*
X159917987Y-111314439D01*
X160328634Y-111208965D01*
X160471422Y-111148348D01*
X160681412Y-111024040D01*
X160834914Y-110877747D01*
X160939575Y-110682985D01*
X161003042Y-110413269D01*
X161032962Y-110042115D01*
X161036982Y-109543038D01*
X161031057Y-109210153D01*
X161011946Y-108643976D01*
X160970177Y-108213020D01*
X160885013Y-107898847D01*
X160735714Y-107683016D01*
X160501545Y-107547090D01*
X160161767Y-107472628D01*
X159695641Y-107441191D01*
X159082430Y-107434341D01*
X159033834Y-107434306D01*
X157996667Y-107433834D01*
X157996667Y-106656956D01*
X159330167Y-106685562D01*
G37*
X159330167Y-106685562D02*
X159841528Y-106698277D01*
X160215908Y-106714118D01*
X160485654Y-106737637D01*
X160683111Y-106773389D01*
X160840626Y-106825925D01*
X160990546Y-106899799D01*
X161037167Y-106925834D01*
X161265406Y-107060694D01*
X161440194Y-107189612D01*
X161569334Y-107336991D01*
X161660632Y-107527236D01*
X161721894Y-107784751D01*
X161760923Y-108133938D01*
X161785525Y-108599203D01*
X161803506Y-109204950D01*
X161806667Y-109331822D01*
X161824693Y-109965188D01*
X161846720Y-110449110D01*
X161877536Y-110803474D01*
X161921929Y-111048168D01*
X161984685Y-111203078D01*
X162070592Y-111288092D01*
X162184439Y-111323097D01*
X162287339Y-111328500D01*
X162410732Y-111341992D01*
X162466856Y-111411917D01*
X162475500Y-111582454D01*
X162467472Y-111730667D01*
X162441667Y-112132834D01*
X162039507Y-112127513D01*
X161737142Y-112096772D01*
X161517812Y-111994865D01*
X161403152Y-111897821D01*
X161168959Y-111673449D01*
X160705081Y-111903141D01*
X160492413Y-112001212D01*
X160295144Y-112067871D01*
X160071099Y-112110015D01*
X159778105Y-112134546D01*
X159373988Y-112148363D01*
X159182435Y-112152241D01*
X158603736Y-112152496D01*
X158165010Y-112127781D01*
X157838458Y-112076056D01*
X157727077Y-112045472D01*
X157272958Y-111826812D01*
X156947441Y-111498554D01*
X156746295Y-111056120D01*
X156721450Y-110957259D01*
X156656111Y-110368141D01*
X156737625Y-109854181D01*
X156963126Y-109422480D01*
X157329752Y-109080139D01*
X157524877Y-108964841D01*
X157715736Y-108874999D01*
X157904295Y-108812224D01*
X158129225Y-108770319D01*
X158429193Y-108743085D01*
X158842868Y-108724324D01*
X159070044Y-108717181D01*
X160198000Y-108684220D01*
X160198000Y-109381167D01*
X159532223Y-109381167D01*
X158869036Y-109403425D01*
X158356346Y-109474789D01*
X157980665Y-109602138D01*
X157728503Y-109792355D01*
X157586374Y-110052321D01*
X157540789Y-110388917D01*
X157540769Y-110397167D01*
X157585901Y-110762761D01*
X157734559Y-111026203D01*
X158006641Y-111207846D01*
X158422046Y-111328042D01*
X158457333Y-111334741D01*
X158922292Y-111382884D01*
X159429192Y-111374264D01*
X159917987Y-111314439D01*
X160328634Y-111208965D01*
X160471422Y-111148348D01*
X160681412Y-111024040D01*
X160834914Y-110877747D01*
X160939575Y-110682985D01*
X161003042Y-110413269D01*
X161032962Y-110042115D01*
X161036982Y-109543038D01*
X161031057Y-109210153D01*
X161011946Y-108643976D01*
X160970177Y-108213020D01*
X160885013Y-107898847D01*
X160735714Y-107683016D01*
X160501545Y-107547090D01*
X160161767Y-107472628D01*
X159695641Y-107441191D01*
X159082430Y-107434341D01*
X159033834Y-107434306D01*
X157996667Y-107433834D01*
X157996667Y-106656956D01*
X159330167Y-106685562D01*
G36*
X151816000Y-107170788D02*
G01*
X152290264Y-106921311D01*
X152531998Y-106802588D01*
X152743240Y-106728786D01*
X152978054Y-106689478D01*
X153290504Y-106674238D01*
X153581431Y-106672306D01*
X154134470Y-106686875D01*
X154557397Y-106736174D01*
X154887545Y-106829683D01*
X155162240Y-106976881D01*
X155345272Y-107120226D01*
X155524160Y-107286374D01*
X155664699Y-107449287D01*
X155771509Y-107631431D01*
X155849214Y-107855273D01*
X155902435Y-108143281D01*
X155935794Y-108517919D01*
X155953913Y-109001656D01*
X155961414Y-109616957D01*
X155962807Y-110122000D01*
X155964667Y-112175167D01*
X155216750Y-112175167D01*
X155188542Y-110291334D01*
X155175427Y-109605044D01*
X155155370Y-109065953D01*
X155122839Y-108651930D01*
X155072300Y-108340846D01*
X154998219Y-108110571D01*
X154895064Y-107938977D01*
X154757301Y-107803933D01*
X154579397Y-107683310D01*
X154528935Y-107653360D01*
X154212454Y-107537614D01*
X153796895Y-107478625D01*
X153342710Y-107476366D01*
X152910350Y-107530809D01*
X152560265Y-107641926D01*
X152535667Y-107654282D01*
X152334131Y-107768934D01*
X152176872Y-107891565D01*
X152058040Y-108044079D01*
X151971783Y-108248384D01*
X151912251Y-108526384D01*
X151873593Y-108899985D01*
X151849959Y-109391092D01*
X151835497Y-110021612D01*
X151831347Y-110291334D01*
X151804360Y-112175167D01*
X151054000Y-112175167D01*
X151054000Y-104893834D01*
X151816000Y-104893834D01*
X151816000Y-107170788D01*
G37*
X151816000Y-107170788D02*
X152290264Y-106921311D01*
X152531998Y-106802588D01*
X152743240Y-106728786D01*
X152978054Y-106689478D01*
X153290504Y-106674238D01*
X153581431Y-106672306D01*
X154134470Y-106686875D01*
X154557397Y-106736174D01*
X154887545Y-106829683D01*
X155162240Y-106976881D01*
X155345272Y-107120226D01*
X155524160Y-107286374D01*
X155664699Y-107449287D01*
X155771509Y-107631431D01*
X155849214Y-107855273D01*
X155902435Y-108143281D01*
X155935794Y-108517919D01*
X155953913Y-109001656D01*
X155961414Y-109616957D01*
X155962807Y-110122000D01*
X155964667Y-112175167D01*
X155216750Y-112175167D01*
X155188542Y-110291334D01*
X155175427Y-109605044D01*
X155155370Y-109065953D01*
X155122839Y-108651930D01*
X155072300Y-108340846D01*
X154998219Y-108110571D01*
X154895064Y-107938977D01*
X154757301Y-107803933D01*
X154579397Y-107683310D01*
X154528935Y-107653360D01*
X154212454Y-107537614D01*
X153796895Y-107478625D01*
X153342710Y-107476366D01*
X152910350Y-107530809D01*
X152560265Y-107641926D01*
X152535667Y-107654282D01*
X152334131Y-107768934D01*
X152176872Y-107891565D01*
X152058040Y-108044079D01*
X151971783Y-108248384D01*
X151912251Y-108526384D01*
X151873593Y-108899985D01*
X151849959Y-109391092D01*
X151835497Y-110021612D01*
X151831347Y-110291334D01*
X151804360Y-112175167D01*
X151054000Y-112175167D01*
X151054000Y-104893834D01*
X151816000Y-104893834D01*
X151816000Y-107170788D01*
G36*
X144280667Y-106671834D02*
G01*
X144280667Y-107518500D01*
X143240273Y-107518500D01*
X142783199Y-107522094D01*
X142455436Y-107536465D01*
X142217048Y-107566995D01*
X142028098Y-107619070D01*
X141848650Y-107698071D01*
X141827063Y-107709000D01*
X141609625Y-107824947D01*
X141440916Y-107938419D01*
X141314378Y-108071879D01*
X141223450Y-108247789D01*
X141161574Y-108488614D01*
X141122191Y-108816815D01*
X141098742Y-109254857D01*
X141084667Y-109825201D01*
X141077459Y-110276190D01*
X141049250Y-112175167D01*
X140301334Y-112175167D01*
X140301334Y-106671834D01*
X140682334Y-106671834D01*
X140916434Y-106678066D01*
X141027287Y-106721009D01*
X141060980Y-106837028D01*
X141063334Y-106972476D01*
X141063334Y-107273118D01*
X141338500Y-107068835D01*
X141584999Y-106909089D01*
X141847070Y-106797121D01*
X142160824Y-106725373D01*
X142562370Y-106686284D01*
X143087820Y-106672296D01*
X143234968Y-106671833D01*
X144280667Y-106671834D01*
G37*
X144280667Y-106671834D02*
X144280667Y-107518500D01*
X143240273Y-107518500D01*
X142783199Y-107522094D01*
X142455436Y-107536465D01*
X142217048Y-107566995D01*
X142028098Y-107619070D01*
X141848650Y-107698071D01*
X141827063Y-107709000D01*
X141609625Y-107824947D01*
X141440916Y-107938419D01*
X141314378Y-108071879D01*
X141223450Y-108247789D01*
X141161574Y-108488614D01*
X141122191Y-108816815D01*
X141098742Y-109254857D01*
X141084667Y-109825201D01*
X141077459Y-110276190D01*
X141049250Y-112175167D01*
X140301334Y-112175167D01*
X140301334Y-106671834D01*
X140682334Y-106671834D01*
X140916434Y-106678066D01*
X141027287Y-106721009D01*
X141060980Y-106837028D01*
X141063334Y-106972476D01*
X141063334Y-107273118D01*
X141338500Y-107068835D01*
X141584999Y-106909089D01*
X141847070Y-106797121D01*
X142160824Y-106725373D01*
X142562370Y-106686284D01*
X143087820Y-106672296D01*
X143234968Y-106671833D01*
X144280667Y-106671834D01*
G36*
X156796582Y-113174273D02*
G01*
X156811334Y-113233500D01*
X156743561Y-113345749D01*
X156684334Y-113360500D01*
X156572085Y-113292727D01*
X156557334Y-113233500D01*
X156625106Y-113121252D01*
X156684334Y-113106500D01*
X156796582Y-113174273D01*
G37*
X156796582Y-113174273D02*
X156811334Y-113233500D01*
X156743561Y-113345749D01*
X156684334Y-113360500D01*
X156572085Y-113292727D01*
X156557334Y-113233500D01*
X156625106Y-113121252D01*
X156684334Y-113106500D01*
X156796582Y-113174273D01*
G36*
X168335289Y-113071512D02*
G01*
X168368334Y-113106500D01*
X168479344Y-113160619D01*
X168689915Y-113189620D01*
X168754330Y-113191167D01*
X168964551Y-113210207D01*
X169080238Y-113257693D01*
X169088000Y-113275834D01*
X169013413Y-113331125D01*
X168829327Y-113359504D01*
X168782608Y-113360500D01*
X168582262Y-113375213D01*
X168516358Y-113431036D01*
X168528608Y-113494425D01*
X168573437Y-113629393D01*
X168580000Y-113663758D01*
X168653727Y-113688641D01*
X168831308Y-113699165D01*
X168834000Y-113699167D01*
X169012342Y-113723691D01*
X169087981Y-113782780D01*
X169088000Y-113783834D01*
X169017018Y-113852407D01*
X168917054Y-113868500D01*
X168797415Y-113898012D01*
X168785487Y-114018223D01*
X168799232Y-114080167D01*
X168810369Y-114245142D01*
X168760464Y-114291834D01*
X168652669Y-114227668D01*
X168529881Y-114080167D01*
X168360871Y-113916825D01*
X168112655Y-113868527D01*
X168104596Y-113868500D01*
X167912632Y-113846565D01*
X167819628Y-113792855D01*
X167818000Y-113783834D01*
X167891774Y-113725185D01*
X168070388Y-113699236D01*
X168081059Y-113699167D01*
X168260544Y-113680338D01*
X168305098Y-113610547D01*
X168292725Y-113565242D01*
X168247897Y-113430274D01*
X168241334Y-113395909D01*
X168168661Y-113369260D01*
X168029667Y-113360500D01*
X167870552Y-113331518D01*
X167818000Y-113275834D01*
X167889126Y-113207708D01*
X167992330Y-113191167D01*
X168109400Y-113158574D01*
X168114334Y-113106500D01*
X168132578Y-113033246D01*
X168189007Y-113021834D01*
X168335289Y-113071512D01*
G37*
X168335289Y-113071512D02*
X168368334Y-113106500D01*
X168479344Y-113160619D01*
X168689915Y-113189620D01*
X168754330Y-113191167D01*
X168964551Y-113210207D01*
X169080238Y-113257693D01*
X169088000Y-113275834D01*
X169013413Y-113331125D01*
X168829327Y-113359504D01*
X168782608Y-113360500D01*
X168582262Y-113375213D01*
X168516358Y-113431036D01*
X168528608Y-113494425D01*
X168573437Y-113629393D01*
X168580000Y-113663758D01*
X168653727Y-113688641D01*
X168831308Y-113699165D01*
X168834000Y-113699167D01*
X169012342Y-113723691D01*
X169087981Y-113782780D01*
X169088000Y-113783834D01*
X169017018Y-113852407D01*
X168917054Y-113868500D01*
X168797415Y-113898012D01*
X168785487Y-114018223D01*
X168799232Y-114080167D01*
X168810369Y-114245142D01*
X168760464Y-114291834D01*
X168652669Y-114227668D01*
X168529881Y-114080167D01*
X168360871Y-113916825D01*
X168112655Y-113868527D01*
X168104596Y-113868500D01*
X167912632Y-113846565D01*
X167819628Y-113792855D01*
X167818000Y-113783834D01*
X167891774Y-113725185D01*
X168070388Y-113699236D01*
X168081059Y-113699167D01*
X168260544Y-113680338D01*
X168305098Y-113610547D01*
X168292725Y-113565242D01*
X168247897Y-113430274D01*
X168241334Y-113395909D01*
X168168661Y-113369260D01*
X168029667Y-113360500D01*
X167870552Y-113331518D01*
X167818000Y-113275834D01*
X167889126Y-113207708D01*
X167992330Y-113191167D01*
X168109400Y-113158574D01*
X168114334Y-113106500D01*
X168132578Y-113033246D01*
X168189007Y-113021834D01*
X168335289Y-113071512D01*
G36*
X174934219Y-113100990D02*
G01*
X175234002Y-113248388D01*
X175452961Y-113502742D01*
X175484815Y-113569833D01*
X175554022Y-113831897D01*
X175553603Y-114076642D01*
X175494583Y-114265140D01*
X175387983Y-114358462D01*
X175268438Y-114334025D01*
X175230395Y-114220800D01*
X175270487Y-114119099D01*
X175326859Y-113865797D01*
X175246719Y-113631218D01*
X175062602Y-113443952D01*
X174807040Y-113332589D01*
X174512569Y-113325722D01*
X174401117Y-113355093D01*
X174103256Y-113524787D01*
X173947027Y-113783441D01*
X173916693Y-114009742D01*
X173944478Y-114329941D01*
X174039429Y-114504016D01*
X174168776Y-114545834D01*
X174305111Y-114468094D01*
X174417749Y-114262319D01*
X174489663Y-113969676D01*
X174506667Y-113728866D01*
X174533156Y-113521082D01*
X174621998Y-113446643D01*
X174644439Y-113445167D01*
X174726442Y-113474541D01*
X174756871Y-113588940D01*
X174745415Y-113827776D01*
X174743492Y-113848123D01*
X174664412Y-114298534D01*
X174525247Y-114597896D01*
X174320614Y-114755414D01*
X174196711Y-114783425D01*
X173961751Y-114762488D01*
X173799476Y-114622555D01*
X173795134Y-114616419D01*
X173691098Y-114350643D01*
X173665165Y-114011237D01*
X173720145Y-113676246D01*
X173757716Y-113577338D01*
X173965360Y-113298720D01*
X174258354Y-113126336D01*
X174595155Y-113060366D01*
X174934219Y-113100990D01*
G37*
X174934219Y-113100990D02*
X175234002Y-113248388D01*
X175452961Y-113502742D01*
X175484815Y-113569833D01*
X175554022Y-113831897D01*
X175553603Y-114076642D01*
X175494583Y-114265140D01*
X175387983Y-114358462D01*
X175268438Y-114334025D01*
X175230395Y-114220800D01*
X175270487Y-114119099D01*
X175326859Y-113865797D01*
X175246719Y-113631218D01*
X175062602Y-113443952D01*
X174807040Y-113332589D01*
X174512569Y-113325722D01*
X174401117Y-113355093D01*
X174103256Y-113524787D01*
X173947027Y-113783441D01*
X173916693Y-114009742D01*
X173944478Y-114329941D01*
X174039429Y-114504016D01*
X174168776Y-114545834D01*
X174305111Y-114468094D01*
X174417749Y-114262319D01*
X174489663Y-113969676D01*
X174506667Y-113728866D01*
X174533156Y-113521082D01*
X174621998Y-113446643D01*
X174644439Y-113445167D01*
X174726442Y-113474541D01*
X174756871Y-113588940D01*
X174745415Y-113827776D01*
X174743492Y-113848123D01*
X174664412Y-114298534D01*
X174525247Y-114597896D01*
X174320614Y-114755414D01*
X174196711Y-114783425D01*
X173961751Y-114762488D01*
X173799476Y-114622555D01*
X173795134Y-114616419D01*
X173691098Y-114350643D01*
X173665165Y-114011237D01*
X173720145Y-113676246D01*
X173757716Y-113577338D01*
X173965360Y-113298720D01*
X174258354Y-113126336D01*
X174595155Y-113060366D01*
X174934219Y-113100990D01*
G36*
X172817553Y-113100990D02*
G01*
X173117336Y-113248388D01*
X173336294Y-113502742D01*
X173368148Y-113569833D01*
X173437355Y-113831897D01*
X173436937Y-114076642D01*
X173377916Y-114265140D01*
X173271316Y-114358462D01*
X173151771Y-114334025D01*
X173113729Y-114220800D01*
X173153820Y-114119099D01*
X173210192Y-113865797D01*
X173130053Y-113631218D01*
X172945935Y-113443952D01*
X172690374Y-113332589D01*
X172395902Y-113325722D01*
X172284451Y-113355093D01*
X171986589Y-113524787D01*
X171830360Y-113783441D01*
X171800026Y-114009742D01*
X171827812Y-114329941D01*
X171922762Y-114504016D01*
X172052109Y-114545834D01*
X172188444Y-114468094D01*
X172301082Y-114262319D01*
X172372996Y-113969676D01*
X172390000Y-113728866D01*
X172416489Y-113521082D01*
X172505332Y-113446643D01*
X172527772Y-113445167D01*
X172609775Y-113474541D01*
X172640204Y-113588940D01*
X172628748Y-113827776D01*
X172626825Y-113848123D01*
X172547746Y-114298534D01*
X172408580Y-114597896D01*
X172203948Y-114755414D01*
X172080045Y-114783425D01*
X171845084Y-114762488D01*
X171682809Y-114622555D01*
X171678467Y-114616419D01*
X171574432Y-114350643D01*
X171548499Y-114011237D01*
X171603478Y-113676246D01*
X171641049Y-113577338D01*
X171848693Y-113298720D01*
X172141688Y-113126336D01*
X172478489Y-113060366D01*
X172817553Y-113100990D01*
G37*
X172817553Y-113100990D02*
X173117336Y-113248388D01*
X173336294Y-113502742D01*
X173368148Y-113569833D01*
X173437355Y-113831897D01*
X173436937Y-114076642D01*
X173377916Y-114265140D01*
X173271316Y-114358462D01*
X173151771Y-114334025D01*
X173113729Y-114220800D01*
X173153820Y-114119099D01*
X173210192Y-113865797D01*
X173130053Y-113631218D01*
X172945935Y-113443952D01*
X172690374Y-113332589D01*
X172395902Y-113325722D01*
X172284451Y-113355093D01*
X171986589Y-113524787D01*
X171830360Y-113783441D01*
X171800026Y-114009742D01*
X171827812Y-114329941D01*
X171922762Y-114504016D01*
X172052109Y-114545834D01*
X172188444Y-114468094D01*
X172301082Y-114262319D01*
X172372996Y-113969676D01*
X172390000Y-113728866D01*
X172416489Y-113521082D01*
X172505332Y-113446643D01*
X172527772Y-113445167D01*
X172609775Y-113474541D01*
X172640204Y-113588940D01*
X172628748Y-113827776D01*
X172626825Y-113848123D01*
X172547746Y-114298534D01*
X172408580Y-114597896D01*
X172203948Y-114755414D01*
X172080045Y-114783425D01*
X171845084Y-114762488D01*
X171682809Y-114622555D01*
X171678467Y-114616419D01*
X171574432Y-114350643D01*
X171548499Y-114011237D01*
X171603478Y-113676246D01*
X171641049Y-113577338D01*
X171848693Y-113298720D01*
X172141688Y-113126336D01*
X172478489Y-113060366D01*
X172817553Y-113100990D01*
G36*
X167630721Y-114132196D02*
G01*
X167663725Y-114265647D01*
X167722426Y-114449011D01*
X167876142Y-114523487D01*
X167923834Y-114530291D01*
X168108805Y-114594066D01*
X168155811Y-114693194D01*
X168065786Y-114777147D01*
X167918849Y-114799834D01*
X167684964Y-114761060D01*
X167530586Y-114689825D01*
X167413784Y-114504054D01*
X167408570Y-114336521D01*
X167465429Y-114134986D01*
X167551136Y-114063640D01*
X167630721Y-114132196D01*
G37*
X167630721Y-114132196D02*
X167663725Y-114265647D01*
X167722426Y-114449011D01*
X167876142Y-114523487D01*
X167923834Y-114530291D01*
X168108805Y-114594066D01*
X168155811Y-114693194D01*
X168065786Y-114777147D01*
X167918849Y-114799834D01*
X167684964Y-114761060D01*
X167530586Y-114689825D01*
X167413784Y-114504054D01*
X167408570Y-114336521D01*
X167465429Y-114134986D01*
X167551136Y-114063640D01*
X167630721Y-114132196D01*
G36*
X163859834Y-113042648D02*
G01*
X163924325Y-113148910D01*
X163975099Y-113414840D01*
X164008000Y-113790537D01*
X164050334Y-114503500D01*
X164727667Y-114503500D01*
X164727667Y-114164834D01*
X164713476Y-113941021D01*
X164643976Y-113824283D01*
X164478779Y-113753022D01*
X164452500Y-113745158D01*
X164237929Y-113646942D01*
X164169212Y-113545177D01*
X164242734Y-113474211D01*
X164454880Y-113468387D01*
X164481222Y-113472325D01*
X164778882Y-113550469D01*
X164946053Y-113689938D01*
X165015534Y-113930281D01*
X165024000Y-114126820D01*
X164996813Y-114451336D01*
X164896711Y-114654076D01*
X164695881Y-114759009D01*
X164366514Y-114790107D01*
X164255679Y-114789040D01*
X163754000Y-114777699D01*
X163754000Y-113892711D01*
X163759113Y-113478236D01*
X163776174Y-113212077D01*
X163807768Y-113073474D01*
X163856480Y-113041670D01*
X163859834Y-113042648D01*
G37*
X163859834Y-113042648D02*
X163924325Y-113148910D01*
X163975099Y-113414840D01*
X164008000Y-113790537D01*
X164050334Y-114503500D01*
X164727667Y-114503500D01*
X164727667Y-114164834D01*
X164713476Y-113941021D01*
X164643976Y-113824283D01*
X164478779Y-113753022D01*
X164452500Y-113745158D01*
X164237929Y-113646942D01*
X164169212Y-113545177D01*
X164242734Y-113474211D01*
X164454880Y-113468387D01*
X164481222Y-113472325D01*
X164778882Y-113550469D01*
X164946053Y-113689938D01*
X165015534Y-113930281D01*
X165024000Y-114126820D01*
X164996813Y-114451336D01*
X164896711Y-114654076D01*
X164695881Y-114759009D01*
X164366514Y-114790107D01*
X164255679Y-114789040D01*
X163754000Y-114777699D01*
X163754000Y-113892711D01*
X163759113Y-113478236D01*
X163776174Y-113212077D01*
X163807768Y-113073474D01*
X163856480Y-113041670D01*
X163859834Y-113042648D01*
G36*
X162766601Y-113068978D02*
G01*
X162799104Y-113200920D01*
X162816926Y-113459232D01*
X162822651Y-113864675D01*
X162822667Y-113892711D01*
X162822667Y-114777699D01*
X162327895Y-114788884D01*
X162010728Y-114781313D01*
X161812105Y-114733572D01*
X161692895Y-114645117D01*
X161600143Y-114455006D01*
X161556225Y-114187576D01*
X161562511Y-113910277D01*
X161620368Y-113690561D01*
X161672112Y-113620770D01*
X161834048Y-113540434D01*
X162069597Y-113476798D01*
X162095445Y-113472325D01*
X162320157Y-113470434D01*
X162406577Y-113536844D01*
X162351092Y-113637210D01*
X162150084Y-113737186D01*
X162124167Y-113745158D01*
X161945714Y-113815161D01*
X161867489Y-113923728D01*
X161849104Y-114132460D01*
X161849000Y-114164834D01*
X161849000Y-114503500D01*
X162526334Y-114503500D01*
X162568667Y-113790537D01*
X162605271Y-113386501D01*
X162657272Y-113133667D01*
X162716834Y-113042648D01*
X162766601Y-113068978D01*
G37*
X162766601Y-113068978D02*
X162799104Y-113200920D01*
X162816926Y-113459232D01*
X162822651Y-113864675D01*
X162822667Y-113892711D01*
X162822667Y-114777699D01*
X162327895Y-114788884D01*
X162010728Y-114781313D01*
X161812105Y-114733572D01*
X161692895Y-114645117D01*
X161600143Y-114455006D01*
X161556225Y-114187576D01*
X161562511Y-113910277D01*
X161620368Y-113690561D01*
X161672112Y-113620770D01*
X161834048Y-113540434D01*
X162069597Y-113476798D01*
X162095445Y-113472325D01*
X162320157Y-113470434D01*
X162406577Y-113536844D01*
X162351092Y-113637210D01*
X162150084Y-113737186D01*
X162124167Y-113745158D01*
X161945714Y-113815161D01*
X161867489Y-113923728D01*
X161849104Y-114132460D01*
X161849000Y-114164834D01*
X161849000Y-114503500D01*
X162526334Y-114503500D01*
X162568667Y-113790537D01*
X162605271Y-113386501D01*
X162657272Y-113133667D01*
X162716834Y-113042648D01*
X162766601Y-113068978D01*
G36*
X161039272Y-113559954D02*
G01*
X161266357Y-113657745D01*
X161371059Y-113834353D01*
X161383334Y-113956146D01*
X161375281Y-114099655D01*
X161323340Y-114174352D01*
X161185837Y-114202701D01*
X160921095Y-114207167D01*
X160917667Y-114207167D01*
X160662652Y-114193248D01*
X160493510Y-114157344D01*
X160452000Y-114122500D01*
X160527112Y-114069482D01*
X160714752Y-114039992D01*
X160790667Y-114037834D01*
X161033980Y-114013601D01*
X161127429Y-113937925D01*
X161129334Y-113919892D01*
X161059088Y-113785196D01*
X160887128Y-113713434D01*
X160671617Y-113711754D01*
X160470722Y-113787300D01*
X160415714Y-113832214D01*
X160288617Y-114056021D01*
X160300197Y-114290552D01*
X160429124Y-114491114D01*
X160654065Y-114613014D01*
X160796714Y-114630500D01*
X160972425Y-114655574D01*
X161044667Y-114715167D01*
X160971910Y-114774081D01*
X160793197Y-114798680D01*
X160567863Y-114791418D01*
X160355246Y-114754751D01*
X160214681Y-114691135D01*
X160204270Y-114680388D01*
X160084573Y-114427770D01*
X160049897Y-114113487D01*
X160105471Y-113822862D01*
X160146807Y-113743140D01*
X160270203Y-113604670D01*
X160440680Y-113542460D01*
X160671185Y-113529834D01*
X161039272Y-113559954D01*
G37*
X161039272Y-113559954D02*
X161266357Y-113657745D01*
X161371059Y-113834353D01*
X161383334Y-113956146D01*
X161375281Y-114099655D01*
X161323340Y-114174352D01*
X161185837Y-114202701D01*
X160921095Y-114207167D01*
X160917667Y-114207167D01*
X160662652Y-114193248D01*
X160493510Y-114157344D01*
X160452000Y-114122500D01*
X160527112Y-114069482D01*
X160714752Y-114039992D01*
X160790667Y-114037834D01*
X161033980Y-114013601D01*
X161127429Y-113937925D01*
X161129334Y-113919892D01*
X161059088Y-113785196D01*
X160887128Y-113713434D01*
X160671617Y-113711754D01*
X160470722Y-113787300D01*
X160415714Y-113832214D01*
X160288617Y-114056021D01*
X160300197Y-114290552D01*
X160429124Y-114491114D01*
X160654065Y-114613014D01*
X160796714Y-114630500D01*
X160972425Y-114655574D01*
X161044667Y-114715167D01*
X160971910Y-114774081D01*
X160793197Y-114798680D01*
X160567863Y-114791418D01*
X160355246Y-114754751D01*
X160214681Y-114691135D01*
X160204270Y-114680388D01*
X160084573Y-114427770D01*
X160049897Y-114113487D01*
X160105471Y-113822862D01*
X160146807Y-113743140D01*
X160270203Y-113604670D01*
X160440680Y-113542460D01*
X160671185Y-113529834D01*
X161039272Y-113559954D01*
G36*
X155813398Y-113538440D02*
G01*
X155987447Y-113567309D01*
X156049334Y-113614500D01*
X155976250Y-113676361D01*
X155816500Y-113700463D01*
X155599101Y-113727309D01*
X155466986Y-113775664D01*
X155386152Y-113878245D01*
X155449822Y-113968474D01*
X155633327Y-114026592D01*
X155794283Y-114037834D01*
X156073742Y-114083007D01*
X156286770Y-114199852D01*
X156385885Y-114360356D01*
X156388000Y-114388114D01*
X156351121Y-114525543D01*
X156300355Y-114636066D01*
X156216988Y-114731618D01*
X156067824Y-114781802D01*
X155807728Y-114799152D01*
X155710667Y-114799834D01*
X155412117Y-114789320D01*
X155236924Y-114749424D01*
X155139950Y-114667609D01*
X155120979Y-114636066D01*
X155050606Y-114485139D01*
X155033334Y-114424400D01*
X155090255Y-114375423D01*
X155219753Y-114413478D01*
X155341762Y-114503500D01*
X155543213Y-114604708D01*
X155806476Y-114622602D01*
X156042921Y-114551595D01*
X156048626Y-114548063D01*
X156122824Y-114446352D01*
X156047340Y-114346697D01*
X155841446Y-114262451D01*
X155562116Y-114211016D01*
X155316905Y-114173061D01*
X155193102Y-114111645D01*
X155143013Y-113994473D01*
X155132387Y-113920020D01*
X155147770Y-113714413D01*
X155217054Y-113603817D01*
X155367912Y-113555920D01*
X155586790Y-113534386D01*
X155813398Y-113538440D01*
G37*
X155813398Y-113538440D02*
X155987447Y-113567309D01*
X156049334Y-113614500D01*
X155976250Y-113676361D01*
X155816500Y-113700463D01*
X155599101Y-113727309D01*
X155466986Y-113775664D01*
X155386152Y-113878245D01*
X155449822Y-113968474D01*
X155633327Y-114026592D01*
X155794283Y-114037834D01*
X156073742Y-114083007D01*
X156286770Y-114199852D01*
X156385885Y-114360356D01*
X156388000Y-114388114D01*
X156351121Y-114525543D01*
X156300355Y-114636066D01*
X156216988Y-114731618D01*
X156067824Y-114781802D01*
X155807728Y-114799152D01*
X155710667Y-114799834D01*
X155412117Y-114789320D01*
X155236924Y-114749424D01*
X155139950Y-114667609D01*
X155120979Y-114636066D01*
X155050606Y-114485139D01*
X155033334Y-114424400D01*
X155090255Y-114375423D01*
X155219753Y-114413478D01*
X155341762Y-114503500D01*
X155543213Y-114604708D01*
X155806476Y-114622602D01*
X156042921Y-114551595D01*
X156048626Y-114548063D01*
X156122824Y-114446352D01*
X156047340Y-114346697D01*
X155841446Y-114262451D01*
X155562116Y-114211016D01*
X155316905Y-114173061D01*
X155193102Y-114111645D01*
X155143013Y-113994473D01*
X155132387Y-113920020D01*
X155147770Y-113714413D01*
X155217054Y-113603817D01*
X155367912Y-113555920D01*
X155586790Y-113534386D01*
X155813398Y-113538440D01*
G36*
X154604605Y-113559954D02*
G01*
X154831691Y-113657745D01*
X154936392Y-113834353D01*
X154948667Y-113956146D01*
X154940614Y-114099655D01*
X154888674Y-114174352D01*
X154751170Y-114202701D01*
X154486429Y-114207167D01*
X154483000Y-114207167D01*
X154227985Y-114193248D01*
X154058844Y-114157344D01*
X154017334Y-114122500D01*
X154092446Y-114069482D01*
X154280085Y-114039992D01*
X154356000Y-114037834D01*
X154599314Y-114013601D01*
X154692762Y-113937925D01*
X154694667Y-113919892D01*
X154624421Y-113785196D01*
X154452461Y-113713434D01*
X154236951Y-113711754D01*
X154036055Y-113787300D01*
X153981048Y-113832214D01*
X153853951Y-114056021D01*
X153865531Y-114290552D01*
X153994457Y-114491114D01*
X154219398Y-114613014D01*
X154362048Y-114630500D01*
X154537758Y-114655574D01*
X154610000Y-114715167D01*
X154537243Y-114774081D01*
X154358530Y-114798680D01*
X154133197Y-114791418D01*
X153920579Y-114754751D01*
X153780014Y-114691135D01*
X153769603Y-114680388D01*
X153649907Y-114427770D01*
X153615230Y-114113487D01*
X153670804Y-113822862D01*
X153712140Y-113743140D01*
X153835536Y-113604670D01*
X154006013Y-113542460D01*
X154236518Y-113529834D01*
X154604605Y-113559954D01*
G37*
X154604605Y-113559954D02*
X154831691Y-113657745D01*
X154936392Y-113834353D01*
X154948667Y-113956146D01*
X154940614Y-114099655D01*
X154888674Y-114174352D01*
X154751170Y-114202701D01*
X154486429Y-114207167D01*
X154483000Y-114207167D01*
X154227985Y-114193248D01*
X154058844Y-114157344D01*
X154017334Y-114122500D01*
X154092446Y-114069482D01*
X154280085Y-114039992D01*
X154356000Y-114037834D01*
X154599314Y-114013601D01*
X154692762Y-113937925D01*
X154694667Y-113919892D01*
X154624421Y-113785196D01*
X154452461Y-113713434D01*
X154236951Y-113711754D01*
X154036055Y-113787300D01*
X153981048Y-113832214D01*
X153853951Y-114056021D01*
X153865531Y-114290552D01*
X153994457Y-114491114D01*
X154219398Y-114613014D01*
X154362048Y-114630500D01*
X154537758Y-114655574D01*
X154610000Y-114715167D01*
X154537243Y-114774081D01*
X154358530Y-114798680D01*
X154133197Y-114791418D01*
X153920579Y-114754751D01*
X153780014Y-114691135D01*
X153769603Y-114680388D01*
X153649907Y-114427770D01*
X153615230Y-114113487D01*
X153670804Y-113822862D01*
X153712140Y-113743140D01*
X153835536Y-113604670D01*
X154006013Y-113542460D01*
X154236518Y-113529834D01*
X154604605Y-113559954D01*
G36*
X152681877Y-113042453D02*
G01*
X152993826Y-113094946D01*
X153016458Y-113101386D01*
X153250971Y-113207122D01*
X153384960Y-113384877D01*
X153428449Y-113498960D01*
X153489840Y-113847788D01*
X153468240Y-114209686D01*
X153371719Y-114517483D01*
X153291720Y-114637072D01*
X153094115Y-114759972D01*
X152781137Y-114799801D01*
X152769489Y-114799834D01*
X152519411Y-114771755D01*
X152424431Y-114705891D01*
X152483429Y-114629794D01*
X152695283Y-114571020D01*
X152779177Y-114561643D01*
X153037342Y-114485465D01*
X153191120Y-114298093D01*
X153252842Y-113981855D01*
X153255334Y-113879171D01*
X153200737Y-113592991D01*
X153026301Y-113408019D01*
X152716058Y-113309275D01*
X152636351Y-113298561D01*
X152239334Y-113253811D01*
X152239334Y-114026822D01*
X152234717Y-114400181D01*
X152217578Y-114633709D01*
X152182987Y-114756739D01*
X152126011Y-114798602D01*
X152109372Y-114799834D01*
X152050535Y-114776292D01*
X152014583Y-114686694D01*
X151998047Y-114502578D01*
X151997454Y-114195483D01*
X152003538Y-113932000D01*
X152027667Y-113064167D01*
X152366334Y-113036298D01*
X152681877Y-113042453D01*
G37*
X152681877Y-113042453D02*
X152993826Y-113094946D01*
X153016458Y-113101386D01*
X153250971Y-113207122D01*
X153384960Y-113384877D01*
X153428449Y-113498960D01*
X153489840Y-113847788D01*
X153468240Y-114209686D01*
X153371719Y-114517483D01*
X153291720Y-114637072D01*
X153094115Y-114759972D01*
X152781137Y-114799801D01*
X152769489Y-114799834D01*
X152519411Y-114771755D01*
X152424431Y-114705891D01*
X152483429Y-114629794D01*
X152695283Y-114571020D01*
X152779177Y-114561643D01*
X153037342Y-114485465D01*
X153191120Y-114298093D01*
X153252842Y-113981855D01*
X153255334Y-113879171D01*
X153200737Y-113592991D01*
X153026301Y-113408019D01*
X152716058Y-113309275D01*
X152636351Y-113298561D01*
X152239334Y-113253811D01*
X152239334Y-114026822D01*
X152234717Y-114400181D01*
X152217578Y-114633709D01*
X152182987Y-114756739D01*
X152126011Y-114798602D01*
X152109372Y-114799834D01*
X152050535Y-114776292D01*
X152014583Y-114686694D01*
X151998047Y-114502578D01*
X151997454Y-114195483D01*
X152003538Y-113932000D01*
X152027667Y-113064167D01*
X152366334Y-113036298D01*
X152681877Y-113042453D01*
G36*
X170518859Y-113029837D02*
G01*
X170780890Y-113051288D01*
X170930110Y-113082348D01*
X170950667Y-113100364D01*
X170889746Y-113197515D01*
X170737525Y-113344850D01*
X170675500Y-113395758D01*
X170400334Y-113612622D01*
X170660742Y-113613561D01*
X170918447Y-113681048D01*
X171140823Y-113849380D01*
X171273440Y-114070148D01*
X171289334Y-114172618D01*
X171210496Y-114442208D01*
X170996777Y-114665254D01*
X170715337Y-114796071D01*
X170377739Y-114871020D01*
X170178302Y-114867367D01*
X170104914Y-114784561D01*
X170104000Y-114768321D01*
X170181776Y-114676384D01*
X170387558Y-114607523D01*
X170428383Y-114600271D01*
X170730785Y-114507155D01*
X170926895Y-114355541D01*
X170992454Y-114170344D01*
X170959648Y-114054616D01*
X170777781Y-113883042D01*
X170493848Y-113823572D01*
X170182049Y-113870398D01*
X169936580Y-113934842D01*
X169812173Y-113943618D01*
X169769220Y-113894532D01*
X169765912Y-113847334D01*
X169830990Y-113739085D01*
X169994167Y-113591006D01*
X170078544Y-113529834D01*
X170390598Y-113318167D01*
X169936373Y-113275834D01*
X169671391Y-113233385D01*
X169492672Y-113170599D01*
X169447352Y-113127667D01*
X169474749Y-113074831D01*
X169612960Y-113041679D01*
X169883188Y-113025154D01*
X170181611Y-113021834D01*
X170518859Y-113029837D01*
G37*
X170518859Y-113029837D02*
X170780890Y-113051288D01*
X170930110Y-113082348D01*
X170950667Y-113100364D01*
X170889746Y-113197515D01*
X170737525Y-113344850D01*
X170675500Y-113395758D01*
X170400334Y-113612622D01*
X170660742Y-113613561D01*
X170918447Y-113681048D01*
X171140823Y-113849380D01*
X171273440Y-114070148D01*
X171289334Y-114172618D01*
X171210496Y-114442208D01*
X170996777Y-114665254D01*
X170715337Y-114796071D01*
X170377739Y-114871020D01*
X170178302Y-114867367D01*
X170104914Y-114784561D01*
X170104000Y-114768321D01*
X170181776Y-114676384D01*
X170387558Y-114607523D01*
X170428383Y-114600271D01*
X170730785Y-114507155D01*
X170926895Y-114355541D01*
X170992454Y-114170344D01*
X170959648Y-114054616D01*
X170777781Y-113883042D01*
X170493848Y-113823572D01*
X170182049Y-113870398D01*
X169936580Y-113934842D01*
X169812173Y-113943618D01*
X169769220Y-113894532D01*
X169765912Y-113847334D01*
X169830990Y-113739085D01*
X169994167Y-113591006D01*
X170078544Y-113529834D01*
X170390598Y-113318167D01*
X169936373Y-113275834D01*
X169671391Y-113233385D01*
X169492672Y-113170599D01*
X169447352Y-113127667D01*
X169474749Y-113074831D01*
X169612960Y-113041679D01*
X169883188Y-113025154D01*
X170181611Y-113021834D01*
X170518859Y-113029837D01*
G36*
X166400873Y-113463724D02*
G01*
X166402889Y-113547339D01*
X166332630Y-113737927D01*
X166322362Y-113762667D01*
X166201718Y-114034757D01*
X166050706Y-114353215D01*
X165986589Y-114482334D01*
X165855181Y-114719379D01*
X165741021Y-114839232D01*
X165595841Y-114880847D01*
X165488241Y-114884500D01*
X165292940Y-114863139D01*
X165195745Y-114810646D01*
X165193334Y-114799834D01*
X165264361Y-114731399D01*
X165365324Y-114715167D01*
X165523115Y-114674012D01*
X165574743Y-114541426D01*
X165520241Y-114303725D01*
X165367121Y-113961990D01*
X165233058Y-113679749D01*
X165180462Y-113517563D01*
X165202925Y-113450737D01*
X165233022Y-113445167D01*
X165336866Y-113515354D01*
X165474961Y-113697033D01*
X165584286Y-113888140D01*
X165808757Y-114331113D01*
X166004253Y-113888140D01*
X166135380Y-113638661D01*
X166260568Y-113480134D01*
X166327221Y-113445167D01*
X166400873Y-113463724D01*
G37*
X166400873Y-113463724D02*
X166402889Y-113547339D01*
X166332630Y-113737927D01*
X166322362Y-113762667D01*
X166201718Y-114034757D01*
X166050706Y-114353215D01*
X165986589Y-114482334D01*
X165855181Y-114719379D01*
X165741021Y-114839232D01*
X165595841Y-114880847D01*
X165488241Y-114884500D01*
X165292940Y-114863139D01*
X165195745Y-114810646D01*
X165193334Y-114799834D01*
X165264361Y-114731399D01*
X165365324Y-114715167D01*
X165523115Y-114674012D01*
X165574743Y-114541426D01*
X165520241Y-114303725D01*
X165367121Y-113961990D01*
X165233058Y-113679749D01*
X165180462Y-113517563D01*
X165202925Y-113450737D01*
X165233022Y-113445167D01*
X165336866Y-113515354D01*
X165474961Y-113697033D01*
X165584286Y-113888140D01*
X165808757Y-114331113D01*
X166004253Y-113888140D01*
X166135380Y-113638661D01*
X166260568Y-113480134D01*
X166327221Y-113445167D01*
X166400873Y-113463724D01*
G36*
X159148014Y-113484677D02*
G01*
X159522457Y-113524938D01*
X159765318Y-113650375D01*
X159895227Y-113881996D01*
X159930813Y-114240807D01*
X159926639Y-114362723D01*
X159889395Y-114675969D01*
X159830054Y-114846896D01*
X159765681Y-114870513D01*
X159713341Y-114741829D01*
X159690097Y-114455853D01*
X159690000Y-114431937D01*
X159651703Y-114051555D01*
X159539564Y-113812211D01*
X159357710Y-113720210D01*
X159232878Y-113733770D01*
X159063872Y-113772972D01*
X158995540Y-113782677D01*
X158960833Y-113860358D01*
X158929636Y-114061579D01*
X158910874Y-114306280D01*
X158878765Y-114625328D01*
X158822642Y-114818902D01*
X158779834Y-114863669D01*
X158725171Y-114835702D01*
X158691729Y-114693736D01*
X158676161Y-114416432D01*
X158674000Y-114189162D01*
X158674000Y-113479713D01*
X159148014Y-113484677D01*
G37*
X159148014Y-113484677D02*
X159522457Y-113524938D01*
X159765318Y-113650375D01*
X159895227Y-113881996D01*
X159930813Y-114240807D01*
X159926639Y-114362723D01*
X159889395Y-114675969D01*
X159830054Y-114846896D01*
X159765681Y-114870513D01*
X159713341Y-114741829D01*
X159690097Y-114455853D01*
X159690000Y-114431937D01*
X159651703Y-114051555D01*
X159539564Y-113812211D01*
X159357710Y-113720210D01*
X159232878Y-113733770D01*
X159063872Y-113772972D01*
X158995540Y-113782677D01*
X158960833Y-113860358D01*
X158929636Y-114061579D01*
X158910874Y-114306280D01*
X158878765Y-114625328D01*
X158822642Y-114818902D01*
X158779834Y-114863669D01*
X158725171Y-114835702D01*
X158691729Y-114693736D01*
X158676161Y-114416432D01*
X158674000Y-114189162D01*
X158674000Y-113479713D01*
X159148014Y-113484677D01*
G36*
X158392730Y-113349805D02*
G01*
X158387364Y-113491897D01*
X158365521Y-113637493D01*
X158309717Y-113892931D01*
X158214555Y-114038253D01*
X158038196Y-114104080D01*
X157738802Y-114121030D01*
X157704567Y-114121204D01*
X157455670Y-114137175D01*
X157359699Y-114175240D01*
X157403652Y-114223683D01*
X157574532Y-114270789D01*
X157859339Y-114304841D01*
X157912000Y-114308150D01*
X158178194Y-114327892D01*
X158316806Y-114365369D01*
X158369432Y-114445595D01*
X158377667Y-114588167D01*
X158377667Y-114842167D01*
X157781301Y-114866690D01*
X157477536Y-114870926D01*
X157243302Y-114858857D01*
X157127056Y-114833088D01*
X157125135Y-114831412D01*
X157065336Y-114694362D01*
X157111911Y-114575396D01*
X157192334Y-114545834D01*
X157305005Y-114591551D01*
X157319334Y-114630500D01*
X157395552Y-114678459D01*
X157590739Y-114709146D01*
X157749722Y-114715167D01*
X158027606Y-114692250D01*
X158148972Y-114636733D01*
X158118307Y-114568467D01*
X157940098Y-114507300D01*
X157695865Y-114476918D01*
X157375741Y-114438492D01*
X157192219Y-114355897D01*
X157113370Y-114201391D01*
X157106223Y-113964643D01*
X157128480Y-113779891D01*
X157319592Y-113779891D01*
X157386321Y-113857287D01*
X157404000Y-113869391D01*
X157581620Y-113930785D01*
X157790070Y-113931520D01*
X157964228Y-113880371D01*
X158038967Y-113786111D01*
X158039000Y-113783834D01*
X157966928Y-113688797D01*
X157794129Y-113636693D01*
X157585726Y-113636299D01*
X157406845Y-113696387D01*
X157404000Y-113698276D01*
X157319592Y-113779891D01*
X157128480Y-113779891D01*
X157140924Y-113676599D01*
X157228410Y-113519349D01*
X157405721Y-113455086D01*
X157615152Y-113445167D01*
X157902615Y-113425910D01*
X158155318Y-113378083D01*
X158203530Y-113362326D01*
X158338484Y-113318560D01*
X158392730Y-113349805D01*
G37*
X158392730Y-113349805D02*
X158387364Y-113491897D01*
X158365521Y-113637493D01*
X158309717Y-113892931D01*
X158214555Y-114038253D01*
X158038196Y-114104080D01*
X157738802Y-114121030D01*
X157704567Y-114121204D01*
X157455670Y-114137175D01*
X157359699Y-114175240D01*
X157403652Y-114223683D01*
X157574532Y-114270789D01*
X157859339Y-114304841D01*
X157912000Y-114308150D01*
X158178194Y-114327892D01*
X158316806Y-114365369D01*
X158369432Y-114445595D01*
X158377667Y-114588167D01*
X158377667Y-114842167D01*
X157781301Y-114866690D01*
X157477536Y-114870926D01*
X157243302Y-114858857D01*
X157127056Y-114833088D01*
X157125135Y-114831412D01*
X157065336Y-114694362D01*
X157111911Y-114575396D01*
X157192334Y-114545834D01*
X157305005Y-114591551D01*
X157319334Y-114630500D01*
X157395552Y-114678459D01*
X157590739Y-114709146D01*
X157749722Y-114715167D01*
X158027606Y-114692250D01*
X158148972Y-114636733D01*
X158118307Y-114568467D01*
X157940098Y-114507300D01*
X157695865Y-114476918D01*
X157375741Y-114438492D01*
X157192219Y-114355897D01*
X157113370Y-114201391D01*
X157106223Y-113964643D01*
X157128480Y-113779891D01*
X157319592Y-113779891D01*
X157386321Y-113857287D01*
X157404000Y-113869391D01*
X157581620Y-113930785D01*
X157790070Y-113931520D01*
X157964228Y-113880371D01*
X158038967Y-113786111D01*
X158039000Y-113783834D01*
X157966928Y-113688797D01*
X157794129Y-113636693D01*
X157585726Y-113636299D01*
X157406845Y-113696387D01*
X157404000Y-113698276D01*
X157319592Y-113779891D01*
X157128480Y-113779891D01*
X157140924Y-113676599D01*
X157228410Y-113519349D01*
X157405721Y-113455086D01*
X157615152Y-113445167D01*
X157902615Y-113425910D01*
X158155318Y-113378083D01*
X158203530Y-113362326D01*
X158338484Y-113318560D01*
X158392730Y-113349805D01*
G36*
X156749496Y-113561736D02*
G01*
X156788603Y-113677489D01*
X156807291Y-113907159D01*
X156811334Y-114207167D01*
X156805352Y-114554701D01*
X156783648Y-114763269D01*
X156740585Y-114862938D01*
X156684334Y-114884500D01*
X156619171Y-114852597D01*
X156580064Y-114736845D01*
X156561376Y-114507175D01*
X156557334Y-114207167D01*
X156563315Y-113859633D01*
X156585019Y-113651065D01*
X156628082Y-113551396D01*
X156684334Y-113529834D01*
X156749496Y-113561736D01*
G37*
X156749496Y-113561736D02*
X156788603Y-113677489D01*
X156807291Y-113907159D01*
X156811334Y-114207167D01*
X156805352Y-114554701D01*
X156783648Y-114763269D01*
X156740585Y-114862938D01*
X156684334Y-114884500D01*
X156619171Y-114852597D01*
X156580064Y-114736845D01*
X156561376Y-114507175D01*
X156557334Y-114207167D01*
X156563315Y-113859633D01*
X156585019Y-113651065D01*
X156628082Y-113551396D01*
X156684334Y-113529834D01*
X156749496Y-113561736D01*
D12*
X46750000Y-30637500D02*
X45250000Y-30637500D01*
X46750000Y-36037500D02*
X46750000Y-30637500D01*
X45250000Y-36037500D02*
X46750000Y-36037500D01*
X45250000Y-30637500D02*
X45250000Y-36037500D01*
X45500000Y-33837500D02*
X46500000Y-33837500D01*
X46500000Y-32837500D02*
X46000000Y-33737500D01*
X45500000Y-32837500D02*
X46500000Y-32837500D01*
X46000000Y-33737500D02*
X45500000Y-32837500D01*
X49900000Y-30637500D02*
X48400000Y-30637500D01*
X49900000Y-36037500D02*
X49900000Y-30637500D01*
X48400000Y-36037500D02*
X49900000Y-36037500D01*
X48400000Y-30637500D02*
X48400000Y-36037500D01*
X48650000Y-33837500D02*
X49650000Y-33837500D01*
X49650000Y-32837500D02*
X49150000Y-33737500D01*
X48650000Y-32837500D02*
X49650000Y-32837500D01*
X49150000Y-33737500D02*
X48650000Y-32837500D01*
X84950000Y-30637500D02*
X83450000Y-30637500D01*
X84950000Y-36037500D02*
X84950000Y-30637500D01*
X83450000Y-36037500D02*
X84950000Y-36037500D01*
X83450000Y-30637500D02*
X83450000Y-36037500D01*
X83700000Y-33837500D02*
X84700000Y-33837500D01*
X84700000Y-32837500D02*
X84200000Y-33737500D01*
X83700000Y-32837500D02*
X84700000Y-32837500D01*
X84200000Y-33737500D02*
X83700000Y-32837500D01*
X104000000Y-30637500D02*
X102500000Y-30637500D01*
X104000000Y-36037500D02*
X104000000Y-30637500D01*
X102500000Y-36037500D02*
X104000000Y-36037500D01*
X102500000Y-30637500D02*
X102500000Y-36037500D01*
X102750000Y-33837500D02*
X103750000Y-33837500D01*
X103750000Y-32837500D02*
X103250000Y-33737500D01*
X102750000Y-32837500D02*
X103750000Y-32837500D01*
X103250000Y-33737500D02*
X102750000Y-32837500D01*
X123050000Y-30637500D02*
X121550000Y-30637500D01*
X123050000Y-36037500D02*
X123050000Y-30637500D01*
X121550000Y-36037500D02*
X123050000Y-36037500D01*
X121550000Y-30637500D02*
X121550000Y-36037500D01*
X121800000Y-33837500D02*
X122800000Y-33837500D01*
X122800000Y-32837500D02*
X122300000Y-33737500D01*
X121800000Y-32837500D02*
X122800000Y-32837500D01*
X122300000Y-33737500D02*
X121800000Y-32837500D01*
X142100000Y-30637500D02*
X140600000Y-30637500D01*
X142100000Y-36037500D02*
X142100000Y-30637500D01*
X140600000Y-36037500D02*
X142100000Y-36037500D01*
X140600000Y-30637500D02*
X140600000Y-36037500D01*
X140850000Y-33837500D02*
X141850000Y-33837500D01*
X141850000Y-32837500D02*
X141350000Y-33737500D01*
X140850000Y-32837500D02*
X141850000Y-32837500D01*
X141350000Y-33737500D02*
X140850000Y-32837500D01*
X161150000Y-30637500D02*
X159650000Y-30637500D01*
X161150000Y-36037500D02*
X161150000Y-30637500D01*
X159650000Y-36037500D02*
X161150000Y-36037500D01*
X159650000Y-30637500D02*
X159650000Y-36037500D01*
X159900000Y-33837500D02*
X160900000Y-33837500D01*
X160900000Y-32837500D02*
X160400000Y-33737500D01*
X159900000Y-32837500D02*
X160900000Y-32837500D01*
X160400000Y-33737500D02*
X159900000Y-32837500D01*
X164200000Y-30637500D02*
X162700000Y-30637500D01*
X164200000Y-36037500D02*
X164200000Y-30637500D01*
X162700000Y-36037500D02*
X164200000Y-36037500D01*
X162700000Y-30637500D02*
X162700000Y-36037500D01*
X162950000Y-33837500D02*
X163950000Y-33837500D01*
X163950000Y-32837500D02*
X163450000Y-33737500D01*
X162950000Y-32837500D02*
X163950000Y-32837500D01*
X163450000Y-33737500D02*
X162950000Y-32837500D01*
X36575000Y-52737500D02*
X36075000Y-51837500D01*
X36075000Y-51837500D02*
X37075000Y-51837500D01*
X37075000Y-51837500D02*
X36575000Y-52737500D01*
X36075000Y-52837500D02*
X37075000Y-52837500D01*
X35825000Y-49637500D02*
X35825000Y-55037500D01*
X35825000Y-55037500D02*
X37325000Y-55037500D01*
X37325000Y-55037500D02*
X37325000Y-49637500D01*
X37325000Y-49637500D02*
X35825000Y-49637500D01*
X55625000Y-52787500D02*
X55125000Y-51887500D01*
X55125000Y-51887500D02*
X56125000Y-51887500D01*
X56125000Y-51887500D02*
X55625000Y-52787500D01*
X55125000Y-52887500D02*
X56125000Y-52887500D01*
X54875000Y-49687500D02*
X54875000Y-55087500D01*
X54875000Y-55087500D02*
X56375000Y-55087500D01*
X56375000Y-55087500D02*
X56375000Y-49687500D01*
X56375000Y-49687500D02*
X54875000Y-49687500D01*
X74675000Y-52787500D02*
X74175000Y-51887500D01*
X74175000Y-51887500D02*
X75175000Y-51887500D01*
X75175000Y-51887500D02*
X74675000Y-52787500D01*
X74175000Y-52887500D02*
X75175000Y-52887500D01*
X73925000Y-49687500D02*
X73925000Y-55087500D01*
X73925000Y-55087500D02*
X75425000Y-55087500D01*
X75425000Y-55087500D02*
X75425000Y-49687500D01*
X75425000Y-49687500D02*
X73925000Y-49687500D01*
X93725000Y-52787500D02*
X93225000Y-51887500D01*
X93225000Y-51887500D02*
X94225000Y-51887500D01*
X94225000Y-51887500D02*
X93725000Y-52787500D01*
X93225000Y-52887500D02*
X94225000Y-52887500D01*
X92975000Y-49687500D02*
X92975000Y-55087500D01*
X92975000Y-55087500D02*
X94475000Y-55087500D01*
X94475000Y-55087500D02*
X94475000Y-49687500D01*
X94475000Y-49687500D02*
X92975000Y-49687500D01*
X112775000Y-52787500D02*
X112275000Y-51887500D01*
X112275000Y-51887500D02*
X113275000Y-51887500D01*
X113275000Y-51887500D02*
X112775000Y-52787500D01*
X112275000Y-52887500D02*
X113275000Y-52887500D01*
X112025000Y-49687500D02*
X112025000Y-55087500D01*
X112025000Y-55087500D02*
X113525000Y-55087500D01*
X113525000Y-55087500D02*
X113525000Y-49687500D01*
X113525000Y-49687500D02*
X112025000Y-49687500D01*
X115825000Y-52787500D02*
X115325000Y-51887500D01*
X115325000Y-51887500D02*
X116325000Y-51887500D01*
X116325000Y-51887500D02*
X115825000Y-52787500D01*
X115325000Y-52887500D02*
X116325000Y-52887500D01*
X115075000Y-49687500D02*
X115075000Y-55087500D01*
X115075000Y-55087500D02*
X116575000Y-55087500D01*
X116575000Y-55087500D02*
X116575000Y-49687500D01*
X116575000Y-49687500D02*
X115075000Y-49687500D01*
X131825000Y-52787500D02*
X131325000Y-51887500D01*
X131325000Y-51887500D02*
X132325000Y-51887500D01*
X132325000Y-51887500D02*
X131825000Y-52787500D01*
X131325000Y-52887500D02*
X132325000Y-52887500D01*
X131075000Y-49687500D02*
X131075000Y-55087500D01*
X131075000Y-55087500D02*
X132575000Y-55087500D01*
X132575000Y-55087500D02*
X132575000Y-49687500D01*
X132575000Y-49687500D02*
X131075000Y-49687500D01*
X134825000Y-52787500D02*
X134325000Y-51887500D01*
X134325000Y-51887500D02*
X135325000Y-51887500D01*
X135325000Y-51887500D02*
X134825000Y-52787500D01*
X134325000Y-52887500D02*
X135325000Y-52887500D01*
X134075000Y-49687500D02*
X134075000Y-55087500D01*
X134075000Y-55087500D02*
X135575000Y-55087500D01*
X135575000Y-55087500D02*
X135575000Y-49687500D01*
X135575000Y-49687500D02*
X134075000Y-49687500D01*
X42087500Y-68737500D02*
X40587500Y-68737500D01*
X42087500Y-74137500D02*
X42087500Y-68737500D01*
X40587500Y-74137500D02*
X42087500Y-74137500D01*
X40587500Y-68737500D02*
X40587500Y-74137500D01*
X40837500Y-71937500D02*
X41837500Y-71937500D01*
X41837500Y-70937500D02*
X41337500Y-71837500D01*
X40837500Y-70937500D02*
X41837500Y-70937500D01*
X41337500Y-71837500D02*
X40837500Y-70937500D01*
X61137500Y-68737500D02*
X59637500Y-68737500D01*
X61137500Y-74137500D02*
X61137500Y-68737500D01*
X59637500Y-74137500D02*
X61137500Y-74137500D01*
X59637500Y-68737500D02*
X59637500Y-74137500D01*
X59887500Y-71937500D02*
X60887500Y-71937500D01*
X60887500Y-70937500D02*
X60387500Y-71837500D01*
X59887500Y-70937500D02*
X60887500Y-70937500D01*
X60387500Y-71837500D02*
X59887500Y-70937500D01*
X80187500Y-68737500D02*
X78687500Y-68737500D01*
X80187500Y-74137500D02*
X80187500Y-68737500D01*
X78687500Y-74137500D02*
X80187500Y-74137500D01*
X78687500Y-68737500D02*
X78687500Y-74137500D01*
X78937500Y-71937500D02*
X79937500Y-71937500D01*
X79937500Y-70937500D02*
X79437500Y-71837500D01*
X78937500Y-70937500D02*
X79937500Y-70937500D01*
X79437500Y-71837500D02*
X78937500Y-70937500D01*
X98487500Y-71837500D02*
X97987500Y-70937500D01*
X97987500Y-70937500D02*
X98987500Y-70937500D01*
X98987500Y-70937500D02*
X98487500Y-71837500D01*
X97987500Y-71937500D02*
X98987500Y-71937500D01*
X97737500Y-68737500D02*
X97737500Y-74137500D01*
X97737500Y-74137500D02*
X99237500Y-74137500D01*
X99237500Y-74137500D02*
X99237500Y-68737500D01*
X99237500Y-68737500D02*
X97737500Y-68737500D01*
X117537500Y-71837500D02*
X117037500Y-70937500D01*
X117037500Y-70937500D02*
X118037500Y-70937500D01*
X118037500Y-70937500D02*
X117537500Y-71837500D01*
X117037500Y-71937500D02*
X118037500Y-71937500D01*
X116787500Y-68737500D02*
X116787500Y-74137500D01*
X116787500Y-74137500D02*
X118287500Y-74137500D01*
X118287500Y-74137500D02*
X118287500Y-68737500D01*
X118287500Y-68737500D02*
X116787500Y-68737500D01*
X137337500Y-68737500D02*
X135837500Y-68737500D01*
X137337500Y-74137500D02*
X137337500Y-68737500D01*
X135837500Y-74137500D02*
X137337500Y-74137500D01*
X135837500Y-68737500D02*
X135837500Y-74137500D01*
X136087500Y-71937500D02*
X137087500Y-71937500D01*
X137087500Y-70937500D02*
X136587500Y-71837500D01*
X136087500Y-70937500D02*
X137087500Y-70937500D01*
X136587500Y-71837500D02*
X136087500Y-70937500D01*
X139543750Y-71837500D02*
X139043750Y-70937500D01*
X139043750Y-70937500D02*
X140043750Y-70937500D01*
X140043750Y-70937500D02*
X139543750Y-71837500D01*
X139043750Y-71937500D02*
X140043750Y-71937500D01*
X138793750Y-68737500D02*
X138793750Y-74137500D01*
X138793750Y-74137500D02*
X140293750Y-74137500D01*
X140293750Y-74137500D02*
X140293750Y-68737500D01*
X140293750Y-68737500D02*
X138793750Y-68737500D01*
X50862500Y-90887500D02*
X50362500Y-89987500D01*
X50362500Y-89987500D02*
X51362500Y-89987500D01*
X51362500Y-89987500D02*
X50862500Y-90887500D01*
X50362500Y-90987500D02*
X51362500Y-90987500D01*
X50112500Y-87787500D02*
X50112500Y-93187500D01*
X50112500Y-93187500D02*
X51612500Y-93187500D01*
X51612500Y-93187500D02*
X51612500Y-87787500D01*
X51612500Y-87787500D02*
X50112500Y-87787500D01*
X69912500Y-90887500D02*
X69412500Y-89987500D01*
X69412500Y-89987500D02*
X70412500Y-89987500D01*
X70412500Y-89987500D02*
X69912500Y-90887500D01*
X69412500Y-90987500D02*
X70412500Y-90987500D01*
X69162500Y-87787500D02*
X69162500Y-93187500D01*
X69162500Y-93187500D02*
X70662500Y-93187500D01*
X70662500Y-93187500D02*
X70662500Y-87787500D01*
X70662500Y-87787500D02*
X69162500Y-87787500D01*
X88962500Y-90887500D02*
X88462500Y-89987500D01*
X88462500Y-89987500D02*
X89462500Y-89987500D01*
X89462500Y-89987500D02*
X88962500Y-90887500D01*
X88462500Y-90987500D02*
X89462500Y-90987500D01*
X88212500Y-87787500D02*
X88212500Y-93187500D01*
X88212500Y-93187500D02*
X89712500Y-93187500D01*
X89712500Y-93187500D02*
X89712500Y-87787500D01*
X89712500Y-87787500D02*
X88212500Y-87787500D01*
X108762500Y-87787500D02*
X107262500Y-87787500D01*
X108762500Y-93187500D02*
X108762500Y-87787500D01*
X107262500Y-93187500D02*
X108762500Y-93187500D01*
X107262500Y-87787500D02*
X107262500Y-93187500D01*
X107512500Y-90987500D02*
X108512500Y-90987500D01*
X108512500Y-89987500D02*
X108012500Y-90887500D01*
X107512500Y-89987500D02*
X108512500Y-89987500D01*
X108012500Y-90887500D02*
X107512500Y-89987500D01*
X127812500Y-87787500D02*
X126312500Y-87787500D01*
X127812500Y-93187500D02*
X127812500Y-87787500D01*
X126312500Y-93187500D02*
X127812500Y-93187500D01*
X126312500Y-87787500D02*
X126312500Y-93187500D01*
X126562500Y-90987500D02*
X127562500Y-90987500D01*
X127562500Y-89987500D02*
X127062500Y-90887500D01*
X126562500Y-89987500D02*
X127562500Y-89987500D01*
X127062500Y-90887500D02*
X126562500Y-89987500D01*
X154006250Y-87787500D02*
X152506250Y-87787500D01*
X154006250Y-93187500D02*
X154006250Y-87787500D01*
X152506250Y-93187500D02*
X154006250Y-93187500D01*
X152506250Y-87787500D02*
X152506250Y-93187500D01*
X152756250Y-90987500D02*
X153756250Y-90987500D01*
X153756250Y-89987500D02*
X153256250Y-90887500D01*
X152756250Y-89987500D02*
X153756250Y-89987500D01*
X153256250Y-90887500D02*
X152756250Y-89987500D01*
X41337500Y-109937500D02*
X40837500Y-109037500D01*
X40837500Y-109037500D02*
X41837500Y-109037500D01*
X41837500Y-109037500D02*
X41337500Y-109937500D01*
X40837500Y-110037500D02*
X41837500Y-110037500D01*
X40587500Y-106837500D02*
X40587500Y-112237500D01*
X40587500Y-112237500D02*
X42087500Y-112237500D01*
X42087500Y-112237500D02*
X42087500Y-106837500D01*
X42087500Y-106837500D02*
X40587500Y-106837500D01*
X84293750Y-109937500D02*
X83793750Y-109037500D01*
X83793750Y-109037500D02*
X84793750Y-109037500D01*
X84793750Y-109037500D02*
X84293750Y-109937500D01*
X83793750Y-110037500D02*
X84793750Y-110037500D01*
X83543750Y-106837500D02*
X83543750Y-112237500D01*
X83543750Y-112237500D02*
X85043750Y-112237500D01*
X85043750Y-112237500D02*
X85043750Y-106837500D01*
X85043750Y-106837500D02*
X83543750Y-106837500D01*
X108012500Y-109937500D02*
X107512500Y-109037500D01*
X107512500Y-109037500D02*
X108512500Y-109037500D01*
X108512500Y-109037500D02*
X108012500Y-109937500D01*
X107512500Y-110037500D02*
X108512500Y-110037500D01*
X107262500Y-106837500D02*
X107262500Y-112237500D01*
X107262500Y-112237500D02*
X108762500Y-112237500D01*
X108762500Y-112237500D02*
X108762500Y-106837500D01*
X108762500Y-106837500D02*
X107262500Y-106837500D01*
X116575000Y-106837500D02*
X115075000Y-106837500D01*
X116575000Y-112237500D02*
X116575000Y-106837500D01*
X115075000Y-112237500D02*
X116575000Y-112237500D01*
X115075000Y-106837500D02*
X115075000Y-112237500D01*
X115325000Y-110037500D02*
X116325000Y-110037500D01*
X116325000Y-109037500D02*
X115825000Y-109937500D01*
X115325000Y-109037500D02*
X116325000Y-109037500D01*
X115825000Y-109937500D02*
X115325000Y-109037500D01*
X163450000Y-90887500D02*
X162950000Y-89987500D01*
X162950000Y-89987500D02*
X163950000Y-89987500D01*
X163950000Y-89987500D02*
X163450000Y-90887500D01*
X162950000Y-90987500D02*
X163950000Y-90987500D01*
X162700000Y-87787500D02*
X162700000Y-93187500D01*
X162700000Y-93187500D02*
X164200000Y-93187500D01*
X164200000Y-93187500D02*
X164200000Y-87787500D01*
X164200000Y-87787500D02*
X162700000Y-87787500D01*
X36766666Y-36917261D02*
X36909523Y-36964880D01*
X37147619Y-36964880D01*
X37242857Y-36917261D01*
X37290476Y-36869642D01*
X37338095Y-36774404D01*
X37338095Y-36679166D01*
X37290476Y-36583928D01*
X37242857Y-36536309D01*
X37147619Y-36488690D01*
X36957142Y-36441071D01*
X36861904Y-36393452D01*
X36814285Y-36345833D01*
X36766666Y-36250595D01*
X36766666Y-36155357D01*
X36814285Y-36060119D01*
X36861904Y-36012500D01*
X36957142Y-35964880D01*
X37195238Y-35964880D01*
X37338095Y-36012500D01*
X37671428Y-35964880D02*
X37909523Y-36964880D01*
X38100000Y-36250595D01*
X38290476Y-36964880D01*
X38528571Y-35964880D01*
X39433333Y-36964880D02*
X38861904Y-36964880D01*
X39147619Y-36964880D02*
X39147619Y-35964880D01*
X39052380Y-36107738D01*
X38957142Y-36202976D01*
X38861904Y-36250595D01*
X55816666Y-36917261D02*
X55959523Y-36964880D01*
X56197619Y-36964880D01*
X56292857Y-36917261D01*
X56340476Y-36869642D01*
X56388095Y-36774404D01*
X56388095Y-36679166D01*
X56340476Y-36583928D01*
X56292857Y-36536309D01*
X56197619Y-36488690D01*
X56007142Y-36441071D01*
X55911904Y-36393452D01*
X55864285Y-36345833D01*
X55816666Y-36250595D01*
X55816666Y-36155357D01*
X55864285Y-36060119D01*
X55911904Y-36012500D01*
X56007142Y-35964880D01*
X56245238Y-35964880D01*
X56388095Y-36012500D01*
X56721428Y-35964880D02*
X56959523Y-36964880D01*
X57150000Y-36250595D01*
X57340476Y-36964880D01*
X57578571Y-35964880D01*
X57911904Y-36060119D02*
X57959523Y-36012500D01*
X58054761Y-35964880D01*
X58292857Y-35964880D01*
X58388095Y-36012500D01*
X58435714Y-36060119D01*
X58483333Y-36155357D01*
X58483333Y-36250595D01*
X58435714Y-36393452D01*
X57864285Y-36964880D01*
X58483333Y-36964880D01*
X74866666Y-36917261D02*
X75009523Y-36964880D01*
X75247619Y-36964880D01*
X75342857Y-36917261D01*
X75390476Y-36869642D01*
X75438095Y-36774404D01*
X75438095Y-36679166D01*
X75390476Y-36583928D01*
X75342857Y-36536309D01*
X75247619Y-36488690D01*
X75057142Y-36441071D01*
X74961904Y-36393452D01*
X74914285Y-36345833D01*
X74866666Y-36250595D01*
X74866666Y-36155357D01*
X74914285Y-36060119D01*
X74961904Y-36012500D01*
X75057142Y-35964880D01*
X75295238Y-35964880D01*
X75438095Y-36012500D01*
X75771428Y-35964880D02*
X76009523Y-36964880D01*
X76200000Y-36250595D01*
X76390476Y-36964880D01*
X76628571Y-35964880D01*
X76914285Y-35964880D02*
X77533333Y-35964880D01*
X77200000Y-36345833D01*
X77342857Y-36345833D01*
X77438095Y-36393452D01*
X77485714Y-36441071D01*
X77533333Y-36536309D01*
X77533333Y-36774404D01*
X77485714Y-36869642D01*
X77438095Y-36917261D01*
X77342857Y-36964880D01*
X77057142Y-36964880D01*
X76961904Y-36917261D01*
X76914285Y-36869642D01*
X93916666Y-36917261D02*
X94059523Y-36964880D01*
X94297619Y-36964880D01*
X94392857Y-36917261D01*
X94440476Y-36869642D01*
X94488095Y-36774404D01*
X94488095Y-36679166D01*
X94440476Y-36583928D01*
X94392857Y-36536309D01*
X94297619Y-36488690D01*
X94107142Y-36441071D01*
X94011904Y-36393452D01*
X93964285Y-36345833D01*
X93916666Y-36250595D01*
X93916666Y-36155357D01*
X93964285Y-36060119D01*
X94011904Y-36012500D01*
X94107142Y-35964880D01*
X94345238Y-35964880D01*
X94488095Y-36012500D01*
X94821428Y-35964880D02*
X95059523Y-36964880D01*
X95250000Y-36250595D01*
X95440476Y-36964880D01*
X95678571Y-35964880D01*
X96488095Y-36298214D02*
X96488095Y-36964880D01*
X96250000Y-35917261D02*
X96011904Y-36631547D01*
X96630952Y-36631547D01*
X112966666Y-36917261D02*
X113109523Y-36964880D01*
X113347619Y-36964880D01*
X113442857Y-36917261D01*
X113490476Y-36869642D01*
X113538095Y-36774404D01*
X113538095Y-36679166D01*
X113490476Y-36583928D01*
X113442857Y-36536309D01*
X113347619Y-36488690D01*
X113157142Y-36441071D01*
X113061904Y-36393452D01*
X113014285Y-36345833D01*
X112966666Y-36250595D01*
X112966666Y-36155357D01*
X113014285Y-36060119D01*
X113061904Y-36012500D01*
X113157142Y-35964880D01*
X113395238Y-35964880D01*
X113538095Y-36012500D01*
X113871428Y-35964880D02*
X114109523Y-36964880D01*
X114300000Y-36250595D01*
X114490476Y-36964880D01*
X114728571Y-35964880D01*
X115585714Y-35964880D02*
X115109523Y-35964880D01*
X115061904Y-36441071D01*
X115109523Y-36393452D01*
X115204761Y-36345833D01*
X115442857Y-36345833D01*
X115538095Y-36393452D01*
X115585714Y-36441071D01*
X115633333Y-36536309D01*
X115633333Y-36774404D01*
X115585714Y-36869642D01*
X115538095Y-36917261D01*
X115442857Y-36964880D01*
X115204761Y-36964880D01*
X115109523Y-36917261D01*
X115061904Y-36869642D01*
X132016666Y-36917261D02*
X132159523Y-36964880D01*
X132397619Y-36964880D01*
X132492857Y-36917261D01*
X132540476Y-36869642D01*
X132588095Y-36774404D01*
X132588095Y-36679166D01*
X132540476Y-36583928D01*
X132492857Y-36536309D01*
X132397619Y-36488690D01*
X132207142Y-36441071D01*
X132111904Y-36393452D01*
X132064285Y-36345833D01*
X132016666Y-36250595D01*
X132016666Y-36155357D01*
X132064285Y-36060119D01*
X132111904Y-36012500D01*
X132207142Y-35964880D01*
X132445238Y-35964880D01*
X132588095Y-36012500D01*
X132921428Y-35964880D02*
X133159523Y-36964880D01*
X133350000Y-36250595D01*
X133540476Y-36964880D01*
X133778571Y-35964880D01*
X134588095Y-35964880D02*
X134397619Y-35964880D01*
X134302380Y-36012500D01*
X134254761Y-36060119D01*
X134159523Y-36202976D01*
X134111904Y-36393452D01*
X134111904Y-36774404D01*
X134159523Y-36869642D01*
X134207142Y-36917261D01*
X134302380Y-36964880D01*
X134492857Y-36964880D01*
X134588095Y-36917261D01*
X134635714Y-36869642D01*
X134683333Y-36774404D01*
X134683333Y-36536309D01*
X134635714Y-36441071D01*
X134588095Y-36393452D01*
X134492857Y-36345833D01*
X134302380Y-36345833D01*
X134207142Y-36393452D01*
X134159523Y-36441071D01*
X134111904Y-36536309D01*
X151066666Y-36917261D02*
X151209523Y-36964880D01*
X151447619Y-36964880D01*
X151542857Y-36917261D01*
X151590476Y-36869642D01*
X151638095Y-36774404D01*
X151638095Y-36679166D01*
X151590476Y-36583928D01*
X151542857Y-36536309D01*
X151447619Y-36488690D01*
X151257142Y-36441071D01*
X151161904Y-36393452D01*
X151114285Y-36345833D01*
X151066666Y-36250595D01*
X151066666Y-36155357D01*
X151114285Y-36060119D01*
X151161904Y-36012500D01*
X151257142Y-35964880D01*
X151495238Y-35964880D01*
X151638095Y-36012500D01*
X151971428Y-35964880D02*
X152209523Y-36964880D01*
X152400000Y-36250595D01*
X152590476Y-36964880D01*
X152828571Y-35964880D01*
X153114285Y-35964880D02*
X153780952Y-35964880D01*
X153352380Y-36964880D01*
X170116666Y-36917261D02*
X170259523Y-36964880D01*
X170497619Y-36964880D01*
X170592857Y-36917261D01*
X170640476Y-36869642D01*
X170688095Y-36774404D01*
X170688095Y-36679166D01*
X170640476Y-36583928D01*
X170592857Y-36536309D01*
X170497619Y-36488690D01*
X170307142Y-36441071D01*
X170211904Y-36393452D01*
X170164285Y-36345833D01*
X170116666Y-36250595D01*
X170116666Y-36155357D01*
X170164285Y-36060119D01*
X170211904Y-36012500D01*
X170307142Y-35964880D01*
X170545238Y-35964880D01*
X170688095Y-36012500D01*
X171021428Y-35964880D02*
X171259523Y-36964880D01*
X171450000Y-36250595D01*
X171640476Y-36964880D01*
X171878571Y-35964880D01*
X172402380Y-36393452D02*
X172307142Y-36345833D01*
X172259523Y-36298214D01*
X172211904Y-36202976D01*
X172211904Y-36155357D01*
X172259523Y-36060119D01*
X172307142Y-36012500D01*
X172402380Y-35964880D01*
X172592857Y-35964880D01*
X172688095Y-36012500D01*
X172735714Y-36060119D01*
X172783333Y-36155357D01*
X172783333Y-36202976D01*
X172735714Y-36298214D01*
X172688095Y-36345833D01*
X172592857Y-36393452D01*
X172402380Y-36393452D01*
X172307142Y-36441071D01*
X172259523Y-36488690D01*
X172211904Y-36583928D01*
X172211904Y-36774404D01*
X172259523Y-36869642D01*
X172307142Y-36917261D01*
X172402380Y-36964880D01*
X172592857Y-36964880D01*
X172688095Y-36917261D01*
X172735714Y-36869642D01*
X172783333Y-36774404D01*
X172783333Y-36583928D01*
X172735714Y-36488690D01*
X172688095Y-36441071D01*
X172592857Y-36393452D01*
X27241666Y-55967261D02*
X27384523Y-56014880D01*
X27622619Y-56014880D01*
X27717857Y-55967261D01*
X27765476Y-55919642D01*
X27813095Y-55824404D01*
X27813095Y-55729166D01*
X27765476Y-55633928D01*
X27717857Y-55586309D01*
X27622619Y-55538690D01*
X27432142Y-55491071D01*
X27336904Y-55443452D01*
X27289285Y-55395833D01*
X27241666Y-55300595D01*
X27241666Y-55205357D01*
X27289285Y-55110119D01*
X27336904Y-55062500D01*
X27432142Y-55014880D01*
X27670238Y-55014880D01*
X27813095Y-55062500D01*
X28146428Y-55014880D02*
X28384523Y-56014880D01*
X28575000Y-55300595D01*
X28765476Y-56014880D01*
X29003571Y-55014880D01*
X29432142Y-56014880D02*
X29622619Y-56014880D01*
X29717857Y-55967261D01*
X29765476Y-55919642D01*
X29860714Y-55776785D01*
X29908333Y-55586309D01*
X29908333Y-55205357D01*
X29860714Y-55110119D01*
X29813095Y-55062500D01*
X29717857Y-55014880D01*
X29527380Y-55014880D01*
X29432142Y-55062500D01*
X29384523Y-55110119D01*
X29336904Y-55205357D01*
X29336904Y-55443452D01*
X29384523Y-55538690D01*
X29432142Y-55586309D01*
X29527380Y-55633928D01*
X29717857Y-55633928D01*
X29813095Y-55586309D01*
X29860714Y-55538690D01*
X29908333Y-55443452D01*
X45815476Y-55967261D02*
X45958333Y-56014880D01*
X46196428Y-56014880D01*
X46291666Y-55967261D01*
X46339285Y-55919642D01*
X46386904Y-55824404D01*
X46386904Y-55729166D01*
X46339285Y-55633928D01*
X46291666Y-55586309D01*
X46196428Y-55538690D01*
X46005952Y-55491071D01*
X45910714Y-55443452D01*
X45863095Y-55395833D01*
X45815476Y-55300595D01*
X45815476Y-55205357D01*
X45863095Y-55110119D01*
X45910714Y-55062500D01*
X46005952Y-55014880D01*
X46244047Y-55014880D01*
X46386904Y-55062500D01*
X46720238Y-55014880D02*
X46958333Y-56014880D01*
X47148809Y-55300595D01*
X47339285Y-56014880D01*
X47577380Y-55014880D01*
X48482142Y-56014880D02*
X47910714Y-56014880D01*
X48196428Y-56014880D02*
X48196428Y-55014880D01*
X48101190Y-55157738D01*
X48005952Y-55252976D01*
X47910714Y-55300595D01*
X49101190Y-55014880D02*
X49196428Y-55014880D01*
X49291666Y-55062500D01*
X49339285Y-55110119D01*
X49386904Y-55205357D01*
X49434523Y-55395833D01*
X49434523Y-55633928D01*
X49386904Y-55824404D01*
X49339285Y-55919642D01*
X49291666Y-55967261D01*
X49196428Y-56014880D01*
X49101190Y-56014880D01*
X49005952Y-55967261D01*
X48958333Y-55919642D01*
X48910714Y-55824404D01*
X48863095Y-55633928D01*
X48863095Y-55395833D01*
X48910714Y-55205357D01*
X48958333Y-55110119D01*
X49005952Y-55062500D01*
X49101190Y-55014880D01*
X64865476Y-55967261D02*
X65008333Y-56014880D01*
X65246428Y-56014880D01*
X65341666Y-55967261D01*
X65389285Y-55919642D01*
X65436904Y-55824404D01*
X65436904Y-55729166D01*
X65389285Y-55633928D01*
X65341666Y-55586309D01*
X65246428Y-55538690D01*
X65055952Y-55491071D01*
X64960714Y-55443452D01*
X64913095Y-55395833D01*
X64865476Y-55300595D01*
X64865476Y-55205357D01*
X64913095Y-55110119D01*
X64960714Y-55062500D01*
X65055952Y-55014880D01*
X65294047Y-55014880D01*
X65436904Y-55062500D01*
X65770238Y-55014880D02*
X66008333Y-56014880D01*
X66198809Y-55300595D01*
X66389285Y-56014880D01*
X66627380Y-55014880D01*
X67532142Y-56014880D02*
X66960714Y-56014880D01*
X67246428Y-56014880D02*
X67246428Y-55014880D01*
X67151190Y-55157738D01*
X67055952Y-55252976D01*
X66960714Y-55300595D01*
X68484523Y-56014880D02*
X67913095Y-56014880D01*
X68198809Y-56014880D02*
X68198809Y-55014880D01*
X68103571Y-55157738D01*
X68008333Y-55252976D01*
X67913095Y-55300595D01*
X83915476Y-55967261D02*
X84058333Y-56014880D01*
X84296428Y-56014880D01*
X84391666Y-55967261D01*
X84439285Y-55919642D01*
X84486904Y-55824404D01*
X84486904Y-55729166D01*
X84439285Y-55633928D01*
X84391666Y-55586309D01*
X84296428Y-55538690D01*
X84105952Y-55491071D01*
X84010714Y-55443452D01*
X83963095Y-55395833D01*
X83915476Y-55300595D01*
X83915476Y-55205357D01*
X83963095Y-55110119D01*
X84010714Y-55062500D01*
X84105952Y-55014880D01*
X84344047Y-55014880D01*
X84486904Y-55062500D01*
X84820238Y-55014880D02*
X85058333Y-56014880D01*
X85248809Y-55300595D01*
X85439285Y-56014880D01*
X85677380Y-55014880D01*
X86582142Y-56014880D02*
X86010714Y-56014880D01*
X86296428Y-56014880D02*
X86296428Y-55014880D01*
X86201190Y-55157738D01*
X86105952Y-55252976D01*
X86010714Y-55300595D01*
X86963095Y-55110119D02*
X87010714Y-55062500D01*
X87105952Y-55014880D01*
X87344047Y-55014880D01*
X87439285Y-55062500D01*
X87486904Y-55110119D01*
X87534523Y-55205357D01*
X87534523Y-55300595D01*
X87486904Y-55443452D01*
X86915476Y-56014880D01*
X87534523Y-56014880D01*
X102965476Y-55967261D02*
X103108333Y-56014880D01*
X103346428Y-56014880D01*
X103441666Y-55967261D01*
X103489285Y-55919642D01*
X103536904Y-55824404D01*
X103536904Y-55729166D01*
X103489285Y-55633928D01*
X103441666Y-55586309D01*
X103346428Y-55538690D01*
X103155952Y-55491071D01*
X103060714Y-55443452D01*
X103013095Y-55395833D01*
X102965476Y-55300595D01*
X102965476Y-55205357D01*
X103013095Y-55110119D01*
X103060714Y-55062500D01*
X103155952Y-55014880D01*
X103394047Y-55014880D01*
X103536904Y-55062500D01*
X103870238Y-55014880D02*
X104108333Y-56014880D01*
X104298809Y-55300595D01*
X104489285Y-56014880D01*
X104727380Y-55014880D01*
X105632142Y-56014880D02*
X105060714Y-56014880D01*
X105346428Y-56014880D02*
X105346428Y-55014880D01*
X105251190Y-55157738D01*
X105155952Y-55252976D01*
X105060714Y-55300595D01*
X105965476Y-55014880D02*
X106584523Y-55014880D01*
X106251190Y-55395833D01*
X106394047Y-55395833D01*
X106489285Y-55443452D01*
X106536904Y-55491071D01*
X106584523Y-55586309D01*
X106584523Y-55824404D01*
X106536904Y-55919642D01*
X106489285Y-55967261D01*
X106394047Y-56014880D01*
X106108333Y-56014880D01*
X106013095Y-55967261D01*
X105965476Y-55919642D01*
X122015476Y-55967261D02*
X122158333Y-56014880D01*
X122396428Y-56014880D01*
X122491666Y-55967261D01*
X122539285Y-55919642D01*
X122586904Y-55824404D01*
X122586904Y-55729166D01*
X122539285Y-55633928D01*
X122491666Y-55586309D01*
X122396428Y-55538690D01*
X122205952Y-55491071D01*
X122110714Y-55443452D01*
X122063095Y-55395833D01*
X122015476Y-55300595D01*
X122015476Y-55205357D01*
X122063095Y-55110119D01*
X122110714Y-55062500D01*
X122205952Y-55014880D01*
X122444047Y-55014880D01*
X122586904Y-55062500D01*
X122920238Y-55014880D02*
X123158333Y-56014880D01*
X123348809Y-55300595D01*
X123539285Y-56014880D01*
X123777380Y-55014880D01*
X124682142Y-56014880D02*
X124110714Y-56014880D01*
X124396428Y-56014880D02*
X124396428Y-55014880D01*
X124301190Y-55157738D01*
X124205952Y-55252976D01*
X124110714Y-55300595D01*
X125539285Y-55348214D02*
X125539285Y-56014880D01*
X125301190Y-54967261D02*
X125063095Y-55681547D01*
X125682142Y-55681547D01*
X141065476Y-55967261D02*
X141208333Y-56014880D01*
X141446428Y-56014880D01*
X141541666Y-55967261D01*
X141589285Y-55919642D01*
X141636904Y-55824404D01*
X141636904Y-55729166D01*
X141589285Y-55633928D01*
X141541666Y-55586309D01*
X141446428Y-55538690D01*
X141255952Y-55491071D01*
X141160714Y-55443452D01*
X141113095Y-55395833D01*
X141065476Y-55300595D01*
X141065476Y-55205357D01*
X141113095Y-55110119D01*
X141160714Y-55062500D01*
X141255952Y-55014880D01*
X141494047Y-55014880D01*
X141636904Y-55062500D01*
X141970238Y-55014880D02*
X142208333Y-56014880D01*
X142398809Y-55300595D01*
X142589285Y-56014880D01*
X142827380Y-55014880D01*
X143732142Y-56014880D02*
X143160714Y-56014880D01*
X143446428Y-56014880D02*
X143446428Y-55014880D01*
X143351190Y-55157738D01*
X143255952Y-55252976D01*
X143160714Y-55300595D01*
X144636904Y-55014880D02*
X144160714Y-55014880D01*
X144113095Y-55491071D01*
X144160714Y-55443452D01*
X144255952Y-55395833D01*
X144494047Y-55395833D01*
X144589285Y-55443452D01*
X144636904Y-55491071D01*
X144684523Y-55586309D01*
X144684523Y-55824404D01*
X144636904Y-55919642D01*
X144589285Y-55967261D01*
X144494047Y-56014880D01*
X144255952Y-56014880D01*
X144160714Y-55967261D01*
X144113095Y-55919642D01*
X164877976Y-55967261D02*
X165020833Y-56014880D01*
X165258928Y-56014880D01*
X165354166Y-55967261D01*
X165401785Y-55919642D01*
X165449404Y-55824404D01*
X165449404Y-55729166D01*
X165401785Y-55633928D01*
X165354166Y-55586309D01*
X165258928Y-55538690D01*
X165068452Y-55491071D01*
X164973214Y-55443452D01*
X164925595Y-55395833D01*
X164877976Y-55300595D01*
X164877976Y-55205357D01*
X164925595Y-55110119D01*
X164973214Y-55062500D01*
X165068452Y-55014880D01*
X165306547Y-55014880D01*
X165449404Y-55062500D01*
X165782738Y-55014880D02*
X166020833Y-56014880D01*
X166211309Y-55300595D01*
X166401785Y-56014880D01*
X166639880Y-55014880D01*
X167544642Y-56014880D02*
X166973214Y-56014880D01*
X167258928Y-56014880D02*
X167258928Y-55014880D01*
X167163690Y-55157738D01*
X167068452Y-55252976D01*
X166973214Y-55300595D01*
X168401785Y-55014880D02*
X168211309Y-55014880D01*
X168116071Y-55062500D01*
X168068452Y-55110119D01*
X167973214Y-55252976D01*
X167925595Y-55443452D01*
X167925595Y-55824404D01*
X167973214Y-55919642D01*
X168020833Y-55967261D01*
X168116071Y-56014880D01*
X168306547Y-56014880D01*
X168401785Y-55967261D01*
X168449404Y-55919642D01*
X168497023Y-55824404D01*
X168497023Y-55586309D01*
X168449404Y-55491071D01*
X168401785Y-55443452D01*
X168306547Y-55395833D01*
X168116071Y-55395833D01*
X168020833Y-55443452D01*
X167973214Y-55491071D01*
X167925595Y-55586309D01*
X31527976Y-75017261D02*
X31670833Y-75064880D01*
X31908928Y-75064880D01*
X32004166Y-75017261D01*
X32051785Y-74969642D01*
X32099404Y-74874404D01*
X32099404Y-74779166D01*
X32051785Y-74683928D01*
X32004166Y-74636309D01*
X31908928Y-74588690D01*
X31718452Y-74541071D01*
X31623214Y-74493452D01*
X31575595Y-74445833D01*
X31527976Y-74350595D01*
X31527976Y-74255357D01*
X31575595Y-74160119D01*
X31623214Y-74112500D01*
X31718452Y-74064880D01*
X31956547Y-74064880D01*
X32099404Y-74112500D01*
X32432738Y-74064880D02*
X32670833Y-75064880D01*
X32861309Y-74350595D01*
X33051785Y-75064880D01*
X33289880Y-74064880D01*
X34194642Y-75064880D02*
X33623214Y-75064880D01*
X33908928Y-75064880D02*
X33908928Y-74064880D01*
X33813690Y-74207738D01*
X33718452Y-74302976D01*
X33623214Y-74350595D01*
X34527976Y-74064880D02*
X35194642Y-74064880D01*
X34766071Y-75064880D01*
X50577976Y-75017261D02*
X50720833Y-75064880D01*
X50958928Y-75064880D01*
X51054166Y-75017261D01*
X51101785Y-74969642D01*
X51149404Y-74874404D01*
X51149404Y-74779166D01*
X51101785Y-74683928D01*
X51054166Y-74636309D01*
X50958928Y-74588690D01*
X50768452Y-74541071D01*
X50673214Y-74493452D01*
X50625595Y-74445833D01*
X50577976Y-74350595D01*
X50577976Y-74255357D01*
X50625595Y-74160119D01*
X50673214Y-74112500D01*
X50768452Y-74064880D01*
X51006547Y-74064880D01*
X51149404Y-74112500D01*
X51482738Y-74064880D02*
X51720833Y-75064880D01*
X51911309Y-74350595D01*
X52101785Y-75064880D01*
X52339880Y-74064880D01*
X53244642Y-75064880D02*
X52673214Y-75064880D01*
X52958928Y-75064880D02*
X52958928Y-74064880D01*
X52863690Y-74207738D01*
X52768452Y-74302976D01*
X52673214Y-74350595D01*
X53816071Y-74493452D02*
X53720833Y-74445833D01*
X53673214Y-74398214D01*
X53625595Y-74302976D01*
X53625595Y-74255357D01*
X53673214Y-74160119D01*
X53720833Y-74112500D01*
X53816071Y-74064880D01*
X54006547Y-74064880D01*
X54101785Y-74112500D01*
X54149404Y-74160119D01*
X54197023Y-74255357D01*
X54197023Y-74302976D01*
X54149404Y-74398214D01*
X54101785Y-74445833D01*
X54006547Y-74493452D01*
X53816071Y-74493452D01*
X53720833Y-74541071D01*
X53673214Y-74588690D01*
X53625595Y-74683928D01*
X53625595Y-74874404D01*
X53673214Y-74969642D01*
X53720833Y-75017261D01*
X53816071Y-75064880D01*
X54006547Y-75064880D01*
X54101785Y-75017261D01*
X54149404Y-74969642D01*
X54197023Y-74874404D01*
X54197023Y-74683928D01*
X54149404Y-74588690D01*
X54101785Y-74541071D01*
X54006547Y-74493452D01*
X69627976Y-75017261D02*
X69770833Y-75064880D01*
X70008928Y-75064880D01*
X70104166Y-75017261D01*
X70151785Y-74969642D01*
X70199404Y-74874404D01*
X70199404Y-74779166D01*
X70151785Y-74683928D01*
X70104166Y-74636309D01*
X70008928Y-74588690D01*
X69818452Y-74541071D01*
X69723214Y-74493452D01*
X69675595Y-74445833D01*
X69627976Y-74350595D01*
X69627976Y-74255357D01*
X69675595Y-74160119D01*
X69723214Y-74112500D01*
X69818452Y-74064880D01*
X70056547Y-74064880D01*
X70199404Y-74112500D01*
X70532738Y-74064880D02*
X70770833Y-75064880D01*
X70961309Y-74350595D01*
X71151785Y-75064880D01*
X71389880Y-74064880D01*
X72294642Y-75064880D02*
X71723214Y-75064880D01*
X72008928Y-75064880D02*
X72008928Y-74064880D01*
X71913690Y-74207738D01*
X71818452Y-74302976D01*
X71723214Y-74350595D01*
X72770833Y-75064880D02*
X72961309Y-75064880D01*
X73056547Y-75017261D01*
X73104166Y-74969642D01*
X73199404Y-74826785D01*
X73247023Y-74636309D01*
X73247023Y-74255357D01*
X73199404Y-74160119D01*
X73151785Y-74112500D01*
X73056547Y-74064880D01*
X72866071Y-74064880D01*
X72770833Y-74112500D01*
X72723214Y-74160119D01*
X72675595Y-74255357D01*
X72675595Y-74493452D01*
X72723214Y-74588690D01*
X72770833Y-74636309D01*
X72866071Y-74683928D01*
X73056547Y-74683928D01*
X73151785Y-74636309D01*
X73199404Y-74588690D01*
X73247023Y-74493452D01*
X88677976Y-75017261D02*
X88820833Y-75064880D01*
X89058928Y-75064880D01*
X89154166Y-75017261D01*
X89201785Y-74969642D01*
X89249404Y-74874404D01*
X89249404Y-74779166D01*
X89201785Y-74683928D01*
X89154166Y-74636309D01*
X89058928Y-74588690D01*
X88868452Y-74541071D01*
X88773214Y-74493452D01*
X88725595Y-74445833D01*
X88677976Y-74350595D01*
X88677976Y-74255357D01*
X88725595Y-74160119D01*
X88773214Y-74112500D01*
X88868452Y-74064880D01*
X89106547Y-74064880D01*
X89249404Y-74112500D01*
X89582738Y-74064880D02*
X89820833Y-75064880D01*
X90011309Y-74350595D01*
X90201785Y-75064880D01*
X90439880Y-74064880D01*
X90773214Y-74160119D02*
X90820833Y-74112500D01*
X90916071Y-74064880D01*
X91154166Y-74064880D01*
X91249404Y-74112500D01*
X91297023Y-74160119D01*
X91344642Y-74255357D01*
X91344642Y-74350595D01*
X91297023Y-74493452D01*
X90725595Y-75064880D01*
X91344642Y-75064880D01*
X91963690Y-74064880D02*
X92058928Y-74064880D01*
X92154166Y-74112500D01*
X92201785Y-74160119D01*
X92249404Y-74255357D01*
X92297023Y-74445833D01*
X92297023Y-74683928D01*
X92249404Y-74874404D01*
X92201785Y-74969642D01*
X92154166Y-75017261D01*
X92058928Y-75064880D01*
X91963690Y-75064880D01*
X91868452Y-75017261D01*
X91820833Y-74969642D01*
X91773214Y-74874404D01*
X91725595Y-74683928D01*
X91725595Y-74445833D01*
X91773214Y-74255357D01*
X91820833Y-74160119D01*
X91868452Y-74112500D01*
X91963690Y-74064880D01*
X107727976Y-75017261D02*
X107870833Y-75064880D01*
X108108928Y-75064880D01*
X108204166Y-75017261D01*
X108251785Y-74969642D01*
X108299404Y-74874404D01*
X108299404Y-74779166D01*
X108251785Y-74683928D01*
X108204166Y-74636309D01*
X108108928Y-74588690D01*
X107918452Y-74541071D01*
X107823214Y-74493452D01*
X107775595Y-74445833D01*
X107727976Y-74350595D01*
X107727976Y-74255357D01*
X107775595Y-74160119D01*
X107823214Y-74112500D01*
X107918452Y-74064880D01*
X108156547Y-74064880D01*
X108299404Y-74112500D01*
X108632738Y-74064880D02*
X108870833Y-75064880D01*
X109061309Y-74350595D01*
X109251785Y-75064880D01*
X109489880Y-74064880D01*
X109823214Y-74160119D02*
X109870833Y-74112500D01*
X109966071Y-74064880D01*
X110204166Y-74064880D01*
X110299404Y-74112500D01*
X110347023Y-74160119D01*
X110394642Y-74255357D01*
X110394642Y-74350595D01*
X110347023Y-74493452D01*
X109775595Y-75064880D01*
X110394642Y-75064880D01*
X111347023Y-75064880D02*
X110775595Y-75064880D01*
X111061309Y-75064880D02*
X111061309Y-74064880D01*
X110966071Y-74207738D01*
X110870833Y-74302976D01*
X110775595Y-74350595D01*
X126777976Y-75017261D02*
X126920833Y-75064880D01*
X127158928Y-75064880D01*
X127254166Y-75017261D01*
X127301785Y-74969642D01*
X127349404Y-74874404D01*
X127349404Y-74779166D01*
X127301785Y-74683928D01*
X127254166Y-74636309D01*
X127158928Y-74588690D01*
X126968452Y-74541071D01*
X126873214Y-74493452D01*
X126825595Y-74445833D01*
X126777976Y-74350595D01*
X126777976Y-74255357D01*
X126825595Y-74160119D01*
X126873214Y-74112500D01*
X126968452Y-74064880D01*
X127206547Y-74064880D01*
X127349404Y-74112500D01*
X127682738Y-74064880D02*
X127920833Y-75064880D01*
X128111309Y-74350595D01*
X128301785Y-75064880D01*
X128539880Y-74064880D01*
X128873214Y-74160119D02*
X128920833Y-74112500D01*
X129016071Y-74064880D01*
X129254166Y-74064880D01*
X129349404Y-74112500D01*
X129397023Y-74160119D01*
X129444642Y-74255357D01*
X129444642Y-74350595D01*
X129397023Y-74493452D01*
X128825595Y-75064880D01*
X129444642Y-75064880D01*
X129825595Y-74160119D02*
X129873214Y-74112500D01*
X129968452Y-74064880D01*
X130206547Y-74064880D01*
X130301785Y-74112500D01*
X130349404Y-74160119D01*
X130397023Y-74255357D01*
X130397023Y-74350595D01*
X130349404Y-74493452D01*
X129777976Y-75064880D01*
X130397023Y-75064880D01*
X41052976Y-94067261D02*
X41195833Y-94114880D01*
X41433928Y-94114880D01*
X41529166Y-94067261D01*
X41576785Y-94019642D01*
X41624404Y-93924404D01*
X41624404Y-93829166D01*
X41576785Y-93733928D01*
X41529166Y-93686309D01*
X41433928Y-93638690D01*
X41243452Y-93591071D01*
X41148214Y-93543452D01*
X41100595Y-93495833D01*
X41052976Y-93400595D01*
X41052976Y-93305357D01*
X41100595Y-93210119D01*
X41148214Y-93162500D01*
X41243452Y-93114880D01*
X41481547Y-93114880D01*
X41624404Y-93162500D01*
X41957738Y-93114880D02*
X42195833Y-94114880D01*
X42386309Y-93400595D01*
X42576785Y-94114880D01*
X42814880Y-93114880D01*
X43148214Y-93210119D02*
X43195833Y-93162500D01*
X43291071Y-93114880D01*
X43529166Y-93114880D01*
X43624404Y-93162500D01*
X43672023Y-93210119D01*
X43719642Y-93305357D01*
X43719642Y-93400595D01*
X43672023Y-93543452D01*
X43100595Y-94114880D01*
X43719642Y-94114880D01*
X44576785Y-93448214D02*
X44576785Y-94114880D01*
X44338690Y-93067261D02*
X44100595Y-93781547D01*
X44719642Y-93781547D01*
X60102976Y-94067261D02*
X60245833Y-94114880D01*
X60483928Y-94114880D01*
X60579166Y-94067261D01*
X60626785Y-94019642D01*
X60674404Y-93924404D01*
X60674404Y-93829166D01*
X60626785Y-93733928D01*
X60579166Y-93686309D01*
X60483928Y-93638690D01*
X60293452Y-93591071D01*
X60198214Y-93543452D01*
X60150595Y-93495833D01*
X60102976Y-93400595D01*
X60102976Y-93305357D01*
X60150595Y-93210119D01*
X60198214Y-93162500D01*
X60293452Y-93114880D01*
X60531547Y-93114880D01*
X60674404Y-93162500D01*
X61007738Y-93114880D02*
X61245833Y-94114880D01*
X61436309Y-93400595D01*
X61626785Y-94114880D01*
X61864880Y-93114880D01*
X62198214Y-93210119D02*
X62245833Y-93162500D01*
X62341071Y-93114880D01*
X62579166Y-93114880D01*
X62674404Y-93162500D01*
X62722023Y-93210119D01*
X62769642Y-93305357D01*
X62769642Y-93400595D01*
X62722023Y-93543452D01*
X62150595Y-94114880D01*
X62769642Y-94114880D01*
X63674404Y-93114880D02*
X63198214Y-93114880D01*
X63150595Y-93591071D01*
X63198214Y-93543452D01*
X63293452Y-93495833D01*
X63531547Y-93495833D01*
X63626785Y-93543452D01*
X63674404Y-93591071D01*
X63722023Y-93686309D01*
X63722023Y-93924404D01*
X63674404Y-94019642D01*
X63626785Y-94067261D01*
X63531547Y-94114880D01*
X63293452Y-94114880D01*
X63198214Y-94067261D01*
X63150595Y-94019642D01*
X79152976Y-94067261D02*
X79295833Y-94114880D01*
X79533928Y-94114880D01*
X79629166Y-94067261D01*
X79676785Y-94019642D01*
X79724404Y-93924404D01*
X79724404Y-93829166D01*
X79676785Y-93733928D01*
X79629166Y-93686309D01*
X79533928Y-93638690D01*
X79343452Y-93591071D01*
X79248214Y-93543452D01*
X79200595Y-93495833D01*
X79152976Y-93400595D01*
X79152976Y-93305357D01*
X79200595Y-93210119D01*
X79248214Y-93162500D01*
X79343452Y-93114880D01*
X79581547Y-93114880D01*
X79724404Y-93162500D01*
X80057738Y-93114880D02*
X80295833Y-94114880D01*
X80486309Y-93400595D01*
X80676785Y-94114880D01*
X80914880Y-93114880D01*
X81248214Y-93210119D02*
X81295833Y-93162500D01*
X81391071Y-93114880D01*
X81629166Y-93114880D01*
X81724404Y-93162500D01*
X81772023Y-93210119D01*
X81819642Y-93305357D01*
X81819642Y-93400595D01*
X81772023Y-93543452D01*
X81200595Y-94114880D01*
X81819642Y-94114880D01*
X82676785Y-93114880D02*
X82486309Y-93114880D01*
X82391071Y-93162500D01*
X82343452Y-93210119D01*
X82248214Y-93352976D01*
X82200595Y-93543452D01*
X82200595Y-93924404D01*
X82248214Y-94019642D01*
X82295833Y-94067261D01*
X82391071Y-94114880D01*
X82581547Y-94114880D01*
X82676785Y-94067261D01*
X82724404Y-94019642D01*
X82772023Y-93924404D01*
X82772023Y-93686309D01*
X82724404Y-93591071D01*
X82676785Y-93543452D01*
X82581547Y-93495833D01*
X82391071Y-93495833D01*
X82295833Y-93543452D01*
X82248214Y-93591071D01*
X82200595Y-93686309D01*
X98202976Y-94067261D02*
X98345833Y-94114880D01*
X98583928Y-94114880D01*
X98679166Y-94067261D01*
X98726785Y-94019642D01*
X98774404Y-93924404D01*
X98774404Y-93829166D01*
X98726785Y-93733928D01*
X98679166Y-93686309D01*
X98583928Y-93638690D01*
X98393452Y-93591071D01*
X98298214Y-93543452D01*
X98250595Y-93495833D01*
X98202976Y-93400595D01*
X98202976Y-93305357D01*
X98250595Y-93210119D01*
X98298214Y-93162500D01*
X98393452Y-93114880D01*
X98631547Y-93114880D01*
X98774404Y-93162500D01*
X99107738Y-93114880D02*
X99345833Y-94114880D01*
X99536309Y-93400595D01*
X99726785Y-94114880D01*
X99964880Y-93114880D01*
X100298214Y-93210119D02*
X100345833Y-93162500D01*
X100441071Y-93114880D01*
X100679166Y-93114880D01*
X100774404Y-93162500D01*
X100822023Y-93210119D01*
X100869642Y-93305357D01*
X100869642Y-93400595D01*
X100822023Y-93543452D01*
X100250595Y-94114880D01*
X100869642Y-94114880D01*
X101202976Y-93114880D02*
X101869642Y-93114880D01*
X101441071Y-94114880D01*
X117252976Y-94067261D02*
X117395833Y-94114880D01*
X117633928Y-94114880D01*
X117729166Y-94067261D01*
X117776785Y-94019642D01*
X117824404Y-93924404D01*
X117824404Y-93829166D01*
X117776785Y-93733928D01*
X117729166Y-93686309D01*
X117633928Y-93638690D01*
X117443452Y-93591071D01*
X117348214Y-93543452D01*
X117300595Y-93495833D01*
X117252976Y-93400595D01*
X117252976Y-93305357D01*
X117300595Y-93210119D01*
X117348214Y-93162500D01*
X117443452Y-93114880D01*
X117681547Y-93114880D01*
X117824404Y-93162500D01*
X118157738Y-93114880D02*
X118395833Y-94114880D01*
X118586309Y-93400595D01*
X118776785Y-94114880D01*
X119014880Y-93114880D01*
X119348214Y-93210119D02*
X119395833Y-93162500D01*
X119491071Y-93114880D01*
X119729166Y-93114880D01*
X119824404Y-93162500D01*
X119872023Y-93210119D01*
X119919642Y-93305357D01*
X119919642Y-93400595D01*
X119872023Y-93543452D01*
X119300595Y-94114880D01*
X119919642Y-94114880D01*
X120491071Y-93543452D02*
X120395833Y-93495833D01*
X120348214Y-93448214D01*
X120300595Y-93352976D01*
X120300595Y-93305357D01*
X120348214Y-93210119D01*
X120395833Y-93162500D01*
X120491071Y-93114880D01*
X120681547Y-93114880D01*
X120776785Y-93162500D01*
X120824404Y-93210119D01*
X120872023Y-93305357D01*
X120872023Y-93352976D01*
X120824404Y-93448214D01*
X120776785Y-93495833D01*
X120681547Y-93543452D01*
X120491071Y-93543452D01*
X120395833Y-93591071D01*
X120348214Y-93638690D01*
X120300595Y-93733928D01*
X120300595Y-93924404D01*
X120348214Y-94019642D01*
X120395833Y-94067261D01*
X120491071Y-94114880D01*
X120681547Y-94114880D01*
X120776785Y-94067261D01*
X120824404Y-94019642D01*
X120872023Y-93924404D01*
X120872023Y-93733928D01*
X120824404Y-93638690D01*
X120776785Y-93591071D01*
X120681547Y-93543452D01*
X143446726Y-94067261D02*
X143589583Y-94114880D01*
X143827678Y-94114880D01*
X143922916Y-94067261D01*
X143970535Y-94019642D01*
X144018154Y-93924404D01*
X144018154Y-93829166D01*
X143970535Y-93733928D01*
X143922916Y-93686309D01*
X143827678Y-93638690D01*
X143637202Y-93591071D01*
X143541964Y-93543452D01*
X143494345Y-93495833D01*
X143446726Y-93400595D01*
X143446726Y-93305357D01*
X143494345Y-93210119D01*
X143541964Y-93162500D01*
X143637202Y-93114880D01*
X143875297Y-93114880D01*
X144018154Y-93162500D01*
X144351488Y-93114880D02*
X144589583Y-94114880D01*
X144780059Y-93400595D01*
X144970535Y-94114880D01*
X145208630Y-93114880D01*
X145541964Y-93210119D02*
X145589583Y-93162500D01*
X145684821Y-93114880D01*
X145922916Y-93114880D01*
X146018154Y-93162500D01*
X146065773Y-93210119D01*
X146113392Y-93305357D01*
X146113392Y-93400595D01*
X146065773Y-93543452D01*
X145494345Y-94114880D01*
X146113392Y-94114880D01*
X146589583Y-94114880D02*
X146780059Y-94114880D01*
X146875297Y-94067261D01*
X146922916Y-94019642D01*
X147018154Y-93876785D01*
X147065773Y-93686309D01*
X147065773Y-93305357D01*
X147018154Y-93210119D01*
X146970535Y-93162500D01*
X146875297Y-93114880D01*
X146684821Y-93114880D01*
X146589583Y-93162500D01*
X146541964Y-93210119D01*
X146494345Y-93305357D01*
X146494345Y-93543452D01*
X146541964Y-93638690D01*
X146589583Y-93686309D01*
X146684821Y-93733928D01*
X146875297Y-93733928D01*
X146970535Y-93686309D01*
X147018154Y-93638690D01*
X147065773Y-93543452D01*
X31527976Y-113117261D02*
X31670833Y-113164880D01*
X31908928Y-113164880D01*
X32004166Y-113117261D01*
X32051785Y-113069642D01*
X32099404Y-112974404D01*
X32099404Y-112879166D01*
X32051785Y-112783928D01*
X32004166Y-112736309D01*
X31908928Y-112688690D01*
X31718452Y-112641071D01*
X31623214Y-112593452D01*
X31575595Y-112545833D01*
X31527976Y-112450595D01*
X31527976Y-112355357D01*
X31575595Y-112260119D01*
X31623214Y-112212500D01*
X31718452Y-112164880D01*
X31956547Y-112164880D01*
X32099404Y-112212500D01*
X32432738Y-112164880D02*
X32670833Y-113164880D01*
X32861309Y-112450595D01*
X33051785Y-113164880D01*
X33289880Y-112164880D01*
X33575595Y-112164880D02*
X34194642Y-112164880D01*
X33861309Y-112545833D01*
X34004166Y-112545833D01*
X34099404Y-112593452D01*
X34147023Y-112641071D01*
X34194642Y-112736309D01*
X34194642Y-112974404D01*
X34147023Y-113069642D01*
X34099404Y-113117261D01*
X34004166Y-113164880D01*
X33718452Y-113164880D01*
X33623214Y-113117261D01*
X33575595Y-113069642D01*
X34813690Y-112164880D02*
X34908928Y-112164880D01*
X35004166Y-112212500D01*
X35051785Y-112260119D01*
X35099404Y-112355357D01*
X35147023Y-112545833D01*
X35147023Y-112783928D01*
X35099404Y-112974404D01*
X35051785Y-113069642D01*
X35004166Y-113117261D01*
X34908928Y-113164880D01*
X34813690Y-113164880D01*
X34718452Y-113117261D01*
X34670833Y-113069642D01*
X34623214Y-112974404D01*
X34575595Y-112783928D01*
X34575595Y-112545833D01*
X34623214Y-112355357D01*
X34670833Y-112260119D01*
X34718452Y-112212500D01*
X34813690Y-112164880D01*
X62484226Y-113117261D02*
X62627083Y-113164880D01*
X62865178Y-113164880D01*
X62960416Y-113117261D01*
X63008035Y-113069642D01*
X63055654Y-112974404D01*
X63055654Y-112879166D01*
X63008035Y-112783928D01*
X62960416Y-112736309D01*
X62865178Y-112688690D01*
X62674702Y-112641071D01*
X62579464Y-112593452D01*
X62531845Y-112545833D01*
X62484226Y-112450595D01*
X62484226Y-112355357D01*
X62531845Y-112260119D01*
X62579464Y-112212500D01*
X62674702Y-112164880D01*
X62912797Y-112164880D01*
X63055654Y-112212500D01*
X63388988Y-112164880D02*
X63627083Y-113164880D01*
X63817559Y-112450595D01*
X64008035Y-113164880D01*
X64246130Y-112164880D01*
X64531845Y-112164880D02*
X65150892Y-112164880D01*
X64817559Y-112545833D01*
X64960416Y-112545833D01*
X65055654Y-112593452D01*
X65103273Y-112641071D01*
X65150892Y-112736309D01*
X65150892Y-112974404D01*
X65103273Y-113069642D01*
X65055654Y-113117261D01*
X64960416Y-113164880D01*
X64674702Y-113164880D01*
X64579464Y-113117261D01*
X64531845Y-113069642D01*
X66103273Y-113164880D02*
X65531845Y-113164880D01*
X65817559Y-113164880D02*
X65817559Y-112164880D01*
X65722321Y-112307738D01*
X65627083Y-112402976D01*
X65531845Y-112450595D01*
X98202976Y-113117261D02*
X98345833Y-113164880D01*
X98583928Y-113164880D01*
X98679166Y-113117261D01*
X98726785Y-113069642D01*
X98774404Y-112974404D01*
X98774404Y-112879166D01*
X98726785Y-112783928D01*
X98679166Y-112736309D01*
X98583928Y-112688690D01*
X98393452Y-112641071D01*
X98298214Y-112593452D01*
X98250595Y-112545833D01*
X98202976Y-112450595D01*
X98202976Y-112355357D01*
X98250595Y-112260119D01*
X98298214Y-112212500D01*
X98393452Y-112164880D01*
X98631547Y-112164880D01*
X98774404Y-112212500D01*
X99107738Y-112164880D02*
X99345833Y-113164880D01*
X99536309Y-112450595D01*
X99726785Y-113164880D01*
X99964880Y-112164880D01*
X100250595Y-112164880D02*
X100869642Y-112164880D01*
X100536309Y-112545833D01*
X100679166Y-112545833D01*
X100774404Y-112593452D01*
X100822023Y-112641071D01*
X100869642Y-112736309D01*
X100869642Y-112974404D01*
X100822023Y-113069642D01*
X100774404Y-113117261D01*
X100679166Y-113164880D01*
X100393452Y-113164880D01*
X100298214Y-113117261D01*
X100250595Y-113069642D01*
X101250595Y-112260119D02*
X101298214Y-112212500D01*
X101393452Y-112164880D01*
X101631547Y-112164880D01*
X101726785Y-112212500D01*
X101774404Y-112260119D01*
X101822023Y-112355357D01*
X101822023Y-112450595D01*
X101774404Y-112593452D01*
X101202976Y-113164880D01*
X101822023Y-113164880D01*
X122015476Y-113117261D02*
X122158333Y-113164880D01*
X122396428Y-113164880D01*
X122491666Y-113117261D01*
X122539285Y-113069642D01*
X122586904Y-112974404D01*
X122586904Y-112879166D01*
X122539285Y-112783928D01*
X122491666Y-112736309D01*
X122396428Y-112688690D01*
X122205952Y-112641071D01*
X122110714Y-112593452D01*
X122063095Y-112545833D01*
X122015476Y-112450595D01*
X122015476Y-112355357D01*
X122063095Y-112260119D01*
X122110714Y-112212500D01*
X122205952Y-112164880D01*
X122444047Y-112164880D01*
X122586904Y-112212500D01*
X122920238Y-112164880D02*
X123158333Y-113164880D01*
X123348809Y-112450595D01*
X123539285Y-113164880D01*
X123777380Y-112164880D01*
X124063095Y-112164880D02*
X124682142Y-112164880D01*
X124348809Y-112545833D01*
X124491666Y-112545833D01*
X124586904Y-112593452D01*
X124634523Y-112641071D01*
X124682142Y-112736309D01*
X124682142Y-112974404D01*
X124634523Y-113069642D01*
X124586904Y-113117261D01*
X124491666Y-113164880D01*
X124205952Y-113164880D01*
X124110714Y-113117261D01*
X124063095Y-113069642D01*
X125015476Y-112164880D02*
X125634523Y-112164880D01*
X125301190Y-112545833D01*
X125444047Y-112545833D01*
X125539285Y-112593452D01*
X125586904Y-112641071D01*
X125634523Y-112736309D01*
X125634523Y-112974404D01*
X125586904Y-113069642D01*
X125539285Y-113117261D01*
X125444047Y-113164880D01*
X125158333Y-113164880D01*
X125063095Y-113117261D01*
X125015476Y-113069642D01*
X169640476Y-94067261D02*
X169783333Y-94114880D01*
X170021428Y-94114880D01*
X170116666Y-94067261D01*
X170164285Y-94019642D01*
X170211904Y-93924404D01*
X170211904Y-93829166D01*
X170164285Y-93733928D01*
X170116666Y-93686309D01*
X170021428Y-93638690D01*
X169830952Y-93591071D01*
X169735714Y-93543452D01*
X169688095Y-93495833D01*
X169640476Y-93400595D01*
X169640476Y-93305357D01*
X169688095Y-93210119D01*
X169735714Y-93162500D01*
X169830952Y-93114880D01*
X170069047Y-93114880D01*
X170211904Y-93162500D01*
X170545238Y-93114880D02*
X170783333Y-94114880D01*
X170973809Y-93400595D01*
X171164285Y-94114880D01*
X171402380Y-93114880D01*
X171688095Y-93114880D02*
X172307142Y-93114880D01*
X171973809Y-93495833D01*
X172116666Y-93495833D01*
X172211904Y-93543452D01*
X172259523Y-93591071D01*
X172307142Y-93686309D01*
X172307142Y-93924404D01*
X172259523Y-94019642D01*
X172211904Y-94067261D01*
X172116666Y-94114880D01*
X171830952Y-94114880D01*
X171735714Y-94067261D01*
X171688095Y-94019642D01*
X173211904Y-93114880D02*
X172735714Y-93114880D01*
X172688095Y-93591071D01*
X172735714Y-93543452D01*
X172830952Y-93495833D01*
X173069047Y-93495833D01*
X173164285Y-93543452D01*
X173211904Y-93591071D01*
X173259523Y-93686309D01*
X173259523Y-93924404D01*
X173211904Y-94019642D01*
X173164285Y-94067261D01*
X173069047Y-94114880D01*
X172830952Y-94114880D01*
X172735714Y-94067261D01*
X172688095Y-94019642D01*
M02*
