G04 #@! TF.GenerationSoftware,KiCad,Pcbnew,(5.1.5-0-10_14)*
G04 #@! TF.CreationDate,2020-08-12T23:14:55+09:00*
G04 #@! TF.ProjectId,iroha60-right,69726f68-6136-4302-9d72-696768742e6b,rev?*
G04 #@! TF.SameCoordinates,Original*
G04 #@! TF.FileFunction,Soldermask,Top*
G04 #@! TF.FilePolarity,Negative*
%FSLAX46Y46*%
G04 Gerber Fmt 4.6, Leading zero omitted, Abs format (unit mm)*
G04 Created by KiCad (PCBNEW (5.1.5-0-10_14)) date 2020-08-12 23:14:55*
%MOMM*%
%LPD*%
G04 APERTURE LIST*
%ADD10C,0.100000*%
G04 APERTURE END LIST*
D10*
G36*
X114524549Y-115933616D02*
G01*
X114635734Y-115955732D01*
X114845203Y-116042497D01*
X115033720Y-116168460D01*
X115194040Y-116328780D01*
X115320003Y-116517297D01*
X115406768Y-116726766D01*
X115451000Y-116949136D01*
X115451000Y-117175864D01*
X115406768Y-117398234D01*
X115320003Y-117607703D01*
X115194040Y-117796220D01*
X115033720Y-117956540D01*
X114845203Y-118082503D01*
X114635734Y-118169268D01*
X114524549Y-118191384D01*
X114413365Y-118213500D01*
X114186635Y-118213500D01*
X114075451Y-118191384D01*
X113964266Y-118169268D01*
X113754797Y-118082503D01*
X113566280Y-117956540D01*
X113405960Y-117796220D01*
X113279997Y-117607703D01*
X113193232Y-117398234D01*
X113149000Y-117175864D01*
X113149000Y-116949136D01*
X113193232Y-116726766D01*
X113279997Y-116517297D01*
X113405960Y-116328780D01*
X113566280Y-116168460D01*
X113754797Y-116042497D01*
X113964266Y-115955732D01*
X114075451Y-115933616D01*
X114186635Y-115911500D01*
X114413365Y-115911500D01*
X114524549Y-115933616D01*
G37*
G36*
X43087049Y-115933616D02*
G01*
X43198234Y-115955732D01*
X43407703Y-116042497D01*
X43596220Y-116168460D01*
X43756540Y-116328780D01*
X43882503Y-116517297D01*
X43969268Y-116726766D01*
X44013500Y-116949136D01*
X44013500Y-117175864D01*
X43969268Y-117398234D01*
X43882503Y-117607703D01*
X43756540Y-117796220D01*
X43596220Y-117956540D01*
X43407703Y-118082503D01*
X43198234Y-118169268D01*
X43087049Y-118191384D01*
X42975865Y-118213500D01*
X42749135Y-118213500D01*
X42637951Y-118191384D01*
X42526766Y-118169268D01*
X42317297Y-118082503D01*
X42128780Y-117956540D01*
X41968460Y-117796220D01*
X41842497Y-117607703D01*
X41755732Y-117398234D01*
X41711500Y-117175864D01*
X41711500Y-116949136D01*
X41755732Y-116726766D01*
X41842497Y-116517297D01*
X41968460Y-116328780D01*
X42128780Y-116168460D01*
X42317297Y-116042497D01*
X42526766Y-115955732D01*
X42637951Y-115933616D01*
X42749135Y-115911500D01*
X42975865Y-115911500D01*
X43087049Y-115933616D01*
G37*
G36*
X52663017Y-114977763D02*
G01*
X52815161Y-115008026D01*
X52933887Y-115057204D01*
X53101791Y-115126752D01*
X53101792Y-115126753D01*
X53359754Y-115299117D01*
X53579133Y-115518496D01*
X53694303Y-115690861D01*
X53751498Y-115776459D01*
X53821046Y-115944363D01*
X53870224Y-116063089D01*
X53930750Y-116367376D01*
X53930750Y-116677624D01*
X53876744Y-116949135D01*
X53870224Y-116981910D01*
X53751498Y-117268541D01*
X53751497Y-117268542D01*
X53579133Y-117526504D01*
X53359754Y-117745883D01*
X53187389Y-117861053D01*
X53101791Y-117918248D01*
X52933887Y-117987796D01*
X52815161Y-118036974D01*
X52663017Y-118067237D01*
X52510875Y-118097500D01*
X52200625Y-118097500D01*
X52048483Y-118067237D01*
X51896339Y-118036974D01*
X51777613Y-117987796D01*
X51609709Y-117918248D01*
X51524111Y-117861053D01*
X51351746Y-117745883D01*
X51132367Y-117526504D01*
X50960003Y-117268542D01*
X50960002Y-117268541D01*
X50841276Y-116981910D01*
X50834757Y-116949135D01*
X50780750Y-116677624D01*
X50780750Y-116367376D01*
X50841276Y-116063089D01*
X50890454Y-115944363D01*
X50960002Y-115776459D01*
X51017197Y-115690861D01*
X51132367Y-115518496D01*
X51351746Y-115299117D01*
X51609708Y-115126753D01*
X51609709Y-115126752D01*
X51777613Y-115057204D01*
X51896339Y-115008026D01*
X52048483Y-114977763D01*
X52200625Y-114947500D01*
X52510875Y-114947500D01*
X52663017Y-114977763D01*
G37*
G36*
X76539017Y-114977763D02*
G01*
X76691161Y-115008026D01*
X76809887Y-115057204D01*
X76977791Y-115126752D01*
X76977792Y-115126753D01*
X77235754Y-115299117D01*
X77455133Y-115518496D01*
X77570303Y-115690861D01*
X77627498Y-115776459D01*
X77697046Y-115944363D01*
X77746224Y-116063089D01*
X77806750Y-116367376D01*
X77806750Y-116677624D01*
X77752744Y-116949135D01*
X77746224Y-116981910D01*
X77627498Y-117268541D01*
X77627497Y-117268542D01*
X77455133Y-117526504D01*
X77235754Y-117745883D01*
X77063389Y-117861053D01*
X76977791Y-117918248D01*
X76809887Y-117987796D01*
X76691161Y-118036974D01*
X76539017Y-118067237D01*
X76386875Y-118097500D01*
X76076625Y-118097500D01*
X75924483Y-118067237D01*
X75772339Y-118036974D01*
X75653613Y-117987796D01*
X75485709Y-117918248D01*
X75400111Y-117861053D01*
X75227746Y-117745883D01*
X75008367Y-117526504D01*
X74836003Y-117268542D01*
X74836002Y-117268541D01*
X74717276Y-116981910D01*
X74710757Y-116949135D01*
X74656750Y-116677624D01*
X74656750Y-116367376D01*
X74717276Y-116063089D01*
X74766454Y-115944363D01*
X74836002Y-115776459D01*
X74893197Y-115690861D01*
X75008367Y-115518496D01*
X75227746Y-115299117D01*
X75485708Y-115126753D01*
X75485709Y-115126752D01*
X75653613Y-115057204D01*
X75772339Y-115008026D01*
X75924483Y-114977763D01*
X76076625Y-114947500D01*
X76386875Y-114947500D01*
X76539017Y-114977763D01*
G37*
G36*
X116574500Y-114097000D02*
G01*
X115075500Y-114097000D01*
X115075500Y-112598000D01*
X116574500Y-112598000D01*
X116574500Y-114097000D01*
G37*
G36*
X108762000Y-114097000D02*
G01*
X107263000Y-114097000D01*
X107263000Y-112598000D01*
X108762000Y-112598000D01*
X108762000Y-114097000D01*
G37*
G36*
X85043250Y-114097000D02*
G01*
X83544250Y-114097000D01*
X83544250Y-112598000D01*
X85043250Y-112598000D01*
X85043250Y-114097000D01*
G37*
G36*
X42087000Y-114097000D02*
G01*
X40588000Y-114097000D01*
X40588000Y-112598000D01*
X42087000Y-112598000D01*
X42087000Y-114097000D01*
G37*
G36*
X108538500Y-112013500D02*
G01*
X107486500Y-112013500D01*
X107486500Y-110611500D01*
X108538500Y-110611500D01*
X108538500Y-112013500D01*
G37*
G36*
X84819750Y-112013500D02*
G01*
X83767750Y-112013500D01*
X83767750Y-110611500D01*
X84819750Y-110611500D01*
X84819750Y-112013500D01*
G37*
G36*
X41863500Y-112013500D02*
G01*
X40811500Y-112013500D01*
X40811500Y-110611500D01*
X41863500Y-110611500D01*
X41863500Y-112013500D01*
G37*
G36*
X116351000Y-112013500D02*
G01*
X115299000Y-112013500D01*
X115299000Y-110611500D01*
X116351000Y-110611500D01*
X116351000Y-112013500D01*
G37*
G36*
X100608974Y-107571184D02*
G01*
X100826974Y-107661483D01*
X100981123Y-107725333D01*
X101316048Y-107949123D01*
X101600877Y-108233952D01*
X101824667Y-108568877D01*
X101857062Y-108647086D01*
X101978816Y-108941026D01*
X102057400Y-109336094D01*
X102057400Y-109738906D01*
X101978816Y-110133974D01*
X101927951Y-110256772D01*
X101824667Y-110506123D01*
X101600877Y-110841048D01*
X101316048Y-111125877D01*
X100981123Y-111349667D01*
X100826974Y-111413517D01*
X100608974Y-111503816D01*
X100213906Y-111582400D01*
X99811094Y-111582400D01*
X99416026Y-111503816D01*
X99198026Y-111413517D01*
X99043877Y-111349667D01*
X98708952Y-111125877D01*
X98424123Y-110841048D01*
X98200333Y-110506123D01*
X98097049Y-110256772D01*
X98046184Y-110133974D01*
X97967600Y-109738906D01*
X97967600Y-109336094D01*
X98046184Y-108941026D01*
X98167938Y-108647086D01*
X98200333Y-108568877D01*
X98424123Y-108233952D01*
X98708952Y-107949123D01*
X99043877Y-107725333D01*
X99198026Y-107661483D01*
X99416026Y-107571184D01*
X99811094Y-107492600D01*
X100213906Y-107492600D01*
X100608974Y-107571184D01*
G37*
G36*
X124421474Y-107571184D02*
G01*
X124639474Y-107661483D01*
X124793623Y-107725333D01*
X125128548Y-107949123D01*
X125413377Y-108233952D01*
X125637167Y-108568877D01*
X125669562Y-108647086D01*
X125791316Y-108941026D01*
X125869900Y-109336094D01*
X125869900Y-109738906D01*
X125791316Y-110133974D01*
X125740451Y-110256772D01*
X125637167Y-110506123D01*
X125413377Y-110841048D01*
X125128548Y-111125877D01*
X124793623Y-111349667D01*
X124639474Y-111413517D01*
X124421474Y-111503816D01*
X124026406Y-111582400D01*
X123623594Y-111582400D01*
X123228526Y-111503816D01*
X123010526Y-111413517D01*
X122856377Y-111349667D01*
X122521452Y-111125877D01*
X122236623Y-110841048D01*
X122012833Y-110506123D01*
X121909549Y-110256772D01*
X121858684Y-110133974D01*
X121780100Y-109738906D01*
X121780100Y-109336094D01*
X121858684Y-108941026D01*
X121980438Y-108647086D01*
X122012833Y-108568877D01*
X122236623Y-108233952D01*
X122521452Y-107949123D01*
X122856377Y-107725333D01*
X123010526Y-107661483D01*
X123228526Y-107571184D01*
X123623594Y-107492600D01*
X124026406Y-107492600D01*
X124421474Y-107571184D01*
G37*
G36*
X64890224Y-107571184D02*
G01*
X65108224Y-107661483D01*
X65262373Y-107725333D01*
X65597298Y-107949123D01*
X65882127Y-108233952D01*
X66105917Y-108568877D01*
X66138312Y-108647086D01*
X66260066Y-108941026D01*
X66338650Y-109336094D01*
X66338650Y-109738906D01*
X66260066Y-110133974D01*
X66209201Y-110256772D01*
X66105917Y-110506123D01*
X65882127Y-110841048D01*
X65597298Y-111125877D01*
X65262373Y-111349667D01*
X65108224Y-111413517D01*
X64890224Y-111503816D01*
X64495156Y-111582400D01*
X64092344Y-111582400D01*
X63697276Y-111503816D01*
X63479276Y-111413517D01*
X63325127Y-111349667D01*
X62990202Y-111125877D01*
X62705373Y-110841048D01*
X62481583Y-110506123D01*
X62378299Y-110256772D01*
X62327434Y-110133974D01*
X62248850Y-109738906D01*
X62248850Y-109336094D01*
X62327434Y-108941026D01*
X62449188Y-108647086D01*
X62481583Y-108568877D01*
X62705373Y-108233952D01*
X62990202Y-107949123D01*
X63325127Y-107725333D01*
X63479276Y-107661483D01*
X63697276Y-107571184D01*
X64092344Y-107492600D01*
X64495156Y-107492600D01*
X64890224Y-107571184D01*
G37*
G36*
X33933974Y-107571184D02*
G01*
X34151974Y-107661483D01*
X34306123Y-107725333D01*
X34641048Y-107949123D01*
X34925877Y-108233952D01*
X35149667Y-108568877D01*
X35182062Y-108647086D01*
X35303816Y-108941026D01*
X35382400Y-109336094D01*
X35382400Y-109738906D01*
X35303816Y-110133974D01*
X35252951Y-110256772D01*
X35149667Y-110506123D01*
X34925877Y-110841048D01*
X34641048Y-111125877D01*
X34306123Y-111349667D01*
X34151974Y-111413517D01*
X33933974Y-111503816D01*
X33538906Y-111582400D01*
X33136094Y-111582400D01*
X32741026Y-111503816D01*
X32523026Y-111413517D01*
X32368877Y-111349667D01*
X32033952Y-111125877D01*
X31749123Y-110841048D01*
X31525333Y-110506123D01*
X31422049Y-110256772D01*
X31371184Y-110133974D01*
X31292600Y-109738906D01*
X31292600Y-109336094D01*
X31371184Y-108941026D01*
X31492938Y-108647086D01*
X31525333Y-108568877D01*
X31749123Y-108233952D01*
X32033952Y-107949123D01*
X32368877Y-107725333D01*
X32523026Y-107661483D01*
X32741026Y-107571184D01*
X33136094Y-107492600D01*
X33538906Y-107492600D01*
X33933974Y-107571184D01*
G37*
G36*
X38687604Y-108647085D02*
G01*
X38856126Y-108716889D01*
X39007791Y-108818228D01*
X39136772Y-108947209D01*
X39238111Y-109098874D01*
X39307915Y-109267396D01*
X39343500Y-109446297D01*
X39343500Y-109628703D01*
X39307915Y-109807604D01*
X39238111Y-109976126D01*
X39136772Y-110127791D01*
X39007791Y-110256772D01*
X38856126Y-110358111D01*
X38687604Y-110427915D01*
X38508703Y-110463500D01*
X38326297Y-110463500D01*
X38147396Y-110427915D01*
X37978874Y-110358111D01*
X37827209Y-110256772D01*
X37698228Y-110127791D01*
X37596889Y-109976126D01*
X37527085Y-109807604D01*
X37491500Y-109628703D01*
X37491500Y-109446297D01*
X37527085Y-109267396D01*
X37596889Y-109098874D01*
X37698228Y-108947209D01*
X37827209Y-108818228D01*
X37978874Y-108716889D01*
X38147396Y-108647085D01*
X38326297Y-108611500D01*
X38508703Y-108611500D01*
X38687604Y-108647085D01*
G37*
G36*
X119015104Y-108647085D02*
G01*
X119183626Y-108716889D01*
X119335291Y-108818228D01*
X119464272Y-108947209D01*
X119565611Y-109098874D01*
X119635415Y-109267396D01*
X119671000Y-109446297D01*
X119671000Y-109628703D01*
X119635415Y-109807604D01*
X119565611Y-109976126D01*
X119464272Y-110127791D01*
X119335291Y-110256772D01*
X119183626Y-110358111D01*
X119015104Y-110427915D01*
X118836203Y-110463500D01*
X118653797Y-110463500D01*
X118474896Y-110427915D01*
X118306374Y-110358111D01*
X118154709Y-110256772D01*
X118025728Y-110127791D01*
X117924389Y-109976126D01*
X117854585Y-109807604D01*
X117819000Y-109628703D01*
X117819000Y-109446297D01*
X117854585Y-109267396D01*
X117924389Y-109098874D01*
X118025728Y-108947209D01*
X118154709Y-108818228D01*
X118306374Y-108716889D01*
X118474896Y-108647085D01*
X118653797Y-108611500D01*
X118836203Y-108611500D01*
X119015104Y-108647085D01*
G37*
G36*
X105362604Y-108647085D02*
G01*
X105531126Y-108716889D01*
X105682791Y-108818228D01*
X105811772Y-108947209D01*
X105913111Y-109098874D01*
X105982915Y-109267396D01*
X106018500Y-109446297D01*
X106018500Y-109628703D01*
X105982915Y-109807604D01*
X105913111Y-109976126D01*
X105811772Y-110127791D01*
X105682791Y-110256772D01*
X105531126Y-110358111D01*
X105362604Y-110427915D01*
X105183703Y-110463500D01*
X105001297Y-110463500D01*
X104822396Y-110427915D01*
X104653874Y-110358111D01*
X104502209Y-110256772D01*
X104373228Y-110127791D01*
X104271889Y-109976126D01*
X104202085Y-109807604D01*
X104166500Y-109628703D01*
X104166500Y-109446297D01*
X104202085Y-109267396D01*
X104271889Y-109098874D01*
X104373228Y-108947209D01*
X104502209Y-108818228D01*
X104653874Y-108716889D01*
X104822396Y-108647085D01*
X105001297Y-108611500D01*
X105183703Y-108611500D01*
X105362604Y-108647085D01*
G37*
G36*
X95202604Y-108647085D02*
G01*
X95371126Y-108716889D01*
X95522791Y-108818228D01*
X95651772Y-108947209D01*
X95753111Y-109098874D01*
X95822915Y-109267396D01*
X95858500Y-109446297D01*
X95858500Y-109628703D01*
X95822915Y-109807604D01*
X95753111Y-109976126D01*
X95651772Y-110127791D01*
X95522791Y-110256772D01*
X95371126Y-110358111D01*
X95202604Y-110427915D01*
X95023703Y-110463500D01*
X94841297Y-110463500D01*
X94662396Y-110427915D01*
X94493874Y-110358111D01*
X94342209Y-110256772D01*
X94213228Y-110127791D01*
X94111889Y-109976126D01*
X94042085Y-109807604D01*
X94006500Y-109628703D01*
X94006500Y-109446297D01*
X94042085Y-109267396D01*
X94111889Y-109098874D01*
X94213228Y-108947209D01*
X94342209Y-108818228D01*
X94493874Y-108716889D01*
X94662396Y-108647085D01*
X94841297Y-108611500D01*
X95023703Y-108611500D01*
X95202604Y-108647085D01*
G37*
G36*
X129175104Y-108647085D02*
G01*
X129343626Y-108716889D01*
X129495291Y-108818228D01*
X129624272Y-108947209D01*
X129725611Y-109098874D01*
X129795415Y-109267396D01*
X129831000Y-109446297D01*
X129831000Y-109628703D01*
X129795415Y-109807604D01*
X129725611Y-109976126D01*
X129624272Y-110127791D01*
X129495291Y-110256772D01*
X129343626Y-110358111D01*
X129175104Y-110427915D01*
X128996203Y-110463500D01*
X128813797Y-110463500D01*
X128634896Y-110427915D01*
X128466374Y-110358111D01*
X128314709Y-110256772D01*
X128185728Y-110127791D01*
X128084389Y-109976126D01*
X128014585Y-109807604D01*
X127979000Y-109628703D01*
X127979000Y-109446297D01*
X128014585Y-109267396D01*
X128084389Y-109098874D01*
X128185728Y-108947209D01*
X128314709Y-108818228D01*
X128466374Y-108716889D01*
X128634896Y-108647085D01*
X128813797Y-108611500D01*
X128996203Y-108611500D01*
X129175104Y-108647085D01*
G37*
G36*
X28527604Y-108647085D02*
G01*
X28696126Y-108716889D01*
X28847791Y-108818228D01*
X28976772Y-108947209D01*
X29078111Y-109098874D01*
X29147915Y-109267396D01*
X29183500Y-109446297D01*
X29183500Y-109628703D01*
X29147915Y-109807604D01*
X29078111Y-109976126D01*
X28976772Y-110127791D01*
X28847791Y-110256772D01*
X28696126Y-110358111D01*
X28527604Y-110427915D01*
X28348703Y-110463500D01*
X28166297Y-110463500D01*
X27987396Y-110427915D01*
X27818874Y-110358111D01*
X27667209Y-110256772D01*
X27538228Y-110127791D01*
X27436889Y-109976126D01*
X27367085Y-109807604D01*
X27331500Y-109628703D01*
X27331500Y-109446297D01*
X27367085Y-109267396D01*
X27436889Y-109098874D01*
X27538228Y-108947209D01*
X27667209Y-108818228D01*
X27818874Y-108716889D01*
X27987396Y-108647085D01*
X28166297Y-108611500D01*
X28348703Y-108611500D01*
X28527604Y-108647085D01*
G37*
G36*
X59483854Y-108647085D02*
G01*
X59652376Y-108716889D01*
X59804041Y-108818228D01*
X59933022Y-108947209D01*
X60034361Y-109098874D01*
X60104165Y-109267396D01*
X60139750Y-109446297D01*
X60139750Y-109628703D01*
X60104165Y-109807604D01*
X60034361Y-109976126D01*
X59933022Y-110127791D01*
X59804041Y-110256772D01*
X59652376Y-110358111D01*
X59483854Y-110427915D01*
X59304953Y-110463500D01*
X59122547Y-110463500D01*
X58943646Y-110427915D01*
X58775124Y-110358111D01*
X58623459Y-110256772D01*
X58494478Y-110127791D01*
X58393139Y-109976126D01*
X58323335Y-109807604D01*
X58287750Y-109628703D01*
X58287750Y-109446297D01*
X58323335Y-109267396D01*
X58393139Y-109098874D01*
X58494478Y-108947209D01*
X58623459Y-108818228D01*
X58775124Y-108716889D01*
X58943646Y-108647085D01*
X59122547Y-108611500D01*
X59304953Y-108611500D01*
X59483854Y-108647085D01*
G37*
G36*
X69643854Y-108647085D02*
G01*
X69812376Y-108716889D01*
X69964041Y-108818228D01*
X70093022Y-108947209D01*
X70194361Y-109098874D01*
X70264165Y-109267396D01*
X70299750Y-109446297D01*
X70299750Y-109628703D01*
X70264165Y-109807604D01*
X70194361Y-109976126D01*
X70093022Y-110127791D01*
X69964041Y-110256772D01*
X69812376Y-110358111D01*
X69643854Y-110427915D01*
X69464953Y-110463500D01*
X69282547Y-110463500D01*
X69103646Y-110427915D01*
X68935124Y-110358111D01*
X68783459Y-110256772D01*
X68654478Y-110127791D01*
X68553139Y-109976126D01*
X68483335Y-109807604D01*
X68447750Y-109628703D01*
X68447750Y-109446297D01*
X68483335Y-109267396D01*
X68553139Y-109098874D01*
X68654478Y-108947209D01*
X68783459Y-108818228D01*
X68935124Y-108716889D01*
X69103646Y-108647085D01*
X69282547Y-108611500D01*
X69464953Y-108611500D01*
X69643854Y-108647085D01*
G37*
G36*
X116351000Y-108463500D02*
G01*
X115299000Y-108463500D01*
X115299000Y-107061500D01*
X116351000Y-107061500D01*
X116351000Y-108463500D01*
G37*
G36*
X108538500Y-108463500D02*
G01*
X107486500Y-108463500D01*
X107486500Y-107061500D01*
X108538500Y-107061500D01*
X108538500Y-108463500D01*
G37*
G36*
X41863500Y-108463500D02*
G01*
X40811500Y-108463500D01*
X40811500Y-107061500D01*
X41863500Y-107061500D01*
X41863500Y-108463500D01*
G37*
G36*
X84819750Y-108463500D02*
G01*
X83767750Y-108463500D01*
X83767750Y-107061500D01*
X84819750Y-107061500D01*
X84819750Y-108463500D01*
G37*
G36*
X84388175Y-104982099D02*
G01*
X84512371Y-105006802D01*
X84648772Y-105063301D01*
X84771529Y-105145325D01*
X84875925Y-105249721D01*
X84957949Y-105372478D01*
X85014448Y-105508879D01*
X85043250Y-105653681D01*
X85043250Y-105801319D01*
X85014448Y-105946121D01*
X84957949Y-106082522D01*
X84875925Y-106205279D01*
X84771529Y-106309675D01*
X84648772Y-106391699D01*
X84512371Y-106448198D01*
X84388175Y-106472901D01*
X84367570Y-106477000D01*
X84219930Y-106477000D01*
X84199325Y-106472901D01*
X84075129Y-106448198D01*
X83938728Y-106391699D01*
X83815971Y-106309675D01*
X83711575Y-106205279D01*
X83629551Y-106082522D01*
X83573052Y-105946121D01*
X83544250Y-105801319D01*
X83544250Y-105653681D01*
X83573052Y-105508879D01*
X83629551Y-105372478D01*
X83711575Y-105249721D01*
X83815971Y-105145325D01*
X83938728Y-105063301D01*
X84075129Y-105006802D01*
X84199325Y-104982099D01*
X84219930Y-104978000D01*
X84367570Y-104978000D01*
X84388175Y-104982099D01*
G37*
G36*
X108106925Y-104982099D02*
G01*
X108231121Y-105006802D01*
X108367522Y-105063301D01*
X108490279Y-105145325D01*
X108594675Y-105249721D01*
X108676699Y-105372478D01*
X108733198Y-105508879D01*
X108762000Y-105653681D01*
X108762000Y-105801319D01*
X108733198Y-105946121D01*
X108676699Y-106082522D01*
X108594675Y-106205279D01*
X108490279Y-106309675D01*
X108367522Y-106391699D01*
X108231121Y-106448198D01*
X108106925Y-106472901D01*
X108086320Y-106477000D01*
X107938680Y-106477000D01*
X107918075Y-106472901D01*
X107793879Y-106448198D01*
X107657478Y-106391699D01*
X107534721Y-106309675D01*
X107430325Y-106205279D01*
X107348301Y-106082522D01*
X107291802Y-105946121D01*
X107263000Y-105801319D01*
X107263000Y-105653681D01*
X107291802Y-105508879D01*
X107348301Y-105372478D01*
X107430325Y-105249721D01*
X107534721Y-105145325D01*
X107657478Y-105063301D01*
X107793879Y-105006802D01*
X107918075Y-104982099D01*
X107938680Y-104978000D01*
X108086320Y-104978000D01*
X108106925Y-104982099D01*
G37*
G36*
X115919425Y-104982099D02*
G01*
X116043621Y-105006802D01*
X116180022Y-105063301D01*
X116302779Y-105145325D01*
X116407175Y-105249721D01*
X116489199Y-105372478D01*
X116545698Y-105508879D01*
X116574500Y-105653681D01*
X116574500Y-105801319D01*
X116545698Y-105946121D01*
X116489199Y-106082522D01*
X116407175Y-106205279D01*
X116302779Y-106309675D01*
X116180022Y-106391699D01*
X116043621Y-106448198D01*
X115919425Y-106472901D01*
X115898820Y-106477000D01*
X115751180Y-106477000D01*
X115730575Y-106472901D01*
X115606379Y-106448198D01*
X115469978Y-106391699D01*
X115347221Y-106309675D01*
X115242825Y-106205279D01*
X115160801Y-106082522D01*
X115104302Y-105946121D01*
X115075500Y-105801319D01*
X115075500Y-105653681D01*
X115104302Y-105508879D01*
X115160801Y-105372478D01*
X115242825Y-105249721D01*
X115347221Y-105145325D01*
X115469978Y-105063301D01*
X115606379Y-105006802D01*
X115730575Y-104982099D01*
X115751180Y-104978000D01*
X115898820Y-104978000D01*
X115919425Y-104982099D01*
G37*
G36*
X41431925Y-104982099D02*
G01*
X41556121Y-105006802D01*
X41692522Y-105063301D01*
X41815279Y-105145325D01*
X41919675Y-105249721D01*
X42001699Y-105372478D01*
X42058198Y-105508879D01*
X42087000Y-105653681D01*
X42087000Y-105801319D01*
X42058198Y-105946121D01*
X42001699Y-106082522D01*
X41919675Y-106205279D01*
X41815279Y-106309675D01*
X41692522Y-106391699D01*
X41556121Y-106448198D01*
X41431925Y-106472901D01*
X41411320Y-106477000D01*
X41263680Y-106477000D01*
X41243075Y-106472901D01*
X41118879Y-106448198D01*
X40982478Y-106391699D01*
X40859721Y-106309675D01*
X40755325Y-106205279D01*
X40673301Y-106082522D01*
X40616802Y-105946121D01*
X40588000Y-105801319D01*
X40588000Y-105653681D01*
X40616802Y-105508879D01*
X40673301Y-105372478D01*
X40755325Y-105249721D01*
X40859721Y-105145325D01*
X40982478Y-105063301D01*
X41118879Y-105006802D01*
X41243075Y-104982099D01*
X41263680Y-104978000D01*
X41411320Y-104978000D01*
X41431925Y-104982099D01*
G37*
G36*
X76828224Y-99316184D02*
G01*
X77046224Y-99406483D01*
X77200373Y-99470333D01*
X77535298Y-99694123D01*
X77820127Y-99978952D01*
X78043917Y-100313877D01*
X78043917Y-100313878D01*
X78198066Y-100686026D01*
X78276650Y-101081094D01*
X78276650Y-101483906D01*
X78198066Y-101878974D01*
X78107767Y-102096974D01*
X78043917Y-102251123D01*
X77820127Y-102586048D01*
X77535298Y-102870877D01*
X77200373Y-103094667D01*
X77046224Y-103158517D01*
X76828224Y-103248816D01*
X76433156Y-103327400D01*
X76030344Y-103327400D01*
X75635276Y-103248816D01*
X75417276Y-103158517D01*
X75263127Y-103094667D01*
X74928202Y-102870877D01*
X74643373Y-102586048D01*
X74419583Y-102251123D01*
X74355733Y-102096974D01*
X74265434Y-101878974D01*
X74186850Y-101483906D01*
X74186850Y-101081094D01*
X74265434Y-100686026D01*
X74419583Y-100313878D01*
X74419583Y-100313877D01*
X74643373Y-99978952D01*
X74928202Y-99694123D01*
X75263127Y-99470333D01*
X75417276Y-99406483D01*
X75635276Y-99316184D01*
X76030344Y-99237600D01*
X76433156Y-99237600D01*
X76828224Y-99316184D01*
G37*
G36*
X52952224Y-99316184D02*
G01*
X53170224Y-99406483D01*
X53324373Y-99470333D01*
X53659298Y-99694123D01*
X53944127Y-99978952D01*
X54167917Y-100313877D01*
X54167917Y-100313878D01*
X54322066Y-100686026D01*
X54400650Y-101081094D01*
X54400650Y-101483906D01*
X54322066Y-101878974D01*
X54231767Y-102096974D01*
X54167917Y-102251123D01*
X53944127Y-102586048D01*
X53659298Y-102870877D01*
X53324373Y-103094667D01*
X53170224Y-103158517D01*
X52952224Y-103248816D01*
X52557156Y-103327400D01*
X52154344Y-103327400D01*
X51759276Y-103248816D01*
X51541276Y-103158517D01*
X51387127Y-103094667D01*
X51052202Y-102870877D01*
X50767373Y-102586048D01*
X50543583Y-102251123D01*
X50479733Y-102096974D01*
X50389434Y-101878974D01*
X50310850Y-101483906D01*
X50310850Y-101081094D01*
X50389434Y-100686026D01*
X50543583Y-100313878D01*
X50543583Y-100313877D01*
X50767373Y-99978952D01*
X51052202Y-99694123D01*
X51387127Y-99470333D01*
X51541276Y-99406483D01*
X51759276Y-99316184D01*
X52154344Y-99237600D01*
X52557156Y-99237600D01*
X52952224Y-99316184D01*
G37*
G36*
X164199500Y-95047000D02*
G01*
X162700500Y-95047000D01*
X162700500Y-93548000D01*
X164199500Y-93548000D01*
X164199500Y-95047000D01*
G37*
G36*
X154005750Y-95047000D02*
G01*
X152506750Y-95047000D01*
X152506750Y-93548000D01*
X154005750Y-93548000D01*
X154005750Y-95047000D01*
G37*
G36*
X127812000Y-95047000D02*
G01*
X126313000Y-95047000D01*
X126313000Y-93548000D01*
X127812000Y-93548000D01*
X127812000Y-95047000D01*
G37*
G36*
X108762000Y-95047000D02*
G01*
X107263000Y-95047000D01*
X107263000Y-93548000D01*
X108762000Y-93548000D01*
X108762000Y-95047000D01*
G37*
G36*
X89712000Y-95047000D02*
G01*
X88213000Y-95047000D01*
X88213000Y-93548000D01*
X89712000Y-93548000D01*
X89712000Y-95047000D01*
G37*
G36*
X51612000Y-95047000D02*
G01*
X50113000Y-95047000D01*
X50113000Y-93548000D01*
X51612000Y-93548000D01*
X51612000Y-95047000D01*
G37*
G36*
X70662000Y-95047000D02*
G01*
X69163000Y-95047000D01*
X69163000Y-93548000D01*
X70662000Y-93548000D01*
X70662000Y-95047000D01*
G37*
G36*
X163976000Y-92963500D02*
G01*
X162924000Y-92963500D01*
X162924000Y-91561500D01*
X163976000Y-91561500D01*
X163976000Y-92963500D01*
G37*
G36*
X153782250Y-92963500D02*
G01*
X152730250Y-92963500D01*
X152730250Y-91561500D01*
X153782250Y-91561500D01*
X153782250Y-92963500D01*
G37*
G36*
X51388500Y-92963500D02*
G01*
X50336500Y-92963500D01*
X50336500Y-91561500D01*
X51388500Y-91561500D01*
X51388500Y-92963500D01*
G37*
G36*
X127588500Y-92963500D02*
G01*
X126536500Y-92963500D01*
X126536500Y-91561500D01*
X127588500Y-91561500D01*
X127588500Y-92963500D01*
G37*
G36*
X70438500Y-92963500D02*
G01*
X69386500Y-92963500D01*
X69386500Y-91561500D01*
X70438500Y-91561500D01*
X70438500Y-92963500D01*
G37*
G36*
X108538500Y-92963500D02*
G01*
X107486500Y-92963500D01*
X107486500Y-91561500D01*
X108538500Y-91561500D01*
X108538500Y-92963500D01*
G37*
G36*
X89488500Y-92963500D02*
G01*
X88436500Y-92963500D01*
X88436500Y-91561500D01*
X89488500Y-91561500D01*
X89488500Y-92963500D01*
G37*
G36*
X62508974Y-88521184D02*
G01*
X62726974Y-88611483D01*
X62881123Y-88675333D01*
X63216048Y-88899123D01*
X63500877Y-89183952D01*
X63724667Y-89518877D01*
X63757062Y-89597086D01*
X63878816Y-89891026D01*
X63957400Y-90286094D01*
X63957400Y-90688906D01*
X63878816Y-91083974D01*
X63827951Y-91206772D01*
X63724667Y-91456123D01*
X63500877Y-91791048D01*
X63216048Y-92075877D01*
X62881123Y-92299667D01*
X62726974Y-92363517D01*
X62508974Y-92453816D01*
X62113906Y-92532400D01*
X61711094Y-92532400D01*
X61316026Y-92453816D01*
X61098026Y-92363517D01*
X60943877Y-92299667D01*
X60608952Y-92075877D01*
X60324123Y-91791048D01*
X60100333Y-91456123D01*
X59997049Y-91206772D01*
X59946184Y-91083974D01*
X59867600Y-90688906D01*
X59867600Y-90286094D01*
X59946184Y-89891026D01*
X60067938Y-89597086D01*
X60100333Y-89518877D01*
X60324123Y-89183952D01*
X60608952Y-88899123D01*
X60943877Y-88675333D01*
X61098026Y-88611483D01*
X61316026Y-88521184D01*
X61711094Y-88442600D01*
X62113906Y-88442600D01*
X62508974Y-88521184D01*
G37*
G36*
X81558974Y-88521184D02*
G01*
X81776974Y-88611483D01*
X81931123Y-88675333D01*
X82266048Y-88899123D01*
X82550877Y-89183952D01*
X82774667Y-89518877D01*
X82807062Y-89597086D01*
X82928816Y-89891026D01*
X83007400Y-90286094D01*
X83007400Y-90688906D01*
X82928816Y-91083974D01*
X82877951Y-91206772D01*
X82774667Y-91456123D01*
X82550877Y-91791048D01*
X82266048Y-92075877D01*
X81931123Y-92299667D01*
X81776974Y-92363517D01*
X81558974Y-92453816D01*
X81163906Y-92532400D01*
X80761094Y-92532400D01*
X80366026Y-92453816D01*
X80148026Y-92363517D01*
X79993877Y-92299667D01*
X79658952Y-92075877D01*
X79374123Y-91791048D01*
X79150333Y-91456123D01*
X79047049Y-91206772D01*
X78996184Y-91083974D01*
X78917600Y-90688906D01*
X78917600Y-90286094D01*
X78996184Y-89891026D01*
X79117938Y-89597086D01*
X79150333Y-89518877D01*
X79374123Y-89183952D01*
X79658952Y-88899123D01*
X79993877Y-88675333D01*
X80148026Y-88611483D01*
X80366026Y-88521184D01*
X80761094Y-88442600D01*
X81163906Y-88442600D01*
X81558974Y-88521184D01*
G37*
G36*
X100608974Y-88521184D02*
G01*
X100826974Y-88611483D01*
X100981123Y-88675333D01*
X101316048Y-88899123D01*
X101600877Y-89183952D01*
X101824667Y-89518877D01*
X101857062Y-89597086D01*
X101978816Y-89891026D01*
X102057400Y-90286094D01*
X102057400Y-90688906D01*
X101978816Y-91083974D01*
X101927951Y-91206772D01*
X101824667Y-91456123D01*
X101600877Y-91791048D01*
X101316048Y-92075877D01*
X100981123Y-92299667D01*
X100826974Y-92363517D01*
X100608974Y-92453816D01*
X100213906Y-92532400D01*
X99811094Y-92532400D01*
X99416026Y-92453816D01*
X99198026Y-92363517D01*
X99043877Y-92299667D01*
X98708952Y-92075877D01*
X98424123Y-91791048D01*
X98200333Y-91456123D01*
X98097049Y-91206772D01*
X98046184Y-91083974D01*
X97967600Y-90688906D01*
X97967600Y-90286094D01*
X98046184Y-89891026D01*
X98167938Y-89597086D01*
X98200333Y-89518877D01*
X98424123Y-89183952D01*
X98708952Y-88899123D01*
X99043877Y-88675333D01*
X99198026Y-88611483D01*
X99416026Y-88521184D01*
X99811094Y-88442600D01*
X100213906Y-88442600D01*
X100608974Y-88521184D01*
G37*
G36*
X119658974Y-88521184D02*
G01*
X119876974Y-88611483D01*
X120031123Y-88675333D01*
X120366048Y-88899123D01*
X120650877Y-89183952D01*
X120874667Y-89518877D01*
X120907062Y-89597086D01*
X121028816Y-89891026D01*
X121107400Y-90286094D01*
X121107400Y-90688906D01*
X121028816Y-91083974D01*
X120977951Y-91206772D01*
X120874667Y-91456123D01*
X120650877Y-91791048D01*
X120366048Y-92075877D01*
X120031123Y-92299667D01*
X119876974Y-92363517D01*
X119658974Y-92453816D01*
X119263906Y-92532400D01*
X118861094Y-92532400D01*
X118466026Y-92453816D01*
X118248026Y-92363517D01*
X118093877Y-92299667D01*
X117758952Y-92075877D01*
X117474123Y-91791048D01*
X117250333Y-91456123D01*
X117147049Y-91206772D01*
X117096184Y-91083974D01*
X117017600Y-90688906D01*
X117017600Y-90286094D01*
X117096184Y-89891026D01*
X117217938Y-89597086D01*
X117250333Y-89518877D01*
X117474123Y-89183952D01*
X117758952Y-88899123D01*
X118093877Y-88675333D01*
X118248026Y-88611483D01*
X118466026Y-88521184D01*
X118861094Y-88442600D01*
X119263906Y-88442600D01*
X119658974Y-88521184D01*
G37*
G36*
X145852724Y-88521184D02*
G01*
X146070724Y-88611483D01*
X146224873Y-88675333D01*
X146559798Y-88899123D01*
X146844627Y-89183952D01*
X147068417Y-89518877D01*
X147100812Y-89597086D01*
X147222566Y-89891026D01*
X147301150Y-90286094D01*
X147301150Y-90688906D01*
X147222566Y-91083974D01*
X147171701Y-91206772D01*
X147068417Y-91456123D01*
X146844627Y-91791048D01*
X146559798Y-92075877D01*
X146224873Y-92299667D01*
X146070724Y-92363517D01*
X145852724Y-92453816D01*
X145457656Y-92532400D01*
X145054844Y-92532400D01*
X144659776Y-92453816D01*
X144441776Y-92363517D01*
X144287627Y-92299667D01*
X143952702Y-92075877D01*
X143667873Y-91791048D01*
X143444083Y-91456123D01*
X143340799Y-91206772D01*
X143289934Y-91083974D01*
X143211350Y-90688906D01*
X143211350Y-90286094D01*
X143289934Y-89891026D01*
X143411688Y-89597086D01*
X143444083Y-89518877D01*
X143667873Y-89183952D01*
X143952702Y-88899123D01*
X144287627Y-88675333D01*
X144441776Y-88611483D01*
X144659776Y-88521184D01*
X145054844Y-88442600D01*
X145457656Y-88442600D01*
X145852724Y-88521184D01*
G37*
G36*
X43458974Y-88521184D02*
G01*
X43676974Y-88611483D01*
X43831123Y-88675333D01*
X44166048Y-88899123D01*
X44450877Y-89183952D01*
X44674667Y-89518877D01*
X44707062Y-89597086D01*
X44828816Y-89891026D01*
X44907400Y-90286094D01*
X44907400Y-90688906D01*
X44828816Y-91083974D01*
X44777951Y-91206772D01*
X44674667Y-91456123D01*
X44450877Y-91791048D01*
X44166048Y-92075877D01*
X43831123Y-92299667D01*
X43676974Y-92363517D01*
X43458974Y-92453816D01*
X43063906Y-92532400D01*
X42661094Y-92532400D01*
X42266026Y-92453816D01*
X42048026Y-92363517D01*
X41893877Y-92299667D01*
X41558952Y-92075877D01*
X41274123Y-91791048D01*
X41050333Y-91456123D01*
X40947049Y-91206772D01*
X40896184Y-91083974D01*
X40817600Y-90688906D01*
X40817600Y-90286094D01*
X40896184Y-89891026D01*
X41017938Y-89597086D01*
X41050333Y-89518877D01*
X41274123Y-89183952D01*
X41558952Y-88899123D01*
X41893877Y-88675333D01*
X42048026Y-88611483D01*
X42266026Y-88521184D01*
X42661094Y-88442600D01*
X43063906Y-88442600D01*
X43458974Y-88521184D01*
G37*
G36*
X172046474Y-88521184D02*
G01*
X172264474Y-88611483D01*
X172418623Y-88675333D01*
X172753548Y-88899123D01*
X173038377Y-89183952D01*
X173262167Y-89518877D01*
X173294562Y-89597086D01*
X173416316Y-89891026D01*
X173494900Y-90286094D01*
X173494900Y-90688906D01*
X173416316Y-91083974D01*
X173365451Y-91206772D01*
X173262167Y-91456123D01*
X173038377Y-91791048D01*
X172753548Y-92075877D01*
X172418623Y-92299667D01*
X172264474Y-92363517D01*
X172046474Y-92453816D01*
X171651406Y-92532400D01*
X171248594Y-92532400D01*
X170853526Y-92453816D01*
X170635526Y-92363517D01*
X170481377Y-92299667D01*
X170146452Y-92075877D01*
X169861623Y-91791048D01*
X169637833Y-91456123D01*
X169534549Y-91206772D01*
X169483684Y-91083974D01*
X169405100Y-90688906D01*
X169405100Y-90286094D01*
X169483684Y-89891026D01*
X169605438Y-89597086D01*
X169637833Y-89518877D01*
X169861623Y-89183952D01*
X170146452Y-88899123D01*
X170481377Y-88675333D01*
X170635526Y-88611483D01*
X170853526Y-88521184D01*
X171248594Y-88442600D01*
X171651406Y-88442600D01*
X172046474Y-88521184D01*
G37*
G36*
X176800104Y-89597085D02*
G01*
X176968626Y-89666889D01*
X177120291Y-89768228D01*
X177249272Y-89897209D01*
X177350611Y-90048874D01*
X177420415Y-90217396D01*
X177456000Y-90396297D01*
X177456000Y-90578703D01*
X177420415Y-90757604D01*
X177350611Y-90926126D01*
X177249272Y-91077791D01*
X177120291Y-91206772D01*
X176968626Y-91308111D01*
X176800104Y-91377915D01*
X176621203Y-91413500D01*
X176438797Y-91413500D01*
X176259896Y-91377915D01*
X176091374Y-91308111D01*
X175939709Y-91206772D01*
X175810728Y-91077791D01*
X175709389Y-90926126D01*
X175639585Y-90757604D01*
X175604000Y-90578703D01*
X175604000Y-90396297D01*
X175639585Y-90217396D01*
X175709389Y-90048874D01*
X175810728Y-89897209D01*
X175939709Y-89768228D01*
X176091374Y-89666889D01*
X176259896Y-89597085D01*
X176438797Y-89561500D01*
X176621203Y-89561500D01*
X176800104Y-89597085D01*
G37*
G36*
X38052604Y-89597085D02*
G01*
X38221126Y-89666889D01*
X38372791Y-89768228D01*
X38501772Y-89897209D01*
X38603111Y-90048874D01*
X38672915Y-90217396D01*
X38708500Y-90396297D01*
X38708500Y-90578703D01*
X38672915Y-90757604D01*
X38603111Y-90926126D01*
X38501772Y-91077791D01*
X38372791Y-91206772D01*
X38221126Y-91308111D01*
X38052604Y-91377915D01*
X37873703Y-91413500D01*
X37691297Y-91413500D01*
X37512396Y-91377915D01*
X37343874Y-91308111D01*
X37192209Y-91206772D01*
X37063228Y-91077791D01*
X36961889Y-90926126D01*
X36892085Y-90757604D01*
X36856500Y-90578703D01*
X36856500Y-90396297D01*
X36892085Y-90217396D01*
X36961889Y-90048874D01*
X37063228Y-89897209D01*
X37192209Y-89768228D01*
X37343874Y-89666889D01*
X37512396Y-89597085D01*
X37691297Y-89561500D01*
X37873703Y-89561500D01*
X38052604Y-89597085D01*
G37*
G36*
X166640104Y-89597085D02*
G01*
X166808626Y-89666889D01*
X166960291Y-89768228D01*
X167089272Y-89897209D01*
X167190611Y-90048874D01*
X167260415Y-90217396D01*
X167296000Y-90396297D01*
X167296000Y-90578703D01*
X167260415Y-90757604D01*
X167190611Y-90926126D01*
X167089272Y-91077791D01*
X166960291Y-91206772D01*
X166808626Y-91308111D01*
X166640104Y-91377915D01*
X166461203Y-91413500D01*
X166278797Y-91413500D01*
X166099896Y-91377915D01*
X165931374Y-91308111D01*
X165779709Y-91206772D01*
X165650728Y-91077791D01*
X165549389Y-90926126D01*
X165479585Y-90757604D01*
X165444000Y-90578703D01*
X165444000Y-90396297D01*
X165479585Y-90217396D01*
X165549389Y-90048874D01*
X165650728Y-89897209D01*
X165779709Y-89768228D01*
X165931374Y-89666889D01*
X166099896Y-89597085D01*
X166278797Y-89561500D01*
X166461203Y-89561500D01*
X166640104Y-89597085D01*
G37*
G36*
X48212604Y-89597085D02*
G01*
X48381126Y-89666889D01*
X48532791Y-89768228D01*
X48661772Y-89897209D01*
X48763111Y-90048874D01*
X48832915Y-90217396D01*
X48868500Y-90396297D01*
X48868500Y-90578703D01*
X48832915Y-90757604D01*
X48763111Y-90926126D01*
X48661772Y-91077791D01*
X48532791Y-91206772D01*
X48381126Y-91308111D01*
X48212604Y-91377915D01*
X48033703Y-91413500D01*
X47851297Y-91413500D01*
X47672396Y-91377915D01*
X47503874Y-91308111D01*
X47352209Y-91206772D01*
X47223228Y-91077791D01*
X47121889Y-90926126D01*
X47052085Y-90757604D01*
X47016500Y-90578703D01*
X47016500Y-90396297D01*
X47052085Y-90217396D01*
X47121889Y-90048874D01*
X47223228Y-89897209D01*
X47352209Y-89768228D01*
X47503874Y-89666889D01*
X47672396Y-89597085D01*
X47851297Y-89561500D01*
X48033703Y-89561500D01*
X48212604Y-89597085D01*
G37*
G36*
X57102604Y-89597085D02*
G01*
X57271126Y-89666889D01*
X57422791Y-89768228D01*
X57551772Y-89897209D01*
X57653111Y-90048874D01*
X57722915Y-90217396D01*
X57758500Y-90396297D01*
X57758500Y-90578703D01*
X57722915Y-90757604D01*
X57653111Y-90926126D01*
X57551772Y-91077791D01*
X57422791Y-91206772D01*
X57271126Y-91308111D01*
X57102604Y-91377915D01*
X56923703Y-91413500D01*
X56741297Y-91413500D01*
X56562396Y-91377915D01*
X56393874Y-91308111D01*
X56242209Y-91206772D01*
X56113228Y-91077791D01*
X56011889Y-90926126D01*
X55942085Y-90757604D01*
X55906500Y-90578703D01*
X55906500Y-90396297D01*
X55942085Y-90217396D01*
X56011889Y-90048874D01*
X56113228Y-89897209D01*
X56242209Y-89768228D01*
X56393874Y-89666889D01*
X56562396Y-89597085D01*
X56741297Y-89561500D01*
X56923703Y-89561500D01*
X57102604Y-89597085D01*
G37*
G36*
X150606354Y-89597085D02*
G01*
X150774876Y-89666889D01*
X150926541Y-89768228D01*
X151055522Y-89897209D01*
X151156861Y-90048874D01*
X151226665Y-90217396D01*
X151262250Y-90396297D01*
X151262250Y-90578703D01*
X151226665Y-90757604D01*
X151156861Y-90926126D01*
X151055522Y-91077791D01*
X150926541Y-91206772D01*
X150774876Y-91308111D01*
X150606354Y-91377915D01*
X150427453Y-91413500D01*
X150245047Y-91413500D01*
X150066146Y-91377915D01*
X149897624Y-91308111D01*
X149745959Y-91206772D01*
X149616978Y-91077791D01*
X149515639Y-90926126D01*
X149445835Y-90757604D01*
X149410250Y-90578703D01*
X149410250Y-90396297D01*
X149445835Y-90217396D01*
X149515639Y-90048874D01*
X149616978Y-89897209D01*
X149745959Y-89768228D01*
X149897624Y-89666889D01*
X150066146Y-89597085D01*
X150245047Y-89561500D01*
X150427453Y-89561500D01*
X150606354Y-89597085D01*
G37*
G36*
X67262604Y-89597085D02*
G01*
X67431126Y-89666889D01*
X67582791Y-89768228D01*
X67711772Y-89897209D01*
X67813111Y-90048874D01*
X67882915Y-90217396D01*
X67918500Y-90396297D01*
X67918500Y-90578703D01*
X67882915Y-90757604D01*
X67813111Y-90926126D01*
X67711772Y-91077791D01*
X67582791Y-91206772D01*
X67431126Y-91308111D01*
X67262604Y-91377915D01*
X67083703Y-91413500D01*
X66901297Y-91413500D01*
X66722396Y-91377915D01*
X66553874Y-91308111D01*
X66402209Y-91206772D01*
X66273228Y-91077791D01*
X66171889Y-90926126D01*
X66102085Y-90757604D01*
X66066500Y-90578703D01*
X66066500Y-90396297D01*
X66102085Y-90217396D01*
X66171889Y-90048874D01*
X66273228Y-89897209D01*
X66402209Y-89768228D01*
X66553874Y-89666889D01*
X66722396Y-89597085D01*
X66901297Y-89561500D01*
X67083703Y-89561500D01*
X67262604Y-89597085D01*
G37*
G36*
X140446354Y-89597085D02*
G01*
X140614876Y-89666889D01*
X140766541Y-89768228D01*
X140895522Y-89897209D01*
X140996861Y-90048874D01*
X141066665Y-90217396D01*
X141102250Y-90396297D01*
X141102250Y-90578703D01*
X141066665Y-90757604D01*
X140996861Y-90926126D01*
X140895522Y-91077791D01*
X140766541Y-91206772D01*
X140614876Y-91308111D01*
X140446354Y-91377915D01*
X140267453Y-91413500D01*
X140085047Y-91413500D01*
X139906146Y-91377915D01*
X139737624Y-91308111D01*
X139585959Y-91206772D01*
X139456978Y-91077791D01*
X139355639Y-90926126D01*
X139285835Y-90757604D01*
X139250250Y-90578703D01*
X139250250Y-90396297D01*
X139285835Y-90217396D01*
X139355639Y-90048874D01*
X139456978Y-89897209D01*
X139585959Y-89768228D01*
X139737624Y-89666889D01*
X139906146Y-89597085D01*
X140085047Y-89561500D01*
X140267453Y-89561500D01*
X140446354Y-89597085D01*
G37*
G36*
X124412604Y-89597085D02*
G01*
X124581126Y-89666889D01*
X124732791Y-89768228D01*
X124861772Y-89897209D01*
X124963111Y-90048874D01*
X125032915Y-90217396D01*
X125068500Y-90396297D01*
X125068500Y-90578703D01*
X125032915Y-90757604D01*
X124963111Y-90926126D01*
X124861772Y-91077791D01*
X124732791Y-91206772D01*
X124581126Y-91308111D01*
X124412604Y-91377915D01*
X124233703Y-91413500D01*
X124051297Y-91413500D01*
X123872396Y-91377915D01*
X123703874Y-91308111D01*
X123552209Y-91206772D01*
X123423228Y-91077791D01*
X123321889Y-90926126D01*
X123252085Y-90757604D01*
X123216500Y-90578703D01*
X123216500Y-90396297D01*
X123252085Y-90217396D01*
X123321889Y-90048874D01*
X123423228Y-89897209D01*
X123552209Y-89768228D01*
X123703874Y-89666889D01*
X123872396Y-89597085D01*
X124051297Y-89561500D01*
X124233703Y-89561500D01*
X124412604Y-89597085D01*
G37*
G36*
X114252604Y-89597085D02*
G01*
X114421126Y-89666889D01*
X114572791Y-89768228D01*
X114701772Y-89897209D01*
X114803111Y-90048874D01*
X114872915Y-90217396D01*
X114908500Y-90396297D01*
X114908500Y-90578703D01*
X114872915Y-90757604D01*
X114803111Y-90926126D01*
X114701772Y-91077791D01*
X114572791Y-91206772D01*
X114421126Y-91308111D01*
X114252604Y-91377915D01*
X114073703Y-91413500D01*
X113891297Y-91413500D01*
X113712396Y-91377915D01*
X113543874Y-91308111D01*
X113392209Y-91206772D01*
X113263228Y-91077791D01*
X113161889Y-90926126D01*
X113092085Y-90757604D01*
X113056500Y-90578703D01*
X113056500Y-90396297D01*
X113092085Y-90217396D01*
X113161889Y-90048874D01*
X113263228Y-89897209D01*
X113392209Y-89768228D01*
X113543874Y-89666889D01*
X113712396Y-89597085D01*
X113891297Y-89561500D01*
X114073703Y-89561500D01*
X114252604Y-89597085D01*
G37*
G36*
X105362604Y-89597085D02*
G01*
X105531126Y-89666889D01*
X105682791Y-89768228D01*
X105811772Y-89897209D01*
X105913111Y-90048874D01*
X105982915Y-90217396D01*
X106018500Y-90396297D01*
X106018500Y-90578703D01*
X105982915Y-90757604D01*
X105913111Y-90926126D01*
X105811772Y-91077791D01*
X105682791Y-91206772D01*
X105531126Y-91308111D01*
X105362604Y-91377915D01*
X105183703Y-91413500D01*
X105001297Y-91413500D01*
X104822396Y-91377915D01*
X104653874Y-91308111D01*
X104502209Y-91206772D01*
X104373228Y-91077791D01*
X104271889Y-90926126D01*
X104202085Y-90757604D01*
X104166500Y-90578703D01*
X104166500Y-90396297D01*
X104202085Y-90217396D01*
X104271889Y-90048874D01*
X104373228Y-89897209D01*
X104502209Y-89768228D01*
X104653874Y-89666889D01*
X104822396Y-89597085D01*
X105001297Y-89561500D01*
X105183703Y-89561500D01*
X105362604Y-89597085D01*
G37*
G36*
X95202604Y-89597085D02*
G01*
X95371126Y-89666889D01*
X95522791Y-89768228D01*
X95651772Y-89897209D01*
X95753111Y-90048874D01*
X95822915Y-90217396D01*
X95858500Y-90396297D01*
X95858500Y-90578703D01*
X95822915Y-90757604D01*
X95753111Y-90926126D01*
X95651772Y-91077791D01*
X95522791Y-91206772D01*
X95371126Y-91308111D01*
X95202604Y-91377915D01*
X95023703Y-91413500D01*
X94841297Y-91413500D01*
X94662396Y-91377915D01*
X94493874Y-91308111D01*
X94342209Y-91206772D01*
X94213228Y-91077791D01*
X94111889Y-90926126D01*
X94042085Y-90757604D01*
X94006500Y-90578703D01*
X94006500Y-90396297D01*
X94042085Y-90217396D01*
X94111889Y-90048874D01*
X94213228Y-89897209D01*
X94342209Y-89768228D01*
X94493874Y-89666889D01*
X94662396Y-89597085D01*
X94841297Y-89561500D01*
X95023703Y-89561500D01*
X95202604Y-89597085D01*
G37*
G36*
X86312604Y-89597085D02*
G01*
X86481126Y-89666889D01*
X86632791Y-89768228D01*
X86761772Y-89897209D01*
X86863111Y-90048874D01*
X86932915Y-90217396D01*
X86968500Y-90396297D01*
X86968500Y-90578703D01*
X86932915Y-90757604D01*
X86863111Y-90926126D01*
X86761772Y-91077791D01*
X86632791Y-91206772D01*
X86481126Y-91308111D01*
X86312604Y-91377915D01*
X86133703Y-91413500D01*
X85951297Y-91413500D01*
X85772396Y-91377915D01*
X85603874Y-91308111D01*
X85452209Y-91206772D01*
X85323228Y-91077791D01*
X85221889Y-90926126D01*
X85152085Y-90757604D01*
X85116500Y-90578703D01*
X85116500Y-90396297D01*
X85152085Y-90217396D01*
X85221889Y-90048874D01*
X85323228Y-89897209D01*
X85452209Y-89768228D01*
X85603874Y-89666889D01*
X85772396Y-89597085D01*
X85951297Y-89561500D01*
X86133703Y-89561500D01*
X86312604Y-89597085D01*
G37*
G36*
X76152604Y-89597085D02*
G01*
X76321126Y-89666889D01*
X76472791Y-89768228D01*
X76601772Y-89897209D01*
X76703111Y-90048874D01*
X76772915Y-90217396D01*
X76808500Y-90396297D01*
X76808500Y-90578703D01*
X76772915Y-90757604D01*
X76703111Y-90926126D01*
X76601772Y-91077791D01*
X76472791Y-91206772D01*
X76321126Y-91308111D01*
X76152604Y-91377915D01*
X75973703Y-91413500D01*
X75791297Y-91413500D01*
X75612396Y-91377915D01*
X75443874Y-91308111D01*
X75292209Y-91206772D01*
X75163228Y-91077791D01*
X75061889Y-90926126D01*
X74992085Y-90757604D01*
X74956500Y-90578703D01*
X74956500Y-90396297D01*
X74992085Y-90217396D01*
X75061889Y-90048874D01*
X75163228Y-89897209D01*
X75292209Y-89768228D01*
X75443874Y-89666889D01*
X75612396Y-89597085D01*
X75791297Y-89561500D01*
X75973703Y-89561500D01*
X76152604Y-89597085D01*
G37*
G36*
X70438500Y-89413500D02*
G01*
X69386500Y-89413500D01*
X69386500Y-88011500D01*
X70438500Y-88011500D01*
X70438500Y-89413500D01*
G37*
G36*
X89488500Y-89413500D02*
G01*
X88436500Y-89413500D01*
X88436500Y-88011500D01*
X89488500Y-88011500D01*
X89488500Y-89413500D01*
G37*
G36*
X108538500Y-89413500D02*
G01*
X107486500Y-89413500D01*
X107486500Y-88011500D01*
X108538500Y-88011500D01*
X108538500Y-89413500D01*
G37*
G36*
X127588500Y-89413500D02*
G01*
X126536500Y-89413500D01*
X126536500Y-88011500D01*
X127588500Y-88011500D01*
X127588500Y-89413500D01*
G37*
G36*
X51388500Y-89413500D02*
G01*
X50336500Y-89413500D01*
X50336500Y-88011500D01*
X51388500Y-88011500D01*
X51388500Y-89413500D01*
G37*
G36*
X163976000Y-89413500D02*
G01*
X162924000Y-89413500D01*
X162924000Y-88011500D01*
X163976000Y-88011500D01*
X163976000Y-89413500D01*
G37*
G36*
X153782250Y-89413500D02*
G01*
X152730250Y-89413500D01*
X152730250Y-88011500D01*
X153782250Y-88011500D01*
X153782250Y-89413500D01*
G37*
G36*
X108106925Y-85932099D02*
G01*
X108231121Y-85956802D01*
X108367522Y-86013301D01*
X108490279Y-86095325D01*
X108594675Y-86199721D01*
X108676699Y-86322478D01*
X108733198Y-86458879D01*
X108762000Y-86603681D01*
X108762000Y-86751319D01*
X108733198Y-86896121D01*
X108676699Y-87032522D01*
X108594675Y-87155279D01*
X108490279Y-87259675D01*
X108367522Y-87341699D01*
X108231121Y-87398198D01*
X108106925Y-87422901D01*
X108086320Y-87427000D01*
X107938680Y-87427000D01*
X107918075Y-87422901D01*
X107793879Y-87398198D01*
X107657478Y-87341699D01*
X107534721Y-87259675D01*
X107430325Y-87155279D01*
X107348301Y-87032522D01*
X107291802Y-86896121D01*
X107263000Y-86751319D01*
X107263000Y-86603681D01*
X107291802Y-86458879D01*
X107348301Y-86322478D01*
X107430325Y-86199721D01*
X107534721Y-86095325D01*
X107657478Y-86013301D01*
X107793879Y-85956802D01*
X107918075Y-85932099D01*
X107938680Y-85928000D01*
X108086320Y-85928000D01*
X108106925Y-85932099D01*
G37*
G36*
X50956925Y-85932099D02*
G01*
X51081121Y-85956802D01*
X51217522Y-86013301D01*
X51340279Y-86095325D01*
X51444675Y-86199721D01*
X51526699Y-86322478D01*
X51583198Y-86458879D01*
X51612000Y-86603681D01*
X51612000Y-86751319D01*
X51583198Y-86896121D01*
X51526699Y-87032522D01*
X51444675Y-87155279D01*
X51340279Y-87259675D01*
X51217522Y-87341699D01*
X51081121Y-87398198D01*
X50956925Y-87422901D01*
X50936320Y-87427000D01*
X50788680Y-87427000D01*
X50768075Y-87422901D01*
X50643879Y-87398198D01*
X50507478Y-87341699D01*
X50384721Y-87259675D01*
X50280325Y-87155279D01*
X50198301Y-87032522D01*
X50141802Y-86896121D01*
X50113000Y-86751319D01*
X50113000Y-86603681D01*
X50141802Y-86458879D01*
X50198301Y-86322478D01*
X50280325Y-86199721D01*
X50384721Y-86095325D01*
X50507478Y-86013301D01*
X50643879Y-85956802D01*
X50768075Y-85932099D01*
X50788680Y-85928000D01*
X50936320Y-85928000D01*
X50956925Y-85932099D01*
G37*
G36*
X127156925Y-85932099D02*
G01*
X127281121Y-85956802D01*
X127417522Y-86013301D01*
X127540279Y-86095325D01*
X127644675Y-86199721D01*
X127726699Y-86322478D01*
X127783198Y-86458879D01*
X127812000Y-86603681D01*
X127812000Y-86751319D01*
X127783198Y-86896121D01*
X127726699Y-87032522D01*
X127644675Y-87155279D01*
X127540279Y-87259675D01*
X127417522Y-87341699D01*
X127281121Y-87398198D01*
X127156925Y-87422901D01*
X127136320Y-87427000D01*
X126988680Y-87427000D01*
X126968075Y-87422901D01*
X126843879Y-87398198D01*
X126707478Y-87341699D01*
X126584721Y-87259675D01*
X126480325Y-87155279D01*
X126398301Y-87032522D01*
X126341802Y-86896121D01*
X126313000Y-86751319D01*
X126313000Y-86603681D01*
X126341802Y-86458879D01*
X126398301Y-86322478D01*
X126480325Y-86199721D01*
X126584721Y-86095325D01*
X126707478Y-86013301D01*
X126843879Y-85956802D01*
X126968075Y-85932099D01*
X126988680Y-85928000D01*
X127136320Y-85928000D01*
X127156925Y-85932099D01*
G37*
G36*
X70006925Y-85932099D02*
G01*
X70131121Y-85956802D01*
X70267522Y-86013301D01*
X70390279Y-86095325D01*
X70494675Y-86199721D01*
X70576699Y-86322478D01*
X70633198Y-86458879D01*
X70662000Y-86603681D01*
X70662000Y-86751319D01*
X70633198Y-86896121D01*
X70576699Y-87032522D01*
X70494675Y-87155279D01*
X70390279Y-87259675D01*
X70267522Y-87341699D01*
X70131121Y-87398198D01*
X70006925Y-87422901D01*
X69986320Y-87427000D01*
X69838680Y-87427000D01*
X69818075Y-87422901D01*
X69693879Y-87398198D01*
X69557478Y-87341699D01*
X69434721Y-87259675D01*
X69330325Y-87155279D01*
X69248301Y-87032522D01*
X69191802Y-86896121D01*
X69163000Y-86751319D01*
X69163000Y-86603681D01*
X69191802Y-86458879D01*
X69248301Y-86322478D01*
X69330325Y-86199721D01*
X69434721Y-86095325D01*
X69557478Y-86013301D01*
X69693879Y-85956802D01*
X69818075Y-85932099D01*
X69838680Y-85928000D01*
X69986320Y-85928000D01*
X70006925Y-85932099D01*
G37*
G36*
X153350675Y-85932099D02*
G01*
X153474871Y-85956802D01*
X153611272Y-86013301D01*
X153734029Y-86095325D01*
X153838425Y-86199721D01*
X153920449Y-86322478D01*
X153976948Y-86458879D01*
X154005750Y-86603681D01*
X154005750Y-86751319D01*
X153976948Y-86896121D01*
X153920449Y-87032522D01*
X153838425Y-87155279D01*
X153734029Y-87259675D01*
X153611272Y-87341699D01*
X153474871Y-87398198D01*
X153350675Y-87422901D01*
X153330070Y-87427000D01*
X153182430Y-87427000D01*
X153161825Y-87422901D01*
X153037629Y-87398198D01*
X152901228Y-87341699D01*
X152778471Y-87259675D01*
X152674075Y-87155279D01*
X152592051Y-87032522D01*
X152535552Y-86896121D01*
X152506750Y-86751319D01*
X152506750Y-86603681D01*
X152535552Y-86458879D01*
X152592051Y-86322478D01*
X152674075Y-86199721D01*
X152778471Y-86095325D01*
X152901228Y-86013301D01*
X153037629Y-85956802D01*
X153161825Y-85932099D01*
X153182430Y-85928000D01*
X153330070Y-85928000D01*
X153350675Y-85932099D01*
G37*
G36*
X89056925Y-85932099D02*
G01*
X89181121Y-85956802D01*
X89317522Y-86013301D01*
X89440279Y-86095325D01*
X89544675Y-86199721D01*
X89626699Y-86322478D01*
X89683198Y-86458879D01*
X89712000Y-86603681D01*
X89712000Y-86751319D01*
X89683198Y-86896121D01*
X89626699Y-87032522D01*
X89544675Y-87155279D01*
X89440279Y-87259675D01*
X89317522Y-87341699D01*
X89181121Y-87398198D01*
X89056925Y-87422901D01*
X89036320Y-87427000D01*
X88888680Y-87427000D01*
X88868075Y-87422901D01*
X88743879Y-87398198D01*
X88607478Y-87341699D01*
X88484721Y-87259675D01*
X88380325Y-87155279D01*
X88298301Y-87032522D01*
X88241802Y-86896121D01*
X88213000Y-86751319D01*
X88213000Y-86603681D01*
X88241802Y-86458879D01*
X88298301Y-86322478D01*
X88380325Y-86199721D01*
X88484721Y-86095325D01*
X88607478Y-86013301D01*
X88743879Y-85956802D01*
X88868075Y-85932099D01*
X88888680Y-85928000D01*
X89036320Y-85928000D01*
X89056925Y-85932099D01*
G37*
G36*
X163544425Y-85932099D02*
G01*
X163668621Y-85956802D01*
X163805022Y-86013301D01*
X163927779Y-86095325D01*
X164032175Y-86199721D01*
X164114199Y-86322478D01*
X164170698Y-86458879D01*
X164199500Y-86603681D01*
X164199500Y-86751319D01*
X164170698Y-86896121D01*
X164114199Y-87032522D01*
X164032175Y-87155279D01*
X163927779Y-87259675D01*
X163805022Y-87341699D01*
X163668621Y-87398198D01*
X163544425Y-87422901D01*
X163523820Y-87427000D01*
X163376180Y-87427000D01*
X163355575Y-87422901D01*
X163231379Y-87398198D01*
X163094978Y-87341699D01*
X162972221Y-87259675D01*
X162867825Y-87155279D01*
X162785801Y-87032522D01*
X162729302Y-86896121D01*
X162700500Y-86751319D01*
X162700500Y-86603681D01*
X162729302Y-86458879D01*
X162785801Y-86322478D01*
X162867825Y-86199721D01*
X162972221Y-86095325D01*
X163094978Y-86013301D01*
X163231379Y-85956802D01*
X163355575Y-85932099D01*
X163376180Y-85928000D01*
X163523820Y-85928000D01*
X163544425Y-85932099D01*
G37*
G36*
X179199549Y-79833616D02*
G01*
X179310734Y-79855732D01*
X179520203Y-79942497D01*
X179708720Y-80068460D01*
X179869040Y-80228780D01*
X179995003Y-80417297D01*
X180081768Y-80626766D01*
X180126000Y-80849136D01*
X180126000Y-81075864D01*
X180081768Y-81298234D01*
X179995003Y-81507703D01*
X179869040Y-81696220D01*
X179708720Y-81856540D01*
X179520203Y-81982503D01*
X179310734Y-82069268D01*
X179199549Y-82091384D01*
X179088365Y-82113500D01*
X178861635Y-82113500D01*
X178750451Y-82091384D01*
X178639266Y-82069268D01*
X178429797Y-81982503D01*
X178241280Y-81856540D01*
X178080960Y-81696220D01*
X177954997Y-81507703D01*
X177868232Y-81298234D01*
X177824000Y-81075864D01*
X177824000Y-80849136D01*
X177868232Y-80626766D01*
X177954997Y-80417297D01*
X178080960Y-80228780D01*
X178241280Y-80068460D01*
X178429797Y-79942497D01*
X178639266Y-79855732D01*
X178750451Y-79833616D01*
X178861635Y-79811500D01*
X179088365Y-79811500D01*
X179199549Y-79833616D01*
G37*
G36*
X35562049Y-79833616D02*
G01*
X35673234Y-79855732D01*
X35882703Y-79942497D01*
X36071220Y-80068460D01*
X36231540Y-80228780D01*
X36357503Y-80417297D01*
X36444268Y-80626766D01*
X36488500Y-80849136D01*
X36488500Y-81075864D01*
X36444268Y-81298234D01*
X36357503Y-81507703D01*
X36231540Y-81696220D01*
X36071220Y-81856540D01*
X35882703Y-81982503D01*
X35673234Y-82069268D01*
X35562049Y-82091384D01*
X35450865Y-82113500D01*
X35224135Y-82113500D01*
X35112951Y-82091384D01*
X35001766Y-82069268D01*
X34792297Y-81982503D01*
X34603780Y-81856540D01*
X34443460Y-81696220D01*
X34317497Y-81507703D01*
X34230732Y-81298234D01*
X34186500Y-81075864D01*
X34186500Y-80849136D01*
X34230732Y-80626766D01*
X34317497Y-80417297D01*
X34443460Y-80228780D01*
X34603780Y-80068460D01*
X34792297Y-79942497D01*
X35001766Y-79855732D01*
X35112951Y-79833616D01*
X35224135Y-79811500D01*
X35450865Y-79811500D01*
X35562049Y-79833616D01*
G37*
G36*
X172078224Y-77726184D02*
G01*
X172296224Y-77816483D01*
X172450373Y-77880333D01*
X172785298Y-78104123D01*
X173070127Y-78388952D01*
X173293917Y-78723877D01*
X173293917Y-78723878D01*
X173448066Y-79096026D01*
X173526650Y-79491094D01*
X173526650Y-79893906D01*
X173448066Y-80288974D01*
X173394913Y-80417297D01*
X173293917Y-80661123D01*
X173070127Y-80996048D01*
X172785298Y-81280877D01*
X172450373Y-81504667D01*
X172296224Y-81568517D01*
X172078224Y-81658816D01*
X171683156Y-81737400D01*
X171280344Y-81737400D01*
X170885276Y-81658816D01*
X170667276Y-81568517D01*
X170513127Y-81504667D01*
X170178202Y-81280877D01*
X169893373Y-80996048D01*
X169669583Y-80661123D01*
X169568587Y-80417297D01*
X169515434Y-80288974D01*
X169436850Y-79893906D01*
X169436850Y-79491094D01*
X169515434Y-79096026D01*
X169669583Y-78723878D01*
X169669583Y-78723877D01*
X169893373Y-78388952D01*
X170178202Y-78104123D01*
X170513127Y-77880333D01*
X170667276Y-77816483D01*
X170885276Y-77726184D01*
X171280344Y-77647600D01*
X171683156Y-77647600D01*
X172078224Y-77726184D01*
G37*
G36*
X148202224Y-77726184D02*
G01*
X148420224Y-77816483D01*
X148574373Y-77880333D01*
X148909298Y-78104123D01*
X149194127Y-78388952D01*
X149417917Y-78723877D01*
X149417917Y-78723878D01*
X149572066Y-79096026D01*
X149650650Y-79491094D01*
X149650650Y-79893906D01*
X149572066Y-80288974D01*
X149518913Y-80417297D01*
X149417917Y-80661123D01*
X149194127Y-80996048D01*
X148909298Y-81280877D01*
X148574373Y-81504667D01*
X148420224Y-81568517D01*
X148202224Y-81658816D01*
X147807156Y-81737400D01*
X147404344Y-81737400D01*
X147009276Y-81658816D01*
X146791276Y-81568517D01*
X146637127Y-81504667D01*
X146302202Y-81280877D01*
X146017373Y-80996048D01*
X145793583Y-80661123D01*
X145692587Y-80417297D01*
X145639434Y-80288974D01*
X145560850Y-79893906D01*
X145560850Y-79491094D01*
X145639434Y-79096026D01*
X145793583Y-78723878D01*
X145793583Y-78723877D01*
X146017373Y-78388952D01*
X146302202Y-78104123D01*
X146637127Y-77880333D01*
X146791276Y-77816483D01*
X147009276Y-77726184D01*
X147404344Y-77647600D01*
X147807156Y-77647600D01*
X148202224Y-77726184D01*
G37*
G36*
X61137000Y-75997000D02*
G01*
X59638000Y-75997000D01*
X59638000Y-74498000D01*
X61137000Y-74498000D01*
X61137000Y-75997000D01*
G37*
G36*
X99237000Y-75997000D02*
G01*
X97738000Y-75997000D01*
X97738000Y-74498000D01*
X99237000Y-74498000D01*
X99237000Y-75997000D01*
G37*
G36*
X118287000Y-75997000D02*
G01*
X116788000Y-75997000D01*
X116788000Y-74498000D01*
X118287000Y-74498000D01*
X118287000Y-75997000D01*
G37*
G36*
X137337000Y-75997000D02*
G01*
X135838000Y-75997000D01*
X135838000Y-74498000D01*
X137337000Y-74498000D01*
X137337000Y-75997000D01*
G37*
G36*
X140293250Y-75997000D02*
G01*
X138794250Y-75997000D01*
X138794250Y-74498000D01*
X140293250Y-74498000D01*
X140293250Y-75997000D01*
G37*
G36*
X80187000Y-75997000D02*
G01*
X78688000Y-75997000D01*
X78688000Y-74498000D01*
X80187000Y-74498000D01*
X80187000Y-75997000D01*
G37*
G36*
X42087000Y-75997000D02*
G01*
X40588000Y-75997000D01*
X40588000Y-74498000D01*
X42087000Y-74498000D01*
X42087000Y-75997000D01*
G37*
G36*
X178850314Y-73676889D02*
G01*
X179041583Y-73756115D01*
X179041585Y-73756116D01*
X179213723Y-73871135D01*
X179360115Y-74017527D01*
X179475135Y-74189667D01*
X179554361Y-74380936D01*
X179594750Y-74583984D01*
X179594750Y-74791016D01*
X179554361Y-74994064D01*
X179475135Y-75185333D01*
X179475134Y-75185335D01*
X179360115Y-75357473D01*
X179213723Y-75503865D01*
X179041585Y-75618884D01*
X179041584Y-75618885D01*
X179041583Y-75618885D01*
X178850314Y-75698111D01*
X178647266Y-75738500D01*
X178440234Y-75738500D01*
X178237186Y-75698111D01*
X178045917Y-75618885D01*
X178045916Y-75618885D01*
X178045915Y-75618884D01*
X177873777Y-75503865D01*
X177727385Y-75357473D01*
X177612366Y-75185335D01*
X177612365Y-75185333D01*
X177533139Y-74994064D01*
X177492750Y-74791016D01*
X177492750Y-74583984D01*
X177533139Y-74380936D01*
X177612365Y-74189667D01*
X177727385Y-74017527D01*
X177873777Y-73871135D01*
X178045915Y-73756116D01*
X178045917Y-73756115D01*
X178237186Y-73676889D01*
X178440234Y-73636500D01*
X178647266Y-73636500D01*
X178850314Y-73676889D01*
G37*
G36*
X137113500Y-73913500D02*
G01*
X136061500Y-73913500D01*
X136061500Y-72511500D01*
X137113500Y-72511500D01*
X137113500Y-73913500D01*
G37*
G36*
X118063500Y-73913500D02*
G01*
X117011500Y-73913500D01*
X117011500Y-72511500D01*
X118063500Y-72511500D01*
X118063500Y-73913500D01*
G37*
G36*
X99013500Y-73913500D02*
G01*
X97961500Y-73913500D01*
X97961500Y-72511500D01*
X99013500Y-72511500D01*
X99013500Y-73913500D01*
G37*
G36*
X79963500Y-73913500D02*
G01*
X78911500Y-73913500D01*
X78911500Y-72511500D01*
X79963500Y-72511500D01*
X79963500Y-73913500D01*
G37*
G36*
X60913500Y-73913500D02*
G01*
X59861500Y-73913500D01*
X59861500Y-72511500D01*
X60913500Y-72511500D01*
X60913500Y-73913500D01*
G37*
G36*
X41863500Y-73913500D02*
G01*
X40811500Y-73913500D01*
X40811500Y-72511500D01*
X41863500Y-72511500D01*
X41863500Y-73913500D01*
G37*
G36*
X140069750Y-73913500D02*
G01*
X139017750Y-73913500D01*
X139017750Y-72511500D01*
X140069750Y-72511500D01*
X140069750Y-73913500D01*
G37*
G36*
X52983974Y-69471184D02*
G01*
X53201974Y-69561483D01*
X53356123Y-69625333D01*
X53691048Y-69849123D01*
X53975877Y-70133952D01*
X54199667Y-70468877D01*
X54232062Y-70547086D01*
X54353816Y-70841026D01*
X54432400Y-71236094D01*
X54432400Y-71638906D01*
X54353816Y-72033974D01*
X54302951Y-72156772D01*
X54199667Y-72406123D01*
X53975877Y-72741048D01*
X53691048Y-73025877D01*
X53356123Y-73249667D01*
X53201974Y-73313517D01*
X52983974Y-73403816D01*
X52588906Y-73482400D01*
X52186094Y-73482400D01*
X51791026Y-73403816D01*
X51573026Y-73313517D01*
X51418877Y-73249667D01*
X51083952Y-73025877D01*
X50799123Y-72741048D01*
X50575333Y-72406123D01*
X50472049Y-72156772D01*
X50421184Y-72033974D01*
X50342600Y-71638906D01*
X50342600Y-71236094D01*
X50421184Y-70841026D01*
X50542938Y-70547086D01*
X50575333Y-70468877D01*
X50799123Y-70133952D01*
X51083952Y-69849123D01*
X51418877Y-69625333D01*
X51573026Y-69561483D01*
X51791026Y-69471184D01*
X52186094Y-69392600D01*
X52588906Y-69392600D01*
X52983974Y-69471184D01*
G37*
G36*
X72033974Y-69471184D02*
G01*
X72251974Y-69561483D01*
X72406123Y-69625333D01*
X72741048Y-69849123D01*
X73025877Y-70133952D01*
X73249667Y-70468877D01*
X73282062Y-70547086D01*
X73403816Y-70841026D01*
X73482400Y-71236094D01*
X73482400Y-71638906D01*
X73403816Y-72033974D01*
X73352951Y-72156772D01*
X73249667Y-72406123D01*
X73025877Y-72741048D01*
X72741048Y-73025877D01*
X72406123Y-73249667D01*
X72251974Y-73313517D01*
X72033974Y-73403816D01*
X71638906Y-73482400D01*
X71236094Y-73482400D01*
X70841026Y-73403816D01*
X70623026Y-73313517D01*
X70468877Y-73249667D01*
X70133952Y-73025877D01*
X69849123Y-72741048D01*
X69625333Y-72406123D01*
X69522049Y-72156772D01*
X69471184Y-72033974D01*
X69392600Y-71638906D01*
X69392600Y-71236094D01*
X69471184Y-70841026D01*
X69592938Y-70547086D01*
X69625333Y-70468877D01*
X69849123Y-70133952D01*
X70133952Y-69849123D01*
X70468877Y-69625333D01*
X70623026Y-69561483D01*
X70841026Y-69471184D01*
X71236094Y-69392600D01*
X71638906Y-69392600D01*
X72033974Y-69471184D01*
G37*
G36*
X129183974Y-69471184D02*
G01*
X129401974Y-69561483D01*
X129556123Y-69625333D01*
X129891048Y-69849123D01*
X130175877Y-70133952D01*
X130399667Y-70468877D01*
X130432062Y-70547086D01*
X130553816Y-70841026D01*
X130632400Y-71236094D01*
X130632400Y-71638906D01*
X130553816Y-72033974D01*
X130502951Y-72156772D01*
X130399667Y-72406123D01*
X130175877Y-72741048D01*
X129891048Y-73025877D01*
X129556123Y-73249667D01*
X129401974Y-73313517D01*
X129183974Y-73403816D01*
X128788906Y-73482400D01*
X128386094Y-73482400D01*
X127991026Y-73403816D01*
X127773026Y-73313517D01*
X127618877Y-73249667D01*
X127283952Y-73025877D01*
X126999123Y-72741048D01*
X126775333Y-72406123D01*
X126672049Y-72156772D01*
X126621184Y-72033974D01*
X126542600Y-71638906D01*
X126542600Y-71236094D01*
X126621184Y-70841026D01*
X126742938Y-70547086D01*
X126775333Y-70468877D01*
X126999123Y-70133952D01*
X127283952Y-69849123D01*
X127618877Y-69625333D01*
X127773026Y-69561483D01*
X127991026Y-69471184D01*
X128386094Y-69392600D01*
X128788906Y-69392600D01*
X129183974Y-69471184D01*
G37*
G36*
X110133974Y-69471184D02*
G01*
X110351974Y-69561483D01*
X110506123Y-69625333D01*
X110841048Y-69849123D01*
X111125877Y-70133952D01*
X111349667Y-70468877D01*
X111382062Y-70547086D01*
X111503816Y-70841026D01*
X111582400Y-71236094D01*
X111582400Y-71638906D01*
X111503816Y-72033974D01*
X111452951Y-72156772D01*
X111349667Y-72406123D01*
X111125877Y-72741048D01*
X110841048Y-73025877D01*
X110506123Y-73249667D01*
X110351974Y-73313517D01*
X110133974Y-73403816D01*
X109738906Y-73482400D01*
X109336094Y-73482400D01*
X108941026Y-73403816D01*
X108723026Y-73313517D01*
X108568877Y-73249667D01*
X108233952Y-73025877D01*
X107949123Y-72741048D01*
X107725333Y-72406123D01*
X107622049Y-72156772D01*
X107571184Y-72033974D01*
X107492600Y-71638906D01*
X107492600Y-71236094D01*
X107571184Y-70841026D01*
X107692938Y-70547086D01*
X107725333Y-70468877D01*
X107949123Y-70133952D01*
X108233952Y-69849123D01*
X108568877Y-69625333D01*
X108723026Y-69561483D01*
X108941026Y-69471184D01*
X109336094Y-69392600D01*
X109738906Y-69392600D01*
X110133974Y-69471184D01*
G37*
G36*
X91083974Y-69471184D02*
G01*
X91301974Y-69561483D01*
X91456123Y-69625333D01*
X91791048Y-69849123D01*
X92075877Y-70133952D01*
X92299667Y-70468877D01*
X92332062Y-70547086D01*
X92453816Y-70841026D01*
X92532400Y-71236094D01*
X92532400Y-71638906D01*
X92453816Y-72033974D01*
X92402951Y-72156772D01*
X92299667Y-72406123D01*
X92075877Y-72741048D01*
X91791048Y-73025877D01*
X91456123Y-73249667D01*
X91301974Y-73313517D01*
X91083974Y-73403816D01*
X90688906Y-73482400D01*
X90286094Y-73482400D01*
X89891026Y-73403816D01*
X89673026Y-73313517D01*
X89518877Y-73249667D01*
X89183952Y-73025877D01*
X88899123Y-72741048D01*
X88675333Y-72406123D01*
X88572049Y-72156772D01*
X88521184Y-72033974D01*
X88442600Y-71638906D01*
X88442600Y-71236094D01*
X88521184Y-70841026D01*
X88642938Y-70547086D01*
X88675333Y-70468877D01*
X88899123Y-70133952D01*
X89183952Y-69849123D01*
X89518877Y-69625333D01*
X89673026Y-69561483D01*
X89891026Y-69471184D01*
X90286094Y-69392600D01*
X90688906Y-69392600D01*
X91083974Y-69471184D01*
G37*
G36*
X160140224Y-69471184D02*
G01*
X160358224Y-69561483D01*
X160512373Y-69625333D01*
X160847298Y-69849123D01*
X161132127Y-70133952D01*
X161355917Y-70468877D01*
X161388312Y-70547086D01*
X161510066Y-70841026D01*
X161588650Y-71236094D01*
X161588650Y-71638906D01*
X161510066Y-72033974D01*
X161459201Y-72156772D01*
X161355917Y-72406123D01*
X161132127Y-72741048D01*
X160847298Y-73025877D01*
X160512373Y-73249667D01*
X160358224Y-73313517D01*
X160140224Y-73403816D01*
X159745156Y-73482400D01*
X159342344Y-73482400D01*
X158947276Y-73403816D01*
X158729276Y-73313517D01*
X158575127Y-73249667D01*
X158240202Y-73025877D01*
X157955373Y-72741048D01*
X157731583Y-72406123D01*
X157628299Y-72156772D01*
X157577434Y-72033974D01*
X157498850Y-71638906D01*
X157498850Y-71236094D01*
X157577434Y-70841026D01*
X157699188Y-70547086D01*
X157731583Y-70468877D01*
X157955373Y-70133952D01*
X158240202Y-69849123D01*
X158575127Y-69625333D01*
X158729276Y-69561483D01*
X158947276Y-69471184D01*
X159342344Y-69392600D01*
X159745156Y-69392600D01*
X160140224Y-69471184D01*
G37*
G36*
X33933974Y-69471184D02*
G01*
X34151974Y-69561483D01*
X34306123Y-69625333D01*
X34641048Y-69849123D01*
X34925877Y-70133952D01*
X35149667Y-70468877D01*
X35182062Y-70547086D01*
X35303816Y-70841026D01*
X35382400Y-71236094D01*
X35382400Y-71638906D01*
X35303816Y-72033974D01*
X35252951Y-72156772D01*
X35149667Y-72406123D01*
X34925877Y-72741048D01*
X34641048Y-73025877D01*
X34306123Y-73249667D01*
X34151974Y-73313517D01*
X33933974Y-73403816D01*
X33538906Y-73482400D01*
X33136094Y-73482400D01*
X32741026Y-73403816D01*
X32523026Y-73313517D01*
X32368877Y-73249667D01*
X32033952Y-73025877D01*
X31749123Y-72741048D01*
X31525333Y-72406123D01*
X31422049Y-72156772D01*
X31371184Y-72033974D01*
X31292600Y-71638906D01*
X31292600Y-71236094D01*
X31371184Y-70841026D01*
X31492938Y-70547086D01*
X31525333Y-70468877D01*
X31749123Y-70133952D01*
X32033952Y-69849123D01*
X32368877Y-69625333D01*
X32523026Y-69561483D01*
X32741026Y-69471184D01*
X33136094Y-69392600D01*
X33538906Y-69392600D01*
X33933974Y-69471184D01*
G37*
G36*
X133937604Y-70547085D02*
G01*
X134106126Y-70616889D01*
X134257791Y-70718228D01*
X134386772Y-70847209D01*
X134488111Y-70998874D01*
X134557915Y-71167396D01*
X134593500Y-71346297D01*
X134593500Y-71528703D01*
X134557915Y-71707604D01*
X134488111Y-71876126D01*
X134386772Y-72027791D01*
X134257791Y-72156772D01*
X134106126Y-72258111D01*
X133937604Y-72327915D01*
X133758703Y-72363500D01*
X133576297Y-72363500D01*
X133397396Y-72327915D01*
X133228874Y-72258111D01*
X133077209Y-72156772D01*
X132948228Y-72027791D01*
X132846889Y-71876126D01*
X132777085Y-71707604D01*
X132741500Y-71528703D01*
X132741500Y-71346297D01*
X132777085Y-71167396D01*
X132846889Y-70998874D01*
X132948228Y-70847209D01*
X133077209Y-70718228D01*
X133228874Y-70616889D01*
X133397396Y-70547085D01*
X133576297Y-70511500D01*
X133758703Y-70511500D01*
X133937604Y-70547085D01*
G37*
G36*
X57737604Y-70547085D02*
G01*
X57906126Y-70616889D01*
X58057791Y-70718228D01*
X58186772Y-70847209D01*
X58288111Y-70998874D01*
X58357915Y-71167396D01*
X58393500Y-71346297D01*
X58393500Y-71528703D01*
X58357915Y-71707604D01*
X58288111Y-71876126D01*
X58186772Y-72027791D01*
X58057791Y-72156772D01*
X57906126Y-72258111D01*
X57737604Y-72327915D01*
X57558703Y-72363500D01*
X57376297Y-72363500D01*
X57197396Y-72327915D01*
X57028874Y-72258111D01*
X56877209Y-72156772D01*
X56748228Y-72027791D01*
X56646889Y-71876126D01*
X56577085Y-71707604D01*
X56541500Y-71528703D01*
X56541500Y-71346297D01*
X56577085Y-71167396D01*
X56646889Y-70998874D01*
X56748228Y-70847209D01*
X56877209Y-70718228D01*
X57028874Y-70616889D01*
X57197396Y-70547085D01*
X57376297Y-70511500D01*
X57558703Y-70511500D01*
X57737604Y-70547085D01*
G37*
G36*
X123777604Y-70547085D02*
G01*
X123946126Y-70616889D01*
X124097791Y-70718228D01*
X124226772Y-70847209D01*
X124328111Y-70998874D01*
X124397915Y-71167396D01*
X124433500Y-71346297D01*
X124433500Y-71528703D01*
X124397915Y-71707604D01*
X124328111Y-71876126D01*
X124226772Y-72027791D01*
X124097791Y-72156772D01*
X123946126Y-72258111D01*
X123777604Y-72327915D01*
X123598703Y-72363500D01*
X123416297Y-72363500D01*
X123237396Y-72327915D01*
X123068874Y-72258111D01*
X122917209Y-72156772D01*
X122788228Y-72027791D01*
X122686889Y-71876126D01*
X122617085Y-71707604D01*
X122581500Y-71528703D01*
X122581500Y-71346297D01*
X122617085Y-71167396D01*
X122686889Y-70998874D01*
X122788228Y-70847209D01*
X122917209Y-70718228D01*
X123068874Y-70616889D01*
X123237396Y-70547085D01*
X123416297Y-70511500D01*
X123598703Y-70511500D01*
X123777604Y-70547085D01*
G37*
G36*
X114887604Y-70547085D02*
G01*
X115056126Y-70616889D01*
X115207791Y-70718228D01*
X115336772Y-70847209D01*
X115438111Y-70998874D01*
X115507915Y-71167396D01*
X115543500Y-71346297D01*
X115543500Y-71528703D01*
X115507915Y-71707604D01*
X115438111Y-71876126D01*
X115336772Y-72027791D01*
X115207791Y-72156772D01*
X115056126Y-72258111D01*
X114887604Y-72327915D01*
X114708703Y-72363500D01*
X114526297Y-72363500D01*
X114347396Y-72327915D01*
X114178874Y-72258111D01*
X114027209Y-72156772D01*
X113898228Y-72027791D01*
X113796889Y-71876126D01*
X113727085Y-71707604D01*
X113691500Y-71528703D01*
X113691500Y-71346297D01*
X113727085Y-71167396D01*
X113796889Y-70998874D01*
X113898228Y-70847209D01*
X114027209Y-70718228D01*
X114178874Y-70616889D01*
X114347396Y-70547085D01*
X114526297Y-70511500D01*
X114708703Y-70511500D01*
X114887604Y-70547085D01*
G37*
G36*
X104727604Y-70547085D02*
G01*
X104896126Y-70616889D01*
X105047791Y-70718228D01*
X105176772Y-70847209D01*
X105278111Y-70998874D01*
X105347915Y-71167396D01*
X105383500Y-71346297D01*
X105383500Y-71528703D01*
X105347915Y-71707604D01*
X105278111Y-71876126D01*
X105176772Y-72027791D01*
X105047791Y-72156772D01*
X104896126Y-72258111D01*
X104727604Y-72327915D01*
X104548703Y-72363500D01*
X104366297Y-72363500D01*
X104187396Y-72327915D01*
X104018874Y-72258111D01*
X103867209Y-72156772D01*
X103738228Y-72027791D01*
X103636889Y-71876126D01*
X103567085Y-71707604D01*
X103531500Y-71528703D01*
X103531500Y-71346297D01*
X103567085Y-71167396D01*
X103636889Y-70998874D01*
X103738228Y-70847209D01*
X103867209Y-70718228D01*
X104018874Y-70616889D01*
X104187396Y-70547085D01*
X104366297Y-70511500D01*
X104548703Y-70511500D01*
X104727604Y-70547085D01*
G37*
G36*
X95837604Y-70547085D02*
G01*
X96006126Y-70616889D01*
X96157791Y-70718228D01*
X96286772Y-70847209D01*
X96388111Y-70998874D01*
X96457915Y-71167396D01*
X96493500Y-71346297D01*
X96493500Y-71528703D01*
X96457915Y-71707604D01*
X96388111Y-71876126D01*
X96286772Y-72027791D01*
X96157791Y-72156772D01*
X96006126Y-72258111D01*
X95837604Y-72327915D01*
X95658703Y-72363500D01*
X95476297Y-72363500D01*
X95297396Y-72327915D01*
X95128874Y-72258111D01*
X94977209Y-72156772D01*
X94848228Y-72027791D01*
X94746889Y-71876126D01*
X94677085Y-71707604D01*
X94641500Y-71528703D01*
X94641500Y-71346297D01*
X94677085Y-71167396D01*
X94746889Y-70998874D01*
X94848228Y-70847209D01*
X94977209Y-70718228D01*
X95128874Y-70616889D01*
X95297396Y-70547085D01*
X95476297Y-70511500D01*
X95658703Y-70511500D01*
X95837604Y-70547085D01*
G37*
G36*
X85677604Y-70547085D02*
G01*
X85846126Y-70616889D01*
X85997791Y-70718228D01*
X86126772Y-70847209D01*
X86228111Y-70998874D01*
X86297915Y-71167396D01*
X86333500Y-71346297D01*
X86333500Y-71528703D01*
X86297915Y-71707604D01*
X86228111Y-71876126D01*
X86126772Y-72027791D01*
X85997791Y-72156772D01*
X85846126Y-72258111D01*
X85677604Y-72327915D01*
X85498703Y-72363500D01*
X85316297Y-72363500D01*
X85137396Y-72327915D01*
X84968874Y-72258111D01*
X84817209Y-72156772D01*
X84688228Y-72027791D01*
X84586889Y-71876126D01*
X84517085Y-71707604D01*
X84481500Y-71528703D01*
X84481500Y-71346297D01*
X84517085Y-71167396D01*
X84586889Y-70998874D01*
X84688228Y-70847209D01*
X84817209Y-70718228D01*
X84968874Y-70616889D01*
X85137396Y-70547085D01*
X85316297Y-70511500D01*
X85498703Y-70511500D01*
X85677604Y-70547085D01*
G37*
G36*
X76787604Y-70547085D02*
G01*
X76956126Y-70616889D01*
X77107791Y-70718228D01*
X77236772Y-70847209D01*
X77338111Y-70998874D01*
X77407915Y-71167396D01*
X77443500Y-71346297D01*
X77443500Y-71528703D01*
X77407915Y-71707604D01*
X77338111Y-71876126D01*
X77236772Y-72027791D01*
X77107791Y-72156772D01*
X76956126Y-72258111D01*
X76787604Y-72327915D01*
X76608703Y-72363500D01*
X76426297Y-72363500D01*
X76247396Y-72327915D01*
X76078874Y-72258111D01*
X75927209Y-72156772D01*
X75798228Y-72027791D01*
X75696889Y-71876126D01*
X75627085Y-71707604D01*
X75591500Y-71528703D01*
X75591500Y-71346297D01*
X75627085Y-71167396D01*
X75696889Y-70998874D01*
X75798228Y-70847209D01*
X75927209Y-70718228D01*
X76078874Y-70616889D01*
X76247396Y-70547085D01*
X76426297Y-70511500D01*
X76608703Y-70511500D01*
X76787604Y-70547085D01*
G37*
G36*
X28527604Y-70547085D02*
G01*
X28696126Y-70616889D01*
X28847791Y-70718228D01*
X28976772Y-70847209D01*
X29078111Y-70998874D01*
X29147915Y-71167396D01*
X29183500Y-71346297D01*
X29183500Y-71528703D01*
X29147915Y-71707604D01*
X29078111Y-71876126D01*
X28976772Y-72027791D01*
X28847791Y-72156772D01*
X28696126Y-72258111D01*
X28527604Y-72327915D01*
X28348703Y-72363500D01*
X28166297Y-72363500D01*
X27987396Y-72327915D01*
X27818874Y-72258111D01*
X27667209Y-72156772D01*
X27538228Y-72027791D01*
X27436889Y-71876126D01*
X27367085Y-71707604D01*
X27331500Y-71528703D01*
X27331500Y-71346297D01*
X27367085Y-71167396D01*
X27436889Y-70998874D01*
X27538228Y-70847209D01*
X27667209Y-70718228D01*
X27818874Y-70616889D01*
X27987396Y-70547085D01*
X28166297Y-70511500D01*
X28348703Y-70511500D01*
X28527604Y-70547085D01*
G37*
G36*
X38687604Y-70547085D02*
G01*
X38856126Y-70616889D01*
X39007791Y-70718228D01*
X39136772Y-70847209D01*
X39238111Y-70998874D01*
X39307915Y-71167396D01*
X39343500Y-71346297D01*
X39343500Y-71528703D01*
X39307915Y-71707604D01*
X39238111Y-71876126D01*
X39136772Y-72027791D01*
X39007791Y-72156772D01*
X38856126Y-72258111D01*
X38687604Y-72327915D01*
X38508703Y-72363500D01*
X38326297Y-72363500D01*
X38147396Y-72327915D01*
X37978874Y-72258111D01*
X37827209Y-72156772D01*
X37698228Y-72027791D01*
X37596889Y-71876126D01*
X37527085Y-71707604D01*
X37491500Y-71528703D01*
X37491500Y-71346297D01*
X37527085Y-71167396D01*
X37596889Y-70998874D01*
X37698228Y-70847209D01*
X37827209Y-70718228D01*
X37978874Y-70616889D01*
X38147396Y-70547085D01*
X38326297Y-70511500D01*
X38508703Y-70511500D01*
X38687604Y-70547085D01*
G37*
G36*
X164893854Y-70547085D02*
G01*
X165062376Y-70616889D01*
X165214041Y-70718228D01*
X165343022Y-70847209D01*
X165444361Y-70998874D01*
X165514165Y-71167396D01*
X165549750Y-71346297D01*
X165549750Y-71528703D01*
X165514165Y-71707604D01*
X165444361Y-71876126D01*
X165343022Y-72027791D01*
X165214041Y-72156772D01*
X165062376Y-72258111D01*
X164893854Y-72327915D01*
X164714953Y-72363500D01*
X164532547Y-72363500D01*
X164353646Y-72327915D01*
X164185124Y-72258111D01*
X164033459Y-72156772D01*
X163904478Y-72027791D01*
X163803139Y-71876126D01*
X163733335Y-71707604D01*
X163697750Y-71528703D01*
X163697750Y-71346297D01*
X163733335Y-71167396D01*
X163803139Y-70998874D01*
X163904478Y-70847209D01*
X164033459Y-70718228D01*
X164185124Y-70616889D01*
X164353646Y-70547085D01*
X164532547Y-70511500D01*
X164714953Y-70511500D01*
X164893854Y-70547085D01*
G37*
G36*
X47577604Y-70547085D02*
G01*
X47746126Y-70616889D01*
X47897791Y-70718228D01*
X48026772Y-70847209D01*
X48128111Y-70998874D01*
X48197915Y-71167396D01*
X48233500Y-71346297D01*
X48233500Y-71528703D01*
X48197915Y-71707604D01*
X48128111Y-71876126D01*
X48026772Y-72027791D01*
X47897791Y-72156772D01*
X47746126Y-72258111D01*
X47577604Y-72327915D01*
X47398703Y-72363500D01*
X47216297Y-72363500D01*
X47037396Y-72327915D01*
X46868874Y-72258111D01*
X46717209Y-72156772D01*
X46588228Y-72027791D01*
X46486889Y-71876126D01*
X46417085Y-71707604D01*
X46381500Y-71528703D01*
X46381500Y-71346297D01*
X46417085Y-71167396D01*
X46486889Y-70998874D01*
X46588228Y-70847209D01*
X46717209Y-70718228D01*
X46868874Y-70616889D01*
X47037396Y-70547085D01*
X47216297Y-70511500D01*
X47398703Y-70511500D01*
X47577604Y-70547085D01*
G37*
G36*
X154733854Y-70547085D02*
G01*
X154902376Y-70616889D01*
X155054041Y-70718228D01*
X155183022Y-70847209D01*
X155284361Y-70998874D01*
X155354165Y-71167396D01*
X155389750Y-71346297D01*
X155389750Y-71528703D01*
X155354165Y-71707604D01*
X155284361Y-71876126D01*
X155183022Y-72027791D01*
X155054041Y-72156772D01*
X154902376Y-72258111D01*
X154733854Y-72327915D01*
X154554953Y-72363500D01*
X154372547Y-72363500D01*
X154193646Y-72327915D01*
X154025124Y-72258111D01*
X153873459Y-72156772D01*
X153744478Y-72027791D01*
X153643139Y-71876126D01*
X153573335Y-71707604D01*
X153537750Y-71528703D01*
X153537750Y-71346297D01*
X153573335Y-71167396D01*
X153643139Y-70998874D01*
X153744478Y-70847209D01*
X153873459Y-70718228D01*
X154025124Y-70616889D01*
X154193646Y-70547085D01*
X154372547Y-70511500D01*
X154554953Y-70511500D01*
X154733854Y-70547085D01*
G37*
G36*
X66627604Y-70547085D02*
G01*
X66796126Y-70616889D01*
X66947791Y-70718228D01*
X67076772Y-70847209D01*
X67178111Y-70998874D01*
X67247915Y-71167396D01*
X67283500Y-71346297D01*
X67283500Y-71528703D01*
X67247915Y-71707604D01*
X67178111Y-71876126D01*
X67076772Y-72027791D01*
X66947791Y-72156772D01*
X66796126Y-72258111D01*
X66627604Y-72327915D01*
X66448703Y-72363500D01*
X66266297Y-72363500D01*
X66087396Y-72327915D01*
X65918874Y-72258111D01*
X65767209Y-72156772D01*
X65638228Y-72027791D01*
X65536889Y-71876126D01*
X65467085Y-71707604D01*
X65431500Y-71528703D01*
X65431500Y-71346297D01*
X65467085Y-71167396D01*
X65536889Y-70998874D01*
X65638228Y-70847209D01*
X65767209Y-70718228D01*
X65918874Y-70616889D01*
X66087396Y-70547085D01*
X66266297Y-70511500D01*
X66448703Y-70511500D01*
X66627604Y-70547085D01*
G37*
G36*
X118063500Y-70363500D02*
G01*
X117011500Y-70363500D01*
X117011500Y-68961500D01*
X118063500Y-68961500D01*
X118063500Y-70363500D01*
G37*
G36*
X99013500Y-70363500D02*
G01*
X97961500Y-70363500D01*
X97961500Y-68961500D01*
X99013500Y-68961500D01*
X99013500Y-70363500D01*
G37*
G36*
X79963500Y-70363500D02*
G01*
X78911500Y-70363500D01*
X78911500Y-68961500D01*
X79963500Y-68961500D01*
X79963500Y-70363500D01*
G37*
G36*
X60913500Y-70363500D02*
G01*
X59861500Y-70363500D01*
X59861500Y-68961500D01*
X60913500Y-68961500D01*
X60913500Y-70363500D01*
G37*
G36*
X41863500Y-70363500D02*
G01*
X40811500Y-70363500D01*
X40811500Y-68961500D01*
X41863500Y-68961500D01*
X41863500Y-70363500D01*
G37*
G36*
X137113500Y-70363500D02*
G01*
X136061500Y-70363500D01*
X136061500Y-68961500D01*
X137113500Y-68961500D01*
X137113500Y-70363500D01*
G37*
G36*
X140069750Y-70363500D02*
G01*
X139017750Y-70363500D01*
X139017750Y-68961500D01*
X140069750Y-68961500D01*
X140069750Y-70363500D01*
G37*
G36*
X178850314Y-67176889D02*
G01*
X179041583Y-67256115D01*
X179041585Y-67256116D01*
X179066072Y-67272478D01*
X179213723Y-67371135D01*
X179360115Y-67517527D01*
X179475135Y-67689667D01*
X179554361Y-67880936D01*
X179594750Y-68083984D01*
X179594750Y-68291016D01*
X179554361Y-68494064D01*
X179475135Y-68685333D01*
X179475134Y-68685335D01*
X179360115Y-68857473D01*
X179213723Y-69003865D01*
X179041585Y-69118884D01*
X179041584Y-69118885D01*
X179041583Y-69118885D01*
X178850314Y-69198111D01*
X178647266Y-69238500D01*
X178440234Y-69238500D01*
X178237186Y-69198111D01*
X178045917Y-69118885D01*
X178045916Y-69118885D01*
X178045915Y-69118884D01*
X177873777Y-69003865D01*
X177727385Y-68857473D01*
X177612366Y-68685335D01*
X177612365Y-68685333D01*
X177533139Y-68494064D01*
X177492750Y-68291016D01*
X177492750Y-68083984D01*
X177533139Y-67880936D01*
X177612365Y-67689667D01*
X177727385Y-67517527D01*
X177873777Y-67371135D01*
X178021428Y-67272478D01*
X178045915Y-67256116D01*
X178045917Y-67256115D01*
X178237186Y-67176889D01*
X178440234Y-67136500D01*
X178647266Y-67136500D01*
X178850314Y-67176889D01*
G37*
G36*
X139638175Y-66882099D02*
G01*
X139762371Y-66906802D01*
X139898772Y-66963301D01*
X140021529Y-67045325D01*
X140125925Y-67149721D01*
X140207949Y-67272478D01*
X140264448Y-67408879D01*
X140293250Y-67553681D01*
X140293250Y-67701319D01*
X140264448Y-67846121D01*
X140207949Y-67982522D01*
X140125925Y-68105279D01*
X140021529Y-68209675D01*
X139898772Y-68291699D01*
X139762371Y-68348198D01*
X139638175Y-68372901D01*
X139617570Y-68377000D01*
X139469930Y-68377000D01*
X139449325Y-68372901D01*
X139325129Y-68348198D01*
X139188728Y-68291699D01*
X139065971Y-68209675D01*
X138961575Y-68105279D01*
X138879551Y-67982522D01*
X138823052Y-67846121D01*
X138794250Y-67701319D01*
X138794250Y-67553681D01*
X138823052Y-67408879D01*
X138879551Y-67272478D01*
X138961575Y-67149721D01*
X139065971Y-67045325D01*
X139188728Y-66963301D01*
X139325129Y-66906802D01*
X139449325Y-66882099D01*
X139469930Y-66878000D01*
X139617570Y-66878000D01*
X139638175Y-66882099D01*
G37*
G36*
X136681925Y-66882099D02*
G01*
X136806121Y-66906802D01*
X136942522Y-66963301D01*
X137065279Y-67045325D01*
X137169675Y-67149721D01*
X137251699Y-67272478D01*
X137308198Y-67408879D01*
X137337000Y-67553681D01*
X137337000Y-67701319D01*
X137308198Y-67846121D01*
X137251699Y-67982522D01*
X137169675Y-68105279D01*
X137065279Y-68209675D01*
X136942522Y-68291699D01*
X136806121Y-68348198D01*
X136681925Y-68372901D01*
X136661320Y-68377000D01*
X136513680Y-68377000D01*
X136493075Y-68372901D01*
X136368879Y-68348198D01*
X136232478Y-68291699D01*
X136109721Y-68209675D01*
X136005325Y-68105279D01*
X135923301Y-67982522D01*
X135866802Y-67846121D01*
X135838000Y-67701319D01*
X135838000Y-67553681D01*
X135866802Y-67408879D01*
X135923301Y-67272478D01*
X136005325Y-67149721D01*
X136109721Y-67045325D01*
X136232478Y-66963301D01*
X136368879Y-66906802D01*
X136493075Y-66882099D01*
X136513680Y-66878000D01*
X136661320Y-66878000D01*
X136681925Y-66882099D01*
G37*
G36*
X41431925Y-66882099D02*
G01*
X41556121Y-66906802D01*
X41692522Y-66963301D01*
X41815279Y-67045325D01*
X41919675Y-67149721D01*
X42001699Y-67272478D01*
X42058198Y-67408879D01*
X42087000Y-67553681D01*
X42087000Y-67701319D01*
X42058198Y-67846121D01*
X42001699Y-67982522D01*
X41919675Y-68105279D01*
X41815279Y-68209675D01*
X41692522Y-68291699D01*
X41556121Y-68348198D01*
X41431925Y-68372901D01*
X41411320Y-68377000D01*
X41263680Y-68377000D01*
X41243075Y-68372901D01*
X41118879Y-68348198D01*
X40982478Y-68291699D01*
X40859721Y-68209675D01*
X40755325Y-68105279D01*
X40673301Y-67982522D01*
X40616802Y-67846121D01*
X40588000Y-67701319D01*
X40588000Y-67553681D01*
X40616802Y-67408879D01*
X40673301Y-67272478D01*
X40755325Y-67149721D01*
X40859721Y-67045325D01*
X40982478Y-66963301D01*
X41118879Y-66906802D01*
X41243075Y-66882099D01*
X41263680Y-66878000D01*
X41411320Y-66878000D01*
X41431925Y-66882099D01*
G37*
G36*
X60481925Y-66882099D02*
G01*
X60606121Y-66906802D01*
X60742522Y-66963301D01*
X60865279Y-67045325D01*
X60969675Y-67149721D01*
X61051699Y-67272478D01*
X61108198Y-67408879D01*
X61137000Y-67553681D01*
X61137000Y-67701319D01*
X61108198Y-67846121D01*
X61051699Y-67982522D01*
X60969675Y-68105279D01*
X60865279Y-68209675D01*
X60742522Y-68291699D01*
X60606121Y-68348198D01*
X60481925Y-68372901D01*
X60461320Y-68377000D01*
X60313680Y-68377000D01*
X60293075Y-68372901D01*
X60168879Y-68348198D01*
X60032478Y-68291699D01*
X59909721Y-68209675D01*
X59805325Y-68105279D01*
X59723301Y-67982522D01*
X59666802Y-67846121D01*
X59638000Y-67701319D01*
X59638000Y-67553681D01*
X59666802Y-67408879D01*
X59723301Y-67272478D01*
X59805325Y-67149721D01*
X59909721Y-67045325D01*
X60032478Y-66963301D01*
X60168879Y-66906802D01*
X60293075Y-66882099D01*
X60313680Y-66878000D01*
X60461320Y-66878000D01*
X60481925Y-66882099D01*
G37*
G36*
X79531925Y-66882099D02*
G01*
X79656121Y-66906802D01*
X79792522Y-66963301D01*
X79915279Y-67045325D01*
X80019675Y-67149721D01*
X80101699Y-67272478D01*
X80158198Y-67408879D01*
X80187000Y-67553681D01*
X80187000Y-67701319D01*
X80158198Y-67846121D01*
X80101699Y-67982522D01*
X80019675Y-68105279D01*
X79915279Y-68209675D01*
X79792522Y-68291699D01*
X79656121Y-68348198D01*
X79531925Y-68372901D01*
X79511320Y-68377000D01*
X79363680Y-68377000D01*
X79343075Y-68372901D01*
X79218879Y-68348198D01*
X79082478Y-68291699D01*
X78959721Y-68209675D01*
X78855325Y-68105279D01*
X78773301Y-67982522D01*
X78716802Y-67846121D01*
X78688000Y-67701319D01*
X78688000Y-67553681D01*
X78716802Y-67408879D01*
X78773301Y-67272478D01*
X78855325Y-67149721D01*
X78959721Y-67045325D01*
X79082478Y-66963301D01*
X79218879Y-66906802D01*
X79343075Y-66882099D01*
X79363680Y-66878000D01*
X79511320Y-66878000D01*
X79531925Y-66882099D01*
G37*
G36*
X98581925Y-66882099D02*
G01*
X98706121Y-66906802D01*
X98842522Y-66963301D01*
X98965279Y-67045325D01*
X99069675Y-67149721D01*
X99151699Y-67272478D01*
X99208198Y-67408879D01*
X99237000Y-67553681D01*
X99237000Y-67701319D01*
X99208198Y-67846121D01*
X99151699Y-67982522D01*
X99069675Y-68105279D01*
X98965279Y-68209675D01*
X98842522Y-68291699D01*
X98706121Y-68348198D01*
X98581925Y-68372901D01*
X98561320Y-68377000D01*
X98413680Y-68377000D01*
X98393075Y-68372901D01*
X98268879Y-68348198D01*
X98132478Y-68291699D01*
X98009721Y-68209675D01*
X97905325Y-68105279D01*
X97823301Y-67982522D01*
X97766802Y-67846121D01*
X97738000Y-67701319D01*
X97738000Y-67553681D01*
X97766802Y-67408879D01*
X97823301Y-67272478D01*
X97905325Y-67149721D01*
X98009721Y-67045325D01*
X98132478Y-66963301D01*
X98268879Y-66906802D01*
X98393075Y-66882099D01*
X98413680Y-66878000D01*
X98561320Y-66878000D01*
X98581925Y-66882099D01*
G37*
G36*
X117631925Y-66882099D02*
G01*
X117756121Y-66906802D01*
X117892522Y-66963301D01*
X118015279Y-67045325D01*
X118119675Y-67149721D01*
X118201699Y-67272478D01*
X118258198Y-67408879D01*
X118287000Y-67553681D01*
X118287000Y-67701319D01*
X118258198Y-67846121D01*
X118201699Y-67982522D01*
X118119675Y-68105279D01*
X118015279Y-68209675D01*
X117892522Y-68291699D01*
X117756121Y-68348198D01*
X117631925Y-68372901D01*
X117611320Y-68377000D01*
X117463680Y-68377000D01*
X117443075Y-68372901D01*
X117318879Y-68348198D01*
X117182478Y-68291699D01*
X117059721Y-68209675D01*
X116955325Y-68105279D01*
X116873301Y-67982522D01*
X116816802Y-67846121D01*
X116788000Y-67701319D01*
X116788000Y-67553681D01*
X116816802Y-67408879D01*
X116873301Y-67272478D01*
X116955325Y-67149721D01*
X117059721Y-67045325D01*
X117182478Y-66963301D01*
X117318879Y-66906802D01*
X117443075Y-66882099D01*
X117463680Y-66878000D01*
X117611320Y-66878000D01*
X117631925Y-66882099D01*
G37*
G36*
X148065161Y-62938026D02*
G01*
X148183887Y-62987204D01*
X148351791Y-63056752D01*
X148351792Y-63056753D01*
X148609754Y-63229117D01*
X148829133Y-63448496D01*
X148944303Y-63620861D01*
X149001498Y-63706459D01*
X149120224Y-63993090D01*
X149180750Y-64297375D01*
X149180750Y-64607625D01*
X149120224Y-64911910D01*
X149001498Y-65198541D01*
X149001497Y-65198542D01*
X148829133Y-65456504D01*
X148609754Y-65675883D01*
X148437389Y-65791053D01*
X148351791Y-65848248D01*
X148183887Y-65917796D01*
X148065161Y-65966974D01*
X147913017Y-65997237D01*
X147760875Y-66027500D01*
X147450625Y-66027500D01*
X147298483Y-65997237D01*
X147146339Y-65966974D01*
X147027613Y-65917796D01*
X146859709Y-65848248D01*
X146774111Y-65791053D01*
X146601746Y-65675883D01*
X146382367Y-65456504D01*
X146210003Y-65198542D01*
X146210002Y-65198541D01*
X146091276Y-64911910D01*
X146030750Y-64607625D01*
X146030750Y-64297375D01*
X146091276Y-63993090D01*
X146210002Y-63706459D01*
X146267197Y-63620861D01*
X146382367Y-63448496D01*
X146601746Y-63229117D01*
X146859708Y-63056753D01*
X146859709Y-63056752D01*
X147027613Y-62987204D01*
X147146339Y-62938026D01*
X147450625Y-62877500D01*
X147760875Y-62877500D01*
X148065161Y-62938026D01*
G37*
G36*
X171941161Y-62938026D02*
G01*
X172059887Y-62987204D01*
X172227791Y-63056752D01*
X172227792Y-63056753D01*
X172485754Y-63229117D01*
X172705133Y-63448496D01*
X172820303Y-63620861D01*
X172877498Y-63706459D01*
X172996224Y-63993090D01*
X173056750Y-64297375D01*
X173056750Y-64607625D01*
X172996224Y-64911910D01*
X172877498Y-65198541D01*
X172877497Y-65198542D01*
X172705133Y-65456504D01*
X172485754Y-65675883D01*
X172313389Y-65791053D01*
X172227791Y-65848248D01*
X172059887Y-65917796D01*
X171941161Y-65966974D01*
X171789017Y-65997237D01*
X171636875Y-66027500D01*
X171326625Y-66027500D01*
X171174483Y-65997237D01*
X171022339Y-65966974D01*
X170903613Y-65917796D01*
X170735709Y-65848248D01*
X170650111Y-65791053D01*
X170477746Y-65675883D01*
X170258367Y-65456504D01*
X170086003Y-65198542D01*
X170086002Y-65198541D01*
X169967276Y-64911910D01*
X169906750Y-64607625D01*
X169906750Y-64297375D01*
X169967276Y-63993090D01*
X170086002Y-63706459D01*
X170143197Y-63620861D01*
X170258367Y-63448496D01*
X170477746Y-63229117D01*
X170735708Y-63056753D01*
X170735709Y-63056752D01*
X170903613Y-62987204D01*
X171022339Y-62938026D01*
X171326625Y-62877500D01*
X171636875Y-62877500D01*
X171941161Y-62938026D01*
G37*
G36*
X95474549Y-60783616D02*
G01*
X95585734Y-60805732D01*
X95795203Y-60892497D01*
X95983720Y-61018460D01*
X96144040Y-61178780D01*
X96270003Y-61367297D01*
X96356768Y-61576766D01*
X96401000Y-61799136D01*
X96401000Y-62025864D01*
X96356768Y-62248234D01*
X96270003Y-62457703D01*
X96144040Y-62646220D01*
X95983720Y-62806540D01*
X95795203Y-62932503D01*
X95795202Y-62932504D01*
X95795201Y-62932504D01*
X95733850Y-62957916D01*
X95585734Y-63019268D01*
X95474549Y-63041384D01*
X95363365Y-63063500D01*
X95136635Y-63063500D01*
X95025451Y-63041384D01*
X94914266Y-63019268D01*
X94766150Y-62957916D01*
X94704799Y-62932504D01*
X94704798Y-62932504D01*
X94704797Y-62932503D01*
X94516280Y-62806540D01*
X94355960Y-62646220D01*
X94229997Y-62457703D01*
X94143232Y-62248234D01*
X94099000Y-62025864D01*
X94099000Y-61799136D01*
X94143232Y-61576766D01*
X94229997Y-61367297D01*
X94355960Y-61178780D01*
X94516280Y-61018460D01*
X94704797Y-60892497D01*
X94914266Y-60805732D01*
X95025451Y-60783616D01*
X95136635Y-60761500D01*
X95363365Y-60761500D01*
X95474549Y-60783616D01*
G37*
G36*
X149462642Y-59169342D02*
G01*
X149610601Y-59230629D01*
X149743755Y-59319599D01*
X149857001Y-59432845D01*
X149945971Y-59565999D01*
X150007258Y-59713958D01*
X150038500Y-59871025D01*
X150038500Y-60031175D01*
X150007258Y-60188242D01*
X149945971Y-60336201D01*
X149857001Y-60469355D01*
X149743755Y-60582601D01*
X149610601Y-60671571D01*
X149462642Y-60732858D01*
X149305575Y-60764100D01*
X149145425Y-60764100D01*
X148988358Y-60732858D01*
X148840399Y-60671571D01*
X148707245Y-60582601D01*
X148593999Y-60469355D01*
X148505029Y-60336201D01*
X148443742Y-60188242D01*
X148412500Y-60031175D01*
X148412500Y-59871025D01*
X148443742Y-59713958D01*
X148505029Y-59565999D01*
X148593999Y-59432845D01*
X148707245Y-59319599D01*
X148840399Y-59230629D01*
X148988358Y-59169342D01*
X149145425Y-59138100D01*
X149305575Y-59138100D01*
X149462642Y-59169342D01*
G37*
G36*
X152002642Y-59169342D02*
G01*
X152150601Y-59230629D01*
X152283755Y-59319599D01*
X152397001Y-59432845D01*
X152485971Y-59565999D01*
X152547258Y-59713958D01*
X152578500Y-59871025D01*
X152578500Y-60031175D01*
X152547258Y-60188242D01*
X152485971Y-60336201D01*
X152397001Y-60469355D01*
X152283755Y-60582601D01*
X152150601Y-60671571D01*
X152002642Y-60732858D01*
X151845575Y-60764100D01*
X151685425Y-60764100D01*
X151528358Y-60732858D01*
X151380399Y-60671571D01*
X151247245Y-60582601D01*
X151133999Y-60469355D01*
X151045029Y-60336201D01*
X150983742Y-60188242D01*
X150952500Y-60031175D01*
X150952500Y-59871025D01*
X150983742Y-59713958D01*
X151045029Y-59565999D01*
X151133999Y-59432845D01*
X151247245Y-59319599D01*
X151380399Y-59230629D01*
X151528358Y-59169342D01*
X151685425Y-59138100D01*
X151845575Y-59138100D01*
X152002642Y-59169342D01*
G37*
G36*
X174862642Y-59169342D02*
G01*
X175010601Y-59230629D01*
X175143755Y-59319599D01*
X175257001Y-59432845D01*
X175345971Y-59565999D01*
X175407258Y-59713958D01*
X175438500Y-59871025D01*
X175438500Y-60031175D01*
X175407258Y-60188242D01*
X175345971Y-60336201D01*
X175257001Y-60469355D01*
X175143755Y-60582601D01*
X175010601Y-60671571D01*
X174862642Y-60732858D01*
X174705575Y-60764100D01*
X174545425Y-60764100D01*
X174388358Y-60732858D01*
X174240399Y-60671571D01*
X174107245Y-60582601D01*
X173993999Y-60469355D01*
X173905029Y-60336201D01*
X173843742Y-60188242D01*
X173812500Y-60031175D01*
X173812500Y-59871025D01*
X173843742Y-59713958D01*
X173905029Y-59565999D01*
X173993999Y-59432845D01*
X174107245Y-59319599D01*
X174240399Y-59230629D01*
X174388358Y-59169342D01*
X174545425Y-59138100D01*
X174705575Y-59138100D01*
X174862642Y-59169342D01*
G37*
G36*
X154542642Y-59169342D02*
G01*
X154690601Y-59230629D01*
X154823755Y-59319599D01*
X154937001Y-59432845D01*
X155025971Y-59565999D01*
X155087258Y-59713958D01*
X155118500Y-59871025D01*
X155118500Y-60031175D01*
X155087258Y-60188242D01*
X155025971Y-60336201D01*
X154937001Y-60469355D01*
X154823755Y-60582601D01*
X154690601Y-60671571D01*
X154542642Y-60732858D01*
X154385575Y-60764100D01*
X154225425Y-60764100D01*
X154068358Y-60732858D01*
X153920399Y-60671571D01*
X153787245Y-60582601D01*
X153673999Y-60469355D01*
X153585029Y-60336201D01*
X153523742Y-60188242D01*
X153492500Y-60031175D01*
X153492500Y-59871025D01*
X153523742Y-59713958D01*
X153585029Y-59565999D01*
X153673999Y-59432845D01*
X153787245Y-59319599D01*
X153920399Y-59230629D01*
X154068358Y-59169342D01*
X154225425Y-59138100D01*
X154385575Y-59138100D01*
X154542642Y-59169342D01*
G37*
G36*
X177402642Y-59169342D02*
G01*
X177550601Y-59230629D01*
X177683755Y-59319599D01*
X177797001Y-59432845D01*
X177885971Y-59565999D01*
X177947258Y-59713958D01*
X177978500Y-59871025D01*
X177978500Y-60031175D01*
X177947258Y-60188242D01*
X177885971Y-60336201D01*
X177797001Y-60469355D01*
X177683755Y-60582601D01*
X177550601Y-60671571D01*
X177402642Y-60732858D01*
X177245575Y-60764100D01*
X177085425Y-60764100D01*
X176928358Y-60732858D01*
X176780399Y-60671571D01*
X176647245Y-60582601D01*
X176533999Y-60469355D01*
X176445029Y-60336201D01*
X176383742Y-60188242D01*
X176352500Y-60031175D01*
X176352500Y-59871025D01*
X176383742Y-59713958D01*
X176445029Y-59565999D01*
X176533999Y-59432845D01*
X176647245Y-59319599D01*
X176780399Y-59230629D01*
X176928358Y-59169342D01*
X177085425Y-59138100D01*
X177245575Y-59138100D01*
X177402642Y-59169342D01*
G37*
G36*
X157082642Y-59169342D02*
G01*
X157230601Y-59230629D01*
X157363755Y-59319599D01*
X157477001Y-59432845D01*
X157565971Y-59565999D01*
X157627258Y-59713958D01*
X157658500Y-59871025D01*
X157658500Y-60031175D01*
X157627258Y-60188242D01*
X157565971Y-60336201D01*
X157477001Y-60469355D01*
X157363755Y-60582601D01*
X157230601Y-60671571D01*
X157082642Y-60732858D01*
X156925575Y-60764100D01*
X156765425Y-60764100D01*
X156608358Y-60732858D01*
X156460399Y-60671571D01*
X156327245Y-60582601D01*
X156213999Y-60469355D01*
X156125029Y-60336201D01*
X156063742Y-60188242D01*
X156032500Y-60031175D01*
X156032500Y-59871025D01*
X156063742Y-59713958D01*
X156125029Y-59565999D01*
X156213999Y-59432845D01*
X156327245Y-59319599D01*
X156460399Y-59230629D01*
X156608358Y-59169342D01*
X156765425Y-59138100D01*
X156925575Y-59138100D01*
X157082642Y-59169342D01*
G37*
G36*
X159622642Y-59169342D02*
G01*
X159770601Y-59230629D01*
X159903755Y-59319599D01*
X160017001Y-59432845D01*
X160105971Y-59565999D01*
X160167258Y-59713958D01*
X160198500Y-59871025D01*
X160198500Y-60031175D01*
X160167258Y-60188242D01*
X160105971Y-60336201D01*
X160017001Y-60469355D01*
X159903755Y-60582601D01*
X159770601Y-60671571D01*
X159622642Y-60732858D01*
X159465575Y-60764100D01*
X159305425Y-60764100D01*
X159148358Y-60732858D01*
X159000399Y-60671571D01*
X158867245Y-60582601D01*
X158753999Y-60469355D01*
X158665029Y-60336201D01*
X158603742Y-60188242D01*
X158572500Y-60031175D01*
X158572500Y-59871025D01*
X158603742Y-59713958D01*
X158665029Y-59565999D01*
X158753999Y-59432845D01*
X158867245Y-59319599D01*
X159000399Y-59230629D01*
X159148358Y-59169342D01*
X159305425Y-59138100D01*
X159465575Y-59138100D01*
X159622642Y-59169342D01*
G37*
G36*
X172322642Y-59169342D02*
G01*
X172470601Y-59230629D01*
X172603755Y-59319599D01*
X172717001Y-59432845D01*
X172805971Y-59565999D01*
X172867258Y-59713958D01*
X172898500Y-59871025D01*
X172898500Y-60031175D01*
X172867258Y-60188242D01*
X172805971Y-60336201D01*
X172717001Y-60469355D01*
X172603755Y-60582601D01*
X172470601Y-60671571D01*
X172322642Y-60732858D01*
X172165575Y-60764100D01*
X172005425Y-60764100D01*
X171848358Y-60732858D01*
X171700399Y-60671571D01*
X171567245Y-60582601D01*
X171453999Y-60469355D01*
X171365029Y-60336201D01*
X171303742Y-60188242D01*
X171272500Y-60031175D01*
X171272500Y-59871025D01*
X171303742Y-59713958D01*
X171365029Y-59565999D01*
X171453999Y-59432845D01*
X171567245Y-59319599D01*
X171700399Y-59230629D01*
X171848358Y-59169342D01*
X172005425Y-59138100D01*
X172165575Y-59138100D01*
X172322642Y-59169342D01*
G37*
G36*
X169782642Y-59169342D02*
G01*
X169930601Y-59230629D01*
X170063755Y-59319599D01*
X170177001Y-59432845D01*
X170265971Y-59565999D01*
X170327258Y-59713958D01*
X170358500Y-59871025D01*
X170358500Y-60031175D01*
X170327258Y-60188242D01*
X170265971Y-60336201D01*
X170177001Y-60469355D01*
X170063755Y-60582601D01*
X169930601Y-60671571D01*
X169782642Y-60732858D01*
X169625575Y-60764100D01*
X169465425Y-60764100D01*
X169308358Y-60732858D01*
X169160399Y-60671571D01*
X169027245Y-60582601D01*
X168913999Y-60469355D01*
X168825029Y-60336201D01*
X168763742Y-60188242D01*
X168732500Y-60031175D01*
X168732500Y-59871025D01*
X168763742Y-59713958D01*
X168825029Y-59565999D01*
X168913999Y-59432845D01*
X169027245Y-59319599D01*
X169160399Y-59230629D01*
X169308358Y-59169342D01*
X169465425Y-59138100D01*
X169625575Y-59138100D01*
X169782642Y-59169342D01*
G37*
G36*
X167242642Y-59169342D02*
G01*
X167390601Y-59230629D01*
X167523755Y-59319599D01*
X167637001Y-59432845D01*
X167725971Y-59565999D01*
X167787258Y-59713958D01*
X167818500Y-59871025D01*
X167818500Y-60031175D01*
X167787258Y-60188242D01*
X167725971Y-60336201D01*
X167637001Y-60469355D01*
X167523755Y-60582601D01*
X167390601Y-60671571D01*
X167242642Y-60732858D01*
X167085575Y-60764100D01*
X166925425Y-60764100D01*
X166768358Y-60732858D01*
X166620399Y-60671571D01*
X166487245Y-60582601D01*
X166373999Y-60469355D01*
X166285029Y-60336201D01*
X166223742Y-60188242D01*
X166192500Y-60031175D01*
X166192500Y-59871025D01*
X166223742Y-59713958D01*
X166285029Y-59565999D01*
X166373999Y-59432845D01*
X166487245Y-59319599D01*
X166620399Y-59230629D01*
X166768358Y-59169342D01*
X166925425Y-59138100D01*
X167085575Y-59138100D01*
X167242642Y-59169342D01*
G37*
G36*
X164702642Y-59169342D02*
G01*
X164850601Y-59230629D01*
X164983755Y-59319599D01*
X165097001Y-59432845D01*
X165185971Y-59565999D01*
X165247258Y-59713958D01*
X165278500Y-59871025D01*
X165278500Y-60031175D01*
X165247258Y-60188242D01*
X165185971Y-60336201D01*
X165097001Y-60469355D01*
X164983755Y-60582601D01*
X164850601Y-60671571D01*
X164702642Y-60732858D01*
X164545575Y-60764100D01*
X164385425Y-60764100D01*
X164228358Y-60732858D01*
X164080399Y-60671571D01*
X163947245Y-60582601D01*
X163833999Y-60469355D01*
X163745029Y-60336201D01*
X163683742Y-60188242D01*
X163652500Y-60031175D01*
X163652500Y-59871025D01*
X163683742Y-59713958D01*
X163745029Y-59565999D01*
X163833999Y-59432845D01*
X163947245Y-59319599D01*
X164080399Y-59230629D01*
X164228358Y-59169342D01*
X164385425Y-59138100D01*
X164545575Y-59138100D01*
X164702642Y-59169342D01*
G37*
G36*
X162162642Y-59169342D02*
G01*
X162310601Y-59230629D01*
X162443755Y-59319599D01*
X162557001Y-59432845D01*
X162645971Y-59565999D01*
X162707258Y-59713958D01*
X162738500Y-59871025D01*
X162738500Y-60031175D01*
X162707258Y-60188242D01*
X162645971Y-60336201D01*
X162557001Y-60469355D01*
X162443755Y-60582601D01*
X162310601Y-60671571D01*
X162162642Y-60732858D01*
X162005575Y-60764100D01*
X161845425Y-60764100D01*
X161688358Y-60732858D01*
X161540399Y-60671571D01*
X161407245Y-60582601D01*
X161293999Y-60469355D01*
X161205029Y-60336201D01*
X161143742Y-60188242D01*
X161112500Y-60031175D01*
X161112500Y-59871025D01*
X161143742Y-59713958D01*
X161205029Y-59565999D01*
X161293999Y-59432845D01*
X161407245Y-59319599D01*
X161540399Y-59230629D01*
X161688358Y-59169342D01*
X161845425Y-59138100D01*
X162005575Y-59138100D01*
X162162642Y-59169342D01*
G37*
G36*
X75424500Y-56947000D02*
G01*
X73925500Y-56947000D01*
X73925500Y-55448000D01*
X75424500Y-55448000D01*
X75424500Y-56947000D01*
G37*
G36*
X135574500Y-56947000D02*
G01*
X134075500Y-56947000D01*
X134075500Y-55448000D01*
X135574500Y-55448000D01*
X135574500Y-56947000D01*
G37*
G36*
X132574500Y-56947000D02*
G01*
X131075500Y-56947000D01*
X131075500Y-55448000D01*
X132574500Y-55448000D01*
X132574500Y-56947000D01*
G37*
G36*
X116574500Y-56947000D02*
G01*
X115075500Y-56947000D01*
X115075500Y-55448000D01*
X116574500Y-55448000D01*
X116574500Y-56947000D01*
G37*
G36*
X113524500Y-56947000D02*
G01*
X112025500Y-56947000D01*
X112025500Y-55448000D01*
X113524500Y-55448000D01*
X113524500Y-56947000D01*
G37*
G36*
X94474500Y-56947000D02*
G01*
X92975500Y-56947000D01*
X92975500Y-55448000D01*
X94474500Y-55448000D01*
X94474500Y-56947000D01*
G37*
G36*
X56374500Y-56947000D02*
G01*
X54875500Y-56947000D01*
X54875500Y-55448000D01*
X56374500Y-55448000D01*
X56374500Y-56947000D01*
G37*
G36*
X37324500Y-56897000D02*
G01*
X35825500Y-56897000D01*
X35825500Y-55398000D01*
X37324500Y-55398000D01*
X37324500Y-56897000D01*
G37*
G36*
X94251000Y-54863500D02*
G01*
X93199000Y-54863500D01*
X93199000Y-53461500D01*
X94251000Y-53461500D01*
X94251000Y-54863500D01*
G37*
G36*
X113301000Y-54863500D02*
G01*
X112249000Y-54863500D01*
X112249000Y-53461500D01*
X113301000Y-53461500D01*
X113301000Y-54863500D01*
G37*
G36*
X116351000Y-54863500D02*
G01*
X115299000Y-54863500D01*
X115299000Y-53461500D01*
X116351000Y-53461500D01*
X116351000Y-54863500D01*
G37*
G36*
X135351000Y-54863500D02*
G01*
X134299000Y-54863500D01*
X134299000Y-53461500D01*
X135351000Y-53461500D01*
X135351000Y-54863500D01*
G37*
G36*
X132351000Y-54863500D02*
G01*
X131299000Y-54863500D01*
X131299000Y-53461500D01*
X132351000Y-53461500D01*
X132351000Y-54863500D01*
G37*
G36*
X75201000Y-54863500D02*
G01*
X74149000Y-54863500D01*
X74149000Y-53461500D01*
X75201000Y-53461500D01*
X75201000Y-54863500D01*
G37*
G36*
X56151000Y-54863500D02*
G01*
X55099000Y-54863500D01*
X55099000Y-53461500D01*
X56151000Y-53461500D01*
X56151000Y-54863500D01*
G37*
G36*
X37101000Y-54813500D02*
G01*
X36049000Y-54813500D01*
X36049000Y-53411500D01*
X37101000Y-53411500D01*
X37101000Y-54813500D01*
G37*
G36*
X143471474Y-50421184D02*
G01*
X143689474Y-50511483D01*
X143843623Y-50575333D01*
X144178548Y-50799123D01*
X144463377Y-51083952D01*
X144687167Y-51418877D01*
X144719562Y-51497086D01*
X144841316Y-51791026D01*
X144919900Y-52186094D01*
X144919900Y-52588906D01*
X144841316Y-52983974D01*
X144790451Y-53106772D01*
X144687167Y-53356123D01*
X144463377Y-53691048D01*
X144178548Y-53975877D01*
X143843623Y-54199667D01*
X143689474Y-54263517D01*
X143471474Y-54353816D01*
X143076406Y-54432400D01*
X142673594Y-54432400D01*
X142278526Y-54353816D01*
X142060526Y-54263517D01*
X141906377Y-54199667D01*
X141571452Y-53975877D01*
X141286623Y-53691048D01*
X141062833Y-53356123D01*
X140959549Y-53106772D01*
X140908684Y-52983974D01*
X140830100Y-52588906D01*
X140830100Y-52186094D01*
X140908684Y-51791026D01*
X141030438Y-51497086D01*
X141062833Y-51418877D01*
X141286623Y-51083952D01*
X141571452Y-50799123D01*
X141906377Y-50575333D01*
X142060526Y-50511483D01*
X142278526Y-50421184D01*
X142673594Y-50342600D01*
X143076406Y-50342600D01*
X143471474Y-50421184D01*
G37*
G36*
X167283974Y-50421184D02*
G01*
X167501974Y-50511483D01*
X167656123Y-50575333D01*
X167991048Y-50799123D01*
X168275877Y-51083952D01*
X168499667Y-51418877D01*
X168532062Y-51497086D01*
X168653816Y-51791026D01*
X168732400Y-52186094D01*
X168732400Y-52588906D01*
X168653816Y-52983974D01*
X168602951Y-53106772D01*
X168499667Y-53356123D01*
X168275877Y-53691048D01*
X167991048Y-53975877D01*
X167656123Y-54199667D01*
X167501974Y-54263517D01*
X167283974Y-54353816D01*
X166888906Y-54432400D01*
X166486094Y-54432400D01*
X166091026Y-54353816D01*
X165873026Y-54263517D01*
X165718877Y-54199667D01*
X165383952Y-53975877D01*
X165099123Y-53691048D01*
X164875333Y-53356123D01*
X164772049Y-53106772D01*
X164721184Y-52983974D01*
X164642600Y-52588906D01*
X164642600Y-52186094D01*
X164721184Y-51791026D01*
X164842938Y-51497086D01*
X164875333Y-51418877D01*
X165099123Y-51083952D01*
X165383952Y-50799123D01*
X165718877Y-50575333D01*
X165873026Y-50511483D01*
X166091026Y-50421184D01*
X166486094Y-50342600D01*
X166888906Y-50342600D01*
X167283974Y-50421184D01*
G37*
G36*
X124421474Y-50421184D02*
G01*
X124639474Y-50511483D01*
X124793623Y-50575333D01*
X125128548Y-50799123D01*
X125413377Y-51083952D01*
X125637167Y-51418877D01*
X125669562Y-51497086D01*
X125791316Y-51791026D01*
X125869900Y-52186094D01*
X125869900Y-52588906D01*
X125791316Y-52983974D01*
X125740451Y-53106772D01*
X125637167Y-53356123D01*
X125413377Y-53691048D01*
X125128548Y-53975877D01*
X124793623Y-54199667D01*
X124639474Y-54263517D01*
X124421474Y-54353816D01*
X124026406Y-54432400D01*
X123623594Y-54432400D01*
X123228526Y-54353816D01*
X123010526Y-54263517D01*
X122856377Y-54199667D01*
X122521452Y-53975877D01*
X122236623Y-53691048D01*
X122012833Y-53356123D01*
X121909549Y-53106772D01*
X121858684Y-52983974D01*
X121780100Y-52588906D01*
X121780100Y-52186094D01*
X121858684Y-51791026D01*
X121980438Y-51497086D01*
X122012833Y-51418877D01*
X122236623Y-51083952D01*
X122521452Y-50799123D01*
X122856377Y-50575333D01*
X123010526Y-50511483D01*
X123228526Y-50421184D01*
X123623594Y-50342600D01*
X124026406Y-50342600D01*
X124421474Y-50421184D01*
G37*
G36*
X105371474Y-50421184D02*
G01*
X105589474Y-50511483D01*
X105743623Y-50575333D01*
X106078548Y-50799123D01*
X106363377Y-51083952D01*
X106587167Y-51418877D01*
X106619562Y-51497086D01*
X106741316Y-51791026D01*
X106819900Y-52186094D01*
X106819900Y-52588906D01*
X106741316Y-52983974D01*
X106690451Y-53106772D01*
X106587167Y-53356123D01*
X106363377Y-53691048D01*
X106078548Y-53975877D01*
X105743623Y-54199667D01*
X105589474Y-54263517D01*
X105371474Y-54353816D01*
X104976406Y-54432400D01*
X104573594Y-54432400D01*
X104178526Y-54353816D01*
X103960526Y-54263517D01*
X103806377Y-54199667D01*
X103471452Y-53975877D01*
X103186623Y-53691048D01*
X102962833Y-53356123D01*
X102859549Y-53106772D01*
X102808684Y-52983974D01*
X102730100Y-52588906D01*
X102730100Y-52186094D01*
X102808684Y-51791026D01*
X102930438Y-51497086D01*
X102962833Y-51418877D01*
X103186623Y-51083952D01*
X103471452Y-50799123D01*
X103806377Y-50575333D01*
X103960526Y-50511483D01*
X104178526Y-50421184D01*
X104573594Y-50342600D01*
X104976406Y-50342600D01*
X105371474Y-50421184D01*
G37*
G36*
X86321474Y-50421184D02*
G01*
X86539474Y-50511483D01*
X86693623Y-50575333D01*
X87028548Y-50799123D01*
X87313377Y-51083952D01*
X87537167Y-51418877D01*
X87569562Y-51497086D01*
X87691316Y-51791026D01*
X87769900Y-52186094D01*
X87769900Y-52588906D01*
X87691316Y-52983974D01*
X87640451Y-53106772D01*
X87537167Y-53356123D01*
X87313377Y-53691048D01*
X87028548Y-53975877D01*
X86693623Y-54199667D01*
X86539474Y-54263517D01*
X86321474Y-54353816D01*
X85926406Y-54432400D01*
X85523594Y-54432400D01*
X85128526Y-54353816D01*
X84910526Y-54263517D01*
X84756377Y-54199667D01*
X84421452Y-53975877D01*
X84136623Y-53691048D01*
X83912833Y-53356123D01*
X83809549Y-53106772D01*
X83758684Y-52983974D01*
X83680100Y-52588906D01*
X83680100Y-52186094D01*
X83758684Y-51791026D01*
X83880438Y-51497086D01*
X83912833Y-51418877D01*
X84136623Y-51083952D01*
X84421452Y-50799123D01*
X84756377Y-50575333D01*
X84910526Y-50511483D01*
X85128526Y-50421184D01*
X85523594Y-50342600D01*
X85926406Y-50342600D01*
X86321474Y-50421184D01*
G37*
G36*
X48221474Y-50421184D02*
G01*
X48439474Y-50511483D01*
X48593623Y-50575333D01*
X48928548Y-50799123D01*
X49213377Y-51083952D01*
X49437167Y-51418877D01*
X49469562Y-51497086D01*
X49591316Y-51791026D01*
X49669900Y-52186094D01*
X49669900Y-52588906D01*
X49591316Y-52983974D01*
X49540451Y-53106772D01*
X49437167Y-53356123D01*
X49213377Y-53691048D01*
X48928548Y-53975877D01*
X48593623Y-54199667D01*
X48439474Y-54263517D01*
X48221474Y-54353816D01*
X47826406Y-54432400D01*
X47423594Y-54432400D01*
X47028526Y-54353816D01*
X46810526Y-54263517D01*
X46656377Y-54199667D01*
X46321452Y-53975877D01*
X46036623Y-53691048D01*
X45812833Y-53356123D01*
X45709549Y-53106772D01*
X45658684Y-52983974D01*
X45580100Y-52588906D01*
X45580100Y-52186094D01*
X45658684Y-51791026D01*
X45780438Y-51497086D01*
X45812833Y-51418877D01*
X46036623Y-51083952D01*
X46321452Y-50799123D01*
X46656377Y-50575333D01*
X46810526Y-50511483D01*
X47028526Y-50421184D01*
X47423594Y-50342600D01*
X47826406Y-50342600D01*
X48221474Y-50421184D01*
G37*
G36*
X67271474Y-50421184D02*
G01*
X67489474Y-50511483D01*
X67643623Y-50575333D01*
X67978548Y-50799123D01*
X68263377Y-51083952D01*
X68487167Y-51418877D01*
X68519562Y-51497086D01*
X68641316Y-51791026D01*
X68719900Y-52186094D01*
X68719900Y-52588906D01*
X68641316Y-52983974D01*
X68590451Y-53106772D01*
X68487167Y-53356123D01*
X68263377Y-53691048D01*
X67978548Y-53975877D01*
X67643623Y-54199667D01*
X67489474Y-54263517D01*
X67271474Y-54353816D01*
X66876406Y-54432400D01*
X66473594Y-54432400D01*
X66078526Y-54353816D01*
X65860526Y-54263517D01*
X65706377Y-54199667D01*
X65371452Y-53975877D01*
X65086623Y-53691048D01*
X64862833Y-53356123D01*
X64759549Y-53106772D01*
X64708684Y-52983974D01*
X64630100Y-52588906D01*
X64630100Y-52186094D01*
X64708684Y-51791026D01*
X64830438Y-51497086D01*
X64862833Y-51418877D01*
X65086623Y-51083952D01*
X65371452Y-50799123D01*
X65706377Y-50575333D01*
X65860526Y-50511483D01*
X66078526Y-50421184D01*
X66473594Y-50342600D01*
X66876406Y-50342600D01*
X67271474Y-50421184D01*
G37*
G36*
X29171474Y-50421184D02*
G01*
X29389474Y-50511483D01*
X29543623Y-50575333D01*
X29878548Y-50799123D01*
X30163377Y-51083952D01*
X30387167Y-51418877D01*
X30419562Y-51497086D01*
X30541316Y-51791026D01*
X30619900Y-52186094D01*
X30619900Y-52588906D01*
X30541316Y-52983974D01*
X30490451Y-53106772D01*
X30387167Y-53356123D01*
X30163377Y-53691048D01*
X29878548Y-53975877D01*
X29543623Y-54199667D01*
X29389474Y-54263517D01*
X29171474Y-54353816D01*
X28776406Y-54432400D01*
X28373594Y-54432400D01*
X27978526Y-54353816D01*
X27760526Y-54263517D01*
X27606377Y-54199667D01*
X27271452Y-53975877D01*
X26986623Y-53691048D01*
X26762833Y-53356123D01*
X26659549Y-53106772D01*
X26608684Y-52983974D01*
X26530100Y-52588906D01*
X26530100Y-52186094D01*
X26608684Y-51791026D01*
X26730438Y-51497086D01*
X26762833Y-51418877D01*
X26986623Y-51083952D01*
X27271452Y-50799123D01*
X27606377Y-50575333D01*
X27760526Y-50511483D01*
X27978526Y-50421184D01*
X28373594Y-50342600D01*
X28776406Y-50342600D01*
X29171474Y-50421184D01*
G37*
G36*
X148225104Y-51497085D02*
G01*
X148393626Y-51566889D01*
X148545291Y-51668228D01*
X148674272Y-51797209D01*
X148775611Y-51948874D01*
X148845415Y-52117396D01*
X148881000Y-52296297D01*
X148881000Y-52478703D01*
X148845415Y-52657604D01*
X148775611Y-52826126D01*
X148674272Y-52977791D01*
X148545291Y-53106772D01*
X148393626Y-53208111D01*
X148225104Y-53277915D01*
X148046203Y-53313500D01*
X147863797Y-53313500D01*
X147684896Y-53277915D01*
X147516374Y-53208111D01*
X147364709Y-53106772D01*
X147235728Y-52977791D01*
X147134389Y-52826126D01*
X147064585Y-52657604D01*
X147029000Y-52478703D01*
X147029000Y-52296297D01*
X147064585Y-52117396D01*
X147134389Y-51948874D01*
X147235728Y-51797209D01*
X147364709Y-51668228D01*
X147516374Y-51566889D01*
X147684896Y-51497085D01*
X147863797Y-51461500D01*
X148046203Y-51461500D01*
X148225104Y-51497085D01*
G37*
G36*
X72025104Y-51497085D02*
G01*
X72193626Y-51566889D01*
X72345291Y-51668228D01*
X72474272Y-51797209D01*
X72575611Y-51948874D01*
X72645415Y-52117396D01*
X72681000Y-52296297D01*
X72681000Y-52478703D01*
X72645415Y-52657604D01*
X72575611Y-52826126D01*
X72474272Y-52977791D01*
X72345291Y-53106772D01*
X72193626Y-53208111D01*
X72025104Y-53277915D01*
X71846203Y-53313500D01*
X71663797Y-53313500D01*
X71484896Y-53277915D01*
X71316374Y-53208111D01*
X71164709Y-53106772D01*
X71035728Y-52977791D01*
X70934389Y-52826126D01*
X70864585Y-52657604D01*
X70829000Y-52478703D01*
X70829000Y-52296297D01*
X70864585Y-52117396D01*
X70934389Y-51948874D01*
X71035728Y-51797209D01*
X71164709Y-51668228D01*
X71316374Y-51566889D01*
X71484896Y-51497085D01*
X71663797Y-51461500D01*
X71846203Y-51461500D01*
X72025104Y-51497085D01*
G37*
G36*
X61865104Y-51497085D02*
G01*
X62033626Y-51566889D01*
X62185291Y-51668228D01*
X62314272Y-51797209D01*
X62415611Y-51948874D01*
X62485415Y-52117396D01*
X62521000Y-52296297D01*
X62521000Y-52478703D01*
X62485415Y-52657604D01*
X62415611Y-52826126D01*
X62314272Y-52977791D01*
X62185291Y-53106772D01*
X62033626Y-53208111D01*
X61865104Y-53277915D01*
X61686203Y-53313500D01*
X61503797Y-53313500D01*
X61324896Y-53277915D01*
X61156374Y-53208111D01*
X61004709Y-53106772D01*
X60875728Y-52977791D01*
X60774389Y-52826126D01*
X60704585Y-52657604D01*
X60669000Y-52478703D01*
X60669000Y-52296297D01*
X60704585Y-52117396D01*
X60774389Y-51948874D01*
X60875728Y-51797209D01*
X61004709Y-51668228D01*
X61156374Y-51566889D01*
X61324896Y-51497085D01*
X61503797Y-51461500D01*
X61686203Y-51461500D01*
X61865104Y-51497085D01*
G37*
G36*
X138065104Y-51497085D02*
G01*
X138233626Y-51566889D01*
X138385291Y-51668228D01*
X138514272Y-51797209D01*
X138615611Y-51948874D01*
X138685415Y-52117396D01*
X138721000Y-52296297D01*
X138721000Y-52478703D01*
X138685415Y-52657604D01*
X138615611Y-52826126D01*
X138514272Y-52977791D01*
X138385291Y-53106772D01*
X138233626Y-53208111D01*
X138065104Y-53277915D01*
X137886203Y-53313500D01*
X137703797Y-53313500D01*
X137524896Y-53277915D01*
X137356374Y-53208111D01*
X137204709Y-53106772D01*
X137075728Y-52977791D01*
X136974389Y-52826126D01*
X136904585Y-52657604D01*
X136869000Y-52478703D01*
X136869000Y-52296297D01*
X136904585Y-52117396D01*
X136974389Y-51948874D01*
X137075728Y-51797209D01*
X137204709Y-51668228D01*
X137356374Y-51566889D01*
X137524896Y-51497085D01*
X137703797Y-51461500D01*
X137886203Y-51461500D01*
X138065104Y-51497085D01*
G37*
G36*
X129175104Y-51497085D02*
G01*
X129343626Y-51566889D01*
X129495291Y-51668228D01*
X129624272Y-51797209D01*
X129725611Y-51948874D01*
X129795415Y-52117396D01*
X129831000Y-52296297D01*
X129831000Y-52478703D01*
X129795415Y-52657604D01*
X129725611Y-52826126D01*
X129624272Y-52977791D01*
X129495291Y-53106772D01*
X129343626Y-53208111D01*
X129175104Y-53277915D01*
X128996203Y-53313500D01*
X128813797Y-53313500D01*
X128634896Y-53277915D01*
X128466374Y-53208111D01*
X128314709Y-53106772D01*
X128185728Y-52977791D01*
X128084389Y-52826126D01*
X128014585Y-52657604D01*
X127979000Y-52478703D01*
X127979000Y-52296297D01*
X128014585Y-52117396D01*
X128084389Y-51948874D01*
X128185728Y-51797209D01*
X128314709Y-51668228D01*
X128466374Y-51566889D01*
X128634896Y-51497085D01*
X128813797Y-51461500D01*
X128996203Y-51461500D01*
X129175104Y-51497085D01*
G37*
G36*
X161877604Y-51497085D02*
G01*
X162046126Y-51566889D01*
X162197791Y-51668228D01*
X162326772Y-51797209D01*
X162428111Y-51948874D01*
X162497915Y-52117396D01*
X162533500Y-52296297D01*
X162533500Y-52478703D01*
X162497915Y-52657604D01*
X162428111Y-52826126D01*
X162326772Y-52977791D01*
X162197791Y-53106772D01*
X162046126Y-53208111D01*
X161877604Y-53277915D01*
X161698703Y-53313500D01*
X161516297Y-53313500D01*
X161337396Y-53277915D01*
X161168874Y-53208111D01*
X161017209Y-53106772D01*
X160888228Y-52977791D01*
X160786889Y-52826126D01*
X160717085Y-52657604D01*
X160681500Y-52478703D01*
X160681500Y-52296297D01*
X160717085Y-52117396D01*
X160786889Y-51948874D01*
X160888228Y-51797209D01*
X161017209Y-51668228D01*
X161168874Y-51566889D01*
X161337396Y-51497085D01*
X161516297Y-51461500D01*
X161698703Y-51461500D01*
X161877604Y-51497085D01*
G37*
G36*
X42815104Y-51497085D02*
G01*
X42983626Y-51566889D01*
X43135291Y-51668228D01*
X43264272Y-51797209D01*
X43365611Y-51948874D01*
X43435415Y-52117396D01*
X43471000Y-52296297D01*
X43471000Y-52478703D01*
X43435415Y-52657604D01*
X43365611Y-52826126D01*
X43264272Y-52977791D01*
X43135291Y-53106772D01*
X42983626Y-53208111D01*
X42815104Y-53277915D01*
X42636203Y-53313500D01*
X42453797Y-53313500D01*
X42274896Y-53277915D01*
X42106374Y-53208111D01*
X41954709Y-53106772D01*
X41825728Y-52977791D01*
X41724389Y-52826126D01*
X41654585Y-52657604D01*
X41619000Y-52478703D01*
X41619000Y-52296297D01*
X41654585Y-52117396D01*
X41724389Y-51948874D01*
X41825728Y-51797209D01*
X41954709Y-51668228D01*
X42106374Y-51566889D01*
X42274896Y-51497085D01*
X42453797Y-51461500D01*
X42636203Y-51461500D01*
X42815104Y-51497085D01*
G37*
G36*
X119015104Y-51497085D02*
G01*
X119183626Y-51566889D01*
X119335291Y-51668228D01*
X119464272Y-51797209D01*
X119565611Y-51948874D01*
X119635415Y-52117396D01*
X119671000Y-52296297D01*
X119671000Y-52478703D01*
X119635415Y-52657604D01*
X119565611Y-52826126D01*
X119464272Y-52977791D01*
X119335291Y-53106772D01*
X119183626Y-53208111D01*
X119015104Y-53277915D01*
X118836203Y-53313500D01*
X118653797Y-53313500D01*
X118474896Y-53277915D01*
X118306374Y-53208111D01*
X118154709Y-53106772D01*
X118025728Y-52977791D01*
X117924389Y-52826126D01*
X117854585Y-52657604D01*
X117819000Y-52478703D01*
X117819000Y-52296297D01*
X117854585Y-52117396D01*
X117924389Y-51948874D01*
X118025728Y-51797209D01*
X118154709Y-51668228D01*
X118306374Y-51566889D01*
X118474896Y-51497085D01*
X118653797Y-51461500D01*
X118836203Y-51461500D01*
X119015104Y-51497085D01*
G37*
G36*
X110125104Y-51497085D02*
G01*
X110293626Y-51566889D01*
X110445291Y-51668228D01*
X110574272Y-51797209D01*
X110675611Y-51948874D01*
X110745415Y-52117396D01*
X110781000Y-52296297D01*
X110781000Y-52478703D01*
X110745415Y-52657604D01*
X110675611Y-52826126D01*
X110574272Y-52977791D01*
X110445291Y-53106772D01*
X110293626Y-53208111D01*
X110125104Y-53277915D01*
X109946203Y-53313500D01*
X109763797Y-53313500D01*
X109584896Y-53277915D01*
X109416374Y-53208111D01*
X109264709Y-53106772D01*
X109135728Y-52977791D01*
X109034389Y-52826126D01*
X108964585Y-52657604D01*
X108929000Y-52478703D01*
X108929000Y-52296297D01*
X108964585Y-52117396D01*
X109034389Y-51948874D01*
X109135728Y-51797209D01*
X109264709Y-51668228D01*
X109416374Y-51566889D01*
X109584896Y-51497085D01*
X109763797Y-51461500D01*
X109946203Y-51461500D01*
X110125104Y-51497085D01*
G37*
G36*
X172037604Y-51497085D02*
G01*
X172206126Y-51566889D01*
X172357791Y-51668228D01*
X172486772Y-51797209D01*
X172588111Y-51948874D01*
X172657915Y-52117396D01*
X172693500Y-52296297D01*
X172693500Y-52478703D01*
X172657915Y-52657604D01*
X172588111Y-52826126D01*
X172486772Y-52977791D01*
X172357791Y-53106772D01*
X172206126Y-53208111D01*
X172037604Y-53277915D01*
X171858703Y-53313500D01*
X171676297Y-53313500D01*
X171497396Y-53277915D01*
X171328874Y-53208111D01*
X171177209Y-53106772D01*
X171048228Y-52977791D01*
X170946889Y-52826126D01*
X170877085Y-52657604D01*
X170841500Y-52478703D01*
X170841500Y-52296297D01*
X170877085Y-52117396D01*
X170946889Y-51948874D01*
X171048228Y-51797209D01*
X171177209Y-51668228D01*
X171328874Y-51566889D01*
X171497396Y-51497085D01*
X171676297Y-51461500D01*
X171858703Y-51461500D01*
X172037604Y-51497085D01*
G37*
G36*
X99965104Y-51497085D02*
G01*
X100133626Y-51566889D01*
X100285291Y-51668228D01*
X100414272Y-51797209D01*
X100515611Y-51948874D01*
X100585415Y-52117396D01*
X100621000Y-52296297D01*
X100621000Y-52478703D01*
X100585415Y-52657604D01*
X100515611Y-52826126D01*
X100414272Y-52977791D01*
X100285291Y-53106772D01*
X100133626Y-53208111D01*
X99965104Y-53277915D01*
X99786203Y-53313500D01*
X99603797Y-53313500D01*
X99424896Y-53277915D01*
X99256374Y-53208111D01*
X99104709Y-53106772D01*
X98975728Y-52977791D01*
X98874389Y-52826126D01*
X98804585Y-52657604D01*
X98769000Y-52478703D01*
X98769000Y-52296297D01*
X98804585Y-52117396D01*
X98874389Y-51948874D01*
X98975728Y-51797209D01*
X99104709Y-51668228D01*
X99256374Y-51566889D01*
X99424896Y-51497085D01*
X99603797Y-51461500D01*
X99786203Y-51461500D01*
X99965104Y-51497085D01*
G37*
G36*
X91075104Y-51497085D02*
G01*
X91243626Y-51566889D01*
X91395291Y-51668228D01*
X91524272Y-51797209D01*
X91625611Y-51948874D01*
X91695415Y-52117396D01*
X91731000Y-52296297D01*
X91731000Y-52478703D01*
X91695415Y-52657604D01*
X91625611Y-52826126D01*
X91524272Y-52977791D01*
X91395291Y-53106772D01*
X91243626Y-53208111D01*
X91075104Y-53277915D01*
X90896203Y-53313500D01*
X90713797Y-53313500D01*
X90534896Y-53277915D01*
X90366374Y-53208111D01*
X90214709Y-53106772D01*
X90085728Y-52977791D01*
X89984389Y-52826126D01*
X89914585Y-52657604D01*
X89879000Y-52478703D01*
X89879000Y-52296297D01*
X89914585Y-52117396D01*
X89984389Y-51948874D01*
X90085728Y-51797209D01*
X90214709Y-51668228D01*
X90366374Y-51566889D01*
X90534896Y-51497085D01*
X90713797Y-51461500D01*
X90896203Y-51461500D01*
X91075104Y-51497085D01*
G37*
G36*
X80915104Y-51497085D02*
G01*
X81083626Y-51566889D01*
X81235291Y-51668228D01*
X81364272Y-51797209D01*
X81465611Y-51948874D01*
X81535415Y-52117396D01*
X81571000Y-52296297D01*
X81571000Y-52478703D01*
X81535415Y-52657604D01*
X81465611Y-52826126D01*
X81364272Y-52977791D01*
X81235291Y-53106772D01*
X81083626Y-53208111D01*
X80915104Y-53277915D01*
X80736203Y-53313500D01*
X80553797Y-53313500D01*
X80374896Y-53277915D01*
X80206374Y-53208111D01*
X80054709Y-53106772D01*
X79925728Y-52977791D01*
X79824389Y-52826126D01*
X79754585Y-52657604D01*
X79719000Y-52478703D01*
X79719000Y-52296297D01*
X79754585Y-52117396D01*
X79824389Y-51948874D01*
X79925728Y-51797209D01*
X80054709Y-51668228D01*
X80206374Y-51566889D01*
X80374896Y-51497085D01*
X80553797Y-51461500D01*
X80736203Y-51461500D01*
X80915104Y-51497085D01*
G37*
G36*
X52975104Y-51497085D02*
G01*
X53143626Y-51566889D01*
X53295291Y-51668228D01*
X53424272Y-51797209D01*
X53525611Y-51948874D01*
X53595415Y-52117396D01*
X53631000Y-52296297D01*
X53631000Y-52478703D01*
X53595415Y-52657604D01*
X53525611Y-52826126D01*
X53424272Y-52977791D01*
X53295291Y-53106772D01*
X53143626Y-53208111D01*
X52975104Y-53277915D01*
X52796203Y-53313500D01*
X52613797Y-53313500D01*
X52434896Y-53277915D01*
X52266374Y-53208111D01*
X52114709Y-53106772D01*
X51985728Y-52977791D01*
X51884389Y-52826126D01*
X51814585Y-52657604D01*
X51779000Y-52478703D01*
X51779000Y-52296297D01*
X51814585Y-52117396D01*
X51884389Y-51948874D01*
X51985728Y-51797209D01*
X52114709Y-51668228D01*
X52266374Y-51566889D01*
X52434896Y-51497085D01*
X52613797Y-51461500D01*
X52796203Y-51461500D01*
X52975104Y-51497085D01*
G37*
G36*
X33925104Y-51497085D02*
G01*
X34093626Y-51566889D01*
X34245291Y-51668228D01*
X34374272Y-51797209D01*
X34475611Y-51948874D01*
X34545415Y-52117396D01*
X34581000Y-52296297D01*
X34581000Y-52478703D01*
X34545415Y-52657604D01*
X34475611Y-52826126D01*
X34374272Y-52977791D01*
X34245291Y-53106772D01*
X34093626Y-53208111D01*
X33925104Y-53277915D01*
X33746203Y-53313500D01*
X33563797Y-53313500D01*
X33384896Y-53277915D01*
X33216374Y-53208111D01*
X33064709Y-53106772D01*
X32935728Y-52977791D01*
X32834389Y-52826126D01*
X32764585Y-52657604D01*
X32729000Y-52478703D01*
X32729000Y-52296297D01*
X32764585Y-52117396D01*
X32834389Y-51948874D01*
X32935728Y-51797209D01*
X33064709Y-51668228D01*
X33216374Y-51566889D01*
X33384896Y-51497085D01*
X33563797Y-51461500D01*
X33746203Y-51461500D01*
X33925104Y-51497085D01*
G37*
G36*
X23765104Y-51497085D02*
G01*
X23933626Y-51566889D01*
X24085291Y-51668228D01*
X24214272Y-51797209D01*
X24315611Y-51948874D01*
X24385415Y-52117396D01*
X24421000Y-52296297D01*
X24421000Y-52478703D01*
X24385415Y-52657604D01*
X24315611Y-52826126D01*
X24214272Y-52977791D01*
X24085291Y-53106772D01*
X23933626Y-53208111D01*
X23765104Y-53277915D01*
X23586203Y-53313500D01*
X23403797Y-53313500D01*
X23224896Y-53277915D01*
X23056374Y-53208111D01*
X22904709Y-53106772D01*
X22775728Y-52977791D01*
X22674389Y-52826126D01*
X22604585Y-52657604D01*
X22569000Y-52478703D01*
X22569000Y-52296297D01*
X22604585Y-52117396D01*
X22674389Y-51948874D01*
X22775728Y-51797209D01*
X22904709Y-51668228D01*
X23056374Y-51566889D01*
X23224896Y-51497085D01*
X23403797Y-51461500D01*
X23586203Y-51461500D01*
X23765104Y-51497085D01*
G37*
G36*
X116351000Y-51313500D02*
G01*
X115299000Y-51313500D01*
X115299000Y-49911500D01*
X116351000Y-49911500D01*
X116351000Y-51313500D01*
G37*
G36*
X56151000Y-51313500D02*
G01*
X55099000Y-51313500D01*
X55099000Y-49911500D01*
X56151000Y-49911500D01*
X56151000Y-51313500D01*
G37*
G36*
X75201000Y-51313500D02*
G01*
X74149000Y-51313500D01*
X74149000Y-49911500D01*
X75201000Y-49911500D01*
X75201000Y-51313500D01*
G37*
G36*
X94251000Y-51313500D02*
G01*
X93199000Y-51313500D01*
X93199000Y-49911500D01*
X94251000Y-49911500D01*
X94251000Y-51313500D01*
G37*
G36*
X113301000Y-51313500D02*
G01*
X112249000Y-51313500D01*
X112249000Y-49911500D01*
X113301000Y-49911500D01*
X113301000Y-51313500D01*
G37*
G36*
X132351000Y-51313500D02*
G01*
X131299000Y-51313500D01*
X131299000Y-49911500D01*
X132351000Y-49911500D01*
X132351000Y-51313500D01*
G37*
G36*
X135351000Y-51313500D02*
G01*
X134299000Y-51313500D01*
X134299000Y-49911500D01*
X135351000Y-49911500D01*
X135351000Y-51313500D01*
G37*
G36*
X37101000Y-51263500D02*
G01*
X36049000Y-51263500D01*
X36049000Y-49861500D01*
X37101000Y-49861500D01*
X37101000Y-51263500D01*
G37*
G36*
X74769425Y-47832099D02*
G01*
X74893621Y-47856802D01*
X75030022Y-47913301D01*
X75152779Y-47995325D01*
X75257175Y-48099721D01*
X75339199Y-48222478D01*
X75395698Y-48358879D01*
X75424500Y-48503681D01*
X75424500Y-48651319D01*
X75395698Y-48796121D01*
X75339199Y-48932522D01*
X75257175Y-49055279D01*
X75152779Y-49159675D01*
X75030022Y-49241699D01*
X74893621Y-49298198D01*
X74769425Y-49322901D01*
X74748820Y-49327000D01*
X74601180Y-49327000D01*
X74580575Y-49322901D01*
X74456379Y-49298198D01*
X74319978Y-49241699D01*
X74197221Y-49159675D01*
X74092825Y-49055279D01*
X74010801Y-48932522D01*
X73954302Y-48796121D01*
X73925500Y-48651319D01*
X73925500Y-48503681D01*
X73954302Y-48358879D01*
X74010801Y-48222478D01*
X74092825Y-48099721D01*
X74197221Y-47995325D01*
X74319978Y-47913301D01*
X74456379Y-47856802D01*
X74580575Y-47832099D01*
X74601180Y-47828000D01*
X74748820Y-47828000D01*
X74769425Y-47832099D01*
G37*
G36*
X55719425Y-47832099D02*
G01*
X55843621Y-47856802D01*
X55980022Y-47913301D01*
X56102779Y-47995325D01*
X56207175Y-48099721D01*
X56289199Y-48222478D01*
X56345698Y-48358879D01*
X56374500Y-48503681D01*
X56374500Y-48651319D01*
X56345698Y-48796121D01*
X56289199Y-48932522D01*
X56207175Y-49055279D01*
X56102779Y-49159675D01*
X55980022Y-49241699D01*
X55843621Y-49298198D01*
X55719425Y-49322901D01*
X55698820Y-49327000D01*
X55551180Y-49327000D01*
X55530575Y-49322901D01*
X55406379Y-49298198D01*
X55269978Y-49241699D01*
X55147221Y-49159675D01*
X55042825Y-49055279D01*
X54960801Y-48932522D01*
X54904302Y-48796121D01*
X54875500Y-48651319D01*
X54875500Y-48503681D01*
X54904302Y-48358879D01*
X54960801Y-48222478D01*
X55042825Y-48099721D01*
X55147221Y-47995325D01*
X55269978Y-47913301D01*
X55406379Y-47856802D01*
X55530575Y-47832099D01*
X55551180Y-47828000D01*
X55698820Y-47828000D01*
X55719425Y-47832099D01*
G37*
G36*
X134919425Y-47832099D02*
G01*
X135043621Y-47856802D01*
X135180022Y-47913301D01*
X135302779Y-47995325D01*
X135407175Y-48099721D01*
X135489199Y-48222478D01*
X135545698Y-48358879D01*
X135574500Y-48503681D01*
X135574500Y-48651319D01*
X135545698Y-48796121D01*
X135489199Y-48932522D01*
X135407175Y-49055279D01*
X135302779Y-49159675D01*
X135180022Y-49241699D01*
X135043621Y-49298198D01*
X134919425Y-49322901D01*
X134898820Y-49327000D01*
X134751180Y-49327000D01*
X134730575Y-49322901D01*
X134606379Y-49298198D01*
X134469978Y-49241699D01*
X134347221Y-49159675D01*
X134242825Y-49055279D01*
X134160801Y-48932522D01*
X134104302Y-48796121D01*
X134075500Y-48651319D01*
X134075500Y-48503681D01*
X134104302Y-48358879D01*
X134160801Y-48222478D01*
X134242825Y-48099721D01*
X134347221Y-47995325D01*
X134469978Y-47913301D01*
X134606379Y-47856802D01*
X134730575Y-47832099D01*
X134751180Y-47828000D01*
X134898820Y-47828000D01*
X134919425Y-47832099D01*
G37*
G36*
X93819425Y-47832099D02*
G01*
X93943621Y-47856802D01*
X94080022Y-47913301D01*
X94202779Y-47995325D01*
X94307175Y-48099721D01*
X94389199Y-48222478D01*
X94445698Y-48358879D01*
X94474500Y-48503681D01*
X94474500Y-48651319D01*
X94445698Y-48796121D01*
X94389199Y-48932522D01*
X94307175Y-49055279D01*
X94202779Y-49159675D01*
X94080022Y-49241699D01*
X93943621Y-49298198D01*
X93819425Y-49322901D01*
X93798820Y-49327000D01*
X93651180Y-49327000D01*
X93630575Y-49322901D01*
X93506379Y-49298198D01*
X93369978Y-49241699D01*
X93247221Y-49159675D01*
X93142825Y-49055279D01*
X93060801Y-48932522D01*
X93004302Y-48796121D01*
X92975500Y-48651319D01*
X92975500Y-48503681D01*
X93004302Y-48358879D01*
X93060801Y-48222478D01*
X93142825Y-48099721D01*
X93247221Y-47995325D01*
X93369978Y-47913301D01*
X93506379Y-47856802D01*
X93630575Y-47832099D01*
X93651180Y-47828000D01*
X93798820Y-47828000D01*
X93819425Y-47832099D01*
G37*
G36*
X131919425Y-47832099D02*
G01*
X132043621Y-47856802D01*
X132180022Y-47913301D01*
X132302779Y-47995325D01*
X132407175Y-48099721D01*
X132489199Y-48222478D01*
X132545698Y-48358879D01*
X132574500Y-48503681D01*
X132574500Y-48651319D01*
X132545698Y-48796121D01*
X132489199Y-48932522D01*
X132407175Y-49055279D01*
X132302779Y-49159675D01*
X132180022Y-49241699D01*
X132043621Y-49298198D01*
X131919425Y-49322901D01*
X131898820Y-49327000D01*
X131751180Y-49327000D01*
X131730575Y-49322901D01*
X131606379Y-49298198D01*
X131469978Y-49241699D01*
X131347221Y-49159675D01*
X131242825Y-49055279D01*
X131160801Y-48932522D01*
X131104302Y-48796121D01*
X131075500Y-48651319D01*
X131075500Y-48503681D01*
X131104302Y-48358879D01*
X131160801Y-48222478D01*
X131242825Y-48099721D01*
X131347221Y-47995325D01*
X131469978Y-47913301D01*
X131606379Y-47856802D01*
X131730575Y-47832099D01*
X131751180Y-47828000D01*
X131898820Y-47828000D01*
X131919425Y-47832099D01*
G37*
G36*
X112869425Y-47832099D02*
G01*
X112993621Y-47856802D01*
X113130022Y-47913301D01*
X113252779Y-47995325D01*
X113357175Y-48099721D01*
X113439199Y-48222478D01*
X113495698Y-48358879D01*
X113524500Y-48503681D01*
X113524500Y-48651319D01*
X113495698Y-48796121D01*
X113439199Y-48932522D01*
X113357175Y-49055279D01*
X113252779Y-49159675D01*
X113130022Y-49241699D01*
X112993621Y-49298198D01*
X112869425Y-49322901D01*
X112848820Y-49327000D01*
X112701180Y-49327000D01*
X112680575Y-49322901D01*
X112556379Y-49298198D01*
X112419978Y-49241699D01*
X112297221Y-49159675D01*
X112192825Y-49055279D01*
X112110801Y-48932522D01*
X112054302Y-48796121D01*
X112025500Y-48651319D01*
X112025500Y-48503681D01*
X112054302Y-48358879D01*
X112110801Y-48222478D01*
X112192825Y-48099721D01*
X112297221Y-47995325D01*
X112419978Y-47913301D01*
X112556379Y-47856802D01*
X112680575Y-47832099D01*
X112701180Y-47828000D01*
X112848820Y-47828000D01*
X112869425Y-47832099D01*
G37*
G36*
X115919425Y-47832099D02*
G01*
X116043621Y-47856802D01*
X116180022Y-47913301D01*
X116302779Y-47995325D01*
X116407175Y-48099721D01*
X116489199Y-48222478D01*
X116545698Y-48358879D01*
X116574500Y-48503681D01*
X116574500Y-48651319D01*
X116545698Y-48796121D01*
X116489199Y-48932522D01*
X116407175Y-49055279D01*
X116302779Y-49159675D01*
X116180022Y-49241699D01*
X116043621Y-49298198D01*
X115919425Y-49322901D01*
X115898820Y-49327000D01*
X115751180Y-49327000D01*
X115730575Y-49322901D01*
X115606379Y-49298198D01*
X115469978Y-49241699D01*
X115347221Y-49159675D01*
X115242825Y-49055279D01*
X115160801Y-48932522D01*
X115104302Y-48796121D01*
X115075500Y-48651319D01*
X115075500Y-48503681D01*
X115104302Y-48358879D01*
X115160801Y-48222478D01*
X115242825Y-48099721D01*
X115347221Y-47995325D01*
X115469978Y-47913301D01*
X115606379Y-47856802D01*
X115730575Y-47832099D01*
X115751180Y-47828000D01*
X115898820Y-47828000D01*
X115919425Y-47832099D01*
G37*
G36*
X36669425Y-47782099D02*
G01*
X36793621Y-47806802D01*
X36930022Y-47863301D01*
X37052779Y-47945325D01*
X37157175Y-48049721D01*
X37239199Y-48172478D01*
X37295698Y-48308879D01*
X37324500Y-48453681D01*
X37324500Y-48601319D01*
X37295698Y-48746121D01*
X37239199Y-48882522D01*
X37157175Y-49005279D01*
X37052779Y-49109675D01*
X36930022Y-49191699D01*
X36793621Y-49248198D01*
X36669425Y-49272901D01*
X36648820Y-49277000D01*
X36501180Y-49277000D01*
X36480575Y-49272901D01*
X36356379Y-49248198D01*
X36219978Y-49191699D01*
X36097221Y-49109675D01*
X35992825Y-49005279D01*
X35910801Y-48882522D01*
X35854302Y-48746121D01*
X35825500Y-48601319D01*
X35825500Y-48453681D01*
X35854302Y-48308879D01*
X35910801Y-48172478D01*
X35992825Y-48049721D01*
X36097221Y-47945325D01*
X36219978Y-47863301D01*
X36356379Y-47806802D01*
X36480575Y-47782099D01*
X36501180Y-47778000D01*
X36648820Y-47778000D01*
X36669425Y-47782099D01*
G37*
G36*
X154542642Y-43949342D02*
G01*
X154690601Y-44010629D01*
X154823755Y-44099599D01*
X154937001Y-44212845D01*
X155025971Y-44345999D01*
X155087258Y-44493958D01*
X155118500Y-44651025D01*
X155118500Y-44811175D01*
X155087258Y-44968242D01*
X155025971Y-45116201D01*
X154937001Y-45249355D01*
X154823755Y-45362601D01*
X154690601Y-45451571D01*
X154542642Y-45512858D01*
X154385575Y-45544100D01*
X154225425Y-45544100D01*
X154068358Y-45512858D01*
X153920399Y-45451571D01*
X153787245Y-45362601D01*
X153673999Y-45249355D01*
X153585029Y-45116201D01*
X153523742Y-44968242D01*
X153492500Y-44811175D01*
X153492500Y-44651025D01*
X153523742Y-44493958D01*
X153585029Y-44345999D01*
X153673999Y-44212845D01*
X153787245Y-44099599D01*
X153920399Y-44010629D01*
X154068358Y-43949342D01*
X154225425Y-43918100D01*
X154385575Y-43918100D01*
X154542642Y-43949342D01*
G37*
G36*
X169782642Y-43949342D02*
G01*
X169930601Y-44010629D01*
X170063755Y-44099599D01*
X170177001Y-44212845D01*
X170265971Y-44345999D01*
X170327258Y-44493958D01*
X170358500Y-44651025D01*
X170358500Y-44811175D01*
X170327258Y-44968242D01*
X170265971Y-45116201D01*
X170177001Y-45249355D01*
X170063755Y-45362601D01*
X169930601Y-45451571D01*
X169782642Y-45512858D01*
X169625575Y-45544100D01*
X169465425Y-45544100D01*
X169308358Y-45512858D01*
X169160399Y-45451571D01*
X169027245Y-45362601D01*
X168913999Y-45249355D01*
X168825029Y-45116201D01*
X168763742Y-44968242D01*
X168732500Y-44811175D01*
X168732500Y-44651025D01*
X168763742Y-44493958D01*
X168825029Y-44345999D01*
X168913999Y-44212845D01*
X169027245Y-44099599D01*
X169160399Y-44010629D01*
X169308358Y-43949342D01*
X169465425Y-43918100D01*
X169625575Y-43918100D01*
X169782642Y-43949342D01*
G37*
G36*
X172322642Y-43949342D02*
G01*
X172470601Y-44010629D01*
X172603755Y-44099599D01*
X172717001Y-44212845D01*
X172805971Y-44345999D01*
X172867258Y-44493958D01*
X172898500Y-44651025D01*
X172898500Y-44811175D01*
X172867258Y-44968242D01*
X172805971Y-45116201D01*
X172717001Y-45249355D01*
X172603755Y-45362601D01*
X172470601Y-45451571D01*
X172322642Y-45512858D01*
X172165575Y-45544100D01*
X172005425Y-45544100D01*
X171848358Y-45512858D01*
X171700399Y-45451571D01*
X171567245Y-45362601D01*
X171453999Y-45249355D01*
X171365029Y-45116201D01*
X171303742Y-44968242D01*
X171272500Y-44811175D01*
X171272500Y-44651025D01*
X171303742Y-44493958D01*
X171365029Y-44345999D01*
X171453999Y-44212845D01*
X171567245Y-44099599D01*
X171700399Y-44010629D01*
X171848358Y-43949342D01*
X172005425Y-43918100D01*
X172165575Y-43918100D01*
X172322642Y-43949342D01*
G37*
G36*
X174862642Y-43949342D02*
G01*
X175010601Y-44010629D01*
X175143755Y-44099599D01*
X175257001Y-44212845D01*
X175345971Y-44345999D01*
X175407258Y-44493958D01*
X175438500Y-44651025D01*
X175438500Y-44811175D01*
X175407258Y-44968242D01*
X175345971Y-45116201D01*
X175257001Y-45249355D01*
X175143755Y-45362601D01*
X175010601Y-45451571D01*
X174862642Y-45512858D01*
X174705575Y-45544100D01*
X174545425Y-45544100D01*
X174388358Y-45512858D01*
X174240399Y-45451571D01*
X174107245Y-45362601D01*
X173993999Y-45249355D01*
X173905029Y-45116201D01*
X173843742Y-44968242D01*
X173812500Y-44811175D01*
X173812500Y-44651025D01*
X173843742Y-44493958D01*
X173905029Y-44345999D01*
X173993999Y-44212845D01*
X174107245Y-44099599D01*
X174240399Y-44010629D01*
X174388358Y-43949342D01*
X174545425Y-43918100D01*
X174705575Y-43918100D01*
X174862642Y-43949342D01*
G37*
G36*
X177402642Y-43949342D02*
G01*
X177550601Y-44010629D01*
X177683755Y-44099599D01*
X177797001Y-44212845D01*
X177885971Y-44345999D01*
X177947258Y-44493958D01*
X177978500Y-44651025D01*
X177978500Y-44811175D01*
X177947258Y-44968242D01*
X177885971Y-45116201D01*
X177797001Y-45249355D01*
X177683755Y-45362601D01*
X177550601Y-45451571D01*
X177402642Y-45512858D01*
X177245575Y-45544100D01*
X177085425Y-45544100D01*
X176928358Y-45512858D01*
X176780399Y-45451571D01*
X176647245Y-45362601D01*
X176533999Y-45249355D01*
X176445029Y-45116201D01*
X176383742Y-44968242D01*
X176352500Y-44811175D01*
X176352500Y-44651025D01*
X176383742Y-44493958D01*
X176445029Y-44345999D01*
X176533999Y-44212845D01*
X176647245Y-44099599D01*
X176780399Y-44010629D01*
X176928358Y-43949342D01*
X177085425Y-43918100D01*
X177245575Y-43918100D01*
X177402642Y-43949342D01*
G37*
G36*
X149462642Y-43949342D02*
G01*
X149610601Y-44010629D01*
X149743755Y-44099599D01*
X149857001Y-44212845D01*
X149945971Y-44345999D01*
X150007258Y-44493958D01*
X150038500Y-44651025D01*
X150038500Y-44811175D01*
X150007258Y-44968242D01*
X149945971Y-45116201D01*
X149857001Y-45249355D01*
X149743755Y-45362601D01*
X149610601Y-45451571D01*
X149462642Y-45512858D01*
X149305575Y-45544100D01*
X149145425Y-45544100D01*
X148988358Y-45512858D01*
X148840399Y-45451571D01*
X148707245Y-45362601D01*
X148593999Y-45249355D01*
X148505029Y-45116201D01*
X148443742Y-44968242D01*
X148412500Y-44811175D01*
X148412500Y-44651025D01*
X148443742Y-44493958D01*
X148505029Y-44345999D01*
X148593999Y-44212845D01*
X148707245Y-44099599D01*
X148840399Y-44010629D01*
X148988358Y-43949342D01*
X149145425Y-43918100D01*
X149305575Y-43918100D01*
X149462642Y-43949342D01*
G37*
G36*
X167242642Y-43949342D02*
G01*
X167390601Y-44010629D01*
X167523755Y-44099599D01*
X167637001Y-44212845D01*
X167725971Y-44345999D01*
X167787258Y-44493958D01*
X167818500Y-44651025D01*
X167818500Y-44811175D01*
X167787258Y-44968242D01*
X167725971Y-45116201D01*
X167637001Y-45249355D01*
X167523755Y-45362601D01*
X167390601Y-45451571D01*
X167242642Y-45512858D01*
X167085575Y-45544100D01*
X166925425Y-45544100D01*
X166768358Y-45512858D01*
X166620399Y-45451571D01*
X166487245Y-45362601D01*
X166373999Y-45249355D01*
X166285029Y-45116201D01*
X166223742Y-44968242D01*
X166192500Y-44811175D01*
X166192500Y-44651025D01*
X166223742Y-44493958D01*
X166285029Y-44345999D01*
X166373999Y-44212845D01*
X166487245Y-44099599D01*
X166620399Y-44010629D01*
X166768358Y-43949342D01*
X166925425Y-43918100D01*
X167085575Y-43918100D01*
X167242642Y-43949342D01*
G37*
G36*
X164702642Y-43949342D02*
G01*
X164850601Y-44010629D01*
X164983755Y-44099599D01*
X165097001Y-44212845D01*
X165185971Y-44345999D01*
X165247258Y-44493958D01*
X165278500Y-44651025D01*
X165278500Y-44811175D01*
X165247258Y-44968242D01*
X165185971Y-45116201D01*
X165097001Y-45249355D01*
X164983755Y-45362601D01*
X164850601Y-45451571D01*
X164702642Y-45512858D01*
X164545575Y-45544100D01*
X164385425Y-45544100D01*
X164228358Y-45512858D01*
X164080399Y-45451571D01*
X163947245Y-45362601D01*
X163833999Y-45249355D01*
X163745029Y-45116201D01*
X163683742Y-44968242D01*
X163652500Y-44811175D01*
X163652500Y-44651025D01*
X163683742Y-44493958D01*
X163745029Y-44345999D01*
X163833999Y-44212845D01*
X163947245Y-44099599D01*
X164080399Y-44010629D01*
X164228358Y-43949342D01*
X164385425Y-43918100D01*
X164545575Y-43918100D01*
X164702642Y-43949342D01*
G37*
G36*
X162162642Y-43949342D02*
G01*
X162310601Y-44010629D01*
X162443755Y-44099599D01*
X162557001Y-44212845D01*
X162645971Y-44345999D01*
X162707258Y-44493958D01*
X162738500Y-44651025D01*
X162738500Y-44811175D01*
X162707258Y-44968242D01*
X162645971Y-45116201D01*
X162557001Y-45249355D01*
X162443755Y-45362601D01*
X162310601Y-45451571D01*
X162162642Y-45512858D01*
X162005575Y-45544100D01*
X161845425Y-45544100D01*
X161688358Y-45512858D01*
X161540399Y-45451571D01*
X161407245Y-45362601D01*
X161293999Y-45249355D01*
X161205029Y-45116201D01*
X161143742Y-44968242D01*
X161112500Y-44811175D01*
X161112500Y-44651025D01*
X161143742Y-44493958D01*
X161205029Y-44345999D01*
X161293999Y-44212845D01*
X161407245Y-44099599D01*
X161540399Y-44010629D01*
X161688358Y-43949342D01*
X161845425Y-43918100D01*
X162005575Y-43918100D01*
X162162642Y-43949342D01*
G37*
G36*
X159622642Y-43949342D02*
G01*
X159770601Y-44010629D01*
X159903755Y-44099599D01*
X160017001Y-44212845D01*
X160105971Y-44345999D01*
X160167258Y-44493958D01*
X160198500Y-44651025D01*
X160198500Y-44811175D01*
X160167258Y-44968242D01*
X160105971Y-45116201D01*
X160017001Y-45249355D01*
X159903755Y-45362601D01*
X159770601Y-45451571D01*
X159622642Y-45512858D01*
X159465575Y-45544100D01*
X159305425Y-45544100D01*
X159148358Y-45512858D01*
X159000399Y-45451571D01*
X158867245Y-45362601D01*
X158753999Y-45249355D01*
X158665029Y-45116201D01*
X158603742Y-44968242D01*
X158572500Y-44811175D01*
X158572500Y-44651025D01*
X158603742Y-44493958D01*
X158665029Y-44345999D01*
X158753999Y-44212845D01*
X158867245Y-44099599D01*
X159000399Y-44010629D01*
X159148358Y-43949342D01*
X159305425Y-43918100D01*
X159465575Y-43918100D01*
X159622642Y-43949342D01*
G37*
G36*
X157082642Y-43949342D02*
G01*
X157230601Y-44010629D01*
X157363755Y-44099599D01*
X157477001Y-44212845D01*
X157565971Y-44345999D01*
X157627258Y-44493958D01*
X157658500Y-44651025D01*
X157658500Y-44811175D01*
X157627258Y-44968242D01*
X157565971Y-45116201D01*
X157477001Y-45249355D01*
X157363755Y-45362601D01*
X157230601Y-45451571D01*
X157082642Y-45512858D01*
X156925575Y-45544100D01*
X156765425Y-45544100D01*
X156608358Y-45512858D01*
X156460399Y-45451571D01*
X156327245Y-45362601D01*
X156213999Y-45249355D01*
X156125029Y-45116201D01*
X156063742Y-44968242D01*
X156032500Y-44811175D01*
X156032500Y-44651025D01*
X156063742Y-44493958D01*
X156125029Y-44345999D01*
X156213999Y-44212845D01*
X156327245Y-44099599D01*
X156460399Y-44010629D01*
X156608358Y-43949342D01*
X156765425Y-43918100D01*
X156925575Y-43918100D01*
X157082642Y-43949342D01*
G37*
G36*
X152002642Y-43949342D02*
G01*
X152150601Y-44010629D01*
X152283755Y-44099599D01*
X152397001Y-44212845D01*
X152485971Y-44345999D01*
X152547258Y-44493958D01*
X152578500Y-44651025D01*
X152578500Y-44811175D01*
X152547258Y-44968242D01*
X152485971Y-45116201D01*
X152397001Y-45249355D01*
X152283755Y-45362601D01*
X152150601Y-45451571D01*
X152002642Y-45512858D01*
X151845575Y-45544100D01*
X151685425Y-45544100D01*
X151528358Y-45512858D01*
X151380399Y-45451571D01*
X151247245Y-45362601D01*
X151133999Y-45249355D01*
X151045029Y-45116201D01*
X150983742Y-44968242D01*
X150952500Y-44811175D01*
X150952500Y-44651025D01*
X150983742Y-44493958D01*
X151045029Y-44345999D01*
X151133999Y-44212845D01*
X151247245Y-44099599D01*
X151380399Y-44010629D01*
X151528358Y-43949342D01*
X151685425Y-43918100D01*
X151845575Y-43918100D01*
X152002642Y-43949342D01*
G37*
G36*
X49899500Y-37897000D02*
G01*
X48400500Y-37897000D01*
X48400500Y-36398000D01*
X49899500Y-36398000D01*
X49899500Y-37897000D01*
G37*
G36*
X164199500Y-37897000D02*
G01*
X162700500Y-37897000D01*
X162700500Y-36398000D01*
X164199500Y-36398000D01*
X164199500Y-37897000D01*
G37*
G36*
X84949500Y-37897000D02*
G01*
X83450500Y-37897000D01*
X83450500Y-36398000D01*
X84949500Y-36398000D01*
X84949500Y-37897000D01*
G37*
G36*
X103999500Y-37897000D02*
G01*
X102500500Y-37897000D01*
X102500500Y-36398000D01*
X103999500Y-36398000D01*
X103999500Y-37897000D01*
G37*
G36*
X123049500Y-37897000D02*
G01*
X121550500Y-37897000D01*
X121550500Y-36398000D01*
X123049500Y-36398000D01*
X123049500Y-37897000D01*
G37*
G36*
X142099500Y-37897000D02*
G01*
X140600500Y-37897000D01*
X140600500Y-36398000D01*
X142099500Y-36398000D01*
X142099500Y-37897000D01*
G37*
G36*
X161149500Y-37897000D02*
G01*
X159650500Y-37897000D01*
X159650500Y-36398000D01*
X161149500Y-36398000D01*
X161149500Y-37897000D01*
G37*
G36*
X46749500Y-37897000D02*
G01*
X45250500Y-37897000D01*
X45250500Y-36398000D01*
X46749500Y-36398000D01*
X46749500Y-37897000D01*
G37*
G36*
X68951627Y-34324537D02*
G01*
X69121466Y-34376057D01*
X69277991Y-34459722D01*
X69313729Y-34489052D01*
X69415186Y-34572314D01*
X69498448Y-34673771D01*
X69527778Y-34709509D01*
X69611443Y-34866034D01*
X69662963Y-35035873D01*
X69676000Y-35168242D01*
X69676000Y-36056758D01*
X69662963Y-36189127D01*
X69611443Y-36358966D01*
X69527778Y-36515491D01*
X69498448Y-36551229D01*
X69415186Y-36652686D01*
X69277989Y-36765279D01*
X69121467Y-36848942D01*
X69121465Y-36848943D01*
X68951626Y-36900463D01*
X68775000Y-36917859D01*
X68598373Y-36900463D01*
X68428534Y-36848943D01*
X68272009Y-36765278D01*
X68236271Y-36735948D01*
X68134814Y-36652686D01*
X68022221Y-36515489D01*
X67938558Y-36358967D01*
X67938557Y-36358965D01*
X67887037Y-36189126D01*
X67874000Y-36056757D01*
X67874000Y-35168242D01*
X67887038Y-35035873D01*
X67938558Y-34866034D01*
X68022223Y-34709509D01*
X68051553Y-34673771D01*
X68134815Y-34572314D01*
X68236272Y-34489052D01*
X68272010Y-34459722D01*
X68428535Y-34376057D01*
X68598374Y-34324537D01*
X68775000Y-34307141D01*
X68951627Y-34324537D01*
G37*
G36*
X46526000Y-35813500D02*
G01*
X45474000Y-35813500D01*
X45474000Y-34411500D01*
X46526000Y-34411500D01*
X46526000Y-35813500D01*
G37*
G36*
X141876000Y-35813500D02*
G01*
X140824000Y-35813500D01*
X140824000Y-34411500D01*
X141876000Y-34411500D01*
X141876000Y-35813500D01*
G37*
G36*
X163976000Y-35813500D02*
G01*
X162924000Y-35813500D01*
X162924000Y-34411500D01*
X163976000Y-34411500D01*
X163976000Y-35813500D01*
G37*
G36*
X122826000Y-35813500D02*
G01*
X121774000Y-35813500D01*
X121774000Y-34411500D01*
X122826000Y-34411500D01*
X122826000Y-35813500D01*
G37*
G36*
X160926000Y-35813500D02*
G01*
X159874000Y-35813500D01*
X159874000Y-34411500D01*
X160926000Y-34411500D01*
X160926000Y-35813500D01*
G37*
G36*
X103776000Y-35813500D02*
G01*
X102724000Y-35813500D01*
X102724000Y-34411500D01*
X103776000Y-34411500D01*
X103776000Y-35813500D01*
G37*
G36*
X84726000Y-35813500D02*
G01*
X83674000Y-35813500D01*
X83674000Y-34411500D01*
X84726000Y-34411500D01*
X84726000Y-35813500D01*
G37*
G36*
X49676000Y-35813500D02*
G01*
X48624000Y-35813500D01*
X48624000Y-34411500D01*
X49676000Y-34411500D01*
X49676000Y-35813500D01*
G37*
G36*
X64751627Y-32824537D02*
G01*
X64921466Y-32876057D01*
X65077991Y-32959722D01*
X65082594Y-32963500D01*
X65215186Y-33072314D01*
X65298448Y-33173771D01*
X65327778Y-33209509D01*
X65411443Y-33366034D01*
X65462963Y-33535873D01*
X65476000Y-33668242D01*
X65476000Y-34556758D01*
X65462963Y-34689127D01*
X65411443Y-34858966D01*
X65327778Y-35015491D01*
X65311051Y-35035873D01*
X65215186Y-35152686D01*
X65077989Y-35265279D01*
X64921467Y-35348942D01*
X64921465Y-35348943D01*
X64751626Y-35400463D01*
X64575000Y-35417859D01*
X64398373Y-35400463D01*
X64228534Y-35348943D01*
X64072009Y-35265278D01*
X64036271Y-35235948D01*
X63934814Y-35152686D01*
X63822221Y-35015489D01*
X63738558Y-34858967D01*
X63693221Y-34709511D01*
X63687037Y-34689126D01*
X63674000Y-34556757D01*
X63674000Y-33668242D01*
X63687038Y-33535873D01*
X63738558Y-33366034D01*
X63822223Y-33209509D01*
X63851553Y-33173771D01*
X63934815Y-33072314D01*
X64067407Y-32963500D01*
X64072010Y-32959722D01*
X64228535Y-32876057D01*
X64398374Y-32824537D01*
X64575000Y-32807141D01*
X64751627Y-32824537D01*
G37*
G36*
X76796474Y-31371184D02*
G01*
X76909157Y-31417859D01*
X77168623Y-31525333D01*
X77503548Y-31749123D01*
X77788377Y-32033952D01*
X78012167Y-32368877D01*
X78044562Y-32447086D01*
X78166316Y-32741026D01*
X78244900Y-33136094D01*
X78244900Y-33538906D01*
X78166316Y-33933974D01*
X78115451Y-34056772D01*
X78012167Y-34306123D01*
X77788377Y-34641048D01*
X77503548Y-34925877D01*
X77168623Y-35149667D01*
X77014474Y-35213517D01*
X76796474Y-35303816D01*
X76401406Y-35382400D01*
X75998594Y-35382400D01*
X75603526Y-35303816D01*
X75385526Y-35213517D01*
X75231377Y-35149667D01*
X74896452Y-34925877D01*
X74611623Y-34641048D01*
X74387833Y-34306123D01*
X74284549Y-34056772D01*
X74233684Y-33933974D01*
X74155100Y-33538906D01*
X74155100Y-33136094D01*
X74233684Y-32741026D01*
X74355438Y-32447086D01*
X74387833Y-32368877D01*
X74611623Y-32033952D01*
X74896452Y-31749123D01*
X75231377Y-31525333D01*
X75490843Y-31417859D01*
X75603526Y-31371184D01*
X75998594Y-31292600D01*
X76401406Y-31292600D01*
X76796474Y-31371184D01*
G37*
G36*
X172046474Y-31371184D02*
G01*
X172159157Y-31417859D01*
X172418623Y-31525333D01*
X172753548Y-31749123D01*
X173038377Y-32033952D01*
X173262167Y-32368877D01*
X173294562Y-32447086D01*
X173416316Y-32741026D01*
X173494900Y-33136094D01*
X173494900Y-33538906D01*
X173416316Y-33933974D01*
X173365451Y-34056772D01*
X173262167Y-34306123D01*
X173038377Y-34641048D01*
X172753548Y-34925877D01*
X172418623Y-35149667D01*
X172264474Y-35213517D01*
X172046474Y-35303816D01*
X171651406Y-35382400D01*
X171248594Y-35382400D01*
X170853526Y-35303816D01*
X170635526Y-35213517D01*
X170481377Y-35149667D01*
X170146452Y-34925877D01*
X169861623Y-34641048D01*
X169637833Y-34306123D01*
X169534549Y-34056772D01*
X169483684Y-33933974D01*
X169405100Y-33538906D01*
X169405100Y-33136094D01*
X169483684Y-32741026D01*
X169605438Y-32447086D01*
X169637833Y-32368877D01*
X169861623Y-32033952D01*
X170146452Y-31749123D01*
X170481377Y-31525333D01*
X170740843Y-31417859D01*
X170853526Y-31371184D01*
X171248594Y-31292600D01*
X171651406Y-31292600D01*
X172046474Y-31371184D01*
G37*
G36*
X38696474Y-31371184D02*
G01*
X38809157Y-31417859D01*
X39068623Y-31525333D01*
X39403548Y-31749123D01*
X39688377Y-32033952D01*
X39912167Y-32368877D01*
X39944562Y-32447086D01*
X40066316Y-32741026D01*
X40144900Y-33136094D01*
X40144900Y-33538906D01*
X40066316Y-33933974D01*
X40015451Y-34056772D01*
X39912167Y-34306123D01*
X39688377Y-34641048D01*
X39403548Y-34925877D01*
X39068623Y-35149667D01*
X38914474Y-35213517D01*
X38696474Y-35303816D01*
X38301406Y-35382400D01*
X37898594Y-35382400D01*
X37503526Y-35303816D01*
X37285526Y-35213517D01*
X37131377Y-35149667D01*
X36796452Y-34925877D01*
X36511623Y-34641048D01*
X36287833Y-34306123D01*
X36184549Y-34056772D01*
X36133684Y-33933974D01*
X36055100Y-33538906D01*
X36055100Y-33136094D01*
X36133684Y-32741026D01*
X36255438Y-32447086D01*
X36287833Y-32368877D01*
X36511623Y-32033952D01*
X36796452Y-31749123D01*
X37131377Y-31525333D01*
X37390843Y-31417859D01*
X37503526Y-31371184D01*
X37898594Y-31292600D01*
X38301406Y-31292600D01*
X38696474Y-31371184D01*
G37*
G36*
X57746474Y-31371184D02*
G01*
X57859157Y-31417859D01*
X58118623Y-31525333D01*
X58453548Y-31749123D01*
X58738377Y-32033952D01*
X58962167Y-32368877D01*
X58994562Y-32447086D01*
X59116316Y-32741026D01*
X59194900Y-33136094D01*
X59194900Y-33538906D01*
X59116316Y-33933974D01*
X59065451Y-34056772D01*
X58962167Y-34306123D01*
X58738377Y-34641048D01*
X58453548Y-34925877D01*
X58118623Y-35149667D01*
X57964474Y-35213517D01*
X57746474Y-35303816D01*
X57351406Y-35382400D01*
X56948594Y-35382400D01*
X56553526Y-35303816D01*
X56335526Y-35213517D01*
X56181377Y-35149667D01*
X55846452Y-34925877D01*
X55561623Y-34641048D01*
X55337833Y-34306123D01*
X55234549Y-34056772D01*
X55183684Y-33933974D01*
X55105100Y-33538906D01*
X55105100Y-33136094D01*
X55183684Y-32741026D01*
X55305438Y-32447086D01*
X55337833Y-32368877D01*
X55561623Y-32033952D01*
X55846452Y-31749123D01*
X56181377Y-31525333D01*
X56440843Y-31417859D01*
X56553526Y-31371184D01*
X56948594Y-31292600D01*
X57351406Y-31292600D01*
X57746474Y-31371184D01*
G37*
G36*
X95846474Y-31371184D02*
G01*
X95959157Y-31417859D01*
X96218623Y-31525333D01*
X96553548Y-31749123D01*
X96838377Y-32033952D01*
X97062167Y-32368877D01*
X97094562Y-32447086D01*
X97216316Y-32741026D01*
X97294900Y-33136094D01*
X97294900Y-33538906D01*
X97216316Y-33933974D01*
X97165451Y-34056772D01*
X97062167Y-34306123D01*
X96838377Y-34641048D01*
X96553548Y-34925877D01*
X96218623Y-35149667D01*
X96064474Y-35213517D01*
X95846474Y-35303816D01*
X95451406Y-35382400D01*
X95048594Y-35382400D01*
X94653526Y-35303816D01*
X94435526Y-35213517D01*
X94281377Y-35149667D01*
X93946452Y-34925877D01*
X93661623Y-34641048D01*
X93437833Y-34306123D01*
X93334549Y-34056772D01*
X93283684Y-33933974D01*
X93205100Y-33538906D01*
X93205100Y-33136094D01*
X93283684Y-32741026D01*
X93405438Y-32447086D01*
X93437833Y-32368877D01*
X93661623Y-32033952D01*
X93946452Y-31749123D01*
X94281377Y-31525333D01*
X94540843Y-31417859D01*
X94653526Y-31371184D01*
X95048594Y-31292600D01*
X95451406Y-31292600D01*
X95846474Y-31371184D01*
G37*
G36*
X114896474Y-31371184D02*
G01*
X115009157Y-31417859D01*
X115268623Y-31525333D01*
X115603548Y-31749123D01*
X115888377Y-32033952D01*
X116112167Y-32368877D01*
X116144562Y-32447086D01*
X116266316Y-32741026D01*
X116344900Y-33136094D01*
X116344900Y-33538906D01*
X116266316Y-33933974D01*
X116215451Y-34056772D01*
X116112167Y-34306123D01*
X115888377Y-34641048D01*
X115603548Y-34925877D01*
X115268623Y-35149667D01*
X115114474Y-35213517D01*
X114896474Y-35303816D01*
X114501406Y-35382400D01*
X114098594Y-35382400D01*
X113703526Y-35303816D01*
X113485526Y-35213517D01*
X113331377Y-35149667D01*
X112996452Y-34925877D01*
X112711623Y-34641048D01*
X112487833Y-34306123D01*
X112384549Y-34056772D01*
X112333684Y-33933974D01*
X112255100Y-33538906D01*
X112255100Y-33136094D01*
X112333684Y-32741026D01*
X112455438Y-32447086D01*
X112487833Y-32368877D01*
X112711623Y-32033952D01*
X112996452Y-31749123D01*
X113331377Y-31525333D01*
X113590843Y-31417859D01*
X113703526Y-31371184D01*
X114098594Y-31292600D01*
X114501406Y-31292600D01*
X114896474Y-31371184D01*
G37*
G36*
X152996474Y-31371184D02*
G01*
X153109157Y-31417859D01*
X153368623Y-31525333D01*
X153703548Y-31749123D01*
X153988377Y-32033952D01*
X154212167Y-32368877D01*
X154244562Y-32447086D01*
X154366316Y-32741026D01*
X154444900Y-33136094D01*
X154444900Y-33538906D01*
X154366316Y-33933974D01*
X154315451Y-34056772D01*
X154212167Y-34306123D01*
X153988377Y-34641048D01*
X153703548Y-34925877D01*
X153368623Y-35149667D01*
X153214474Y-35213517D01*
X152996474Y-35303816D01*
X152601406Y-35382400D01*
X152198594Y-35382400D01*
X151803526Y-35303816D01*
X151585526Y-35213517D01*
X151431377Y-35149667D01*
X151096452Y-34925877D01*
X150811623Y-34641048D01*
X150587833Y-34306123D01*
X150484549Y-34056772D01*
X150433684Y-33933974D01*
X150355100Y-33538906D01*
X150355100Y-33136094D01*
X150433684Y-32741026D01*
X150555438Y-32447086D01*
X150587833Y-32368877D01*
X150811623Y-32033952D01*
X151096452Y-31749123D01*
X151431377Y-31525333D01*
X151690843Y-31417859D01*
X151803526Y-31371184D01*
X152198594Y-31292600D01*
X152601406Y-31292600D01*
X152996474Y-31371184D01*
G37*
G36*
X133946474Y-31371184D02*
G01*
X134059157Y-31417859D01*
X134318623Y-31525333D01*
X134653548Y-31749123D01*
X134938377Y-32033952D01*
X135162167Y-32368877D01*
X135194562Y-32447086D01*
X135316316Y-32741026D01*
X135394900Y-33136094D01*
X135394900Y-33538906D01*
X135316316Y-33933974D01*
X135265451Y-34056772D01*
X135162167Y-34306123D01*
X134938377Y-34641048D01*
X134653548Y-34925877D01*
X134318623Y-35149667D01*
X134164474Y-35213517D01*
X133946474Y-35303816D01*
X133551406Y-35382400D01*
X133148594Y-35382400D01*
X132753526Y-35303816D01*
X132535526Y-35213517D01*
X132381377Y-35149667D01*
X132046452Y-34925877D01*
X131761623Y-34641048D01*
X131537833Y-34306123D01*
X131434549Y-34056772D01*
X131383684Y-33933974D01*
X131305100Y-33538906D01*
X131305100Y-33136094D01*
X131383684Y-32741026D01*
X131505438Y-32447086D01*
X131537833Y-32368877D01*
X131761623Y-32033952D01*
X132046452Y-31749123D01*
X132381377Y-31525333D01*
X132640843Y-31417859D01*
X132753526Y-31371184D01*
X133148594Y-31292600D01*
X133551406Y-31292600D01*
X133946474Y-31371184D01*
G37*
G36*
X62500104Y-32447085D02*
G01*
X62668626Y-32516889D01*
X62820291Y-32618228D01*
X62949272Y-32747209D01*
X63050611Y-32898874D01*
X63120415Y-33067396D01*
X63156000Y-33246297D01*
X63156000Y-33428703D01*
X63120415Y-33607604D01*
X63050611Y-33776126D01*
X62949272Y-33927791D01*
X62820291Y-34056772D01*
X62668626Y-34158111D01*
X62500104Y-34227915D01*
X62321203Y-34263500D01*
X62138797Y-34263500D01*
X61959896Y-34227915D01*
X61791374Y-34158111D01*
X61639709Y-34056772D01*
X61510728Y-33927791D01*
X61409389Y-33776126D01*
X61339585Y-33607604D01*
X61304000Y-33428703D01*
X61304000Y-33246297D01*
X61339585Y-33067396D01*
X61409389Y-32898874D01*
X61510728Y-32747209D01*
X61639709Y-32618228D01*
X61791374Y-32516889D01*
X61959896Y-32447085D01*
X62138797Y-32411500D01*
X62321203Y-32411500D01*
X62500104Y-32447085D01*
G37*
G36*
X128540104Y-32447085D02*
G01*
X128708626Y-32516889D01*
X128860291Y-32618228D01*
X128989272Y-32747209D01*
X129090611Y-32898874D01*
X129160415Y-33067396D01*
X129196000Y-33246297D01*
X129196000Y-33428703D01*
X129160415Y-33607604D01*
X129090611Y-33776126D01*
X128989272Y-33927791D01*
X128860291Y-34056772D01*
X128708626Y-34158111D01*
X128540104Y-34227915D01*
X128361203Y-34263500D01*
X128178797Y-34263500D01*
X127999896Y-34227915D01*
X127831374Y-34158111D01*
X127679709Y-34056772D01*
X127550728Y-33927791D01*
X127449389Y-33776126D01*
X127379585Y-33607604D01*
X127344000Y-33428703D01*
X127344000Y-33246297D01*
X127379585Y-33067396D01*
X127449389Y-32898874D01*
X127550728Y-32747209D01*
X127679709Y-32618228D01*
X127831374Y-32516889D01*
X127999896Y-32447085D01*
X128178797Y-32411500D01*
X128361203Y-32411500D01*
X128540104Y-32447085D01*
G37*
G36*
X109490104Y-32447085D02*
G01*
X109658626Y-32516889D01*
X109810291Y-32618228D01*
X109939272Y-32747209D01*
X110040611Y-32898874D01*
X110110415Y-33067396D01*
X110146000Y-33246297D01*
X110146000Y-33428703D01*
X110110415Y-33607604D01*
X110040611Y-33776126D01*
X109939272Y-33927791D01*
X109810291Y-34056772D01*
X109658626Y-34158111D01*
X109490104Y-34227915D01*
X109311203Y-34263500D01*
X109128797Y-34263500D01*
X108949896Y-34227915D01*
X108781374Y-34158111D01*
X108629709Y-34056772D01*
X108500728Y-33927791D01*
X108399389Y-33776126D01*
X108329585Y-33607604D01*
X108294000Y-33428703D01*
X108294000Y-33246297D01*
X108329585Y-33067396D01*
X108399389Y-32898874D01*
X108500728Y-32747209D01*
X108629709Y-32618228D01*
X108781374Y-32516889D01*
X108949896Y-32447085D01*
X109128797Y-32411500D01*
X109311203Y-32411500D01*
X109490104Y-32447085D01*
G37*
G36*
X119650104Y-32447085D02*
G01*
X119818626Y-32516889D01*
X119970291Y-32618228D01*
X120099272Y-32747209D01*
X120200611Y-32898874D01*
X120270415Y-33067396D01*
X120306000Y-33246297D01*
X120306000Y-33428703D01*
X120270415Y-33607604D01*
X120200611Y-33776126D01*
X120099272Y-33927791D01*
X119970291Y-34056772D01*
X119818626Y-34158111D01*
X119650104Y-34227915D01*
X119471203Y-34263500D01*
X119288797Y-34263500D01*
X119109896Y-34227915D01*
X118941374Y-34158111D01*
X118789709Y-34056772D01*
X118660728Y-33927791D01*
X118559389Y-33776126D01*
X118489585Y-33607604D01*
X118454000Y-33428703D01*
X118454000Y-33246297D01*
X118489585Y-33067396D01*
X118559389Y-32898874D01*
X118660728Y-32747209D01*
X118789709Y-32618228D01*
X118941374Y-32516889D01*
X119109896Y-32447085D01*
X119288797Y-32411500D01*
X119471203Y-32411500D01*
X119650104Y-32447085D01*
G37*
G36*
X138700104Y-32447085D02*
G01*
X138868626Y-32516889D01*
X139020291Y-32618228D01*
X139149272Y-32747209D01*
X139250611Y-32898874D01*
X139320415Y-33067396D01*
X139356000Y-33246297D01*
X139356000Y-33428703D01*
X139320415Y-33607604D01*
X139250611Y-33776126D01*
X139149272Y-33927791D01*
X139020291Y-34056772D01*
X138868626Y-34158111D01*
X138700104Y-34227915D01*
X138521203Y-34263500D01*
X138338797Y-34263500D01*
X138159896Y-34227915D01*
X137991374Y-34158111D01*
X137839709Y-34056772D01*
X137710728Y-33927791D01*
X137609389Y-33776126D01*
X137539585Y-33607604D01*
X137504000Y-33428703D01*
X137504000Y-33246297D01*
X137539585Y-33067396D01*
X137609389Y-32898874D01*
X137710728Y-32747209D01*
X137839709Y-32618228D01*
X137991374Y-32516889D01*
X138159896Y-32447085D01*
X138338797Y-32411500D01*
X138521203Y-32411500D01*
X138700104Y-32447085D01*
G37*
G36*
X90440104Y-32447085D02*
G01*
X90608626Y-32516889D01*
X90760291Y-32618228D01*
X90889272Y-32747209D01*
X90990611Y-32898874D01*
X91060415Y-33067396D01*
X91096000Y-33246297D01*
X91096000Y-33428703D01*
X91060415Y-33607604D01*
X90990611Y-33776126D01*
X90889272Y-33927791D01*
X90760291Y-34056772D01*
X90608626Y-34158111D01*
X90440104Y-34227915D01*
X90261203Y-34263500D01*
X90078797Y-34263500D01*
X89899896Y-34227915D01*
X89731374Y-34158111D01*
X89579709Y-34056772D01*
X89450728Y-33927791D01*
X89349389Y-33776126D01*
X89279585Y-33607604D01*
X89244000Y-33428703D01*
X89244000Y-33246297D01*
X89279585Y-33067396D01*
X89349389Y-32898874D01*
X89450728Y-32747209D01*
X89579709Y-32618228D01*
X89731374Y-32516889D01*
X89899896Y-32447085D01*
X90078797Y-32411500D01*
X90261203Y-32411500D01*
X90440104Y-32447085D01*
G37*
G36*
X100600104Y-32447085D02*
G01*
X100768626Y-32516889D01*
X100920291Y-32618228D01*
X101049272Y-32747209D01*
X101150611Y-32898874D01*
X101220415Y-33067396D01*
X101256000Y-33246297D01*
X101256000Y-33428703D01*
X101220415Y-33607604D01*
X101150611Y-33776126D01*
X101049272Y-33927791D01*
X100920291Y-34056772D01*
X100768626Y-34158111D01*
X100600104Y-34227915D01*
X100421203Y-34263500D01*
X100238797Y-34263500D01*
X100059896Y-34227915D01*
X99891374Y-34158111D01*
X99739709Y-34056772D01*
X99610728Y-33927791D01*
X99509389Y-33776126D01*
X99439585Y-33607604D01*
X99404000Y-33428703D01*
X99404000Y-33246297D01*
X99439585Y-33067396D01*
X99509389Y-32898874D01*
X99610728Y-32747209D01*
X99739709Y-32618228D01*
X99891374Y-32516889D01*
X100059896Y-32447085D01*
X100238797Y-32411500D01*
X100421203Y-32411500D01*
X100600104Y-32447085D01*
G37*
G36*
X81550104Y-32447085D02*
G01*
X81718626Y-32516889D01*
X81870291Y-32618228D01*
X81999272Y-32747209D01*
X82100611Y-32898874D01*
X82170415Y-33067396D01*
X82206000Y-33246297D01*
X82206000Y-33428703D01*
X82170415Y-33607604D01*
X82100611Y-33776126D01*
X81999272Y-33927791D01*
X81870291Y-34056772D01*
X81718626Y-34158111D01*
X81550104Y-34227915D01*
X81371203Y-34263500D01*
X81188797Y-34263500D01*
X81009896Y-34227915D01*
X80841374Y-34158111D01*
X80689709Y-34056772D01*
X80560728Y-33927791D01*
X80459389Y-33776126D01*
X80389585Y-33607604D01*
X80354000Y-33428703D01*
X80354000Y-33246297D01*
X80389585Y-33067396D01*
X80459389Y-32898874D01*
X80560728Y-32747209D01*
X80689709Y-32618228D01*
X80841374Y-32516889D01*
X81009896Y-32447085D01*
X81188797Y-32411500D01*
X81371203Y-32411500D01*
X81550104Y-32447085D01*
G37*
G36*
X71390104Y-32447085D02*
G01*
X71558626Y-32516889D01*
X71710291Y-32618228D01*
X71839272Y-32747209D01*
X71940611Y-32898874D01*
X72010415Y-33067396D01*
X72046000Y-33246297D01*
X72046000Y-33428703D01*
X72010415Y-33607604D01*
X71940611Y-33776126D01*
X71839272Y-33927791D01*
X71710291Y-34056772D01*
X71558626Y-34158111D01*
X71390104Y-34227915D01*
X71211203Y-34263500D01*
X71028797Y-34263500D01*
X70849896Y-34227915D01*
X70681374Y-34158111D01*
X70529709Y-34056772D01*
X70400728Y-33927791D01*
X70299389Y-33776126D01*
X70229585Y-33607604D01*
X70194000Y-33428703D01*
X70194000Y-33246297D01*
X70229585Y-33067396D01*
X70299389Y-32898874D01*
X70400728Y-32747209D01*
X70529709Y-32618228D01*
X70681374Y-32516889D01*
X70849896Y-32447085D01*
X71028797Y-32411500D01*
X71211203Y-32411500D01*
X71390104Y-32447085D01*
G37*
G36*
X176800104Y-32447085D02*
G01*
X176968626Y-32516889D01*
X177120291Y-32618228D01*
X177249272Y-32747209D01*
X177350611Y-32898874D01*
X177420415Y-33067396D01*
X177456000Y-33246297D01*
X177456000Y-33428703D01*
X177420415Y-33607604D01*
X177350611Y-33776126D01*
X177249272Y-33927791D01*
X177120291Y-34056772D01*
X176968626Y-34158111D01*
X176800104Y-34227915D01*
X176621203Y-34263500D01*
X176438797Y-34263500D01*
X176259896Y-34227915D01*
X176091374Y-34158111D01*
X175939709Y-34056772D01*
X175810728Y-33927791D01*
X175709389Y-33776126D01*
X175639585Y-33607604D01*
X175604000Y-33428703D01*
X175604000Y-33246297D01*
X175639585Y-33067396D01*
X175709389Y-32898874D01*
X175810728Y-32747209D01*
X175939709Y-32618228D01*
X176091374Y-32516889D01*
X176259896Y-32447085D01*
X176438797Y-32411500D01*
X176621203Y-32411500D01*
X176800104Y-32447085D01*
G37*
G36*
X33290104Y-32447085D02*
G01*
X33458626Y-32516889D01*
X33610291Y-32618228D01*
X33739272Y-32747209D01*
X33840611Y-32898874D01*
X33910415Y-33067396D01*
X33946000Y-33246297D01*
X33946000Y-33428703D01*
X33910415Y-33607604D01*
X33840611Y-33776126D01*
X33739272Y-33927791D01*
X33610291Y-34056772D01*
X33458626Y-34158111D01*
X33290104Y-34227915D01*
X33111203Y-34263500D01*
X32928797Y-34263500D01*
X32749896Y-34227915D01*
X32581374Y-34158111D01*
X32429709Y-34056772D01*
X32300728Y-33927791D01*
X32199389Y-33776126D01*
X32129585Y-33607604D01*
X32094000Y-33428703D01*
X32094000Y-33246297D01*
X32129585Y-33067396D01*
X32199389Y-32898874D01*
X32300728Y-32747209D01*
X32429709Y-32618228D01*
X32581374Y-32516889D01*
X32749896Y-32447085D01*
X32928797Y-32411500D01*
X33111203Y-32411500D01*
X33290104Y-32447085D01*
G37*
G36*
X43450104Y-32447085D02*
G01*
X43618626Y-32516889D01*
X43770291Y-32618228D01*
X43899272Y-32747209D01*
X44000611Y-32898874D01*
X44070415Y-33067396D01*
X44106000Y-33246297D01*
X44106000Y-33428703D01*
X44070415Y-33607604D01*
X44000611Y-33776126D01*
X43899272Y-33927791D01*
X43770291Y-34056772D01*
X43618626Y-34158111D01*
X43450104Y-34227915D01*
X43271203Y-34263500D01*
X43088797Y-34263500D01*
X42909896Y-34227915D01*
X42741374Y-34158111D01*
X42589709Y-34056772D01*
X42460728Y-33927791D01*
X42359389Y-33776126D01*
X42289585Y-33607604D01*
X42254000Y-33428703D01*
X42254000Y-33246297D01*
X42289585Y-33067396D01*
X42359389Y-32898874D01*
X42460728Y-32747209D01*
X42589709Y-32618228D01*
X42741374Y-32516889D01*
X42909896Y-32447085D01*
X43088797Y-32411500D01*
X43271203Y-32411500D01*
X43450104Y-32447085D01*
G37*
G36*
X52340104Y-32447085D02*
G01*
X52508626Y-32516889D01*
X52660291Y-32618228D01*
X52789272Y-32747209D01*
X52890611Y-32898874D01*
X52960415Y-33067396D01*
X52996000Y-33246297D01*
X52996000Y-33428703D01*
X52960415Y-33607604D01*
X52890611Y-33776126D01*
X52789272Y-33927791D01*
X52660291Y-34056772D01*
X52508626Y-34158111D01*
X52340104Y-34227915D01*
X52161203Y-34263500D01*
X51978797Y-34263500D01*
X51799896Y-34227915D01*
X51631374Y-34158111D01*
X51479709Y-34056772D01*
X51350728Y-33927791D01*
X51249389Y-33776126D01*
X51179585Y-33607604D01*
X51144000Y-33428703D01*
X51144000Y-33246297D01*
X51179585Y-33067396D01*
X51249389Y-32898874D01*
X51350728Y-32747209D01*
X51479709Y-32618228D01*
X51631374Y-32516889D01*
X51799896Y-32447085D01*
X51978797Y-32411500D01*
X52161203Y-32411500D01*
X52340104Y-32447085D01*
G37*
G36*
X147590104Y-32447085D02*
G01*
X147758626Y-32516889D01*
X147910291Y-32618228D01*
X148039272Y-32747209D01*
X148140611Y-32898874D01*
X148210415Y-33067396D01*
X148246000Y-33246297D01*
X148246000Y-33428703D01*
X148210415Y-33607604D01*
X148140611Y-33776126D01*
X148039272Y-33927791D01*
X147910291Y-34056772D01*
X147758626Y-34158111D01*
X147590104Y-34227915D01*
X147411203Y-34263500D01*
X147228797Y-34263500D01*
X147049896Y-34227915D01*
X146881374Y-34158111D01*
X146729709Y-34056772D01*
X146600728Y-33927791D01*
X146499389Y-33776126D01*
X146429585Y-33607604D01*
X146394000Y-33428703D01*
X146394000Y-33246297D01*
X146429585Y-33067396D01*
X146499389Y-32898874D01*
X146600728Y-32747209D01*
X146729709Y-32618228D01*
X146881374Y-32516889D01*
X147049896Y-32447085D01*
X147228797Y-32411500D01*
X147411203Y-32411500D01*
X147590104Y-32447085D01*
G37*
G36*
X157750104Y-32447085D02*
G01*
X157918626Y-32516889D01*
X158070291Y-32618228D01*
X158199272Y-32747209D01*
X158300611Y-32898874D01*
X158370415Y-33067396D01*
X158406000Y-33246297D01*
X158406000Y-33428703D01*
X158370415Y-33607604D01*
X158300611Y-33776126D01*
X158199272Y-33927791D01*
X158070291Y-34056772D01*
X157918626Y-34158111D01*
X157750104Y-34227915D01*
X157571203Y-34263500D01*
X157388797Y-34263500D01*
X157209896Y-34227915D01*
X157041374Y-34158111D01*
X156889709Y-34056772D01*
X156760728Y-33927791D01*
X156659389Y-33776126D01*
X156589585Y-33607604D01*
X156554000Y-33428703D01*
X156554000Y-33246297D01*
X156589585Y-33067396D01*
X156659389Y-32898874D01*
X156760728Y-32747209D01*
X156889709Y-32618228D01*
X157041374Y-32516889D01*
X157209896Y-32447085D01*
X157388797Y-32411500D01*
X157571203Y-32411500D01*
X157750104Y-32447085D01*
G37*
G36*
X166640104Y-32447085D02*
G01*
X166808626Y-32516889D01*
X166960291Y-32618228D01*
X167089272Y-32747209D01*
X167190611Y-32898874D01*
X167260415Y-33067396D01*
X167296000Y-33246297D01*
X167296000Y-33428703D01*
X167260415Y-33607604D01*
X167190611Y-33776126D01*
X167089272Y-33927791D01*
X166960291Y-34056772D01*
X166808626Y-34158111D01*
X166640104Y-34227915D01*
X166461203Y-34263500D01*
X166278797Y-34263500D01*
X166099896Y-34227915D01*
X165931374Y-34158111D01*
X165779709Y-34056772D01*
X165650728Y-33927791D01*
X165549389Y-33776126D01*
X165479585Y-33607604D01*
X165444000Y-33428703D01*
X165444000Y-33246297D01*
X165479585Y-33067396D01*
X165549389Y-32898874D01*
X165650728Y-32747209D01*
X165779709Y-32618228D01*
X165931374Y-32516889D01*
X166099896Y-32447085D01*
X166278797Y-32411500D01*
X166461203Y-32411500D01*
X166640104Y-32447085D01*
G37*
G36*
X66864890Y-31686517D02*
G01*
X66983364Y-31735591D01*
X67003616Y-31749123D01*
X67089988Y-31806835D01*
X67180665Y-31897512D01*
X67251910Y-32004138D01*
X67300983Y-32122610D01*
X67326000Y-32248381D01*
X67326000Y-32376619D01*
X67300983Y-32502390D01*
X67253001Y-32618229D01*
X67251909Y-32620864D01*
X67180665Y-32727488D01*
X67089988Y-32818165D01*
X66983364Y-32889409D01*
X66983363Y-32889410D01*
X66983362Y-32889410D01*
X66864890Y-32938483D01*
X66739119Y-32963500D01*
X66610881Y-32963500D01*
X66485110Y-32938483D01*
X66366638Y-32889410D01*
X66366637Y-32889410D01*
X66366636Y-32889409D01*
X66260012Y-32818165D01*
X66169335Y-32727488D01*
X66098091Y-32620864D01*
X66097000Y-32618229D01*
X66049017Y-32502390D01*
X66024000Y-32376619D01*
X66024000Y-32248381D01*
X66049017Y-32122610D01*
X66098090Y-32004138D01*
X66169335Y-31897512D01*
X66260012Y-31806835D01*
X66346384Y-31749123D01*
X66366636Y-31735591D01*
X66485110Y-31686517D01*
X66610881Y-31661500D01*
X66739119Y-31661500D01*
X66864890Y-31686517D01*
G37*
G36*
X163976000Y-32263500D02*
G01*
X162924000Y-32263500D01*
X162924000Y-30861500D01*
X163976000Y-30861500D01*
X163976000Y-32263500D01*
G37*
G36*
X160926000Y-32263500D02*
G01*
X159874000Y-32263500D01*
X159874000Y-30861500D01*
X160926000Y-30861500D01*
X160926000Y-32263500D01*
G37*
G36*
X141876000Y-32263500D02*
G01*
X140824000Y-32263500D01*
X140824000Y-30861500D01*
X141876000Y-30861500D01*
X141876000Y-32263500D01*
G37*
G36*
X122826000Y-32263500D02*
G01*
X121774000Y-32263500D01*
X121774000Y-30861500D01*
X122826000Y-30861500D01*
X122826000Y-32263500D01*
G37*
G36*
X103776000Y-32263500D02*
G01*
X102724000Y-32263500D01*
X102724000Y-30861500D01*
X103776000Y-30861500D01*
X103776000Y-32263500D01*
G37*
G36*
X84726000Y-32263500D02*
G01*
X83674000Y-32263500D01*
X83674000Y-30861500D01*
X84726000Y-30861500D01*
X84726000Y-32263500D01*
G37*
G36*
X49676000Y-32263500D02*
G01*
X48624000Y-32263500D01*
X48624000Y-30861500D01*
X49676000Y-30861500D01*
X49676000Y-32263500D01*
G37*
G36*
X46526000Y-32263500D02*
G01*
X45474000Y-32263500D01*
X45474000Y-30861500D01*
X46526000Y-30861500D01*
X46526000Y-32263500D01*
G37*
G36*
X64751627Y-28824537D02*
G01*
X64921466Y-28876057D01*
X65077991Y-28959722D01*
X65113729Y-28989052D01*
X65215186Y-29072314D01*
X65297387Y-29172478D01*
X65327778Y-29209509D01*
X65411443Y-29366034D01*
X65462963Y-29535873D01*
X65476000Y-29668242D01*
X65476000Y-30556758D01*
X65462963Y-30689127D01*
X65411443Y-30858966D01*
X65327778Y-31015491D01*
X65298448Y-31051229D01*
X65215186Y-31152686D01*
X65077989Y-31265279D01*
X65026875Y-31292600D01*
X64921465Y-31348943D01*
X64751626Y-31400463D01*
X64575000Y-31417859D01*
X64398373Y-31400463D01*
X64228534Y-31348943D01*
X64072009Y-31265278D01*
X64036271Y-31235948D01*
X63934814Y-31152686D01*
X63822221Y-31015489D01*
X63738558Y-30858967D01*
X63738557Y-30858965D01*
X63687037Y-30689126D01*
X63674000Y-30556757D01*
X63674000Y-29668242D01*
X63687038Y-29535873D01*
X63738558Y-29366034D01*
X63822223Y-29209509D01*
X63852614Y-29172478D01*
X63934815Y-29072314D01*
X64036272Y-28989052D01*
X64072010Y-28959722D01*
X64228535Y-28876057D01*
X64398374Y-28824537D01*
X64575000Y-28807141D01*
X64751627Y-28824537D01*
G37*
G36*
X46094425Y-28782099D02*
G01*
X46218621Y-28806802D01*
X46355022Y-28863301D01*
X46477779Y-28945325D01*
X46582175Y-29049721D01*
X46664199Y-29172478D01*
X46720698Y-29308879D01*
X46749500Y-29453681D01*
X46749500Y-29601319D01*
X46720698Y-29746121D01*
X46664199Y-29882522D01*
X46582175Y-30005279D01*
X46477779Y-30109675D01*
X46355022Y-30191699D01*
X46218621Y-30248198D01*
X46094425Y-30272901D01*
X46073820Y-30277000D01*
X45926180Y-30277000D01*
X45905575Y-30272901D01*
X45781379Y-30248198D01*
X45644978Y-30191699D01*
X45522221Y-30109675D01*
X45417825Y-30005279D01*
X45335801Y-29882522D01*
X45279302Y-29746121D01*
X45250500Y-29601319D01*
X45250500Y-29453681D01*
X45279302Y-29308879D01*
X45335801Y-29172478D01*
X45417825Y-29049721D01*
X45522221Y-28945325D01*
X45644978Y-28863301D01*
X45781379Y-28806802D01*
X45905575Y-28782099D01*
X45926180Y-28778000D01*
X46073820Y-28778000D01*
X46094425Y-28782099D01*
G37*
G36*
X49244425Y-28782099D02*
G01*
X49368621Y-28806802D01*
X49505022Y-28863301D01*
X49627779Y-28945325D01*
X49732175Y-29049721D01*
X49814199Y-29172478D01*
X49870698Y-29308879D01*
X49899500Y-29453681D01*
X49899500Y-29601319D01*
X49870698Y-29746121D01*
X49814199Y-29882522D01*
X49732175Y-30005279D01*
X49627779Y-30109675D01*
X49505022Y-30191699D01*
X49368621Y-30248198D01*
X49244425Y-30272901D01*
X49223820Y-30277000D01*
X49076180Y-30277000D01*
X49055575Y-30272901D01*
X48931379Y-30248198D01*
X48794978Y-30191699D01*
X48672221Y-30109675D01*
X48567825Y-30005279D01*
X48485801Y-29882522D01*
X48429302Y-29746121D01*
X48400500Y-29601319D01*
X48400500Y-29453681D01*
X48429302Y-29308879D01*
X48485801Y-29172478D01*
X48567825Y-29049721D01*
X48672221Y-28945325D01*
X48794978Y-28863301D01*
X48931379Y-28806802D01*
X49055575Y-28782099D01*
X49076180Y-28778000D01*
X49223820Y-28778000D01*
X49244425Y-28782099D01*
G37*
G36*
X84294425Y-28782099D02*
G01*
X84418621Y-28806802D01*
X84555022Y-28863301D01*
X84677779Y-28945325D01*
X84782175Y-29049721D01*
X84864199Y-29172478D01*
X84920698Y-29308879D01*
X84949500Y-29453681D01*
X84949500Y-29601319D01*
X84920698Y-29746121D01*
X84864199Y-29882522D01*
X84782175Y-30005279D01*
X84677779Y-30109675D01*
X84555022Y-30191699D01*
X84418621Y-30248198D01*
X84294425Y-30272901D01*
X84273820Y-30277000D01*
X84126180Y-30277000D01*
X84105575Y-30272901D01*
X83981379Y-30248198D01*
X83844978Y-30191699D01*
X83722221Y-30109675D01*
X83617825Y-30005279D01*
X83535801Y-29882522D01*
X83479302Y-29746121D01*
X83450500Y-29601319D01*
X83450500Y-29453681D01*
X83479302Y-29308879D01*
X83535801Y-29172478D01*
X83617825Y-29049721D01*
X83722221Y-28945325D01*
X83844978Y-28863301D01*
X83981379Y-28806802D01*
X84105575Y-28782099D01*
X84126180Y-28778000D01*
X84273820Y-28778000D01*
X84294425Y-28782099D01*
G37*
G36*
X122394425Y-28782099D02*
G01*
X122518621Y-28806802D01*
X122655022Y-28863301D01*
X122777779Y-28945325D01*
X122882175Y-29049721D01*
X122964199Y-29172478D01*
X123020698Y-29308879D01*
X123049500Y-29453681D01*
X123049500Y-29601319D01*
X123020698Y-29746121D01*
X122964199Y-29882522D01*
X122882175Y-30005279D01*
X122777779Y-30109675D01*
X122655022Y-30191699D01*
X122518621Y-30248198D01*
X122394425Y-30272901D01*
X122373820Y-30277000D01*
X122226180Y-30277000D01*
X122205575Y-30272901D01*
X122081379Y-30248198D01*
X121944978Y-30191699D01*
X121822221Y-30109675D01*
X121717825Y-30005279D01*
X121635801Y-29882522D01*
X121579302Y-29746121D01*
X121550500Y-29601319D01*
X121550500Y-29453681D01*
X121579302Y-29308879D01*
X121635801Y-29172478D01*
X121717825Y-29049721D01*
X121822221Y-28945325D01*
X121944978Y-28863301D01*
X122081379Y-28806802D01*
X122205575Y-28782099D01*
X122226180Y-28778000D01*
X122373820Y-28778000D01*
X122394425Y-28782099D01*
G37*
G36*
X103344425Y-28782099D02*
G01*
X103468621Y-28806802D01*
X103605022Y-28863301D01*
X103727779Y-28945325D01*
X103832175Y-29049721D01*
X103914199Y-29172478D01*
X103970698Y-29308879D01*
X103999500Y-29453681D01*
X103999500Y-29601319D01*
X103970698Y-29746121D01*
X103914199Y-29882522D01*
X103832175Y-30005279D01*
X103727779Y-30109675D01*
X103605022Y-30191699D01*
X103468621Y-30248198D01*
X103344425Y-30272901D01*
X103323820Y-30277000D01*
X103176180Y-30277000D01*
X103155575Y-30272901D01*
X103031379Y-30248198D01*
X102894978Y-30191699D01*
X102772221Y-30109675D01*
X102667825Y-30005279D01*
X102585801Y-29882522D01*
X102529302Y-29746121D01*
X102500500Y-29601319D01*
X102500500Y-29453681D01*
X102529302Y-29308879D01*
X102585801Y-29172478D01*
X102667825Y-29049721D01*
X102772221Y-28945325D01*
X102894978Y-28863301D01*
X103031379Y-28806802D01*
X103155575Y-28782099D01*
X103176180Y-28778000D01*
X103323820Y-28778000D01*
X103344425Y-28782099D01*
G37*
G36*
X141444425Y-28782099D02*
G01*
X141568621Y-28806802D01*
X141705022Y-28863301D01*
X141827779Y-28945325D01*
X141932175Y-29049721D01*
X142014199Y-29172478D01*
X142070698Y-29308879D01*
X142099500Y-29453681D01*
X142099500Y-29601319D01*
X142070698Y-29746121D01*
X142014199Y-29882522D01*
X141932175Y-30005279D01*
X141827779Y-30109675D01*
X141705022Y-30191699D01*
X141568621Y-30248198D01*
X141444425Y-30272901D01*
X141423820Y-30277000D01*
X141276180Y-30277000D01*
X141255575Y-30272901D01*
X141131379Y-30248198D01*
X140994978Y-30191699D01*
X140872221Y-30109675D01*
X140767825Y-30005279D01*
X140685801Y-29882522D01*
X140629302Y-29746121D01*
X140600500Y-29601319D01*
X140600500Y-29453681D01*
X140629302Y-29308879D01*
X140685801Y-29172478D01*
X140767825Y-29049721D01*
X140872221Y-28945325D01*
X140994978Y-28863301D01*
X141131379Y-28806802D01*
X141255575Y-28782099D01*
X141276180Y-28778000D01*
X141423820Y-28778000D01*
X141444425Y-28782099D01*
G37*
G36*
X160494425Y-28782099D02*
G01*
X160618621Y-28806802D01*
X160755022Y-28863301D01*
X160877779Y-28945325D01*
X160982175Y-29049721D01*
X161064199Y-29172478D01*
X161120698Y-29308879D01*
X161149500Y-29453681D01*
X161149500Y-29601319D01*
X161120698Y-29746121D01*
X161064199Y-29882522D01*
X160982175Y-30005279D01*
X160877779Y-30109675D01*
X160755022Y-30191699D01*
X160618621Y-30248198D01*
X160494425Y-30272901D01*
X160473820Y-30277000D01*
X160326180Y-30277000D01*
X160305575Y-30272901D01*
X160181379Y-30248198D01*
X160044978Y-30191699D01*
X159922221Y-30109675D01*
X159817825Y-30005279D01*
X159735801Y-29882522D01*
X159679302Y-29746121D01*
X159650500Y-29601319D01*
X159650500Y-29453681D01*
X159679302Y-29308879D01*
X159735801Y-29172478D01*
X159817825Y-29049721D01*
X159922221Y-28945325D01*
X160044978Y-28863301D01*
X160181379Y-28806802D01*
X160305575Y-28782099D01*
X160326180Y-28778000D01*
X160473820Y-28778000D01*
X160494425Y-28782099D01*
G37*
G36*
X163544425Y-28782099D02*
G01*
X163668621Y-28806802D01*
X163805022Y-28863301D01*
X163927779Y-28945325D01*
X164032175Y-29049721D01*
X164114199Y-29172478D01*
X164170698Y-29308879D01*
X164199500Y-29453681D01*
X164199500Y-29601319D01*
X164170698Y-29746121D01*
X164114199Y-29882522D01*
X164032175Y-30005279D01*
X163927779Y-30109675D01*
X163805022Y-30191699D01*
X163668621Y-30248198D01*
X163544425Y-30272901D01*
X163523820Y-30277000D01*
X163376180Y-30277000D01*
X163355575Y-30272901D01*
X163231379Y-30248198D01*
X163094978Y-30191699D01*
X162972221Y-30109675D01*
X162867825Y-30005279D01*
X162785801Y-29882522D01*
X162729302Y-29746121D01*
X162700500Y-29601319D01*
X162700500Y-29453681D01*
X162729302Y-29308879D01*
X162785801Y-29172478D01*
X162867825Y-29049721D01*
X162972221Y-28945325D01*
X163094978Y-28863301D01*
X163231379Y-28806802D01*
X163355575Y-28782099D01*
X163376180Y-28778000D01*
X163523820Y-28778000D01*
X163544425Y-28782099D01*
G37*
G36*
X64751627Y-25824537D02*
G01*
X64921466Y-25876057D01*
X65077991Y-25959722D01*
X65082594Y-25963500D01*
X65215186Y-26072314D01*
X65277490Y-26148233D01*
X65327778Y-26209509D01*
X65411443Y-26366034D01*
X65462963Y-26535873D01*
X65476000Y-26668242D01*
X65476000Y-27556758D01*
X65462963Y-27689127D01*
X65411443Y-27858966D01*
X65327778Y-28015491D01*
X65298448Y-28051229D01*
X65215186Y-28152686D01*
X65077989Y-28265279D01*
X64921467Y-28348942D01*
X64921465Y-28348943D01*
X64751626Y-28400463D01*
X64575000Y-28417859D01*
X64398373Y-28400463D01*
X64228534Y-28348943D01*
X64072009Y-28265278D01*
X64036271Y-28235948D01*
X63934814Y-28152686D01*
X63822221Y-28015489D01*
X63738558Y-27858967D01*
X63738557Y-27858965D01*
X63687037Y-27689126D01*
X63674000Y-27556757D01*
X63674000Y-26668242D01*
X63687038Y-26535873D01*
X63738558Y-26366034D01*
X63822223Y-26209509D01*
X63872511Y-26148233D01*
X63934815Y-26072314D01*
X64067407Y-25963500D01*
X64072010Y-25959722D01*
X64228535Y-25876057D01*
X64398374Y-25824537D01*
X64575000Y-25807141D01*
X64751627Y-25824537D01*
G37*
G36*
X47849549Y-24683616D02*
G01*
X47960734Y-24705732D01*
X48170203Y-24792497D01*
X48358720Y-24918460D01*
X48519040Y-25078780D01*
X48632364Y-25248382D01*
X48645004Y-25267299D01*
X48731768Y-25476767D01*
X48776000Y-25699135D01*
X48776000Y-25925865D01*
X48769265Y-25959722D01*
X48731768Y-26148234D01*
X48645003Y-26357703D01*
X48519040Y-26546220D01*
X48358720Y-26706540D01*
X48170203Y-26832503D01*
X47960734Y-26919268D01*
X47849549Y-26941384D01*
X47738365Y-26963500D01*
X47511635Y-26963500D01*
X47400451Y-26941384D01*
X47289266Y-26919268D01*
X47079797Y-26832503D01*
X46891280Y-26706540D01*
X46730960Y-26546220D01*
X46604997Y-26357703D01*
X46518232Y-26148234D01*
X46480735Y-25959722D01*
X46474000Y-25925865D01*
X46474000Y-25699135D01*
X46518232Y-25476767D01*
X46604996Y-25267299D01*
X46617636Y-25248382D01*
X46730960Y-25078780D01*
X46891280Y-24918460D01*
X47079797Y-24792497D01*
X47289266Y-24705732D01*
X47400451Y-24683616D01*
X47511635Y-24661500D01*
X47738365Y-24661500D01*
X47849549Y-24683616D01*
G37*
G36*
X162149549Y-24683616D02*
G01*
X162260734Y-24705732D01*
X162470203Y-24792497D01*
X162658720Y-24918460D01*
X162819040Y-25078780D01*
X162932364Y-25248382D01*
X162945004Y-25267299D01*
X163031768Y-25476767D01*
X163076000Y-25699135D01*
X163076000Y-25925865D01*
X163069265Y-25959722D01*
X163031768Y-26148234D01*
X162945003Y-26357703D01*
X162819040Y-26546220D01*
X162658720Y-26706540D01*
X162470203Y-26832503D01*
X162260734Y-26919268D01*
X162149549Y-26941384D01*
X162038365Y-26963500D01*
X161811635Y-26963500D01*
X161700451Y-26941384D01*
X161589266Y-26919268D01*
X161379797Y-26832503D01*
X161191280Y-26706540D01*
X161030960Y-26546220D01*
X160904997Y-26357703D01*
X160818232Y-26148234D01*
X160780735Y-25959722D01*
X160774000Y-25925865D01*
X160774000Y-25699135D01*
X160818232Y-25476767D01*
X160904996Y-25267299D01*
X160917636Y-25248382D01*
X161030960Y-25078780D01*
X161191280Y-24918460D01*
X161379797Y-24792497D01*
X161589266Y-24705732D01*
X161700451Y-24683616D01*
X161811635Y-24661500D01*
X162038365Y-24661500D01*
X162149549Y-24683616D01*
G37*
G36*
X66864890Y-24686517D02*
G01*
X66983364Y-24735591D01*
X67089988Y-24806835D01*
X67180665Y-24897512D01*
X67251909Y-25004136D01*
X67300983Y-25122610D01*
X67326000Y-25248382D01*
X67326000Y-25376618D01*
X67300983Y-25502390D01*
X67251909Y-25620864D01*
X67180665Y-25727488D01*
X67089988Y-25818165D01*
X66983364Y-25889409D01*
X66983363Y-25889410D01*
X66983362Y-25889410D01*
X66864890Y-25938483D01*
X66739119Y-25963500D01*
X66610881Y-25963500D01*
X66485110Y-25938483D01*
X66366638Y-25889410D01*
X66366637Y-25889410D01*
X66366636Y-25889409D01*
X66260012Y-25818165D01*
X66169335Y-25727488D01*
X66098091Y-25620864D01*
X66049017Y-25502390D01*
X66024000Y-25376618D01*
X66024000Y-25248382D01*
X66049017Y-25122610D01*
X66098091Y-25004136D01*
X66169335Y-24897512D01*
X66260012Y-24806835D01*
X66366636Y-24735591D01*
X66485110Y-24686517D01*
X66610881Y-24661500D01*
X66739119Y-24661500D01*
X66864890Y-24686517D01*
G37*
M02*
