G04 #@! TF.GenerationSoftware,KiCad,Pcbnew,(5.1.5-0-10_14)*
G04 #@! TF.CreationDate,2020-08-12T23:14:55+09:00*
G04 #@! TF.ProjectId,iroha60-right,69726f68-6136-4302-9d72-696768742e6b,rev?*
G04 #@! TF.SameCoordinates,Original*
G04 #@! TF.FileFunction,Legend,Bot*
G04 #@! TF.FilePolarity,Positive*
%FSLAX46Y46*%
G04 Gerber Fmt 4.6, Leading zero omitted, Abs format (unit mm)*
G04 Created by KiCad (PCBNEW (5.1.5-0-10_14)) date 2020-08-12 23:14:55*
%MOMM*%
%LPD*%
G04 APERTURE LIST*
%ADD10C,0.150000*%
%ADD11C,0.125000*%
G04 APERTURE END LIST*
D10*
X46750000Y-30637500D02*
X45250000Y-30637500D01*
X46750000Y-36037500D02*
X46750000Y-30637500D01*
X45250000Y-36037500D02*
X46750000Y-36037500D01*
X45250000Y-30637500D02*
X45250000Y-36037500D01*
X45500000Y-33837500D02*
X46500000Y-33837500D01*
X46500000Y-32837500D02*
X46000000Y-33737500D01*
X45500000Y-32837500D02*
X46500000Y-32837500D01*
X46000000Y-33737500D02*
X45500000Y-32837500D01*
X49900000Y-30637500D02*
X48400000Y-30637500D01*
X49900000Y-36037500D02*
X49900000Y-30637500D01*
X48400000Y-36037500D02*
X49900000Y-36037500D01*
X48400000Y-30637500D02*
X48400000Y-36037500D01*
X48650000Y-33837500D02*
X49650000Y-33837500D01*
X49650000Y-32837500D02*
X49150000Y-33737500D01*
X48650000Y-32837500D02*
X49650000Y-32837500D01*
X49150000Y-33737500D02*
X48650000Y-32837500D01*
X84950000Y-30637500D02*
X83450000Y-30637500D01*
X84950000Y-36037500D02*
X84950000Y-30637500D01*
X83450000Y-36037500D02*
X84950000Y-36037500D01*
X83450000Y-30637500D02*
X83450000Y-36037500D01*
X83700000Y-33837500D02*
X84700000Y-33837500D01*
X84700000Y-32837500D02*
X84200000Y-33737500D01*
X83700000Y-32837500D02*
X84700000Y-32837500D01*
X84200000Y-33737500D02*
X83700000Y-32837500D01*
X104000000Y-30637500D02*
X102500000Y-30637500D01*
X104000000Y-36037500D02*
X104000000Y-30637500D01*
X102500000Y-36037500D02*
X104000000Y-36037500D01*
X102500000Y-30637500D02*
X102500000Y-36037500D01*
X102750000Y-33837500D02*
X103750000Y-33837500D01*
X103750000Y-32837500D02*
X103250000Y-33737500D01*
X102750000Y-32837500D02*
X103750000Y-32837500D01*
X103250000Y-33737500D02*
X102750000Y-32837500D01*
X123050000Y-30637500D02*
X121550000Y-30637500D01*
X123050000Y-36037500D02*
X123050000Y-30637500D01*
X121550000Y-36037500D02*
X123050000Y-36037500D01*
X121550000Y-30637500D02*
X121550000Y-36037500D01*
X121800000Y-33837500D02*
X122800000Y-33837500D01*
X122800000Y-32837500D02*
X122300000Y-33737500D01*
X121800000Y-32837500D02*
X122800000Y-32837500D01*
X122300000Y-33737500D02*
X121800000Y-32837500D01*
X142100000Y-30637500D02*
X140600000Y-30637500D01*
X142100000Y-36037500D02*
X142100000Y-30637500D01*
X140600000Y-36037500D02*
X142100000Y-36037500D01*
X140600000Y-30637500D02*
X140600000Y-36037500D01*
X140850000Y-33837500D02*
X141850000Y-33837500D01*
X141850000Y-32837500D02*
X141350000Y-33737500D01*
X140850000Y-32837500D02*
X141850000Y-32837500D01*
X141350000Y-33737500D02*
X140850000Y-32837500D01*
X161150000Y-30637500D02*
X159650000Y-30637500D01*
X161150000Y-36037500D02*
X161150000Y-30637500D01*
X159650000Y-36037500D02*
X161150000Y-36037500D01*
X159650000Y-30637500D02*
X159650000Y-36037500D01*
X159900000Y-33837500D02*
X160900000Y-33837500D01*
X160900000Y-32837500D02*
X160400000Y-33737500D01*
X159900000Y-32837500D02*
X160900000Y-32837500D01*
X160400000Y-33737500D02*
X159900000Y-32837500D01*
X164200000Y-30637500D02*
X162700000Y-30637500D01*
X164200000Y-36037500D02*
X164200000Y-30637500D01*
X162700000Y-36037500D02*
X164200000Y-36037500D01*
X162700000Y-30637500D02*
X162700000Y-36037500D01*
X162950000Y-33837500D02*
X163950000Y-33837500D01*
X163950000Y-32837500D02*
X163450000Y-33737500D01*
X162950000Y-32837500D02*
X163950000Y-32837500D01*
X163450000Y-33737500D02*
X162950000Y-32837500D01*
X36575000Y-52737500D02*
X36075000Y-51837500D01*
X36075000Y-51837500D02*
X37075000Y-51837500D01*
X37075000Y-51837500D02*
X36575000Y-52737500D01*
X36075000Y-52837500D02*
X37075000Y-52837500D01*
X35825000Y-49637500D02*
X35825000Y-55037500D01*
X35825000Y-55037500D02*
X37325000Y-55037500D01*
X37325000Y-55037500D02*
X37325000Y-49637500D01*
X37325000Y-49637500D02*
X35825000Y-49637500D01*
X55625000Y-52787500D02*
X55125000Y-51887500D01*
X55125000Y-51887500D02*
X56125000Y-51887500D01*
X56125000Y-51887500D02*
X55625000Y-52787500D01*
X55125000Y-52887500D02*
X56125000Y-52887500D01*
X54875000Y-49687500D02*
X54875000Y-55087500D01*
X54875000Y-55087500D02*
X56375000Y-55087500D01*
X56375000Y-55087500D02*
X56375000Y-49687500D01*
X56375000Y-49687500D02*
X54875000Y-49687500D01*
X74675000Y-52787500D02*
X74175000Y-51887500D01*
X74175000Y-51887500D02*
X75175000Y-51887500D01*
X75175000Y-51887500D02*
X74675000Y-52787500D01*
X74175000Y-52887500D02*
X75175000Y-52887500D01*
X73925000Y-49687500D02*
X73925000Y-55087500D01*
X73925000Y-55087500D02*
X75425000Y-55087500D01*
X75425000Y-55087500D02*
X75425000Y-49687500D01*
X75425000Y-49687500D02*
X73925000Y-49687500D01*
X93725000Y-52787500D02*
X93225000Y-51887500D01*
X93225000Y-51887500D02*
X94225000Y-51887500D01*
X94225000Y-51887500D02*
X93725000Y-52787500D01*
X93225000Y-52887500D02*
X94225000Y-52887500D01*
X92975000Y-49687500D02*
X92975000Y-55087500D01*
X92975000Y-55087500D02*
X94475000Y-55087500D01*
X94475000Y-55087500D02*
X94475000Y-49687500D01*
X94475000Y-49687500D02*
X92975000Y-49687500D01*
X112775000Y-52787500D02*
X112275000Y-51887500D01*
X112275000Y-51887500D02*
X113275000Y-51887500D01*
X113275000Y-51887500D02*
X112775000Y-52787500D01*
X112275000Y-52887500D02*
X113275000Y-52887500D01*
X112025000Y-49687500D02*
X112025000Y-55087500D01*
X112025000Y-55087500D02*
X113525000Y-55087500D01*
X113525000Y-55087500D02*
X113525000Y-49687500D01*
X113525000Y-49687500D02*
X112025000Y-49687500D01*
X115825000Y-52787500D02*
X115325000Y-51887500D01*
X115325000Y-51887500D02*
X116325000Y-51887500D01*
X116325000Y-51887500D02*
X115825000Y-52787500D01*
X115325000Y-52887500D02*
X116325000Y-52887500D01*
X115075000Y-49687500D02*
X115075000Y-55087500D01*
X115075000Y-55087500D02*
X116575000Y-55087500D01*
X116575000Y-55087500D02*
X116575000Y-49687500D01*
X116575000Y-49687500D02*
X115075000Y-49687500D01*
X131825000Y-52787500D02*
X131325000Y-51887500D01*
X131325000Y-51887500D02*
X132325000Y-51887500D01*
X132325000Y-51887500D02*
X131825000Y-52787500D01*
X131325000Y-52887500D02*
X132325000Y-52887500D01*
X131075000Y-49687500D02*
X131075000Y-55087500D01*
X131075000Y-55087500D02*
X132575000Y-55087500D01*
X132575000Y-55087500D02*
X132575000Y-49687500D01*
X132575000Y-49687500D02*
X131075000Y-49687500D01*
X134825000Y-52787500D02*
X134325000Y-51887500D01*
X134325000Y-51887500D02*
X135325000Y-51887500D01*
X135325000Y-51887500D02*
X134825000Y-52787500D01*
X134325000Y-52887500D02*
X135325000Y-52887500D01*
X134075000Y-49687500D02*
X134075000Y-55087500D01*
X134075000Y-55087500D02*
X135575000Y-55087500D01*
X135575000Y-55087500D02*
X135575000Y-49687500D01*
X135575000Y-49687500D02*
X134075000Y-49687500D01*
X42087500Y-68737500D02*
X40587500Y-68737500D01*
X42087500Y-74137500D02*
X42087500Y-68737500D01*
X40587500Y-74137500D02*
X42087500Y-74137500D01*
X40587500Y-68737500D02*
X40587500Y-74137500D01*
X40837500Y-71937500D02*
X41837500Y-71937500D01*
X41837500Y-70937500D02*
X41337500Y-71837500D01*
X40837500Y-70937500D02*
X41837500Y-70937500D01*
X41337500Y-71837500D02*
X40837500Y-70937500D01*
X61137500Y-68737500D02*
X59637500Y-68737500D01*
X61137500Y-74137500D02*
X61137500Y-68737500D01*
X59637500Y-74137500D02*
X61137500Y-74137500D01*
X59637500Y-68737500D02*
X59637500Y-74137500D01*
X59887500Y-71937500D02*
X60887500Y-71937500D01*
X60887500Y-70937500D02*
X60387500Y-71837500D01*
X59887500Y-70937500D02*
X60887500Y-70937500D01*
X60387500Y-71837500D02*
X59887500Y-70937500D01*
X80187500Y-68737500D02*
X78687500Y-68737500D01*
X80187500Y-74137500D02*
X80187500Y-68737500D01*
X78687500Y-74137500D02*
X80187500Y-74137500D01*
X78687500Y-68737500D02*
X78687500Y-74137500D01*
X78937500Y-71937500D02*
X79937500Y-71937500D01*
X79937500Y-70937500D02*
X79437500Y-71837500D01*
X78937500Y-70937500D02*
X79937500Y-70937500D01*
X79437500Y-71837500D02*
X78937500Y-70937500D01*
X98487500Y-71837500D02*
X97987500Y-70937500D01*
X97987500Y-70937500D02*
X98987500Y-70937500D01*
X98987500Y-70937500D02*
X98487500Y-71837500D01*
X97987500Y-71937500D02*
X98987500Y-71937500D01*
X97737500Y-68737500D02*
X97737500Y-74137500D01*
X97737500Y-74137500D02*
X99237500Y-74137500D01*
X99237500Y-74137500D02*
X99237500Y-68737500D01*
X99237500Y-68737500D02*
X97737500Y-68737500D01*
X117537500Y-71837500D02*
X117037500Y-70937500D01*
X117037500Y-70937500D02*
X118037500Y-70937500D01*
X118037500Y-70937500D02*
X117537500Y-71837500D01*
X117037500Y-71937500D02*
X118037500Y-71937500D01*
X116787500Y-68737500D02*
X116787500Y-74137500D01*
X116787500Y-74137500D02*
X118287500Y-74137500D01*
X118287500Y-74137500D02*
X118287500Y-68737500D01*
X118287500Y-68737500D02*
X116787500Y-68737500D01*
X137337500Y-68737500D02*
X135837500Y-68737500D01*
X137337500Y-74137500D02*
X137337500Y-68737500D01*
X135837500Y-74137500D02*
X137337500Y-74137500D01*
X135837500Y-68737500D02*
X135837500Y-74137500D01*
X136087500Y-71937500D02*
X137087500Y-71937500D01*
X137087500Y-70937500D02*
X136587500Y-71837500D01*
X136087500Y-70937500D02*
X137087500Y-70937500D01*
X136587500Y-71837500D02*
X136087500Y-70937500D01*
X139543750Y-71837500D02*
X139043750Y-70937500D01*
X139043750Y-70937500D02*
X140043750Y-70937500D01*
X140043750Y-70937500D02*
X139543750Y-71837500D01*
X139043750Y-71937500D02*
X140043750Y-71937500D01*
X138793750Y-68737500D02*
X138793750Y-74137500D01*
X138793750Y-74137500D02*
X140293750Y-74137500D01*
X140293750Y-74137500D02*
X140293750Y-68737500D01*
X140293750Y-68737500D02*
X138793750Y-68737500D01*
X50862500Y-90887500D02*
X50362500Y-89987500D01*
X50362500Y-89987500D02*
X51362500Y-89987500D01*
X51362500Y-89987500D02*
X50862500Y-90887500D01*
X50362500Y-90987500D02*
X51362500Y-90987500D01*
X50112500Y-87787500D02*
X50112500Y-93187500D01*
X50112500Y-93187500D02*
X51612500Y-93187500D01*
X51612500Y-93187500D02*
X51612500Y-87787500D01*
X51612500Y-87787500D02*
X50112500Y-87787500D01*
X69912500Y-90887500D02*
X69412500Y-89987500D01*
X69412500Y-89987500D02*
X70412500Y-89987500D01*
X70412500Y-89987500D02*
X69912500Y-90887500D01*
X69412500Y-90987500D02*
X70412500Y-90987500D01*
X69162500Y-87787500D02*
X69162500Y-93187500D01*
X69162500Y-93187500D02*
X70662500Y-93187500D01*
X70662500Y-93187500D02*
X70662500Y-87787500D01*
X70662500Y-87787500D02*
X69162500Y-87787500D01*
X88962500Y-90887500D02*
X88462500Y-89987500D01*
X88462500Y-89987500D02*
X89462500Y-89987500D01*
X89462500Y-89987500D02*
X88962500Y-90887500D01*
X88462500Y-90987500D02*
X89462500Y-90987500D01*
X88212500Y-87787500D02*
X88212500Y-93187500D01*
X88212500Y-93187500D02*
X89712500Y-93187500D01*
X89712500Y-93187500D02*
X89712500Y-87787500D01*
X89712500Y-87787500D02*
X88212500Y-87787500D01*
X108762500Y-87787500D02*
X107262500Y-87787500D01*
X108762500Y-93187500D02*
X108762500Y-87787500D01*
X107262500Y-93187500D02*
X108762500Y-93187500D01*
X107262500Y-87787500D02*
X107262500Y-93187500D01*
X107512500Y-90987500D02*
X108512500Y-90987500D01*
X108512500Y-89987500D02*
X108012500Y-90887500D01*
X107512500Y-89987500D02*
X108512500Y-89987500D01*
X108012500Y-90887500D02*
X107512500Y-89987500D01*
X127812500Y-87787500D02*
X126312500Y-87787500D01*
X127812500Y-93187500D02*
X127812500Y-87787500D01*
X126312500Y-93187500D02*
X127812500Y-93187500D01*
X126312500Y-87787500D02*
X126312500Y-93187500D01*
X126562500Y-90987500D02*
X127562500Y-90987500D01*
X127562500Y-89987500D02*
X127062500Y-90887500D01*
X126562500Y-89987500D02*
X127562500Y-89987500D01*
X127062500Y-90887500D02*
X126562500Y-89987500D01*
X154006250Y-87787500D02*
X152506250Y-87787500D01*
X154006250Y-93187500D02*
X154006250Y-87787500D01*
X152506250Y-93187500D02*
X154006250Y-93187500D01*
X152506250Y-87787500D02*
X152506250Y-93187500D01*
X152756250Y-90987500D02*
X153756250Y-90987500D01*
X153756250Y-89987500D02*
X153256250Y-90887500D01*
X152756250Y-89987500D02*
X153756250Y-89987500D01*
X153256250Y-90887500D02*
X152756250Y-89987500D01*
X41337500Y-109937500D02*
X40837500Y-109037500D01*
X40837500Y-109037500D02*
X41837500Y-109037500D01*
X41837500Y-109037500D02*
X41337500Y-109937500D01*
X40837500Y-110037500D02*
X41837500Y-110037500D01*
X40587500Y-106837500D02*
X40587500Y-112237500D01*
X40587500Y-112237500D02*
X42087500Y-112237500D01*
X42087500Y-112237500D02*
X42087500Y-106837500D01*
X42087500Y-106837500D02*
X40587500Y-106837500D01*
X84293750Y-109937500D02*
X83793750Y-109037500D01*
X83793750Y-109037500D02*
X84793750Y-109037500D01*
X84793750Y-109037500D02*
X84293750Y-109937500D01*
X83793750Y-110037500D02*
X84793750Y-110037500D01*
X83543750Y-106837500D02*
X83543750Y-112237500D01*
X83543750Y-112237500D02*
X85043750Y-112237500D01*
X85043750Y-112237500D02*
X85043750Y-106837500D01*
X85043750Y-106837500D02*
X83543750Y-106837500D01*
X108012500Y-109937500D02*
X107512500Y-109037500D01*
X107512500Y-109037500D02*
X108512500Y-109037500D01*
X108512500Y-109037500D02*
X108012500Y-109937500D01*
X107512500Y-110037500D02*
X108512500Y-110037500D01*
X107262500Y-106837500D02*
X107262500Y-112237500D01*
X107262500Y-112237500D02*
X108762500Y-112237500D01*
X108762500Y-112237500D02*
X108762500Y-106837500D01*
X108762500Y-106837500D02*
X107262500Y-106837500D01*
X116575000Y-106837500D02*
X115075000Y-106837500D01*
X116575000Y-112237500D02*
X116575000Y-106837500D01*
X115075000Y-112237500D02*
X116575000Y-112237500D01*
X115075000Y-106837500D02*
X115075000Y-112237500D01*
X115325000Y-110037500D02*
X116325000Y-110037500D01*
X116325000Y-109037500D02*
X115825000Y-109937500D01*
X115325000Y-109037500D02*
X116325000Y-109037500D01*
X115825000Y-109937500D02*
X115325000Y-109037500D01*
X69675000Y-23812500D02*
X63675000Y-23812500D01*
X63675000Y-23812500D02*
X63675000Y-35812500D01*
X63675000Y-35812500D02*
X69675000Y-35812500D01*
X69675000Y-35812500D02*
X69675000Y-23812500D01*
X180293750Y-68437500D02*
X180293750Y-74437500D01*
X180293750Y-74437500D02*
X180043750Y-74437500D01*
X180293750Y-68437500D02*
X180043750Y-68437500D01*
X176793750Y-68437500D02*
X177043750Y-68437500D01*
X176793750Y-68437500D02*
X176793750Y-74437500D01*
X176793750Y-74437500D02*
X177043750Y-74437500D01*
X147955500Y-46001100D02*
X178435500Y-46001100D01*
X147955500Y-43461100D02*
X147955500Y-46001100D01*
X178435500Y-43461100D02*
X147955500Y-43461100D01*
X178435500Y-46001100D02*
X178435500Y-43461100D01*
X147955500Y-61221100D02*
X178435500Y-61221100D01*
X147955500Y-58681100D02*
X147955500Y-61221100D01*
X178435500Y-58681100D02*
X147955500Y-58681100D01*
X178435500Y-61221100D02*
X178435500Y-58681100D01*
X163450000Y-90887500D02*
X162950000Y-89987500D01*
X162950000Y-89987500D02*
X163950000Y-89987500D01*
X163950000Y-89987500D02*
X163450000Y-90887500D01*
X162950000Y-90987500D02*
X163950000Y-90987500D01*
X162700000Y-87787500D02*
X162700000Y-93187500D01*
X162700000Y-93187500D02*
X164200000Y-93187500D01*
X164200000Y-93187500D02*
X164200000Y-87787500D01*
X164200000Y-87787500D02*
X162700000Y-87787500D01*
D11*
X44976190Y-32968452D02*
X44476190Y-32968452D01*
X44476190Y-33087500D01*
X44500000Y-33158928D01*
X44547619Y-33206547D01*
X44595238Y-33230357D01*
X44690476Y-33254166D01*
X44761904Y-33254166D01*
X44857142Y-33230357D01*
X44904761Y-33206547D01*
X44952380Y-33158928D01*
X44976190Y-33087500D01*
X44976190Y-32968452D01*
X44976190Y-33730357D02*
X44976190Y-33444642D01*
X44976190Y-33587500D02*
X44476190Y-33587500D01*
X44547619Y-33539880D01*
X44595238Y-33492261D01*
X44619047Y-33444642D01*
X48126190Y-32968452D02*
X47626190Y-32968452D01*
X47626190Y-33087500D01*
X47650000Y-33158928D01*
X47697619Y-33206547D01*
X47745238Y-33230357D01*
X47840476Y-33254166D01*
X47911904Y-33254166D01*
X48007142Y-33230357D01*
X48054761Y-33206547D01*
X48102380Y-33158928D01*
X48126190Y-33087500D01*
X48126190Y-32968452D01*
X47673809Y-33444642D02*
X47650000Y-33468452D01*
X47626190Y-33516071D01*
X47626190Y-33635119D01*
X47650000Y-33682738D01*
X47673809Y-33706547D01*
X47721428Y-33730357D01*
X47769047Y-33730357D01*
X47840476Y-33706547D01*
X48126190Y-33420833D01*
X48126190Y-33730357D01*
X83176190Y-32968452D02*
X82676190Y-32968452D01*
X82676190Y-33087500D01*
X82700000Y-33158928D01*
X82747619Y-33206547D01*
X82795238Y-33230357D01*
X82890476Y-33254166D01*
X82961904Y-33254166D01*
X83057142Y-33230357D01*
X83104761Y-33206547D01*
X83152380Y-33158928D01*
X83176190Y-33087500D01*
X83176190Y-32968452D01*
X82676190Y-33420833D02*
X82676190Y-33730357D01*
X82866666Y-33563690D01*
X82866666Y-33635119D01*
X82890476Y-33682738D01*
X82914285Y-33706547D01*
X82961904Y-33730357D01*
X83080952Y-33730357D01*
X83128571Y-33706547D01*
X83152380Y-33682738D01*
X83176190Y-33635119D01*
X83176190Y-33492261D01*
X83152380Y-33444642D01*
X83128571Y-33420833D01*
X102226190Y-32968452D02*
X101726190Y-32968452D01*
X101726190Y-33087500D01*
X101750000Y-33158928D01*
X101797619Y-33206547D01*
X101845238Y-33230357D01*
X101940476Y-33254166D01*
X102011904Y-33254166D01*
X102107142Y-33230357D01*
X102154761Y-33206547D01*
X102202380Y-33158928D01*
X102226190Y-33087500D01*
X102226190Y-32968452D01*
X101892857Y-33682738D02*
X102226190Y-33682738D01*
X101702380Y-33563690D02*
X102059523Y-33444642D01*
X102059523Y-33754166D01*
X121276190Y-32968452D02*
X120776190Y-32968452D01*
X120776190Y-33087500D01*
X120800000Y-33158928D01*
X120847619Y-33206547D01*
X120895238Y-33230357D01*
X120990476Y-33254166D01*
X121061904Y-33254166D01*
X121157142Y-33230357D01*
X121204761Y-33206547D01*
X121252380Y-33158928D01*
X121276190Y-33087500D01*
X121276190Y-32968452D01*
X120776190Y-33706547D02*
X120776190Y-33468452D01*
X121014285Y-33444642D01*
X120990476Y-33468452D01*
X120966666Y-33516071D01*
X120966666Y-33635119D01*
X120990476Y-33682738D01*
X121014285Y-33706547D01*
X121061904Y-33730357D01*
X121180952Y-33730357D01*
X121228571Y-33706547D01*
X121252380Y-33682738D01*
X121276190Y-33635119D01*
X121276190Y-33516071D01*
X121252380Y-33468452D01*
X121228571Y-33444642D01*
X140326190Y-32968452D02*
X139826190Y-32968452D01*
X139826190Y-33087500D01*
X139850000Y-33158928D01*
X139897619Y-33206547D01*
X139945238Y-33230357D01*
X140040476Y-33254166D01*
X140111904Y-33254166D01*
X140207142Y-33230357D01*
X140254761Y-33206547D01*
X140302380Y-33158928D01*
X140326190Y-33087500D01*
X140326190Y-32968452D01*
X139826190Y-33682738D02*
X139826190Y-33587500D01*
X139850000Y-33539880D01*
X139873809Y-33516071D01*
X139945238Y-33468452D01*
X140040476Y-33444642D01*
X140230952Y-33444642D01*
X140278571Y-33468452D01*
X140302380Y-33492261D01*
X140326190Y-33539880D01*
X140326190Y-33635119D01*
X140302380Y-33682738D01*
X140278571Y-33706547D01*
X140230952Y-33730357D01*
X140111904Y-33730357D01*
X140064285Y-33706547D01*
X140040476Y-33682738D01*
X140016666Y-33635119D01*
X140016666Y-33539880D01*
X140040476Y-33492261D01*
X140064285Y-33468452D01*
X140111904Y-33444642D01*
X159376190Y-32968452D02*
X158876190Y-32968452D01*
X158876190Y-33087500D01*
X158900000Y-33158928D01*
X158947619Y-33206547D01*
X158995238Y-33230357D01*
X159090476Y-33254166D01*
X159161904Y-33254166D01*
X159257142Y-33230357D01*
X159304761Y-33206547D01*
X159352380Y-33158928D01*
X159376190Y-33087500D01*
X159376190Y-32968452D01*
X158876190Y-33420833D02*
X158876190Y-33754166D01*
X159376190Y-33539880D01*
X162426190Y-32968452D02*
X161926190Y-32968452D01*
X161926190Y-33087500D01*
X161950000Y-33158928D01*
X161997619Y-33206547D01*
X162045238Y-33230357D01*
X162140476Y-33254166D01*
X162211904Y-33254166D01*
X162307142Y-33230357D01*
X162354761Y-33206547D01*
X162402380Y-33158928D01*
X162426190Y-33087500D01*
X162426190Y-32968452D01*
X162140476Y-33539880D02*
X162116666Y-33492261D01*
X162092857Y-33468452D01*
X162045238Y-33444642D01*
X162021428Y-33444642D01*
X161973809Y-33468452D01*
X161950000Y-33492261D01*
X161926190Y-33539880D01*
X161926190Y-33635119D01*
X161950000Y-33682738D01*
X161973809Y-33706547D01*
X162021428Y-33730357D01*
X162045238Y-33730357D01*
X162092857Y-33706547D01*
X162116666Y-33682738D01*
X162140476Y-33635119D01*
X162140476Y-33539880D01*
X162164285Y-33492261D01*
X162188095Y-33468452D01*
X162235714Y-33444642D01*
X162330952Y-33444642D01*
X162378571Y-33468452D01*
X162402380Y-33492261D01*
X162426190Y-33539880D01*
X162426190Y-33635119D01*
X162402380Y-33682738D01*
X162378571Y-33706547D01*
X162330952Y-33730357D01*
X162235714Y-33730357D01*
X162188095Y-33706547D01*
X162164285Y-33682738D01*
X162140476Y-33635119D01*
X35551190Y-51968452D02*
X35051190Y-51968452D01*
X35051190Y-52087500D01*
X35075000Y-52158928D01*
X35122619Y-52206547D01*
X35170238Y-52230357D01*
X35265476Y-52254166D01*
X35336904Y-52254166D01*
X35432142Y-52230357D01*
X35479761Y-52206547D01*
X35527380Y-52158928D01*
X35551190Y-52087500D01*
X35551190Y-51968452D01*
X35551190Y-52492261D02*
X35551190Y-52587500D01*
X35527380Y-52635119D01*
X35503571Y-52658928D01*
X35432142Y-52706547D01*
X35336904Y-52730357D01*
X35146428Y-52730357D01*
X35098809Y-52706547D01*
X35075000Y-52682738D01*
X35051190Y-52635119D01*
X35051190Y-52539880D01*
X35075000Y-52492261D01*
X35098809Y-52468452D01*
X35146428Y-52444642D01*
X35265476Y-52444642D01*
X35313095Y-52468452D01*
X35336904Y-52492261D01*
X35360714Y-52539880D01*
X35360714Y-52635119D01*
X35336904Y-52682738D01*
X35313095Y-52706547D01*
X35265476Y-52730357D01*
X54601190Y-51780357D02*
X54101190Y-51780357D01*
X54101190Y-51899404D01*
X54125000Y-51970833D01*
X54172619Y-52018452D01*
X54220238Y-52042261D01*
X54315476Y-52066071D01*
X54386904Y-52066071D01*
X54482142Y-52042261D01*
X54529761Y-52018452D01*
X54577380Y-51970833D01*
X54601190Y-51899404D01*
X54601190Y-51780357D01*
X54601190Y-52542261D02*
X54601190Y-52256547D01*
X54601190Y-52399404D02*
X54101190Y-52399404D01*
X54172619Y-52351785D01*
X54220238Y-52304166D01*
X54244047Y-52256547D01*
X54101190Y-52851785D02*
X54101190Y-52899404D01*
X54125000Y-52947023D01*
X54148809Y-52970833D01*
X54196428Y-52994642D01*
X54291666Y-53018452D01*
X54410714Y-53018452D01*
X54505952Y-52994642D01*
X54553571Y-52970833D01*
X54577380Y-52947023D01*
X54601190Y-52899404D01*
X54601190Y-52851785D01*
X54577380Y-52804166D01*
X54553571Y-52780357D01*
X54505952Y-52756547D01*
X54410714Y-52732738D01*
X54291666Y-52732738D01*
X54196428Y-52756547D01*
X54148809Y-52780357D01*
X54125000Y-52804166D01*
X54101190Y-52851785D01*
X73651190Y-51780357D02*
X73151190Y-51780357D01*
X73151190Y-51899404D01*
X73175000Y-51970833D01*
X73222619Y-52018452D01*
X73270238Y-52042261D01*
X73365476Y-52066071D01*
X73436904Y-52066071D01*
X73532142Y-52042261D01*
X73579761Y-52018452D01*
X73627380Y-51970833D01*
X73651190Y-51899404D01*
X73651190Y-51780357D01*
X73651190Y-52542261D02*
X73651190Y-52256547D01*
X73651190Y-52399404D02*
X73151190Y-52399404D01*
X73222619Y-52351785D01*
X73270238Y-52304166D01*
X73294047Y-52256547D01*
X73651190Y-53018452D02*
X73651190Y-52732738D01*
X73651190Y-52875595D02*
X73151190Y-52875595D01*
X73222619Y-52827976D01*
X73270238Y-52780357D01*
X73294047Y-52732738D01*
X92701190Y-51780357D02*
X92201190Y-51780357D01*
X92201190Y-51899404D01*
X92225000Y-51970833D01*
X92272619Y-52018452D01*
X92320238Y-52042261D01*
X92415476Y-52066071D01*
X92486904Y-52066071D01*
X92582142Y-52042261D01*
X92629761Y-52018452D01*
X92677380Y-51970833D01*
X92701190Y-51899404D01*
X92701190Y-51780357D01*
X92701190Y-52542261D02*
X92701190Y-52256547D01*
X92701190Y-52399404D02*
X92201190Y-52399404D01*
X92272619Y-52351785D01*
X92320238Y-52304166D01*
X92344047Y-52256547D01*
X92248809Y-52732738D02*
X92225000Y-52756547D01*
X92201190Y-52804166D01*
X92201190Y-52923214D01*
X92225000Y-52970833D01*
X92248809Y-52994642D01*
X92296428Y-53018452D01*
X92344047Y-53018452D01*
X92415476Y-52994642D01*
X92701190Y-52708928D01*
X92701190Y-53018452D01*
X111751190Y-51780357D02*
X111251190Y-51780357D01*
X111251190Y-51899404D01*
X111275000Y-51970833D01*
X111322619Y-52018452D01*
X111370238Y-52042261D01*
X111465476Y-52066071D01*
X111536904Y-52066071D01*
X111632142Y-52042261D01*
X111679761Y-52018452D01*
X111727380Y-51970833D01*
X111751190Y-51899404D01*
X111751190Y-51780357D01*
X111751190Y-52542261D02*
X111751190Y-52256547D01*
X111751190Y-52399404D02*
X111251190Y-52399404D01*
X111322619Y-52351785D01*
X111370238Y-52304166D01*
X111394047Y-52256547D01*
X111251190Y-52708928D02*
X111251190Y-53018452D01*
X111441666Y-52851785D01*
X111441666Y-52923214D01*
X111465476Y-52970833D01*
X111489285Y-52994642D01*
X111536904Y-53018452D01*
X111655952Y-53018452D01*
X111703571Y-52994642D01*
X111727380Y-52970833D01*
X111751190Y-52923214D01*
X111751190Y-52780357D01*
X111727380Y-52732738D01*
X111703571Y-52708928D01*
X114801190Y-51780357D02*
X114301190Y-51780357D01*
X114301190Y-51899404D01*
X114325000Y-51970833D01*
X114372619Y-52018452D01*
X114420238Y-52042261D01*
X114515476Y-52066071D01*
X114586904Y-52066071D01*
X114682142Y-52042261D01*
X114729761Y-52018452D01*
X114777380Y-51970833D01*
X114801190Y-51899404D01*
X114801190Y-51780357D01*
X114801190Y-52542261D02*
X114801190Y-52256547D01*
X114801190Y-52399404D02*
X114301190Y-52399404D01*
X114372619Y-52351785D01*
X114420238Y-52304166D01*
X114444047Y-52256547D01*
X114467857Y-52970833D02*
X114801190Y-52970833D01*
X114277380Y-52851785D02*
X114634523Y-52732738D01*
X114634523Y-53042261D01*
X130801190Y-51780357D02*
X130301190Y-51780357D01*
X130301190Y-51899404D01*
X130325000Y-51970833D01*
X130372619Y-52018452D01*
X130420238Y-52042261D01*
X130515476Y-52066071D01*
X130586904Y-52066071D01*
X130682142Y-52042261D01*
X130729761Y-52018452D01*
X130777380Y-51970833D01*
X130801190Y-51899404D01*
X130801190Y-51780357D01*
X130801190Y-52542261D02*
X130801190Y-52256547D01*
X130801190Y-52399404D02*
X130301190Y-52399404D01*
X130372619Y-52351785D01*
X130420238Y-52304166D01*
X130444047Y-52256547D01*
X130301190Y-52994642D02*
X130301190Y-52756547D01*
X130539285Y-52732738D01*
X130515476Y-52756547D01*
X130491666Y-52804166D01*
X130491666Y-52923214D01*
X130515476Y-52970833D01*
X130539285Y-52994642D01*
X130586904Y-53018452D01*
X130705952Y-53018452D01*
X130753571Y-52994642D01*
X130777380Y-52970833D01*
X130801190Y-52923214D01*
X130801190Y-52804166D01*
X130777380Y-52756547D01*
X130753571Y-52732738D01*
X133801190Y-51780357D02*
X133301190Y-51780357D01*
X133301190Y-51899404D01*
X133325000Y-51970833D01*
X133372619Y-52018452D01*
X133420238Y-52042261D01*
X133515476Y-52066071D01*
X133586904Y-52066071D01*
X133682142Y-52042261D01*
X133729761Y-52018452D01*
X133777380Y-51970833D01*
X133801190Y-51899404D01*
X133801190Y-51780357D01*
X133801190Y-52542261D02*
X133801190Y-52256547D01*
X133801190Y-52399404D02*
X133301190Y-52399404D01*
X133372619Y-52351785D01*
X133420238Y-52304166D01*
X133444047Y-52256547D01*
X133301190Y-52970833D02*
X133301190Y-52875595D01*
X133325000Y-52827976D01*
X133348809Y-52804166D01*
X133420238Y-52756547D01*
X133515476Y-52732738D01*
X133705952Y-52732738D01*
X133753571Y-52756547D01*
X133777380Y-52780357D01*
X133801190Y-52827976D01*
X133801190Y-52923214D01*
X133777380Y-52970833D01*
X133753571Y-52994642D01*
X133705952Y-53018452D01*
X133586904Y-53018452D01*
X133539285Y-52994642D01*
X133515476Y-52970833D01*
X133491666Y-52923214D01*
X133491666Y-52827976D01*
X133515476Y-52780357D01*
X133539285Y-52756547D01*
X133586904Y-52732738D01*
X40313690Y-70830357D02*
X39813690Y-70830357D01*
X39813690Y-70949404D01*
X39837500Y-71020833D01*
X39885119Y-71068452D01*
X39932738Y-71092261D01*
X40027976Y-71116071D01*
X40099404Y-71116071D01*
X40194642Y-71092261D01*
X40242261Y-71068452D01*
X40289880Y-71020833D01*
X40313690Y-70949404D01*
X40313690Y-70830357D01*
X40313690Y-71592261D02*
X40313690Y-71306547D01*
X40313690Y-71449404D02*
X39813690Y-71449404D01*
X39885119Y-71401785D01*
X39932738Y-71354166D01*
X39956547Y-71306547D01*
X39813690Y-71758928D02*
X39813690Y-72092261D01*
X40313690Y-71877976D01*
X59363690Y-70830357D02*
X58863690Y-70830357D01*
X58863690Y-70949404D01*
X58887500Y-71020833D01*
X58935119Y-71068452D01*
X58982738Y-71092261D01*
X59077976Y-71116071D01*
X59149404Y-71116071D01*
X59244642Y-71092261D01*
X59292261Y-71068452D01*
X59339880Y-71020833D01*
X59363690Y-70949404D01*
X59363690Y-70830357D01*
X59363690Y-71592261D02*
X59363690Y-71306547D01*
X59363690Y-71449404D02*
X58863690Y-71449404D01*
X58935119Y-71401785D01*
X58982738Y-71354166D01*
X59006547Y-71306547D01*
X59077976Y-71877976D02*
X59054166Y-71830357D01*
X59030357Y-71806547D01*
X58982738Y-71782738D01*
X58958928Y-71782738D01*
X58911309Y-71806547D01*
X58887500Y-71830357D01*
X58863690Y-71877976D01*
X58863690Y-71973214D01*
X58887500Y-72020833D01*
X58911309Y-72044642D01*
X58958928Y-72068452D01*
X58982738Y-72068452D01*
X59030357Y-72044642D01*
X59054166Y-72020833D01*
X59077976Y-71973214D01*
X59077976Y-71877976D01*
X59101785Y-71830357D01*
X59125595Y-71806547D01*
X59173214Y-71782738D01*
X59268452Y-71782738D01*
X59316071Y-71806547D01*
X59339880Y-71830357D01*
X59363690Y-71877976D01*
X59363690Y-71973214D01*
X59339880Y-72020833D01*
X59316071Y-72044642D01*
X59268452Y-72068452D01*
X59173214Y-72068452D01*
X59125595Y-72044642D01*
X59101785Y-72020833D01*
X59077976Y-71973214D01*
X78413690Y-70830357D02*
X77913690Y-70830357D01*
X77913690Y-70949404D01*
X77937500Y-71020833D01*
X77985119Y-71068452D01*
X78032738Y-71092261D01*
X78127976Y-71116071D01*
X78199404Y-71116071D01*
X78294642Y-71092261D01*
X78342261Y-71068452D01*
X78389880Y-71020833D01*
X78413690Y-70949404D01*
X78413690Y-70830357D01*
X78413690Y-71592261D02*
X78413690Y-71306547D01*
X78413690Y-71449404D02*
X77913690Y-71449404D01*
X77985119Y-71401785D01*
X78032738Y-71354166D01*
X78056547Y-71306547D01*
X78413690Y-71830357D02*
X78413690Y-71925595D01*
X78389880Y-71973214D01*
X78366071Y-71997023D01*
X78294642Y-72044642D01*
X78199404Y-72068452D01*
X78008928Y-72068452D01*
X77961309Y-72044642D01*
X77937500Y-72020833D01*
X77913690Y-71973214D01*
X77913690Y-71877976D01*
X77937500Y-71830357D01*
X77961309Y-71806547D01*
X78008928Y-71782738D01*
X78127976Y-71782738D01*
X78175595Y-71806547D01*
X78199404Y-71830357D01*
X78223214Y-71877976D01*
X78223214Y-71973214D01*
X78199404Y-72020833D01*
X78175595Y-72044642D01*
X78127976Y-72068452D01*
X97463690Y-70830357D02*
X96963690Y-70830357D01*
X96963690Y-70949404D01*
X96987500Y-71020833D01*
X97035119Y-71068452D01*
X97082738Y-71092261D01*
X97177976Y-71116071D01*
X97249404Y-71116071D01*
X97344642Y-71092261D01*
X97392261Y-71068452D01*
X97439880Y-71020833D01*
X97463690Y-70949404D01*
X97463690Y-70830357D01*
X97011309Y-71306547D02*
X96987500Y-71330357D01*
X96963690Y-71377976D01*
X96963690Y-71497023D01*
X96987500Y-71544642D01*
X97011309Y-71568452D01*
X97058928Y-71592261D01*
X97106547Y-71592261D01*
X97177976Y-71568452D01*
X97463690Y-71282738D01*
X97463690Y-71592261D01*
X96963690Y-71901785D02*
X96963690Y-71949404D01*
X96987500Y-71997023D01*
X97011309Y-72020833D01*
X97058928Y-72044642D01*
X97154166Y-72068452D01*
X97273214Y-72068452D01*
X97368452Y-72044642D01*
X97416071Y-72020833D01*
X97439880Y-71997023D01*
X97463690Y-71949404D01*
X97463690Y-71901785D01*
X97439880Y-71854166D01*
X97416071Y-71830357D01*
X97368452Y-71806547D01*
X97273214Y-71782738D01*
X97154166Y-71782738D01*
X97058928Y-71806547D01*
X97011309Y-71830357D01*
X96987500Y-71854166D01*
X96963690Y-71901785D01*
X116513690Y-70830357D02*
X116013690Y-70830357D01*
X116013690Y-70949404D01*
X116037500Y-71020833D01*
X116085119Y-71068452D01*
X116132738Y-71092261D01*
X116227976Y-71116071D01*
X116299404Y-71116071D01*
X116394642Y-71092261D01*
X116442261Y-71068452D01*
X116489880Y-71020833D01*
X116513690Y-70949404D01*
X116513690Y-70830357D01*
X116061309Y-71306547D02*
X116037500Y-71330357D01*
X116013690Y-71377976D01*
X116013690Y-71497023D01*
X116037500Y-71544642D01*
X116061309Y-71568452D01*
X116108928Y-71592261D01*
X116156547Y-71592261D01*
X116227976Y-71568452D01*
X116513690Y-71282738D01*
X116513690Y-71592261D01*
X116513690Y-72068452D02*
X116513690Y-71782738D01*
X116513690Y-71925595D02*
X116013690Y-71925595D01*
X116085119Y-71877976D01*
X116132738Y-71830357D01*
X116156547Y-71782738D01*
X135563690Y-70830357D02*
X135063690Y-70830357D01*
X135063690Y-70949404D01*
X135087500Y-71020833D01*
X135135119Y-71068452D01*
X135182738Y-71092261D01*
X135277976Y-71116071D01*
X135349404Y-71116071D01*
X135444642Y-71092261D01*
X135492261Y-71068452D01*
X135539880Y-71020833D01*
X135563690Y-70949404D01*
X135563690Y-70830357D01*
X135111309Y-71306547D02*
X135087500Y-71330357D01*
X135063690Y-71377976D01*
X135063690Y-71497023D01*
X135087500Y-71544642D01*
X135111309Y-71568452D01*
X135158928Y-71592261D01*
X135206547Y-71592261D01*
X135277976Y-71568452D01*
X135563690Y-71282738D01*
X135563690Y-71592261D01*
X135111309Y-71782738D02*
X135087500Y-71806547D01*
X135063690Y-71854166D01*
X135063690Y-71973214D01*
X135087500Y-72020833D01*
X135111309Y-72044642D01*
X135158928Y-72068452D01*
X135206547Y-72068452D01*
X135277976Y-72044642D01*
X135563690Y-71758928D01*
X135563690Y-72068452D01*
X138519940Y-70830357D02*
X138019940Y-70830357D01*
X138019940Y-70949404D01*
X138043750Y-71020833D01*
X138091369Y-71068452D01*
X138138988Y-71092261D01*
X138234226Y-71116071D01*
X138305654Y-71116071D01*
X138400892Y-71092261D01*
X138448511Y-71068452D01*
X138496130Y-71020833D01*
X138519940Y-70949404D01*
X138519940Y-70830357D01*
X138067559Y-71306547D02*
X138043750Y-71330357D01*
X138019940Y-71377976D01*
X138019940Y-71497023D01*
X138043750Y-71544642D01*
X138067559Y-71568452D01*
X138115178Y-71592261D01*
X138162797Y-71592261D01*
X138234226Y-71568452D01*
X138519940Y-71282738D01*
X138519940Y-71592261D01*
X138019940Y-71758928D02*
X138019940Y-72068452D01*
X138210416Y-71901785D01*
X138210416Y-71973214D01*
X138234226Y-72020833D01*
X138258035Y-72044642D01*
X138305654Y-72068452D01*
X138424702Y-72068452D01*
X138472321Y-72044642D01*
X138496130Y-72020833D01*
X138519940Y-71973214D01*
X138519940Y-71830357D01*
X138496130Y-71782738D01*
X138472321Y-71758928D01*
X49838690Y-89880357D02*
X49338690Y-89880357D01*
X49338690Y-89999404D01*
X49362500Y-90070833D01*
X49410119Y-90118452D01*
X49457738Y-90142261D01*
X49552976Y-90166071D01*
X49624404Y-90166071D01*
X49719642Y-90142261D01*
X49767261Y-90118452D01*
X49814880Y-90070833D01*
X49838690Y-89999404D01*
X49838690Y-89880357D01*
X49386309Y-90356547D02*
X49362500Y-90380357D01*
X49338690Y-90427976D01*
X49338690Y-90547023D01*
X49362500Y-90594642D01*
X49386309Y-90618452D01*
X49433928Y-90642261D01*
X49481547Y-90642261D01*
X49552976Y-90618452D01*
X49838690Y-90332738D01*
X49838690Y-90642261D01*
X49505357Y-91070833D02*
X49838690Y-91070833D01*
X49314880Y-90951785D02*
X49672023Y-90832738D01*
X49672023Y-91142261D01*
X68888690Y-89880357D02*
X68388690Y-89880357D01*
X68388690Y-89999404D01*
X68412500Y-90070833D01*
X68460119Y-90118452D01*
X68507738Y-90142261D01*
X68602976Y-90166071D01*
X68674404Y-90166071D01*
X68769642Y-90142261D01*
X68817261Y-90118452D01*
X68864880Y-90070833D01*
X68888690Y-89999404D01*
X68888690Y-89880357D01*
X68436309Y-90356547D02*
X68412500Y-90380357D01*
X68388690Y-90427976D01*
X68388690Y-90547023D01*
X68412500Y-90594642D01*
X68436309Y-90618452D01*
X68483928Y-90642261D01*
X68531547Y-90642261D01*
X68602976Y-90618452D01*
X68888690Y-90332738D01*
X68888690Y-90642261D01*
X68388690Y-91094642D02*
X68388690Y-90856547D01*
X68626785Y-90832738D01*
X68602976Y-90856547D01*
X68579166Y-90904166D01*
X68579166Y-91023214D01*
X68602976Y-91070833D01*
X68626785Y-91094642D01*
X68674404Y-91118452D01*
X68793452Y-91118452D01*
X68841071Y-91094642D01*
X68864880Y-91070833D01*
X68888690Y-91023214D01*
X68888690Y-90904166D01*
X68864880Y-90856547D01*
X68841071Y-90832738D01*
X87938690Y-89880357D02*
X87438690Y-89880357D01*
X87438690Y-89999404D01*
X87462500Y-90070833D01*
X87510119Y-90118452D01*
X87557738Y-90142261D01*
X87652976Y-90166071D01*
X87724404Y-90166071D01*
X87819642Y-90142261D01*
X87867261Y-90118452D01*
X87914880Y-90070833D01*
X87938690Y-89999404D01*
X87938690Y-89880357D01*
X87486309Y-90356547D02*
X87462500Y-90380357D01*
X87438690Y-90427976D01*
X87438690Y-90547023D01*
X87462500Y-90594642D01*
X87486309Y-90618452D01*
X87533928Y-90642261D01*
X87581547Y-90642261D01*
X87652976Y-90618452D01*
X87938690Y-90332738D01*
X87938690Y-90642261D01*
X87438690Y-91070833D02*
X87438690Y-90975595D01*
X87462500Y-90927976D01*
X87486309Y-90904166D01*
X87557738Y-90856547D01*
X87652976Y-90832738D01*
X87843452Y-90832738D01*
X87891071Y-90856547D01*
X87914880Y-90880357D01*
X87938690Y-90927976D01*
X87938690Y-91023214D01*
X87914880Y-91070833D01*
X87891071Y-91094642D01*
X87843452Y-91118452D01*
X87724404Y-91118452D01*
X87676785Y-91094642D01*
X87652976Y-91070833D01*
X87629166Y-91023214D01*
X87629166Y-90927976D01*
X87652976Y-90880357D01*
X87676785Y-90856547D01*
X87724404Y-90832738D01*
X106988690Y-89880357D02*
X106488690Y-89880357D01*
X106488690Y-89999404D01*
X106512500Y-90070833D01*
X106560119Y-90118452D01*
X106607738Y-90142261D01*
X106702976Y-90166071D01*
X106774404Y-90166071D01*
X106869642Y-90142261D01*
X106917261Y-90118452D01*
X106964880Y-90070833D01*
X106988690Y-89999404D01*
X106988690Y-89880357D01*
X106536309Y-90356547D02*
X106512500Y-90380357D01*
X106488690Y-90427976D01*
X106488690Y-90547023D01*
X106512500Y-90594642D01*
X106536309Y-90618452D01*
X106583928Y-90642261D01*
X106631547Y-90642261D01*
X106702976Y-90618452D01*
X106988690Y-90332738D01*
X106988690Y-90642261D01*
X106488690Y-90808928D02*
X106488690Y-91142261D01*
X106988690Y-90927976D01*
X126038690Y-89880357D02*
X125538690Y-89880357D01*
X125538690Y-89999404D01*
X125562500Y-90070833D01*
X125610119Y-90118452D01*
X125657738Y-90142261D01*
X125752976Y-90166071D01*
X125824404Y-90166071D01*
X125919642Y-90142261D01*
X125967261Y-90118452D01*
X126014880Y-90070833D01*
X126038690Y-89999404D01*
X126038690Y-89880357D01*
X125586309Y-90356547D02*
X125562500Y-90380357D01*
X125538690Y-90427976D01*
X125538690Y-90547023D01*
X125562500Y-90594642D01*
X125586309Y-90618452D01*
X125633928Y-90642261D01*
X125681547Y-90642261D01*
X125752976Y-90618452D01*
X126038690Y-90332738D01*
X126038690Y-90642261D01*
X125752976Y-90927976D02*
X125729166Y-90880357D01*
X125705357Y-90856547D01*
X125657738Y-90832738D01*
X125633928Y-90832738D01*
X125586309Y-90856547D01*
X125562500Y-90880357D01*
X125538690Y-90927976D01*
X125538690Y-91023214D01*
X125562500Y-91070833D01*
X125586309Y-91094642D01*
X125633928Y-91118452D01*
X125657738Y-91118452D01*
X125705357Y-91094642D01*
X125729166Y-91070833D01*
X125752976Y-91023214D01*
X125752976Y-90927976D01*
X125776785Y-90880357D01*
X125800595Y-90856547D01*
X125848214Y-90832738D01*
X125943452Y-90832738D01*
X125991071Y-90856547D01*
X126014880Y-90880357D01*
X126038690Y-90927976D01*
X126038690Y-91023214D01*
X126014880Y-91070833D01*
X125991071Y-91094642D01*
X125943452Y-91118452D01*
X125848214Y-91118452D01*
X125800595Y-91094642D01*
X125776785Y-91070833D01*
X125752976Y-91023214D01*
X152232440Y-89880357D02*
X151732440Y-89880357D01*
X151732440Y-89999404D01*
X151756250Y-90070833D01*
X151803869Y-90118452D01*
X151851488Y-90142261D01*
X151946726Y-90166071D01*
X152018154Y-90166071D01*
X152113392Y-90142261D01*
X152161011Y-90118452D01*
X152208630Y-90070833D01*
X152232440Y-89999404D01*
X152232440Y-89880357D01*
X151780059Y-90356547D02*
X151756250Y-90380357D01*
X151732440Y-90427976D01*
X151732440Y-90547023D01*
X151756250Y-90594642D01*
X151780059Y-90618452D01*
X151827678Y-90642261D01*
X151875297Y-90642261D01*
X151946726Y-90618452D01*
X152232440Y-90332738D01*
X152232440Y-90642261D01*
X152232440Y-90880357D02*
X152232440Y-90975595D01*
X152208630Y-91023214D01*
X152184821Y-91047023D01*
X152113392Y-91094642D01*
X152018154Y-91118452D01*
X151827678Y-91118452D01*
X151780059Y-91094642D01*
X151756250Y-91070833D01*
X151732440Y-91023214D01*
X151732440Y-90927976D01*
X151756250Y-90880357D01*
X151780059Y-90856547D01*
X151827678Y-90832738D01*
X151946726Y-90832738D01*
X151994345Y-90856547D01*
X152018154Y-90880357D01*
X152041964Y-90927976D01*
X152041964Y-91023214D01*
X152018154Y-91070833D01*
X151994345Y-91094642D01*
X151946726Y-91118452D01*
X40313690Y-108930357D02*
X39813690Y-108930357D01*
X39813690Y-109049404D01*
X39837500Y-109120833D01*
X39885119Y-109168452D01*
X39932738Y-109192261D01*
X40027976Y-109216071D01*
X40099404Y-109216071D01*
X40194642Y-109192261D01*
X40242261Y-109168452D01*
X40289880Y-109120833D01*
X40313690Y-109049404D01*
X40313690Y-108930357D01*
X39813690Y-109382738D02*
X39813690Y-109692261D01*
X40004166Y-109525595D01*
X40004166Y-109597023D01*
X40027976Y-109644642D01*
X40051785Y-109668452D01*
X40099404Y-109692261D01*
X40218452Y-109692261D01*
X40266071Y-109668452D01*
X40289880Y-109644642D01*
X40313690Y-109597023D01*
X40313690Y-109454166D01*
X40289880Y-109406547D01*
X40266071Y-109382738D01*
X39813690Y-110001785D02*
X39813690Y-110049404D01*
X39837500Y-110097023D01*
X39861309Y-110120833D01*
X39908928Y-110144642D01*
X40004166Y-110168452D01*
X40123214Y-110168452D01*
X40218452Y-110144642D01*
X40266071Y-110120833D01*
X40289880Y-110097023D01*
X40313690Y-110049404D01*
X40313690Y-110001785D01*
X40289880Y-109954166D01*
X40266071Y-109930357D01*
X40218452Y-109906547D01*
X40123214Y-109882738D01*
X40004166Y-109882738D01*
X39908928Y-109906547D01*
X39861309Y-109930357D01*
X39837500Y-109954166D01*
X39813690Y-110001785D01*
X83269940Y-108930357D02*
X82769940Y-108930357D01*
X82769940Y-109049404D01*
X82793750Y-109120833D01*
X82841369Y-109168452D01*
X82888988Y-109192261D01*
X82984226Y-109216071D01*
X83055654Y-109216071D01*
X83150892Y-109192261D01*
X83198511Y-109168452D01*
X83246130Y-109120833D01*
X83269940Y-109049404D01*
X83269940Y-108930357D01*
X82769940Y-109382738D02*
X82769940Y-109692261D01*
X82960416Y-109525595D01*
X82960416Y-109597023D01*
X82984226Y-109644642D01*
X83008035Y-109668452D01*
X83055654Y-109692261D01*
X83174702Y-109692261D01*
X83222321Y-109668452D01*
X83246130Y-109644642D01*
X83269940Y-109597023D01*
X83269940Y-109454166D01*
X83246130Y-109406547D01*
X83222321Y-109382738D01*
X83269940Y-110168452D02*
X83269940Y-109882738D01*
X83269940Y-110025595D02*
X82769940Y-110025595D01*
X82841369Y-109977976D01*
X82888988Y-109930357D01*
X82912797Y-109882738D01*
X106988690Y-108930357D02*
X106488690Y-108930357D01*
X106488690Y-109049404D01*
X106512500Y-109120833D01*
X106560119Y-109168452D01*
X106607738Y-109192261D01*
X106702976Y-109216071D01*
X106774404Y-109216071D01*
X106869642Y-109192261D01*
X106917261Y-109168452D01*
X106964880Y-109120833D01*
X106988690Y-109049404D01*
X106988690Y-108930357D01*
X106488690Y-109382738D02*
X106488690Y-109692261D01*
X106679166Y-109525595D01*
X106679166Y-109597023D01*
X106702976Y-109644642D01*
X106726785Y-109668452D01*
X106774404Y-109692261D01*
X106893452Y-109692261D01*
X106941071Y-109668452D01*
X106964880Y-109644642D01*
X106988690Y-109597023D01*
X106988690Y-109454166D01*
X106964880Y-109406547D01*
X106941071Y-109382738D01*
X106536309Y-109882738D02*
X106512500Y-109906547D01*
X106488690Y-109954166D01*
X106488690Y-110073214D01*
X106512500Y-110120833D01*
X106536309Y-110144642D01*
X106583928Y-110168452D01*
X106631547Y-110168452D01*
X106702976Y-110144642D01*
X106988690Y-109858928D01*
X106988690Y-110168452D01*
X114801190Y-108930357D02*
X114301190Y-108930357D01*
X114301190Y-109049404D01*
X114325000Y-109120833D01*
X114372619Y-109168452D01*
X114420238Y-109192261D01*
X114515476Y-109216071D01*
X114586904Y-109216071D01*
X114682142Y-109192261D01*
X114729761Y-109168452D01*
X114777380Y-109120833D01*
X114801190Y-109049404D01*
X114801190Y-108930357D01*
X114301190Y-109382738D02*
X114301190Y-109692261D01*
X114491666Y-109525595D01*
X114491666Y-109597023D01*
X114515476Y-109644642D01*
X114539285Y-109668452D01*
X114586904Y-109692261D01*
X114705952Y-109692261D01*
X114753571Y-109668452D01*
X114777380Y-109644642D01*
X114801190Y-109597023D01*
X114801190Y-109454166D01*
X114777380Y-109406547D01*
X114753571Y-109382738D01*
X114301190Y-109858928D02*
X114301190Y-110168452D01*
X114491666Y-110001785D01*
X114491666Y-110073214D01*
X114515476Y-110120833D01*
X114539285Y-110144642D01*
X114586904Y-110168452D01*
X114705952Y-110168452D01*
X114753571Y-110144642D01*
X114777380Y-110120833D01*
X114801190Y-110073214D01*
X114801190Y-109930357D01*
X114777380Y-109882738D01*
X114753571Y-109858928D01*
D10*
X69186904Y-29714880D02*
X68615476Y-29714880D01*
X68901190Y-30714880D02*
X68901190Y-29714880D01*
X67710714Y-30714880D02*
X68044047Y-30238690D01*
X68282142Y-30714880D02*
X68282142Y-29714880D01*
X67901190Y-29714880D01*
X67805952Y-29762500D01*
X67758333Y-29810119D01*
X67710714Y-29905357D01*
X67710714Y-30048214D01*
X67758333Y-30143452D01*
X67805952Y-30191071D01*
X67901190Y-30238690D01*
X68282142Y-30238690D01*
X66710714Y-30714880D02*
X67044047Y-30238690D01*
X67282142Y-30714880D02*
X67282142Y-29714880D01*
X66901190Y-29714880D01*
X66805952Y-29762500D01*
X66758333Y-29810119D01*
X66710714Y-29905357D01*
X66710714Y-30048214D01*
X66758333Y-30143452D01*
X66805952Y-30191071D01*
X66901190Y-30238690D01*
X67282142Y-30238690D01*
X66329761Y-30667261D02*
X66186904Y-30714880D01*
X65948809Y-30714880D01*
X65853571Y-30667261D01*
X65805952Y-30619642D01*
X65758333Y-30524404D01*
X65758333Y-30429166D01*
X65805952Y-30333928D01*
X65853571Y-30286309D01*
X65948809Y-30238690D01*
X66139285Y-30191071D01*
X66234523Y-30143452D01*
X66282142Y-30095833D01*
X66329761Y-30000595D01*
X66329761Y-29905357D01*
X66282142Y-29810119D01*
X66234523Y-29762500D01*
X66139285Y-29714880D01*
X65901190Y-29714880D01*
X65758333Y-29762500D01*
X41508333Y-77664880D02*
X41175000Y-78664880D01*
X40841666Y-77664880D01*
X39936904Y-78569642D02*
X39984523Y-78617261D01*
X40127380Y-78664880D01*
X40222619Y-78664880D01*
X40365476Y-78617261D01*
X40460714Y-78522023D01*
X40508333Y-78426785D01*
X40555952Y-78236309D01*
X40555952Y-78093452D01*
X40508333Y-77902976D01*
X40460714Y-77807738D01*
X40365476Y-77712500D01*
X40222619Y-77664880D01*
X40127380Y-77664880D01*
X39984523Y-77712500D01*
X39936904Y-77760119D01*
X38936904Y-78569642D02*
X38984523Y-78617261D01*
X39127380Y-78664880D01*
X39222619Y-78664880D01*
X39365476Y-78617261D01*
X39460714Y-78522023D01*
X39508333Y-78426785D01*
X39555952Y-78236309D01*
X39555952Y-78093452D01*
X39508333Y-77902976D01*
X39460714Y-77807738D01*
X39365476Y-77712500D01*
X39222619Y-77664880D01*
X39127380Y-77664880D01*
X38984523Y-77712500D01*
X38936904Y-77760119D01*
X40795357Y-80954880D02*
X41271547Y-80954880D01*
X41271547Y-79954880D01*
X40462023Y-80431071D02*
X40128690Y-80431071D01*
X39985833Y-80954880D02*
X40462023Y-80954880D01*
X40462023Y-79954880D01*
X39985833Y-79954880D01*
X39557261Y-80954880D02*
X39557261Y-79954880D01*
X39319166Y-79954880D01*
X39176309Y-80002500D01*
X39081071Y-80097738D01*
X39033452Y-80192976D01*
X38985833Y-80383452D01*
X38985833Y-80526309D01*
X39033452Y-80716785D01*
X39081071Y-80812023D01*
X39176309Y-80907261D01*
X39319166Y-80954880D01*
X39557261Y-80954880D01*
X41036904Y-82512500D02*
X41132142Y-82464880D01*
X41275000Y-82464880D01*
X41417857Y-82512500D01*
X41513095Y-82607738D01*
X41560714Y-82702976D01*
X41608333Y-82893452D01*
X41608333Y-83036309D01*
X41560714Y-83226785D01*
X41513095Y-83322023D01*
X41417857Y-83417261D01*
X41275000Y-83464880D01*
X41179761Y-83464880D01*
X41036904Y-83417261D01*
X40989285Y-83369642D01*
X40989285Y-83036309D01*
X41179761Y-83036309D01*
X40560714Y-83464880D02*
X40560714Y-82464880D01*
X39989285Y-83464880D01*
X39989285Y-82464880D01*
X39513095Y-83464880D02*
X39513095Y-82464880D01*
X39275000Y-82464880D01*
X39132142Y-82512500D01*
X39036904Y-82607738D01*
X38989285Y-82702976D01*
X38941666Y-82893452D01*
X38941666Y-83036309D01*
X38989285Y-83226785D01*
X39036904Y-83322023D01*
X39132142Y-83417261D01*
X39275000Y-83464880D01*
X39513095Y-83464880D01*
X178996130Y-69985119D02*
X178519940Y-69651785D01*
X178996130Y-69413690D02*
X177996130Y-69413690D01*
X177996130Y-69794642D01*
X178043750Y-69889880D01*
X178091369Y-69937500D01*
X178186607Y-69985119D01*
X178329464Y-69985119D01*
X178424702Y-69937500D01*
X178472321Y-69889880D01*
X178519940Y-69794642D01*
X178519940Y-69413690D01*
X178472321Y-70413690D02*
X178472321Y-70747023D01*
X178996130Y-70889880D02*
X178996130Y-70413690D01*
X177996130Y-70413690D01*
X177996130Y-70889880D01*
X178948511Y-71270833D02*
X178996130Y-71413690D01*
X178996130Y-71651785D01*
X178948511Y-71747023D01*
X178900892Y-71794642D01*
X178805654Y-71842261D01*
X178710416Y-71842261D01*
X178615178Y-71794642D01*
X178567559Y-71747023D01*
X178519940Y-71651785D01*
X178472321Y-71461309D01*
X178424702Y-71366071D01*
X178377083Y-71318452D01*
X178281845Y-71270833D01*
X178186607Y-71270833D01*
X178091369Y-71318452D01*
X178043750Y-71366071D01*
X177996130Y-71461309D01*
X177996130Y-71699404D01*
X178043750Y-71842261D01*
X178472321Y-72270833D02*
X178472321Y-72604166D01*
X178996130Y-72747023D02*
X178996130Y-72270833D01*
X177996130Y-72270833D01*
X177996130Y-72747023D01*
X177996130Y-73032738D02*
X177996130Y-73604166D01*
X178996130Y-73318452D02*
X177996130Y-73318452D01*
D11*
X159046214Y-47768452D02*
X159403357Y-47935119D01*
X159046214Y-48054166D02*
X159796214Y-48054166D01*
X159796214Y-47863690D01*
X159760500Y-47816071D01*
X159724785Y-47792261D01*
X159653357Y-47768452D01*
X159546214Y-47768452D01*
X159474785Y-47792261D01*
X159439071Y-47816071D01*
X159403357Y-47863690D01*
X159403357Y-48054166D01*
X159796214Y-47458928D02*
X159796214Y-47363690D01*
X159760500Y-47316071D01*
X159689071Y-47268452D01*
X159546214Y-47244642D01*
X159296214Y-47244642D01*
X159153357Y-47268452D01*
X159081928Y-47316071D01*
X159046214Y-47363690D01*
X159046214Y-47458928D01*
X159081928Y-47506547D01*
X159153357Y-47554166D01*
X159296214Y-47577976D01*
X159546214Y-47577976D01*
X159689071Y-47554166D01*
X159760500Y-47506547D01*
X159796214Y-47458928D01*
X159796214Y-47077976D02*
X159046214Y-46958928D01*
X159581928Y-46863690D01*
X159046214Y-46768452D01*
X159796214Y-46649404D01*
X159046214Y-46197023D02*
X159046214Y-46482738D01*
X159046214Y-46339880D02*
X159796214Y-46339880D01*
X159689071Y-46387500D01*
X159617642Y-46435119D01*
X159581928Y-46482738D01*
X156569642Y-62885119D02*
X156533928Y-62908928D01*
X156498214Y-62980357D01*
X156498214Y-63027976D01*
X156533928Y-63099404D01*
X156605357Y-63147023D01*
X156676785Y-63170833D01*
X156819642Y-63194642D01*
X156926785Y-63194642D01*
X157069642Y-63170833D01*
X157141071Y-63147023D01*
X157212500Y-63099404D01*
X157248214Y-63027976D01*
X157248214Y-62980357D01*
X157212500Y-62908928D01*
X157176785Y-62885119D01*
X157248214Y-62575595D02*
X157248214Y-62480357D01*
X157212500Y-62432738D01*
X157141071Y-62385119D01*
X156998214Y-62361309D01*
X156748214Y-62361309D01*
X156605357Y-62385119D01*
X156533928Y-62432738D01*
X156498214Y-62480357D01*
X156498214Y-62575595D01*
X156533928Y-62623214D01*
X156605357Y-62670833D01*
X156748214Y-62694642D01*
X156998214Y-62694642D01*
X157141071Y-62670833D01*
X157212500Y-62623214D01*
X157248214Y-62575595D01*
X156498214Y-61908928D02*
X156498214Y-62147023D01*
X157248214Y-62147023D01*
X156998214Y-61527976D02*
X156498214Y-61527976D01*
X157283928Y-61647023D02*
X156748214Y-61766071D01*
X156748214Y-61456547D01*
X156498214Y-47818452D02*
X156855357Y-47985119D01*
X156498214Y-48104166D02*
X157248214Y-48104166D01*
X157248214Y-47913690D01*
X157212500Y-47866071D01*
X157176785Y-47842261D01*
X157105357Y-47818452D01*
X156998214Y-47818452D01*
X156926785Y-47842261D01*
X156891071Y-47866071D01*
X156855357Y-47913690D01*
X156855357Y-48104166D01*
X157248214Y-47508928D02*
X157248214Y-47413690D01*
X157212500Y-47366071D01*
X157141071Y-47318452D01*
X156998214Y-47294642D01*
X156748214Y-47294642D01*
X156605357Y-47318452D01*
X156533928Y-47366071D01*
X156498214Y-47413690D01*
X156498214Y-47508928D01*
X156533928Y-47556547D01*
X156605357Y-47604166D01*
X156748214Y-47627976D01*
X156998214Y-47627976D01*
X157141071Y-47604166D01*
X157212500Y-47556547D01*
X157248214Y-47508928D01*
X157248214Y-47127976D02*
X156498214Y-47008928D01*
X157033928Y-46913690D01*
X156498214Y-46818452D01*
X157248214Y-46699404D01*
X157176785Y-46532738D02*
X157212500Y-46508928D01*
X157248214Y-46461309D01*
X157248214Y-46342261D01*
X157212500Y-46294642D01*
X157176785Y-46270833D01*
X157105357Y-46247023D01*
X157033928Y-46247023D01*
X156926785Y-46270833D01*
X156498214Y-46556547D01*
X156498214Y-46247023D01*
X153974142Y-62885119D02*
X153938428Y-62908928D01*
X153902714Y-62980357D01*
X153902714Y-63027976D01*
X153938428Y-63099404D01*
X154009857Y-63147023D01*
X154081285Y-63170833D01*
X154224142Y-63194642D01*
X154331285Y-63194642D01*
X154474142Y-63170833D01*
X154545571Y-63147023D01*
X154617000Y-63099404D01*
X154652714Y-63027976D01*
X154652714Y-62980357D01*
X154617000Y-62908928D01*
X154581285Y-62885119D01*
X154652714Y-62575595D02*
X154652714Y-62480357D01*
X154617000Y-62432738D01*
X154545571Y-62385119D01*
X154402714Y-62361309D01*
X154152714Y-62361309D01*
X154009857Y-62385119D01*
X153938428Y-62432738D01*
X153902714Y-62480357D01*
X153902714Y-62575595D01*
X153938428Y-62623214D01*
X154009857Y-62670833D01*
X154152714Y-62694642D01*
X154402714Y-62694642D01*
X154545571Y-62670833D01*
X154617000Y-62623214D01*
X154652714Y-62575595D01*
X153902714Y-61908928D02*
X153902714Y-62147023D01*
X154652714Y-62147023D01*
X154652714Y-61504166D02*
X154652714Y-61742261D01*
X154295571Y-61766071D01*
X154331285Y-61742261D01*
X154367000Y-61694642D01*
X154367000Y-61575595D01*
X154331285Y-61527976D01*
X154295571Y-61504166D01*
X154224142Y-61480357D01*
X154045571Y-61480357D01*
X153974142Y-61504166D01*
X153938428Y-61527976D01*
X153902714Y-61575595D01*
X153902714Y-61694642D01*
X153938428Y-61742261D01*
X153974142Y-61766071D01*
X153902714Y-47818452D02*
X154259857Y-47985119D01*
X153902714Y-48104166D02*
X154652714Y-48104166D01*
X154652714Y-47913690D01*
X154617000Y-47866071D01*
X154581285Y-47842261D01*
X154509857Y-47818452D01*
X154402714Y-47818452D01*
X154331285Y-47842261D01*
X154295571Y-47866071D01*
X154259857Y-47913690D01*
X154259857Y-48104166D01*
X154652714Y-47508928D02*
X154652714Y-47413690D01*
X154617000Y-47366071D01*
X154545571Y-47318452D01*
X154402714Y-47294642D01*
X154152714Y-47294642D01*
X154009857Y-47318452D01*
X153938428Y-47366071D01*
X153902714Y-47413690D01*
X153902714Y-47508928D01*
X153938428Y-47556547D01*
X154009857Y-47604166D01*
X154152714Y-47627976D01*
X154402714Y-47627976D01*
X154545571Y-47604166D01*
X154617000Y-47556547D01*
X154652714Y-47508928D01*
X154652714Y-47127976D02*
X153902714Y-47008928D01*
X154438428Y-46913690D01*
X153902714Y-46818452D01*
X154652714Y-46699404D01*
X154652714Y-46556547D02*
X154652714Y-46247023D01*
X154367000Y-46413690D01*
X154367000Y-46342261D01*
X154331285Y-46294642D01*
X154295571Y-46270833D01*
X154224142Y-46247023D01*
X154045571Y-46247023D01*
X153974142Y-46270833D01*
X153938428Y-46294642D01*
X153902714Y-46342261D01*
X153902714Y-46485119D01*
X153938428Y-46532738D01*
X153974142Y-46556547D01*
X151791071Y-62539880D02*
X151755357Y-62468452D01*
X151719642Y-62444642D01*
X151648214Y-62420833D01*
X151541071Y-62420833D01*
X151469642Y-62444642D01*
X151433928Y-62468452D01*
X151398214Y-62516071D01*
X151398214Y-62706547D01*
X152148214Y-62706547D01*
X152148214Y-62539880D01*
X152112500Y-62492261D01*
X152076785Y-62468452D01*
X152005357Y-62444642D01*
X151933928Y-62444642D01*
X151862500Y-62468452D01*
X151826785Y-62492261D01*
X151791071Y-62539880D01*
X151791071Y-62706547D01*
X152076785Y-62230357D02*
X152112500Y-62206547D01*
X152148214Y-62158928D01*
X152148214Y-62039880D01*
X152112500Y-61992261D01*
X152076785Y-61968452D01*
X152005357Y-61944642D01*
X151933928Y-61944642D01*
X151826785Y-61968452D01*
X151398214Y-62254166D01*
X151398214Y-61944642D01*
X151819071Y-47389880D02*
X151783357Y-47318452D01*
X151747642Y-47294642D01*
X151676214Y-47270833D01*
X151569071Y-47270833D01*
X151497642Y-47294642D01*
X151461928Y-47318452D01*
X151426214Y-47366071D01*
X151426214Y-47556547D01*
X152176214Y-47556547D01*
X152176214Y-47389880D01*
X152140500Y-47342261D01*
X152104785Y-47318452D01*
X152033357Y-47294642D01*
X151961928Y-47294642D01*
X151890500Y-47318452D01*
X151854785Y-47342261D01*
X151819071Y-47389880D01*
X151819071Y-47556547D01*
X151926214Y-46842261D02*
X151426214Y-46842261D01*
X152211928Y-46961309D02*
X151676214Y-47080357D01*
X151676214Y-46770833D01*
X149215571Y-47389880D02*
X149179857Y-47318452D01*
X149144142Y-47294642D01*
X149072714Y-47270833D01*
X148965571Y-47270833D01*
X148894142Y-47294642D01*
X148858428Y-47318452D01*
X148822714Y-47366071D01*
X148822714Y-47556547D01*
X149572714Y-47556547D01*
X149572714Y-47389880D01*
X149537000Y-47342261D01*
X149501285Y-47318452D01*
X149429857Y-47294642D01*
X149358428Y-47294642D01*
X149287000Y-47318452D01*
X149251285Y-47342261D01*
X149215571Y-47389880D01*
X149215571Y-47556547D01*
X149572714Y-46818452D02*
X149572714Y-47056547D01*
X149215571Y-47080357D01*
X149251285Y-47056547D01*
X149287000Y-47008928D01*
X149287000Y-46889880D01*
X149251285Y-46842261D01*
X149215571Y-46818452D01*
X149144142Y-46794642D01*
X148965571Y-46794642D01*
X148894142Y-46818452D01*
X148858428Y-46842261D01*
X148822714Y-46889880D01*
X148822714Y-47008928D01*
X148858428Y-47056547D01*
X148894142Y-47080357D01*
X149241071Y-62639880D02*
X149205357Y-62568452D01*
X149169642Y-62544642D01*
X149098214Y-62520833D01*
X148991071Y-62520833D01*
X148919642Y-62544642D01*
X148883928Y-62568452D01*
X148848214Y-62616071D01*
X148848214Y-62806547D01*
X149598214Y-62806547D01*
X149598214Y-62639880D01*
X149562500Y-62592261D01*
X149526785Y-62568452D01*
X149455357Y-62544642D01*
X149383928Y-62544642D01*
X149312500Y-62568452D01*
X149276785Y-62592261D01*
X149241071Y-62639880D01*
X149241071Y-62806547D01*
X149598214Y-62092261D02*
X149598214Y-62187500D01*
X149562500Y-62235119D01*
X149526785Y-62258928D01*
X149419642Y-62306547D01*
X149276785Y-62330357D01*
X148991071Y-62330357D01*
X148919642Y-62306547D01*
X148883928Y-62282738D01*
X148848214Y-62235119D01*
X148848214Y-62139880D01*
X148883928Y-62092261D01*
X148919642Y-62068452D01*
X148991071Y-62044642D01*
X149169642Y-62044642D01*
X149241071Y-62068452D01*
X149276785Y-62092261D01*
X149312500Y-62139880D01*
X149312500Y-62235119D01*
X149276785Y-62282738D01*
X149241071Y-62306547D01*
X149169642Y-62330357D01*
X166719642Y-62835119D02*
X166683928Y-62858928D01*
X166648214Y-62930357D01*
X166648214Y-62977976D01*
X166683928Y-63049404D01*
X166755357Y-63097023D01*
X166826785Y-63120833D01*
X166969642Y-63144642D01*
X167076785Y-63144642D01*
X167219642Y-63120833D01*
X167291071Y-63097023D01*
X167362500Y-63049404D01*
X167398214Y-62977976D01*
X167398214Y-62930357D01*
X167362500Y-62858928D01*
X167326785Y-62835119D01*
X167398214Y-62525595D02*
X167398214Y-62430357D01*
X167362500Y-62382738D01*
X167291071Y-62335119D01*
X167148214Y-62311309D01*
X166898214Y-62311309D01*
X166755357Y-62335119D01*
X166683928Y-62382738D01*
X166648214Y-62430357D01*
X166648214Y-62525595D01*
X166683928Y-62573214D01*
X166755357Y-62620833D01*
X166898214Y-62644642D01*
X167148214Y-62644642D01*
X167291071Y-62620833D01*
X167362500Y-62573214D01*
X167398214Y-62525595D01*
X166648214Y-61858928D02*
X166648214Y-62097023D01*
X167398214Y-62097023D01*
X167398214Y-61597023D02*
X167398214Y-61549404D01*
X167362500Y-61501785D01*
X167326785Y-61477976D01*
X167255357Y-61454166D01*
X167112500Y-61430357D01*
X166933928Y-61430357D01*
X166791071Y-61454166D01*
X166719642Y-61477976D01*
X166683928Y-61501785D01*
X166648214Y-61549404D01*
X166648214Y-61597023D01*
X166683928Y-61644642D01*
X166719642Y-61668452D01*
X166791071Y-61692261D01*
X166933928Y-61716071D01*
X167112500Y-61716071D01*
X167255357Y-61692261D01*
X167326785Y-61668452D01*
X167362500Y-61644642D01*
X167398214Y-61597023D01*
X166701928Y-47533642D02*
X166666214Y-47462214D01*
X166666214Y-47343166D01*
X166701928Y-47295547D01*
X166737642Y-47271738D01*
X166809071Y-47247928D01*
X166880500Y-47247928D01*
X166951928Y-47271738D01*
X166987642Y-47295547D01*
X167023357Y-47343166D01*
X167059071Y-47438404D01*
X167094785Y-47486023D01*
X167130500Y-47509833D01*
X167201928Y-47533642D01*
X167273357Y-47533642D01*
X167344785Y-47509833D01*
X167380500Y-47486023D01*
X167416214Y-47438404D01*
X167416214Y-47319357D01*
X167380500Y-47247928D01*
X166666214Y-47033642D02*
X167416214Y-47033642D01*
X167416214Y-46914595D01*
X167380500Y-46843166D01*
X167309071Y-46795547D01*
X167237642Y-46771738D01*
X167094785Y-46747928D01*
X166987642Y-46747928D01*
X166844785Y-46771738D01*
X166773357Y-46795547D01*
X166701928Y-46843166D01*
X166666214Y-46914595D01*
X166666214Y-47033642D01*
X166880500Y-46557452D02*
X166880500Y-46319357D01*
X166666214Y-46605071D02*
X167416214Y-46438404D01*
X166666214Y-46271738D01*
X164197642Y-62785119D02*
X164161928Y-62808928D01*
X164126214Y-62880357D01*
X164126214Y-62927976D01*
X164161928Y-62999404D01*
X164233357Y-63047023D01*
X164304785Y-63070833D01*
X164447642Y-63094642D01*
X164554785Y-63094642D01*
X164697642Y-63070833D01*
X164769071Y-63047023D01*
X164840500Y-62999404D01*
X164876214Y-62927976D01*
X164876214Y-62880357D01*
X164840500Y-62808928D01*
X164804785Y-62785119D01*
X164876214Y-62475595D02*
X164876214Y-62380357D01*
X164840500Y-62332738D01*
X164769071Y-62285119D01*
X164626214Y-62261309D01*
X164376214Y-62261309D01*
X164233357Y-62285119D01*
X164161928Y-62332738D01*
X164126214Y-62380357D01*
X164126214Y-62475595D01*
X164161928Y-62523214D01*
X164233357Y-62570833D01*
X164376214Y-62594642D01*
X164626214Y-62594642D01*
X164769071Y-62570833D01*
X164840500Y-62523214D01*
X164876214Y-62475595D01*
X164126214Y-61808928D02*
X164126214Y-62047023D01*
X164876214Y-62047023D01*
X164126214Y-61380357D02*
X164126214Y-61666071D01*
X164126214Y-61523214D02*
X164876214Y-61523214D01*
X164769071Y-61570833D01*
X164697642Y-61618452D01*
X164661928Y-61666071D01*
X164161928Y-47521738D02*
X164126214Y-47450309D01*
X164126214Y-47331261D01*
X164161928Y-47283642D01*
X164197642Y-47259833D01*
X164269071Y-47236023D01*
X164340500Y-47236023D01*
X164411928Y-47259833D01*
X164447642Y-47283642D01*
X164483357Y-47331261D01*
X164519071Y-47426500D01*
X164554785Y-47474119D01*
X164590500Y-47497928D01*
X164661928Y-47521738D01*
X164733357Y-47521738D01*
X164804785Y-47497928D01*
X164840500Y-47474119D01*
X164876214Y-47426500D01*
X164876214Y-47307452D01*
X164840500Y-47236023D01*
X164197642Y-46736023D02*
X164161928Y-46759833D01*
X164126214Y-46831261D01*
X164126214Y-46878880D01*
X164161928Y-46950309D01*
X164233357Y-46997928D01*
X164304785Y-47021738D01*
X164447642Y-47045547D01*
X164554785Y-47045547D01*
X164697642Y-47021738D01*
X164769071Y-46997928D01*
X164840500Y-46950309D01*
X164876214Y-46878880D01*
X164876214Y-46831261D01*
X164840500Y-46759833D01*
X164804785Y-46736023D01*
X164126214Y-46283642D02*
X164126214Y-46521738D01*
X164876214Y-46521738D01*
X161657642Y-62835119D02*
X161621928Y-62858928D01*
X161586214Y-62930357D01*
X161586214Y-62977976D01*
X161621928Y-63049404D01*
X161693357Y-63097023D01*
X161764785Y-63120833D01*
X161907642Y-63144642D01*
X162014785Y-63144642D01*
X162157642Y-63120833D01*
X162229071Y-63097023D01*
X162300500Y-63049404D01*
X162336214Y-62977976D01*
X162336214Y-62930357D01*
X162300500Y-62858928D01*
X162264785Y-62835119D01*
X162336214Y-62525595D02*
X162336214Y-62430357D01*
X162300500Y-62382738D01*
X162229071Y-62335119D01*
X162086214Y-62311309D01*
X161836214Y-62311309D01*
X161693357Y-62335119D01*
X161621928Y-62382738D01*
X161586214Y-62430357D01*
X161586214Y-62525595D01*
X161621928Y-62573214D01*
X161693357Y-62620833D01*
X161836214Y-62644642D01*
X162086214Y-62644642D01*
X162229071Y-62620833D01*
X162300500Y-62573214D01*
X162336214Y-62525595D01*
X161586214Y-61858928D02*
X161586214Y-62097023D01*
X162336214Y-62097023D01*
X162264785Y-61716071D02*
X162300500Y-61692261D01*
X162336214Y-61644642D01*
X162336214Y-61525595D01*
X162300500Y-61477976D01*
X162264785Y-61454166D01*
X162193357Y-61430357D01*
X162121928Y-61430357D01*
X162014785Y-61454166D01*
X161586214Y-61739880D01*
X161586214Y-61430357D01*
X161548214Y-47818452D02*
X161905357Y-47985119D01*
X161548214Y-48104166D02*
X162298214Y-48104166D01*
X162298214Y-47913690D01*
X162262500Y-47866071D01*
X162226785Y-47842261D01*
X162155357Y-47818452D01*
X162048214Y-47818452D01*
X161976785Y-47842261D01*
X161941071Y-47866071D01*
X161905357Y-47913690D01*
X161905357Y-48104166D01*
X162298214Y-47508928D02*
X162298214Y-47413690D01*
X162262500Y-47366071D01*
X162191071Y-47318452D01*
X162048214Y-47294642D01*
X161798214Y-47294642D01*
X161655357Y-47318452D01*
X161583928Y-47366071D01*
X161548214Y-47413690D01*
X161548214Y-47508928D01*
X161583928Y-47556547D01*
X161655357Y-47604166D01*
X161798214Y-47627976D01*
X162048214Y-47627976D01*
X162191071Y-47604166D01*
X162262500Y-47556547D01*
X162298214Y-47508928D01*
X162298214Y-47127976D02*
X161548214Y-47008928D01*
X162083928Y-46913690D01*
X161548214Y-46818452D01*
X162298214Y-46699404D01*
X162298214Y-46413690D02*
X162298214Y-46366071D01*
X162262500Y-46318452D01*
X162226785Y-46294642D01*
X162155357Y-46270833D01*
X162012500Y-46247023D01*
X161833928Y-46247023D01*
X161691071Y-46270833D01*
X161619642Y-46294642D01*
X161583928Y-46318452D01*
X161548214Y-46366071D01*
X161548214Y-46413690D01*
X161583928Y-46461309D01*
X161619642Y-46485119D01*
X161691071Y-46508928D01*
X161833928Y-46532738D01*
X162012500Y-46532738D01*
X162155357Y-46508928D01*
X162226785Y-46485119D01*
X162262500Y-46461309D01*
X162298214Y-46413690D01*
X159069642Y-62935119D02*
X159033928Y-62958928D01*
X158998214Y-63030357D01*
X158998214Y-63077976D01*
X159033928Y-63149404D01*
X159105357Y-63197023D01*
X159176785Y-63220833D01*
X159319642Y-63244642D01*
X159426785Y-63244642D01*
X159569642Y-63220833D01*
X159641071Y-63197023D01*
X159712500Y-63149404D01*
X159748214Y-63077976D01*
X159748214Y-63030357D01*
X159712500Y-62958928D01*
X159676785Y-62935119D01*
X159748214Y-62625595D02*
X159748214Y-62530357D01*
X159712500Y-62482738D01*
X159641071Y-62435119D01*
X159498214Y-62411309D01*
X159248214Y-62411309D01*
X159105357Y-62435119D01*
X159033928Y-62482738D01*
X158998214Y-62530357D01*
X158998214Y-62625595D01*
X159033928Y-62673214D01*
X159105357Y-62720833D01*
X159248214Y-62744642D01*
X159498214Y-62744642D01*
X159641071Y-62720833D01*
X159712500Y-62673214D01*
X159748214Y-62625595D01*
X158998214Y-61958928D02*
X158998214Y-62197023D01*
X159748214Y-62197023D01*
X159748214Y-61839880D02*
X159748214Y-61530357D01*
X159462500Y-61697023D01*
X159462500Y-61625595D01*
X159426785Y-61577976D01*
X159391071Y-61554166D01*
X159319642Y-61530357D01*
X159141071Y-61530357D01*
X159069642Y-61554166D01*
X159033928Y-61577976D01*
X158998214Y-61625595D01*
X158998214Y-61768452D01*
X159033928Y-61816071D01*
X159069642Y-61839880D01*
X169857000Y-47307452D02*
X169892714Y-47355071D01*
X169892714Y-47426500D01*
X169857000Y-47497928D01*
X169785571Y-47545547D01*
X169714142Y-47569357D01*
X169571285Y-47593166D01*
X169464142Y-47593166D01*
X169321285Y-47569357D01*
X169249857Y-47545547D01*
X169178428Y-47497928D01*
X169142714Y-47426500D01*
X169142714Y-47378880D01*
X169178428Y-47307452D01*
X169214142Y-47283642D01*
X169464142Y-47283642D01*
X169464142Y-47378880D01*
X169142714Y-47069357D02*
X169892714Y-47069357D01*
X169142714Y-46783642D01*
X169892714Y-46783642D01*
X169142714Y-46545547D02*
X169892714Y-46545547D01*
X169892714Y-46426500D01*
X169857000Y-46355071D01*
X169785571Y-46307452D01*
X169714142Y-46283642D01*
X169571285Y-46259833D01*
X169464142Y-46259833D01*
X169321285Y-46283642D01*
X169249857Y-46307452D01*
X169178428Y-46355071D01*
X169142714Y-46426500D01*
X169142714Y-46545547D01*
X169956214Y-62769666D02*
X169206214Y-62603000D01*
X169956214Y-62436333D01*
X169277642Y-61983952D02*
X169241928Y-62007761D01*
X169206214Y-62079190D01*
X169206214Y-62126809D01*
X169241928Y-62198238D01*
X169313357Y-62245857D01*
X169384785Y-62269666D01*
X169527642Y-62293476D01*
X169634785Y-62293476D01*
X169777642Y-62269666D01*
X169849071Y-62245857D01*
X169920500Y-62198238D01*
X169956214Y-62126809D01*
X169956214Y-62079190D01*
X169920500Y-62007761D01*
X169884785Y-61983952D01*
X169277642Y-61483952D02*
X169241928Y-61507761D01*
X169206214Y-61579190D01*
X169206214Y-61626809D01*
X169241928Y-61698238D01*
X169313357Y-61745857D01*
X169384785Y-61769666D01*
X169527642Y-61793476D01*
X169634785Y-61793476D01*
X169777642Y-61769666D01*
X169849071Y-61745857D01*
X169920500Y-61698238D01*
X169956214Y-61626809D01*
X169956214Y-61579190D01*
X169920500Y-61507761D01*
X169884785Y-61483952D01*
X172397000Y-47243952D02*
X172432714Y-47291571D01*
X172432714Y-47363000D01*
X172397000Y-47434428D01*
X172325571Y-47482047D01*
X172254142Y-47505857D01*
X172111285Y-47529666D01*
X172004142Y-47529666D01*
X171861285Y-47505857D01*
X171789857Y-47482047D01*
X171718428Y-47434428D01*
X171682714Y-47363000D01*
X171682714Y-47315380D01*
X171718428Y-47243952D01*
X171754142Y-47220142D01*
X172004142Y-47220142D01*
X172004142Y-47315380D01*
X171682714Y-47005857D02*
X172432714Y-47005857D01*
X171682714Y-46720142D01*
X172432714Y-46720142D01*
X171682714Y-46482047D02*
X172432714Y-46482047D01*
X172432714Y-46363000D01*
X172397000Y-46291571D01*
X172325571Y-46243952D01*
X172254142Y-46220142D01*
X172111285Y-46196333D01*
X172004142Y-46196333D01*
X171861285Y-46220142D01*
X171789857Y-46243952D01*
X171718428Y-46291571D01*
X171682714Y-46363000D01*
X171682714Y-46482047D01*
X171682714Y-62376809D02*
X172039857Y-62543476D01*
X171682714Y-62662523D02*
X172432714Y-62662523D01*
X172432714Y-62472047D01*
X172397000Y-62424428D01*
X172361285Y-62400619D01*
X172289857Y-62376809D01*
X172182714Y-62376809D01*
X172111285Y-62400619D01*
X172075571Y-62424428D01*
X172039857Y-62472047D01*
X172039857Y-62662523D01*
X171718428Y-62186333D02*
X171682714Y-62114904D01*
X171682714Y-61995857D01*
X171718428Y-61948238D01*
X171754142Y-61924428D01*
X171825571Y-61900619D01*
X171897000Y-61900619D01*
X171968428Y-61924428D01*
X172004142Y-61948238D01*
X172039857Y-61995857D01*
X172075571Y-62091095D01*
X172111285Y-62138714D01*
X172147000Y-62162523D01*
X172218428Y-62186333D01*
X172289857Y-62186333D01*
X172361285Y-62162523D01*
X172397000Y-62138714D01*
X172432714Y-62091095D01*
X172432714Y-61972047D01*
X172397000Y-61900619D01*
X172432714Y-61757761D02*
X172432714Y-61472047D01*
X171682714Y-61614904D02*
X172432714Y-61614904D01*
X174298214Y-47787500D02*
X175048214Y-47787500D01*
X175048214Y-47668452D01*
X175012500Y-47597023D01*
X174941071Y-47549404D01*
X174869642Y-47525595D01*
X174726785Y-47501785D01*
X174619642Y-47501785D01*
X174476785Y-47525595D01*
X174405357Y-47549404D01*
X174333928Y-47597023D01*
X174298214Y-47668452D01*
X174298214Y-47787500D01*
X174512500Y-47311309D02*
X174512500Y-47073214D01*
X174298214Y-47358928D02*
X175048214Y-47192261D01*
X174298214Y-47025595D01*
X175048214Y-46930357D02*
X175048214Y-46644642D01*
X174298214Y-46787500D02*
X175048214Y-46787500D01*
X174512500Y-46501785D02*
X174512500Y-46263690D01*
X174298214Y-46549404D02*
X175048214Y-46382738D01*
X174298214Y-46216071D01*
X175000500Y-62483952D02*
X175036214Y-62531571D01*
X175036214Y-62603000D01*
X175000500Y-62674428D01*
X174929071Y-62722047D01*
X174857642Y-62745857D01*
X174714785Y-62769666D01*
X174607642Y-62769666D01*
X174464785Y-62745857D01*
X174393357Y-62722047D01*
X174321928Y-62674428D01*
X174286214Y-62603000D01*
X174286214Y-62555380D01*
X174321928Y-62483952D01*
X174357642Y-62460142D01*
X174607642Y-62460142D01*
X174607642Y-62555380D01*
X174286214Y-62245857D02*
X175036214Y-62245857D01*
X174286214Y-61960142D01*
X175036214Y-61960142D01*
X174286214Y-61722047D02*
X175036214Y-61722047D01*
X175036214Y-61603000D01*
X175000500Y-61531571D01*
X174929071Y-61483952D01*
X174857642Y-61460142D01*
X174714785Y-61436333D01*
X174607642Y-61436333D01*
X174464785Y-61460142D01*
X174393357Y-61483952D01*
X174321928Y-61531571D01*
X174286214Y-61603000D01*
X174286214Y-61722047D01*
X176826214Y-47208928D02*
X176826214Y-47447023D01*
X177576214Y-47447023D01*
X177219071Y-47042261D02*
X177219071Y-46875595D01*
X176826214Y-46804166D02*
X176826214Y-47042261D01*
X177576214Y-47042261D01*
X177576214Y-46804166D01*
X176826214Y-46589880D02*
X177576214Y-46589880D01*
X177576214Y-46470833D01*
X177540500Y-46399404D01*
X177469071Y-46351785D01*
X177397642Y-46327976D01*
X177254785Y-46304166D01*
X177147642Y-46304166D01*
X177004785Y-46327976D01*
X176933357Y-46351785D01*
X176861928Y-46399404D01*
X176826214Y-46470833D01*
X176826214Y-46589880D01*
X176826214Y-62448238D02*
X177183357Y-62614904D01*
X176826214Y-62733952D02*
X177576214Y-62733952D01*
X177576214Y-62543476D01*
X177540500Y-62495857D01*
X177504785Y-62472047D01*
X177433357Y-62448238D01*
X177326214Y-62448238D01*
X177254785Y-62472047D01*
X177219071Y-62495857D01*
X177183357Y-62543476D01*
X177183357Y-62733952D01*
X177040500Y-62257761D02*
X177040500Y-62019666D01*
X176826214Y-62305380D02*
X177576214Y-62138714D01*
X176826214Y-61972047D01*
X177576214Y-61853000D02*
X176826214Y-61733952D01*
X177361928Y-61638714D01*
X176826214Y-61543476D01*
X177576214Y-61424428D01*
D10*
D11*
X162376190Y-89880357D02*
X161876190Y-89880357D01*
X161876190Y-89999404D01*
X161900000Y-90070833D01*
X161947619Y-90118452D01*
X161995238Y-90142261D01*
X162090476Y-90166071D01*
X162161904Y-90166071D01*
X162257142Y-90142261D01*
X162304761Y-90118452D01*
X162352380Y-90070833D01*
X162376190Y-89999404D01*
X162376190Y-89880357D01*
X161876190Y-90332738D02*
X161876190Y-90642261D01*
X162066666Y-90475595D01*
X162066666Y-90547023D01*
X162090476Y-90594642D01*
X162114285Y-90618452D01*
X162161904Y-90642261D01*
X162280952Y-90642261D01*
X162328571Y-90618452D01*
X162352380Y-90594642D01*
X162376190Y-90547023D01*
X162376190Y-90404166D01*
X162352380Y-90356547D01*
X162328571Y-90332738D01*
X162042857Y-91070833D02*
X162376190Y-91070833D01*
X161852380Y-90951785D02*
X162209523Y-90832738D01*
X162209523Y-91142261D01*
M02*
