M48
; DRILL file {KiCad (5.1.5-0-10_14)} date 2020 July 25, Saturday 11:58:29
; FORMAT={-:-/ absolute / metric / decimal}
; #@! TF.CreationDate,2020-07-25T11:58:29+09:00
; #@! TF.GenerationSoftware,Kicad,Pcbnew,(5.1.5-0-10_14)
; #@! TF.FileFunction,NonPlated,1,2,NPTH
FMAT,2
METRIC
T1C1.200
T2C1.750
T3C2.200
T4C3.048
T5C3.988
%
G90
G05
T1
X114.935Y-19.915
X114.935Y-26.915
T2
X31.274Y-66.04
X41.434Y-66.04
X81.28Y-27.94
X91.44Y-27.94
X128.905Y-46.99
X139.065Y-46.99
X138.43Y-27.94
X148.59Y-27.94
X71.755Y-46.99
X81.915Y-46.99
X43.18Y-27.94
X53.34Y-27.94
X66.992Y-85.09
X77.153Y-85.09
X24.13Y-27.94
X34.29Y-27.94
X114.617Y-66.04
X124.777Y-66.04
X124.142Y-85.09
X134.302Y-85.09
X52.705Y-104.14
X62.865Y-104.14
X116.999Y-104.14
X127.159Y-104.14
X57.467Y-66.04
X67.627Y-66.04
X76.517Y-104.14
X86.677Y-104.14
X90.805Y-46.99
X100.965Y-46.99
X76.517Y-66.04
X86.677Y-66.04
X86.042Y-85.09
X96.203Y-85.09
X100.33Y-27.94
X110.49Y-27.94
X119.38Y-27.94
X129.54Y-27.94
X133.667Y-66.04
X143.827Y-66.04
X28.892Y-46.99
X39.052Y-46.99
X62.23Y-27.94
X72.39Y-27.94
X36.036Y-85.09
X46.196Y-85.09
X52.705Y-46.99
X62.865Y-46.99
X109.855Y-46.99
X120.015Y-46.99
X95.567Y-66.04
X105.727Y-66.04
X105.093Y-85.09
X115.252Y-85.09
X143.192Y-85.09
X153.352Y-85.09
T3
X21.685Y-75.565
X38.735Y-20.415
X138.748Y-111.615
X146.272Y-75.565
X91.123Y-56.515
X67.31Y-111.665
X133.985Y-20.415
T4
X110.141Y-111.125
X134.017Y-111.125
X29.178Y-92.075
X53.054Y-92.075
T5
X62.547Y-66.04
X81.597Y-104.14
X95.885Y-46.99
X81.597Y-66.04
X91.123Y-85.09
X105.41Y-27.94
X124.46Y-27.94
X138.748Y-66.04
X33.972Y-46.99
X67.31Y-27.94
X29.178Y-76.835
X41.116Y-85.09
X53.054Y-76.835
X57.785Y-46.99
X114.935Y-46.99
X100.647Y-66.04
X110.172Y-85.09
X148.272Y-85.09
X36.354Y-66.04
X86.36Y-27.94
X133.985Y-46.99
X143.51Y-27.94
X76.835Y-46.99
X48.26Y-27.94
X72.072Y-85.09
X29.21Y-27.94
X119.697Y-66.04
X129.222Y-85.09
X57.785Y-104.14
X110.141Y-95.885
X122.079Y-104.14
X134.017Y-95.885
T0
M30
