M48
; DRILL file {KiCad (5.1.5-0-10_14)} date 2020 July 25, Saturday 11:58:29
; FORMAT={-:-/ absolute / metric / decimal}
; #@! TF.CreationDate,2020-07-25T11:58:29+09:00
; #@! TF.GenerationSoftware,Kicad,Pcbnew,(5.1.5-0-10_14)
; #@! TF.FileFunction,Plated,1,2,PTH
FMAT,2
METRIC
T1C0.400
T2C0.813
T3C1.000
T4C1.300
T5C1.470
%
G90
G05
T1
X26.085Y-62.815
X27.385Y-43.515
X31.585Y-35.815
X31.685Y-51.015
X32.485Y-36.715
X34.185Y-43.515
X38.485Y-35.715
X39.285Y-34.415
X39.685Y-24.415
X40.685Y-68.115
X42.085Y-20.215
X44.485Y-32.915
X44.785Y-83.015
X44.985Y-30.415
X45.085Y-76.415
X45.185Y-53.015
X48.785Y-52.115
X48.885Y-36.915
X49.079Y-78.58
X51.829Y-80.58
X52.385Y-35.715
X54.579Y-73.58
X58.085Y-39.815
X58.085Y-99.615
X59.885Y-68.515
X61.285Y-71.015
X61.385Y-93.715
X63.385Y-33.115
X64.585Y-30.715
X74.885Y-49.515
X75.785Y-51.615
X78.585Y-32.915
X78.785Y-68.715
X79.685Y-70.815
X81.685Y-30.915
X86.385Y-90.415
X94.085Y-49.915
X97.285Y-51.615
X98.885Y-68.915
X99.285Y-33.615
X99.685Y-70.715
X101.685Y-30.815
X105.185Y-88.115
X112.885Y-49.715
X114.285Y-52.215
X118.285Y-68.915
X118.985Y-32.815
X119.085Y-71.015
X121.485Y-30.715
X123.085Y-87.915
T2
X70.547Y-62.23
X70.547Y-69.85
X103.885Y-43.18
X103.885Y-50.8
X137.222Y-81.47
X137.222Y-89.09
X140.272Y-81.47
X140.272Y-89.09
X44.354Y-62.005
X44.354Y-69.625
X135.51Y-24.13
X135.51Y-31.75
X84.835Y-43.18
X84.835Y-50.8
X94.36Y-24.13
X94.36Y-31.75
X97.41Y-24.13
X97.41Y-31.75
X132.46Y-24.13
X132.46Y-31.75
X23.494Y-39.426
X23.494Y-54.646
X26.034Y-39.426
X26.034Y-54.646
X28.575Y-39.426
X28.575Y-54.646
X31.114Y-39.426
X31.114Y-54.646
X33.654Y-39.426
X33.654Y-54.646
X36.194Y-39.426
X36.194Y-54.646
X38.734Y-39.426
X38.734Y-54.646
X41.274Y-39.426
X41.274Y-54.646
X43.814Y-39.426
X43.814Y-54.646
X46.354Y-39.426
X46.354Y-54.646
X48.895Y-39.426
X48.895Y-54.646
X51.434Y-39.426
X51.434Y-54.646
X130.079Y-100.52
X130.079Y-108.14
X37.21Y-24.13
X37.21Y-31.75
X56.21Y-24.13
X56.21Y-31.75
X127.697Y-62.23
X127.697Y-69.85
X68.835Y-43.13
X68.835Y-50.75
X75.31Y-24.13
X75.31Y-31.75
X89.597Y-100.52
X89.597Y-108.14
X118.172Y-81.47
X118.172Y-89.09
X89.597Y-62.23
X89.597Y-69.85
X108.647Y-62.23
X108.647Y-69.85
X125.985Y-43.18
X125.985Y-50.8
X65.785Y-43.18
X65.785Y-50.8
X65.785Y-100.52
X65.785Y-108.14
X99.123Y-81.47
X99.123Y-89.09
X122.935Y-43.18
X122.935Y-50.8
X130.748Y-62.13
X130.748Y-69.75
X49.116Y-81.28
X49.116Y-88.9
X80.072Y-81.28
X80.072Y-88.9
T4
X22.066Y-62.79
X22.066Y-69.29
T5
X63.5Y-25.4
X64.81Y-23.94
X69.81Y-23.44
X69.85Y-22.86
X37.306Y-82.55
X38.616Y-81.09
X43.616Y-80.59
X43.656Y-80.01
X53.975Y-44.45
X55.285Y-42.99
X60.285Y-42.49
X60.325Y-41.91
X111.125Y-44.45
X112.435Y-42.99
X117.435Y-42.49
X117.475Y-41.91
X96.837Y-63.5
X98.147Y-62.04
X103.147Y-61.54
X103.188Y-60.96
X106.362Y-82.55
X107.672Y-81.09
X112.672Y-80.59
X112.712Y-80.01
X144.463Y-82.55
X145.772Y-81.09
X150.772Y-80.59
X150.812Y-80.01
X32.544Y-63.5
X33.854Y-62.04
X38.854Y-61.54
X38.894Y-60.96
X82.55Y-25.4
X83.86Y-23.94
X88.86Y-23.44
X88.9Y-22.86
X130.175Y-44.45
X131.485Y-42.99
X136.485Y-42.49
X136.525Y-41.91
X139.7Y-25.4
X141.01Y-23.94
X146.01Y-23.44
X146.05Y-22.86
X73.025Y-44.45
X74.335Y-42.99
X79.335Y-42.49
X79.375Y-41.91
X44.45Y-25.4
X45.76Y-23.94
X50.76Y-23.44
X50.8Y-22.86
X68.263Y-82.55
X69.572Y-81.09
X74.572Y-80.59
X74.612Y-80.01
X25.4Y-25.4
X26.71Y-23.94
X31.71Y-23.44
X31.75Y-22.86
X115.887Y-63.5
X117.197Y-62.04
X122.197Y-61.54
X122.237Y-60.96
X125.412Y-82.55
X126.722Y-81.09
X131.722Y-80.59
X131.762Y-80.01
X53.975Y-101.6
X55.285Y-100.14
X60.285Y-99.64
X60.325Y-99.06
X118.269Y-101.6
X119.579Y-100.14
X124.579Y-99.64
X124.619Y-99.06
X58.737Y-63.5
X60.047Y-62.04
X65.047Y-61.54
X65.087Y-60.96
X77.787Y-101.6
X79.097Y-100.14
X84.097Y-99.64
X84.138Y-99.06
X92.075Y-44.45
X93.385Y-42.99
X98.385Y-42.49
X98.425Y-41.91
X77.787Y-63.5
X79.097Y-62.04
X84.097Y-61.54
X84.138Y-60.96
X87.312Y-82.55
X88.623Y-81.09
X93.623Y-80.59
X93.662Y-80.01
X101.6Y-25.4
X102.91Y-23.94
X107.91Y-23.44
X107.95Y-22.86
X120.65Y-25.4
X121.96Y-23.94
X126.96Y-23.44
X127.0Y-22.86
X134.938Y-63.5
X136.248Y-62.04
X141.248Y-61.54
X141.287Y-60.96
X30.162Y-44.45
X31.473Y-42.99
X36.472Y-42.49
X36.512Y-41.91
T3
G00X112.835Y-21.965
M15
G01X112.835Y-21.465
M16
G05
G00X112.835Y-24.965
M15
G01X112.835Y-24.465
M16
G05
G00X112.835Y-28.965
M15
G01X112.835Y-28.465
M16
G05
G00X117.035Y-30.465
M15
G01X117.035Y-29.965
M16
G05
T0
M30
