<svg xmlns="http://www.w3.org/2000/svg" viewBox="0 0 841.68 553.47"><defs><style>.cls-1,.cls-3{fill:#040000;fill-opacity:0;stroke-linecap:round;stroke-linejoin:round;stroke-width:0px;}.cls-1,.cls-2{stroke:red;}.cls-2{fill:none;stroke-miterlimit:10;stroke-width:0px;}.cls-3{stroke:blue;}</style></defs><g id="カット1_R255G0B0_" data-name="カット1(R255G0B0)"><path class="cls-1" d="M435.82,25.49H475.5" transform="translate(-18.98 -18.33)"/><path class="cls-1" d="M475.5,25.49" transform="translate(-18.98 -18.33)"/><path class="cls-1" d="M475.5,65.17" transform="translate(-18.98 -18.33)"/><path class="cls-1" d="M475.5,65.17V25.49" transform="translate(-18.98 -18.33)"/><path class="cls-1" d="M435.82,65.17" transform="translate(-18.98 -18.33)"/><path class="cls-1" d="M435.82,65.17H475.5" transform="translate(-18.98 -18.33)"/><path class="cls-1" d="M435.82,25.49" transform="translate(-18.98 -18.33)"/><path class="cls-1" d="M435.82,25.49V65.17" transform="translate(-18.98 -18.33)"/><path class="cls-1" d="M489.82,25.49H529.5" transform="translate(-18.98 -18.33)"/><path class="cls-1" d="M529.5,25.49" transform="translate(-18.98 -18.33)"/><path class="cls-1" d="M529.5,65.17" transform="translate(-18.98 -18.33)"/><path class="cls-1" d="M529.5,65.17V25.49" transform="translate(-18.98 -18.33)"/><path class="cls-1" d="M489.82,65.17" transform="translate(-18.98 -18.33)"/><path class="cls-1" d="M489.82,65.17H529.5" transform="translate(-18.98 -18.33)"/><path class="cls-1" d="M489.82,25.49" transform="translate(-18.98 -18.33)"/><path class="cls-1" d="M489.82,25.49V65.17" transform="translate(-18.98 -18.33)"/><path class="cls-1" d="M543.82,25.49H583.5" transform="translate(-18.98 -18.33)"/><path class="cls-1" d="M583.5,25.49" transform="translate(-18.98 -18.33)"/><path class="cls-1" d="M583.5,65.17" transform="translate(-18.98 -18.33)"/><path class="cls-1" d="M583.5,65.17V25.49" transform="translate(-18.98 -18.33)"/><path class="cls-1" d="M543.82,65.17" transform="translate(-18.98 -18.33)"/><path class="cls-1" d="M543.82,65.17H583.5" transform="translate(-18.98 -18.33)"/><path class="cls-1" d="M543.82,25.49" transform="translate(-18.98 -18.33)"/><path class="cls-1" d="M543.82,25.49V65.17" transform="translate(-18.98 -18.33)"/><path class="cls-1" d="M597.82,25.49V65.17" transform="translate(-18.98 -18.33)"/><path class="cls-1" d="M597.82,25.49" transform="translate(-18.98 -18.33)"/><path class="cls-1" d="M597.82,65.17H637.5" transform="translate(-18.98 -18.33)"/><path class="cls-1" d="M597.82,65.17" transform="translate(-18.98 -18.33)"/><path class="cls-1" d="M637.5,65.17V25.49" transform="translate(-18.98 -18.33)"/><path class="cls-1" d="M637.5,65.17" transform="translate(-18.98 -18.33)"/><path class="cls-1" d="M637.5,25.49" transform="translate(-18.98 -18.33)"/><path class="cls-1" d="M597.82,25.49H637.5" transform="translate(-18.98 -18.33)"/><path class="cls-1" d="M651.82,25.49v34" transform="translate(-18.98 -18.33)"/><path class="cls-1" d="M657.48,25.49h-5.66" transform="translate(-18.98 -18.33)"/><path class="cls-1" d="M651.82,65.17h34" transform="translate(-18.98 -18.33)"/><path class="cls-1" d="M651.82,59.5v5.67" transform="translate(-18.98 -18.33)"/><path class="cls-1" d="M691.5,65.17v-34" transform="translate(-18.98 -18.33)"/><path class="cls-1" d="M685.83,65.17h5.67" transform="translate(-18.98 -18.33)"/><path class="cls-1" d="M691.5,25.49v5.67" transform="translate(-18.98 -18.33)"/><path class="cls-1" d="M657.48,25.49h34" transform="translate(-18.98 -18.33)"/><path class="cls-1" d="M739.83,25.49h5.67" transform="translate(-18.98 -18.33)"/><path class="cls-1" d="M745.5,25.49v34" transform="translate(-18.98 -18.33)"/><path class="cls-1" d="M711.48,65.17h34" transform="translate(-18.98 -18.33)"/><path class="cls-1" d="M745.5,65.17V59.5" transform="translate(-18.98 -18.33)"/><path class="cls-1" d="M705.82,59.5v5.67" transform="translate(-18.98 -18.33)"/><path class="cls-1" d="M705.82,65.17h5.66" transform="translate(-18.98 -18.33)"/><path class="cls-1" d="M739.83,25.49h-34" transform="translate(-18.98 -18.33)"/><path class="cls-1" d="M705.82,25.49v34" transform="translate(-18.98 -18.33)"/><path class="cls-1" d="M793.83,25.49h5.67" transform="translate(-18.98 -18.33)"/><path class="cls-1" d="M799.5,25.49v34" transform="translate(-18.98 -18.33)"/><path class="cls-1" d="M765.48,65.17h34" transform="translate(-18.98 -18.33)"/><path class="cls-1" d="M799.5,65.17V59.5" transform="translate(-18.98 -18.33)"/><path class="cls-1" d="M759.82,59.5v5.67" transform="translate(-18.98 -18.33)"/><path class="cls-1" d="M759.82,65.17h5.66" transform="translate(-18.98 -18.33)"/><path class="cls-1" d="M793.83,25.49h-34" transform="translate(-18.98 -18.33)"/><path class="cls-1" d="M759.82,25.49v34" transform="translate(-18.98 -18.33)"/><path class="cls-1" d="M819.48,25.49h34" transform="translate(-18.98 -18.33)"/><path class="cls-1" d="M853.5,25.49v5.67" transform="translate(-18.98 -18.33)"/><path class="cls-1" d="M847.83,65.17h5.67" transform="translate(-18.98 -18.33)"/><path class="cls-1" d="M853.5,65.17v-34" transform="translate(-18.98 -18.33)"/><path class="cls-1" d="M813.82,59.5v5.67" transform="translate(-18.98 -18.33)"/><path class="cls-1" d="M813.82,65.17h34" transform="translate(-18.98 -18.33)"/><path class="cls-1" d="M819.48,25.49h-5.66" transform="translate(-18.98 -18.33)"/><path class="cls-1" d="M813.82,25.49v34" transform="translate(-18.98 -18.33)"/><path class="cls-1" d="M408.82,79.49v34" transform="translate(-18.98 -18.33)"/><path class="cls-1" d="M414.49,79.49h-5.67" transform="translate(-18.98 -18.33)"/><path class="cls-1" d="M408.82,119.17h34" transform="translate(-18.98 -18.33)"/><path class="cls-1" d="M408.82,113.5v5.67" transform="translate(-18.98 -18.33)"/><path class="cls-1" d="M448.5,119.17v-34" transform="translate(-18.98 -18.33)"/><path class="cls-1" d="M442.83,119.17h5.67" transform="translate(-18.98 -18.33)"/><path class="cls-1" d="M448.5,79.49v5.67" transform="translate(-18.98 -18.33)"/><path class="cls-1" d="M414.49,79.49h34" transform="translate(-18.98 -18.33)"/><path class="cls-1" d="M462.82,79.49v34" transform="translate(-18.98 -18.33)"/><path class="cls-1" d="M468.49,79.49h-5.67" transform="translate(-18.98 -18.33)"/><path class="cls-1" d="M462.82,119.17h34" transform="translate(-18.98 -18.33)"/><path class="cls-1" d="M462.82,113.5v5.67" transform="translate(-18.98 -18.33)"/><path class="cls-1" d="M502.5,119.17v-34" transform="translate(-18.98 -18.33)"/><path class="cls-1" d="M496.83,119.17h5.67" transform="translate(-18.98 -18.33)"/><path class="cls-1" d="M502.5,79.49v5.67" transform="translate(-18.98 -18.33)"/><path class="cls-1" d="M468.49,79.49h34" transform="translate(-18.98 -18.33)"/><path class="cls-1" d="M516.82,79.49v34" transform="translate(-18.98 -18.33)"/><path class="cls-1" d="M522.48,79.49h-5.66" transform="translate(-18.98 -18.33)"/><path class="cls-1" d="M516.82,119.17h34" transform="translate(-18.98 -18.33)"/><path class="cls-1" d="M516.82,113.5v5.67" transform="translate(-18.98 -18.33)"/><path class="cls-1" d="M556.5,119.17v-34" transform="translate(-18.98 -18.33)"/><path class="cls-1" d="M550.83,119.17h5.67" transform="translate(-18.98 -18.33)"/><path class="cls-1" d="M556.5,79.49v5.67" transform="translate(-18.98 -18.33)"/><path class="cls-1" d="M522.48,79.49h34" transform="translate(-18.98 -18.33)"/><path class="cls-1" d="M604.83,79.49h5.67" transform="translate(-18.98 -18.33)"/><path class="cls-1" d="M610.5,79.49v34" transform="translate(-18.98 -18.33)"/><path class="cls-1" d="M576.48,119.17h34" transform="translate(-18.98 -18.33)"/><path class="cls-1" d="M610.5,119.17V113.5" transform="translate(-18.98 -18.33)"/><path class="cls-1" d="M570.82,85.16v34" transform="translate(-18.98 -18.33)"/><path class="cls-1" d="M570.82,119.17h5.66" transform="translate(-18.98 -18.33)"/><path class="cls-1" d="M604.83,79.49h-34" transform="translate(-18.98 -18.33)"/><path class="cls-1" d="M570.82,79.49v5.67" transform="translate(-18.98 -18.33)"/><path class="cls-1" d="M617.66,126.33" transform="translate(-18.98 -18.33)"/><path class="cls-1" d="M617.66,126.33" transform="translate(-18.98 -18.33)"/><path class="cls-1" d="M630.48,79.49h34" transform="translate(-18.98 -18.33)"/><path class="cls-1" d="M664.5,79.49v5.67" transform="translate(-18.98 -18.33)"/><path class="cls-1" d="M658.83,119.17h5.67" transform="translate(-18.98 -18.33)"/><path class="cls-1" d="M664.5,119.17v-34" transform="translate(-18.98 -18.33)"/><path class="cls-1" d="M624.82,113.5v5.67" transform="translate(-18.98 -18.33)"/><path class="cls-1" d="M624.82,119.17h34" transform="translate(-18.98 -18.33)"/><path class="cls-1" d="M630.48,79.49h-5.66" transform="translate(-18.98 -18.33)"/><path class="cls-1" d="M624.82,79.49v34" transform="translate(-18.98 -18.33)"/><path class="cls-1" d="M617.66,126.33" transform="translate(-18.98 -18.33)"/><path class="cls-1" d="M617.66,126.33" transform="translate(-18.98 -18.33)"/><path class="cls-1" d="M678.82,79.49v34" transform="translate(-18.98 -18.33)"/><path class="cls-1" d="M684.48,79.49h-5.66" transform="translate(-18.98 -18.33)"/><path class="cls-1" d="M678.82,119.17h34" transform="translate(-18.98 -18.33)"/><path class="cls-1" d="M678.82,113.5v5.67" transform="translate(-18.98 -18.33)"/><path class="cls-1" d="M718.5,119.17v-34" transform="translate(-18.98 -18.33)"/><path class="cls-1" d="M712.83,119.17h5.67" transform="translate(-18.98 -18.33)"/><path class="cls-1" d="M718.5,79.49v5.67" transform="translate(-18.98 -18.33)"/><path class="cls-1" d="M684.48,79.49h34" transform="translate(-18.98 -18.33)"/><path class="cls-1" d="M732.82,79.49v5.67" transform="translate(-18.98 -18.33)"/><path class="cls-1" d="M766.83,79.49h-34" transform="translate(-18.98 -18.33)"/><path class="cls-1" d="M732.82,119.17h5.66" transform="translate(-18.98 -18.33)"/><path class="cls-1" d="M732.82,85.16v34" transform="translate(-18.98 -18.33)"/><path class="cls-1" d="M772.5,119.17V113.5" transform="translate(-18.98 -18.33)"/><path class="cls-1" d="M738.48,119.17h34" transform="translate(-18.98 -18.33)"/><path class="cls-1" d="M772.5,79.49v34" transform="translate(-18.98 -18.33)"/><path class="cls-1" d="M766.83,79.49h5.67" transform="translate(-18.98 -18.33)"/><path class="cls-1" d="M834.33,79.49H840" transform="translate(-18.98 -18.33)"/><path class="cls-1" d="M840,79.49v5.67" transform="translate(-18.98 -18.33)"/><path class="cls-1" d="M834.33,119.17H840" transform="translate(-18.98 -18.33)"/><path class="cls-1" d="M840,119.17v-34" transform="translate(-18.98 -18.33)"/><path class="cls-1" d="M800.32,113.5v5.67" transform="translate(-18.98 -18.33)"/><path class="cls-1" d="M800.32,119.17h34" transform="translate(-18.98 -18.33)"/><path class="cls-1" d="M834.33,79.49h-34" transform="translate(-18.98 -18.33)"/><path class="cls-1" d="M800.32,79.49v34" transform="translate(-18.98 -18.33)"/><path class="cls-1" d="M428,133.49h34" transform="translate(-18.98 -18.33)"/><path class="cls-1" d="M462,133.49v5.67" transform="translate(-18.98 -18.33)"/><path class="cls-1" d="M456.33,173.17H462" transform="translate(-18.98 -18.33)"/><path class="cls-1" d="M462,173.17v-34" transform="translate(-18.98 -18.33)"/><path class="cls-1" d="M422.32,167.5v5.67" transform="translate(-18.98 -18.33)"/><path class="cls-1" d="M422.32,173.17h34" transform="translate(-18.98 -18.33)"/><path class="cls-1" d="M428,133.49h-5.67" transform="translate(-18.98 -18.33)"/><path class="cls-1" d="M422.32,133.49v34" transform="translate(-18.98 -18.33)"/><path class="cls-1" d="M469.16,180.33" transform="translate(-18.98 -18.33)"/><path class="cls-1" d="M469.16,180.33" transform="translate(-18.98 -18.33)"/><path class="cls-1" d="M469.16,180.33" transform="translate(-18.98 -18.33)"/><path class="cls-1" d="M476.32,133.49v34" transform="translate(-18.98 -18.33)"/><path class="cls-1" d="M482,133.49h-5.67" transform="translate(-18.98 -18.33)"/><path class="cls-1" d="M476.32,173.17h34" transform="translate(-18.98 -18.33)"/><path class="cls-1" d="M476.32,167.5v5.67" transform="translate(-18.98 -18.33)"/><path class="cls-1" d="M516,173.17v-34" transform="translate(-18.98 -18.33)"/><path class="cls-1" d="M510.33,173.17H516" transform="translate(-18.98 -18.33)"/><path class="cls-1" d="M516,133.49v5.67" transform="translate(-18.98 -18.33)"/><path class="cls-1" d="M482,133.49h34" transform="translate(-18.98 -18.33)"/><path class="cls-1" d="M530.32,133.49v34" transform="translate(-18.98 -18.33)"/><path class="cls-1" d="M536,133.49h-5.66" transform="translate(-18.98 -18.33)"/><path class="cls-1" d="M530.32,173.17h34" transform="translate(-18.98 -18.33)"/><path class="cls-1" d="M530.32,167.5v5.67" transform="translate(-18.98 -18.33)"/><path class="cls-1" d="M570,173.17v-34" transform="translate(-18.98 -18.33)"/><path class="cls-1" d="M564.33,173.17H570" transform="translate(-18.98 -18.33)"/><path class="cls-1" d="M570,133.49v5.67" transform="translate(-18.98 -18.33)"/><path class="cls-1" d="M536,133.49h34" transform="translate(-18.98 -18.33)"/><path class="cls-1" d="M584.32,133.49v34" transform="translate(-18.98 -18.33)"/><path class="cls-1" d="M590,133.49h-5.66" transform="translate(-18.98 -18.33)"/><path class="cls-1" d="M584.32,173.17h34" transform="translate(-18.98 -18.33)"/><path class="cls-1" d="M584.32,167.5v5.67" transform="translate(-18.98 -18.33)"/><path class="cls-1" d="M624,173.17v-34" transform="translate(-18.98 -18.33)"/><path class="cls-1" d="M618.33,173.17H624" transform="translate(-18.98 -18.33)"/><path class="cls-1" d="M624,133.49v5.67" transform="translate(-18.98 -18.33)"/><path class="cls-1" d="M590,133.49h34" transform="translate(-18.98 -18.33)"/><path class="cls-1" d="M644,133.49h34" transform="translate(-18.98 -18.33)"/><path class="cls-1" d="M678,133.49v5.67" transform="translate(-18.98 -18.33)"/><path class="cls-1" d="M672.33,173.17H678" transform="translate(-18.98 -18.33)"/><path class="cls-1" d="M678,173.17v-34" transform="translate(-18.98 -18.33)"/><path class="cls-1" d="M638.32,167.5v5.67" transform="translate(-18.98 -18.33)"/><path class="cls-1" d="M638.32,173.17h34" transform="translate(-18.98 -18.33)"/><path class="cls-1" d="M644,133.49h-5.66" transform="translate(-18.98 -18.33)"/><path class="cls-1" d="M638.32,133.49v34" transform="translate(-18.98 -18.33)"/><path class="cls-1" d="M685.16,180.33" transform="translate(-18.98 -18.33)"/><path class="cls-1" d="M685.16,180.33" transform="translate(-18.98 -18.33)"/><path class="cls-1" d="M685.16,180.33" transform="translate(-18.98 -18.33)"/><path class="cls-1" d="M685.16,180.33" transform="translate(-18.98 -18.33)"/><path class="cls-1" d="M692.32,133.49v34" transform="translate(-18.98 -18.33)"/><path class="cls-1" d="M698,133.49h-5.66" transform="translate(-18.98 -18.33)"/><path class="cls-1" d="M692.32,173.17h34" transform="translate(-18.98 -18.33)"/><path class="cls-1" d="M692.32,167.5v5.67" transform="translate(-18.98 -18.33)"/><path class="cls-1" d="M732,173.17v-34" transform="translate(-18.98 -18.33)"/><path class="cls-1" d="M726.33,173.17H732" transform="translate(-18.98 -18.33)"/><path class="cls-1" d="M732,133.49v5.67" transform="translate(-18.98 -18.33)"/><path class="cls-1" d="M698,133.49h34" transform="translate(-18.98 -18.33)"/><path class="cls-1" d="M449.32,187.49v5.67" transform="translate(-18.98 -18.33)"/><path class="cls-1" d="M483.33,187.49h-34" transform="translate(-18.98 -18.33)"/><path class="cls-1" d="M449.32,227.17H455" transform="translate(-18.98 -18.33)"/><path class="cls-1" d="M449.32,193.16v34" transform="translate(-18.98 -18.33)"/><path class="cls-1" d="M489,227.17V221.5" transform="translate(-18.98 -18.33)"/><path class="cls-1" d="M455,227.17h34" transform="translate(-18.98 -18.33)"/><path class="cls-1" d="M489,187.49v34" transform="translate(-18.98 -18.33)"/><path class="cls-1" d="M483.33,187.49H489" transform="translate(-18.98 -18.33)"/><path class="cls-1" d="M509,187.49h34" transform="translate(-18.98 -18.33)"/><path class="cls-1" d="M543,187.49v5.67" transform="translate(-18.98 -18.33)"/><path class="cls-1" d="M537.33,227.17H543" transform="translate(-18.98 -18.33)"/><path class="cls-1" d="M543,227.17v-34" transform="translate(-18.98 -18.33)"/><path class="cls-1" d="M503.32,221.5v5.67" transform="translate(-18.98 -18.33)"/><path class="cls-1" d="M503.32,227.17h34" transform="translate(-18.98 -18.33)"/><path class="cls-1" d="M509,187.49h-5.67" transform="translate(-18.98 -18.33)"/><path class="cls-1" d="M503.32,187.49v34" transform="translate(-18.98 -18.33)"/><path class="cls-1" d="M563,187.49h34" transform="translate(-18.98 -18.33)"/><path class="cls-1" d="M597,187.49v5.67" transform="translate(-18.98 -18.33)"/><path class="cls-1" d="M591.33,227.17H597" transform="translate(-18.98 -18.33)"/><path class="cls-1" d="M597,227.17v-34" transform="translate(-18.98 -18.33)"/><path class="cls-1" d="M557.32,221.5v5.67" transform="translate(-18.98 -18.33)"/><path class="cls-1" d="M557.32,227.17h34" transform="translate(-18.98 -18.33)"/><path class="cls-1" d="M563,187.49h-5.66" transform="translate(-18.98 -18.33)"/><path class="cls-1" d="M557.32,187.49v34" transform="translate(-18.98 -18.33)"/><path class="cls-1" d="M645.33,187.49H651" transform="translate(-18.98 -18.33)"/><path class="cls-1" d="M651,187.49v34" transform="translate(-18.98 -18.33)"/><path class="cls-1" d="M617,227.17h34" transform="translate(-18.98 -18.33)"/><path class="cls-1" d="M651,227.17V221.5" transform="translate(-18.98 -18.33)"/><path class="cls-1" d="M611.32,193.16v34" transform="translate(-18.98 -18.33)"/><path class="cls-1" d="M611.32,227.17H617" transform="translate(-18.98 -18.33)"/><path class="cls-1" d="M645.33,187.49h-34" transform="translate(-18.98 -18.33)"/><path class="cls-1" d="M611.32,187.49v5.67" transform="translate(-18.98 -18.33)"/><path class="cls-1" d="M699.33,187.49H705" transform="translate(-18.98 -18.33)"/><path class="cls-1" d="M705,187.49v34" transform="translate(-18.98 -18.33)"/><path class="cls-1" d="M671,227.17h34" transform="translate(-18.98 -18.33)"/><path class="cls-1" d="M705,227.17V221.5" transform="translate(-18.98 -18.33)"/><path class="cls-1" d="M665.32,193.16v34" transform="translate(-18.98 -18.33)"/><path class="cls-1" d="M665.32,227.17H671" transform="translate(-18.98 -18.33)"/><path class="cls-1" d="M699.33,187.49h-34" transform="translate(-18.98 -18.33)"/><path class="cls-1" d="M665.32,187.49v5.67" transform="translate(-18.98 -18.33)"/><path class="cls-1" d="M773.58,187.49h5.67" transform="translate(-18.98 -18.33)"/><path class="cls-1" d="M779.25,187.49v34" transform="translate(-18.98 -18.33)"/><path class="cls-1" d="M745.23,227.17h34" transform="translate(-18.98 -18.33)"/><path class="cls-1" d="M779.25,227.17V221.5" transform="translate(-18.98 -18.33)"/><path class="cls-1" d="M739.56,193.16v34" transform="translate(-18.98 -18.33)"/><path class="cls-1" d="M739.56,227.17h5.67" transform="translate(-18.98 -18.33)"/><path class="cls-1" d="M773.58,187.49h-34" transform="translate(-18.98 -18.33)"/><path class="cls-1" d="M739.56,187.49v5.67" transform="translate(-18.98 -18.33)"/><path class="cls-1" d="M469.16,234.33" transform="translate(-18.98 -18.33)"/><path class="cls-1" d="M422.32,241.49v34" transform="translate(-18.98 -18.33)"/><path class="cls-1" d="M456.33,241.49h-34" transform="translate(-18.98 -18.33)"/><path class="cls-1" d="M422.32,281.17h34" transform="translate(-18.98 -18.33)"/><path class="cls-1" d="M422.32,275.5v5.67" transform="translate(-18.98 -18.33)"/><path class="cls-1" d="M462,281.17v-34" transform="translate(-18.98 -18.33)"/><path class="cls-1" d="M456.33,281.17H462" transform="translate(-18.98 -18.33)"/><path class="cls-1" d="M462,241.49v5.67" transform="translate(-18.98 -18.33)"/><path class="cls-1" d="M456.33,241.49H462" transform="translate(-18.98 -18.33)"/><path class="cls-1" d="M469.16,234.33" transform="translate(-18.98 -18.33)"/><path class="cls-1" d="M469.16,234.33" transform="translate(-18.98 -18.33)"/><path class="cls-1" d="M611.32,241.49v34" transform="translate(-18.98 -18.33)"/><path class="cls-1" d="M617,241.49h-5.66" transform="translate(-18.98 -18.33)"/><path class="cls-1" d="M611.32,281.17h34" transform="translate(-18.98 -18.33)"/><path class="cls-1" d="M611.32,275.5v5.67" transform="translate(-18.98 -18.33)"/><path class="cls-1" d="M651,281.17v-34" transform="translate(-18.98 -18.33)"/><path class="cls-1" d="M645.33,281.17H651" transform="translate(-18.98 -18.33)"/><path class="cls-1" d="M651,241.49v5.67" transform="translate(-18.98 -18.33)"/><path class="cls-1" d="M617,241.49h34" transform="translate(-18.98 -18.33)"/><path class="cls-1" d="M678.82,241.49v34" transform="translate(-18.98 -18.33)"/><path class="cls-1" d="M712.83,241.49h-34" transform="translate(-18.98 -18.33)"/><path class="cls-1" d="M678.82,281.17h5.66" transform="translate(-18.98 -18.33)"/><path class="cls-1" d="M678.82,275.5v5.67" transform="translate(-18.98 -18.33)"/><path class="cls-1" d="M718.5,281.17V275.5" transform="translate(-18.98 -18.33)"/><path class="cls-1" d="M684.48,281.17h34" transform="translate(-18.98 -18.33)"/><path class="cls-1" d="M718.5,241.49v34" transform="translate(-18.98 -18.33)"/><path class="cls-1" d="M712.83,241.49h5.67" transform="translate(-18.98 -18.33)"/><path class="cls-1" d="M847.83,187.49h5.67" transform="translate(-18.98 -18.33)"/><path class="cls-1" d="M853.5,187.49v34" transform="translate(-18.98 -18.33)"/><path class="cls-1" d="M819.48,227.17h34" transform="translate(-18.98 -18.33)"/><path class="cls-1" d="M853.5,227.17V221.5" transform="translate(-18.98 -18.33)"/><path class="cls-1" d="M813.82,221.5v5.67" transform="translate(-18.98 -18.33)"/><path class="cls-1" d="M813.82,227.17h5.66" transform="translate(-18.98 -18.33)"/><path class="cls-1" d="M847.83,187.49h-34" transform="translate(-18.98 -18.33)"/><path class="cls-1" d="M813.82,187.49v34" transform="translate(-18.98 -18.33)"/><circle class="cls-1" cx="836.01" cy="162" r="3.12"/><circle class="cls-1" cx="428.85" cy="162" r="3.12"/><circle class="cls-1" cx="598.68" cy="108" r="3.12"/><circle class="cls-1" cx="450.18" cy="264.33" r="3.12"/><circle class="cls-1" cx="652.68" cy="264.33" r="3.12"/><circle class="cls-1" cx="787.68" cy="5.67" r="3.12"/><circle class="cls-1" cx="463.68" cy="5.67" r="3.12"/><path class="cls-1" d="M26.14,25.49V65.17" transform="translate(-18.98 -18.33)"/><path class="cls-1" d="M65.82,25.49H26.14" transform="translate(-18.98 -18.33)"/><path class="cls-1" d="M26.14,65.17" transform="translate(-18.98 -18.33)"/><path class="cls-1" d="M26.14,65.17" transform="translate(-18.98 -18.33)"/><path class="cls-1" d="M65.82,65.17" transform="translate(-18.98 -18.33)"/><path class="cls-1" d="M26.14,65.17H65.82" transform="translate(-18.98 -18.33)"/><path class="cls-1" d="M65.82,25.49V65.17" transform="translate(-18.98 -18.33)"/><path class="cls-1" d="M65.82,25.49" transform="translate(-18.98 -18.33)"/><path class="cls-1" d="M119.82,25.49" transform="translate(-18.98 -18.33)"/><path class="cls-1" d="M119.82,25.49V65.17" transform="translate(-18.98 -18.33)"/><path class="cls-1" d="M80.14,65.17h39.68" transform="translate(-18.98 -18.33)"/><path class="cls-1" d="M119.82,65.17" transform="translate(-18.98 -18.33)"/><path class="cls-1" d="M80.14,65.17" transform="translate(-18.98 -18.33)"/><path class="cls-1" d="M80.14,65.17" transform="translate(-18.98 -18.33)"/><path class="cls-1" d="M119.82,25.49H80.14" transform="translate(-18.98 -18.33)"/><path class="cls-1" d="M80.14,25.49V65.17" transform="translate(-18.98 -18.33)"/><path class="cls-1" d="M134.14,25.49h39.68" transform="translate(-18.98 -18.33)"/><path class="cls-1" d="M173.82,25.49" transform="translate(-18.98 -18.33)"/><path class="cls-1" d="M173.82,65.17" transform="translate(-18.98 -18.33)"/><path class="cls-1" d="M173.82,65.17V25.49" transform="translate(-18.98 -18.33)"/><path class="cls-1" d="M134.14,65.17" transform="translate(-18.98 -18.33)"/><path class="cls-1" d="M134.14,65.17h39.68" transform="translate(-18.98 -18.33)"/><path class="cls-1" d="M134.14,25.49" transform="translate(-18.98 -18.33)"/><path class="cls-1" d="M134.14,25.49V65.17" transform="translate(-18.98 -18.33)"/><path class="cls-1" d="M188.14,25.49h39.68" transform="translate(-18.98 -18.33)"/><path class="cls-1" d="M227.82,25.49" transform="translate(-18.98 -18.33)"/><path class="cls-1" d="M227.82,65.17" transform="translate(-18.98 -18.33)"/><path class="cls-1" d="M227.82,65.17V25.49" transform="translate(-18.98 -18.33)"/><path class="cls-1" d="M188.14,65.17" transform="translate(-18.98 -18.33)"/><path class="cls-1" d="M188.14,65.17h39.68" transform="translate(-18.98 -18.33)"/><path class="cls-1" d="M188.14,25.49" transform="translate(-18.98 -18.33)"/><path class="cls-1" d="M188.14,25.49V65.17" transform="translate(-18.98 -18.33)"/><path class="cls-1" d="M281.82,25.49" transform="translate(-18.98 -18.33)"/><path class="cls-1" d="M281.82,25.49V65.17" transform="translate(-18.98 -18.33)"/><path class="cls-1" d="M242.14,65.17h39.68" transform="translate(-18.98 -18.33)"/><path class="cls-1" d="M281.82,65.17" transform="translate(-18.98 -18.33)"/><path class="cls-1" d="M242.14,25.49V65.17" transform="translate(-18.98 -18.33)"/><path class="cls-1" d="M242.14,65.17" transform="translate(-18.98 -18.33)"/><path class="cls-1" d="M281.82,25.49H242.14" transform="translate(-18.98 -18.33)"/><path class="cls-1" d="M242.14,25.49" transform="translate(-18.98 -18.33)"/><path class="cls-1" d="M335.82,25.49" transform="translate(-18.98 -18.33)"/><path class="cls-1" d="M335.82,25.49V65.17" transform="translate(-18.98 -18.33)"/><path class="cls-1" d="M296.14,65.17h39.68" transform="translate(-18.98 -18.33)"/><path class="cls-1" d="M335.82,65.17" transform="translate(-18.98 -18.33)"/><path class="cls-1" d="M296.14,25.49V65.17" transform="translate(-18.98 -18.33)"/><path class="cls-1" d="M296.14,65.17" transform="translate(-18.98 -18.33)"/><path class="cls-1" d="M335.82,25.49H296.14" transform="translate(-18.98 -18.33)"/><path class="cls-1" d="M296.14,25.49" transform="translate(-18.98 -18.33)"/><path class="cls-1" d="M389.82,25.49" transform="translate(-18.98 -18.33)"/><path class="cls-1" d="M389.82,25.49V65.17" transform="translate(-18.98 -18.33)"/><path class="cls-1" d="M350.14,65.17h39.68" transform="translate(-18.98 -18.33)"/><path class="cls-1" d="M389.82,65.17" transform="translate(-18.98 -18.33)"/><path class="cls-1" d="M350.14,25.49V65.17" transform="translate(-18.98 -18.33)"/><path class="cls-1" d="M350.14,65.17" transform="translate(-18.98 -18.33)"/><path class="cls-1" d="M389.82,25.49H350.14" transform="translate(-18.98 -18.33)"/><path class="cls-1" d="M350.14,25.49" transform="translate(-18.98 -18.33)"/><path class="cls-1" d="M79.32,79.49" transform="translate(-18.98 -18.33)"/><path class="cls-1" d="M79.32,79.49v39.68" transform="translate(-18.98 -18.33)"/><path class="cls-1" d="M39.64,119.17H79.32" transform="translate(-18.98 -18.33)"/><path class="cls-1" d="M79.32,119.17" transform="translate(-18.98 -18.33)"/><path class="cls-1" d="M39.64,79.49v39.68" transform="translate(-18.98 -18.33)"/><path class="cls-1" d="M39.64,119.17" transform="translate(-18.98 -18.33)"/><path class="cls-1" d="M79.32,79.49H39.64" transform="translate(-18.98 -18.33)"/><path class="cls-1" d="M39.64,79.49" transform="translate(-18.98 -18.33)"/><path class="cls-1" d="M146.82,79.49" transform="translate(-18.98 -18.33)"/><path class="cls-1" d="M146.82,79.49v39.68" transform="translate(-18.98 -18.33)"/><path class="cls-1" d="M107.14,119.17h39.68" transform="translate(-18.98 -18.33)"/><path class="cls-1" d="M146.82,119.17" transform="translate(-18.98 -18.33)"/><path class="cls-1" d="M107.14,79.49v39.68" transform="translate(-18.98 -18.33)"/><path class="cls-1" d="M107.14,119.17" transform="translate(-18.98 -18.33)"/><path class="cls-1" d="M146.82,79.49H107.14" transform="translate(-18.98 -18.33)"/><path class="cls-1" d="M107.14,79.49" transform="translate(-18.98 -18.33)"/><path class="cls-1" d="M200.82,79.49" transform="translate(-18.98 -18.33)"/><path class="cls-1" d="M200.82,79.49v39.68" transform="translate(-18.98 -18.33)"/><path class="cls-1" d="M161.14,119.17h39.68" transform="translate(-18.98 -18.33)"/><path class="cls-1" d="M200.82,119.17" transform="translate(-18.98 -18.33)"/><path class="cls-1" d="M161.14,79.49v39.68" transform="translate(-18.98 -18.33)"/><path class="cls-1" d="M161.14,119.17" transform="translate(-18.98 -18.33)"/><path class="cls-1" d="M200.82,79.49H161.14" transform="translate(-18.98 -18.33)"/><path class="cls-1" d="M161.14,79.49" transform="translate(-18.98 -18.33)"/><path class="cls-1" d="M215.14,79.49" transform="translate(-18.98 -18.33)"/><path class="cls-1" d="M254.82,79.49H215.14" transform="translate(-18.98 -18.33)"/><path class="cls-1" d="M215.14,119.17" transform="translate(-18.98 -18.33)"/><path class="cls-1" d="M215.14,79.49v39.68" transform="translate(-18.98 -18.33)"/><path class="cls-1" d="M254.82,119.17" transform="translate(-18.98 -18.33)"/><path class="cls-1" d="M215.14,119.17h39.68" transform="translate(-18.98 -18.33)"/><path class="cls-1" d="M254.82,79.49v39.68" transform="translate(-18.98 -18.33)"/><path class="cls-1" d="M254.82,79.49" transform="translate(-18.98 -18.33)"/><path class="cls-1" d="M269.14,79.49v39.68" transform="translate(-18.98 -18.33)"/><path class="cls-1" d="M269.14,79.49" transform="translate(-18.98 -18.33)"/><path class="cls-1" d="M269.14,119.17h39.68" transform="translate(-18.98 -18.33)"/><path class="cls-1" d="M269.14,119.17" transform="translate(-18.98 -18.33)"/><path class="cls-1" d="M308.82,119.17V79.49" transform="translate(-18.98 -18.33)"/><path class="cls-1" d="M308.82,119.17" transform="translate(-18.98 -18.33)"/><path class="cls-1" d="M308.82,79.49" transform="translate(-18.98 -18.33)"/><path class="cls-1" d="M269.14,79.49h39.68" transform="translate(-18.98 -18.33)"/><path class="cls-1" d="M323.14,79.49" transform="translate(-18.98 -18.33)"/><path class="cls-1" d="M362.82,79.49H323.14" transform="translate(-18.98 -18.33)"/><path class="cls-1" d="M323.14,119.17" transform="translate(-18.98 -18.33)"/><path class="cls-1" d="M323.14,79.49v39.68" transform="translate(-18.98 -18.33)"/><path class="cls-1" d="M362.82,119.17" transform="translate(-18.98 -18.33)"/><path class="cls-1" d="M323.14,119.17h39.68" transform="translate(-18.98 -18.33)"/><path class="cls-1" d="M362.82,79.49v39.68" transform="translate(-18.98 -18.33)"/><path class="cls-1" d="M362.82,79.49" transform="translate(-18.98 -18.33)"/><path class="cls-1" d="M86.07,133.49" transform="translate(-18.98 -18.33)"/><path class="cls-1" d="M86.07,133.49v39.68" transform="translate(-18.98 -18.33)"/><path class="cls-1" d="M46.39,173.17H86.07" transform="translate(-18.98 -18.33)"/><path class="cls-1" d="M86.07,173.17" transform="translate(-18.98 -18.33)"/><path class="cls-1" d="M46.39,133.49v39.68" transform="translate(-18.98 -18.33)"/><path class="cls-1" d="M46.39,173.17" transform="translate(-18.98 -18.33)"/><path class="cls-1" d="M86.07,133.49H46.39" transform="translate(-18.98 -18.33)"/><path class="cls-1" d="M46.39,133.49" transform="translate(-18.98 -18.33)"/><path class="cls-1" d="M160.32,133.49" transform="translate(-18.98 -18.33)"/><path class="cls-1" d="M160.32,133.49v39.68" transform="translate(-18.98 -18.33)"/><path class="cls-1" d="M120.64,173.17h39.68" transform="translate(-18.98 -18.33)"/><path class="cls-1" d="M160.32,173.17" transform="translate(-18.98 -18.33)"/><path class="cls-1" d="M120.64,133.49v39.68" transform="translate(-18.98 -18.33)"/><path class="cls-1" d="M120.64,173.17" transform="translate(-18.98 -18.33)"/><path class="cls-1" d="M160.32,133.49H120.64" transform="translate(-18.98 -18.33)"/><path class="cls-1" d="M120.64,133.49" transform="translate(-18.98 -18.33)"/><path class="cls-1" d="M221.48,126.33" transform="translate(-18.98 -18.33)"/><path class="cls-1" d="M221.48,126.33" transform="translate(-18.98 -18.33)"/><path class="cls-1" d="M174.64,133.49v39.68" transform="translate(-18.98 -18.33)"/><path class="cls-1" d="M174.64,133.49" transform="translate(-18.98 -18.33)"/><path class="cls-1" d="M174.64,173.17h39.68" transform="translate(-18.98 -18.33)"/><path class="cls-1" d="M174.64,173.17" transform="translate(-18.98 -18.33)"/><path class="cls-1" d="M214.32,173.17V133.49" transform="translate(-18.98 -18.33)"/><path class="cls-1" d="M214.32,173.17" transform="translate(-18.98 -18.33)"/><path class="cls-1" d="M214.32,133.49" transform="translate(-18.98 -18.33)"/><path class="cls-1" d="M174.64,133.49h39.68" transform="translate(-18.98 -18.33)"/><path class="cls-1" d="M268.32,133.49" transform="translate(-18.98 -18.33)"/><path class="cls-1" d="M268.32,133.49v39.68" transform="translate(-18.98 -18.33)"/><path class="cls-1" d="M228.64,173.17h39.68" transform="translate(-18.98 -18.33)"/><path class="cls-1" d="M268.32,173.17" transform="translate(-18.98 -18.33)"/><path class="cls-1" d="M228.64,133.49v39.68" transform="translate(-18.98 -18.33)"/><path class="cls-1" d="M228.64,173.17" transform="translate(-18.98 -18.33)"/><path class="cls-1" d="M268.32,133.49H228.64" transform="translate(-18.98 -18.33)"/><path class="cls-1" d="M228.64,133.49" transform="translate(-18.98 -18.33)"/><path class="cls-1" d="M221.48,126.33" transform="translate(-18.98 -18.33)"/><path class="cls-1" d="M221.48,126.33" transform="translate(-18.98 -18.33)"/><path class="cls-1" d="M282.64,133.49h39.68" transform="translate(-18.98 -18.33)"/><path class="cls-1" d="M322.32,133.49" transform="translate(-18.98 -18.33)"/><path class="cls-1" d="M322.32,173.17" transform="translate(-18.98 -18.33)"/><path class="cls-1" d="M322.32,173.17V133.49" transform="translate(-18.98 -18.33)"/><path class="cls-1" d="M282.64,173.17" transform="translate(-18.98 -18.33)"/><path class="cls-1" d="M282.64,173.17h39.68" transform="translate(-18.98 -18.33)"/><path class="cls-1" d="M282.64,133.49" transform="translate(-18.98 -18.33)"/><path class="cls-1" d="M282.64,133.49v39.68" transform="translate(-18.98 -18.33)"/><path class="cls-1" d="M336.64,133.49h39.68" transform="translate(-18.98 -18.33)"/><path class="cls-1" d="M376.32,133.49" transform="translate(-18.98 -18.33)"/><path class="cls-1" d="M376.32,173.17" transform="translate(-18.98 -18.33)"/><path class="cls-1" d="M376.32,173.17V133.49" transform="translate(-18.98 -18.33)"/><path class="cls-1" d="M336.64,173.17" transform="translate(-18.98 -18.33)"/><path class="cls-1" d="M336.64,173.17h39.68" transform="translate(-18.98 -18.33)"/><path class="cls-1" d="M336.64,133.49" transform="translate(-18.98 -18.33)"/><path class="cls-1" d="M336.64,133.49v39.68" transform="translate(-18.98 -18.33)"/><path class="cls-1" d="M147.64,187.49v39.68" transform="translate(-18.98 -18.33)"/><path class="cls-1" d="M147.64,187.49" transform="translate(-18.98 -18.33)"/><path class="cls-1" d="M147.64,227.17h39.68" transform="translate(-18.98 -18.33)"/><path class="cls-1" d="M147.64,227.17" transform="translate(-18.98 -18.33)"/><path class="cls-1" d="M187.32,227.17V187.49" transform="translate(-18.98 -18.33)"/><path class="cls-1" d="M187.32,227.17" transform="translate(-18.98 -18.33)"/><path class="cls-1" d="M187.32,187.49" transform="translate(-18.98 -18.33)"/><path class="cls-1" d="M147.64,187.49h39.68" transform="translate(-18.98 -18.33)"/><path class="cls-1" d="M201.64,187.49" transform="translate(-18.98 -18.33)"/><path class="cls-1" d="M241.32,187.49H201.64" transform="translate(-18.98 -18.33)"/><path class="cls-1" d="M201.64,227.17" transform="translate(-18.98 -18.33)"/><path class="cls-1" d="M201.64,187.49v39.68" transform="translate(-18.98 -18.33)"/><path class="cls-1" d="M241.32,227.17" transform="translate(-18.98 -18.33)"/><path class="cls-1" d="M201.64,227.17h39.68" transform="translate(-18.98 -18.33)"/><path class="cls-1" d="M241.32,187.49v39.68" transform="translate(-18.98 -18.33)"/><path class="cls-1" d="M241.32,187.49" transform="translate(-18.98 -18.33)"/><path class="cls-1" d="M255.64,187.49" transform="translate(-18.98 -18.33)"/><path class="cls-1" d="M295.32,187.49H255.64" transform="translate(-18.98 -18.33)"/><path class="cls-1" d="M255.64,227.17" transform="translate(-18.98 -18.33)"/><path class="cls-1" d="M255.64,187.49v39.68" transform="translate(-18.98 -18.33)"/><path class="cls-1" d="M295.32,227.17" transform="translate(-18.98 -18.33)"/><path class="cls-1" d="M255.64,227.17h39.68" transform="translate(-18.98 -18.33)"/><path class="cls-1" d="M295.32,187.49v39.68" transform="translate(-18.98 -18.33)"/><path class="cls-1" d="M295.32,187.49" transform="translate(-18.98 -18.33)"/><path class="cls-1" d="M309.64,187.49v39.68" transform="translate(-18.98 -18.33)"/><path class="cls-1" d="M309.64,187.49" transform="translate(-18.98 -18.33)"/><path class="cls-1" d="M309.64,227.17h39.68" transform="translate(-18.98 -18.33)"/><path class="cls-1" d="M309.64,227.17" transform="translate(-18.98 -18.33)"/><path class="cls-1" d="M349.32,227.17V187.49" transform="translate(-18.98 -18.33)"/><path class="cls-1" d="M349.32,227.17" transform="translate(-18.98 -18.33)"/><path class="cls-1" d="M349.32,187.49" transform="translate(-18.98 -18.33)"/><path class="cls-1" d="M309.64,187.49h39.68" transform="translate(-18.98 -18.33)"/><path class="cls-1" d="M363.64,187.49" transform="translate(-18.98 -18.33)"/><path class="cls-1" d="M403.32,187.49H363.64" transform="translate(-18.98 -18.33)"/><path class="cls-1" d="M363.64,227.17" transform="translate(-18.98 -18.33)"/><path class="cls-1" d="M363.64,187.49v39.68" transform="translate(-18.98 -18.33)"/><path class="cls-1" d="M403.32,227.17" transform="translate(-18.98 -18.33)"/><path class="cls-1" d="M363.64,227.17h39.68" transform="translate(-18.98 -18.33)"/><path class="cls-1" d="M403.32,187.49v39.68" transform="translate(-18.98 -18.33)"/><path class="cls-1" d="M403.32,187.49" transform="translate(-18.98 -18.33)"/><path class="cls-1" d="M107.14,241.49v39.68" transform="translate(-18.98 -18.33)"/><path class="cls-1" d="M107.14,241.49" transform="translate(-18.98 -18.33)"/><path class="cls-1" d="M107.14,281.17h39.68" transform="translate(-18.98 -18.33)"/><path class="cls-1" d="M107.14,281.17" transform="translate(-18.98 -18.33)"/><path class="cls-1" d="M146.82,281.17V241.49" transform="translate(-18.98 -18.33)"/><path class="cls-1" d="M146.82,281.17" transform="translate(-18.98 -18.33)"/><path class="cls-1" d="M146.82,241.49" transform="translate(-18.98 -18.33)"/><path class="cls-1" d="M107.14,241.49h39.68" transform="translate(-18.98 -18.33)"/><path class="cls-1" d="M214.32,241.49" transform="translate(-18.98 -18.33)"/><path class="cls-1" d="M214.32,241.49v39.68" transform="translate(-18.98 -18.33)"/><path class="cls-1" d="M174.64,281.17h39.68" transform="translate(-18.98 -18.33)"/><path class="cls-1" d="M214.32,281.17" transform="translate(-18.98 -18.33)"/><path class="cls-1" d="M174.64,241.49v39.68" transform="translate(-18.98 -18.33)"/><path class="cls-1" d="M174.64,281.17" transform="translate(-18.98 -18.33)"/><path class="cls-1" d="M214.32,241.49H174.64" transform="translate(-18.98 -18.33)"/><path class="cls-1" d="M174.64,241.49" transform="translate(-18.98 -18.33)"/><circle class="cls-1" cx="358.83" cy="162" r="3.12"/><circle class="cls-1" cx="5.67" cy="162" r="3.12"/><circle class="cls-1" cx="358.83" cy="264.33" r="3.12"/><circle class="cls-1" cx="134.99" cy="264.33" r="3.12"/><circle class="cls-1" cx="202.51" cy="108" r="3.12"/><circle class="cls-1" cx="324" cy="5.67" r="3.12"/><circle class="cls-1" cx="54" cy="5.67" r="3.12"/><path class="cls-1" d="M221.48,409.8" transform="translate(-18.98 -18.33)"/><path class="cls-1" d="M221.48,409.8" transform="translate(-18.98 -18.33)"/><path class="cls-1" d="M221.48,409.8" transform="translate(-18.98 -18.33)"/><path class="cls-1" d="M221.48,409.8" transform="translate(-18.98 -18.33)"/><circle class="cls-1" cx="358.83" cy="445.47" r="3.12"/><circle class="cls-1" cx="5.67" cy="445.47" r="3.12"/><circle class="cls-1" cx="358.83" cy="547.8" r="3.12"/><circle class="cls-1" cx="134.99" cy="547.8" r="3.12"/><circle class="cls-1" cx="202.51" cy="391.47" r="3.12"/><circle class="cls-1" cx="324" cy="289.14" r="3.12"/><circle class="cls-1" cx="54" cy="289.14" r="3.12"/><path class="cls-1" d="M617.66,409.8" transform="translate(-18.98 -18.33)"/><path class="cls-1" d="M617.66,409.8" transform="translate(-18.98 -18.33)"/><path class="cls-1" d="M617.66,409.8" transform="translate(-18.98 -18.33)"/><path class="cls-1" d="M617.66,409.8" transform="translate(-18.98 -18.33)"/><path class="cls-1" d="M469.16,463.8" transform="translate(-18.98 -18.33)"/><path class="cls-1" d="M469.16,463.8" transform="translate(-18.98 -18.33)"/><path class="cls-1" d="M469.16,463.8" transform="translate(-18.98 -18.33)"/><path class="cls-1" d="M685.16,463.8" transform="translate(-18.98 -18.33)"/><path class="cls-1" d="M685.16,463.8" transform="translate(-18.98 -18.33)"/><path class="cls-1" d="M685.16,463.8" transform="translate(-18.98 -18.33)"/><path class="cls-1" d="M685.16,463.8" transform="translate(-18.98 -18.33)"/><path class="cls-1" d="M469.16,517.8" transform="translate(-18.98 -18.33)"/><path class="cls-1" d="M469.16,517.8" transform="translate(-18.98 -18.33)"/><path class="cls-1" d="M469.16,517.8" transform="translate(-18.98 -18.33)"/><circle class="cls-1" cx="836.01" cy="445.47" r="3.12"/><circle class="cls-1" cx="428.85" cy="445.47" r="3.12"/><circle class="cls-1" cx="598.68" cy="391.47" r="3.12"/><circle class="cls-1" cx="450.18" cy="547.8" r="3.12"/><circle class="cls-1" cx="652.68" cy="547.8" r="3.12"/><circle class="cls-1" cx="787.68" cy="289.14" r="3.12"/><circle class="cls-1" cx="463.68" cy="289.14" r="3.12"/><rect class="cls-2" x="17.09" y="169.16" width="87.31" height="39.69"/><rect class="cls-2" x="247" y="223.16" width="87.31" height="39.69"/><rect class="cls-2" x="467.68" y="223.16" width="87.31" height="39.69"/><rect class="cls-2" x="737.68" y="115.16" width="87.31" height="39.69"/></g><g id="カット2_R0G0B255_" data-name="カット2(R0G0B255)"><path class="cls-3" d="M860.66,18.33" transform="translate(-18.98 -18.33)"/><path class="cls-3" d="M860.66,18.33" transform="translate(-18.98 -18.33)"/><path class="cls-3" d="M860.66,180.33" transform="translate(-18.98 -18.33)"/><path class="cls-3" d="M860.66,126.33v54" transform="translate(-18.98 -18.33)"/><path class="cls-3" d="M860.66,126.33" transform="translate(-18.98 -18.33)"/><path class="cls-3" d="M428.66,18.33h54" transform="translate(-18.98 -18.33)"/><path class="cls-3" d="M482.66,18.33" transform="translate(-18.98 -18.33)"/><path class="cls-3" d="M428.66,72.33" transform="translate(-18.98 -18.33)"/><path class="cls-3" d="M428.66,72.33v-54" transform="translate(-18.98 -18.33)"/><path class="cls-3" d="M482.66,18.33h54" transform="translate(-18.98 -18.33)"/><path class="cls-3" d="M536.66,18.33" transform="translate(-18.98 -18.33)"/><path class="cls-3" d="M482.66,18.33" transform="translate(-18.98 -18.33)"/><path class="cls-3" d="M536.66,18.33h54" transform="translate(-18.98 -18.33)"/><path class="cls-3" d="M590.66,18.33" transform="translate(-18.98 -18.33)"/><path class="cls-3" d="M536.66,18.33" transform="translate(-18.98 -18.33)"/><path class="cls-3" d="M590.66,18.33" transform="translate(-18.98 -18.33)"/><path class="cls-3" d="M644.66,18.33" transform="translate(-18.98 -18.33)"/><path class="cls-3" d="M590.66,18.33h54" transform="translate(-18.98 -18.33)"/><path class="cls-3" d="M644.66,18.33" transform="translate(-18.98 -18.33)"/><path class="cls-3" d="M698.66,18.33" transform="translate(-18.98 -18.33)"/><path class="cls-3" d="M644.66,18.33h54" transform="translate(-18.98 -18.33)"/><path class="cls-3" d="M698.66,18.33h54" transform="translate(-18.98 -18.33)"/><path class="cls-3" d="M752.66,18.33" transform="translate(-18.98 -18.33)"/><path class="cls-3" d="M698.66,18.33" transform="translate(-18.98 -18.33)"/><path class="cls-3" d="M752.66,18.33h54" transform="translate(-18.98 -18.33)"/><path class="cls-3" d="M806.66,18.33" transform="translate(-18.98 -18.33)"/><path class="cls-3" d="M752.66,18.33" transform="translate(-18.98 -18.33)"/><path class="cls-3" d="M806.66,18.33h54" transform="translate(-18.98 -18.33)"/><path class="cls-3" d="M860.66,18.33v54" transform="translate(-18.98 -18.33)"/><path class="cls-3" d="M860.66,72.33" transform="translate(-18.98 -18.33)"/><path class="cls-3" d="M806.66,18.33" transform="translate(-18.98 -18.33)"/><path class="cls-3" d="M401.66,126.33v-54" transform="translate(-18.98 -18.33)"/><path class="cls-3" d="M415.16,126.33h-13.5" transform="translate(-18.98 -18.33)"/><path class="cls-3" d="M428.66,72.33" transform="translate(-18.98 -18.33)"/><path class="cls-3" d="M401.66,72.33h27" transform="translate(-18.98 -18.33)"/><path class="cls-3" d="M428.66,72.33" transform="translate(-18.98 -18.33)"/><path class="cls-3" d="M428.66,72.33" transform="translate(-18.98 -18.33)"/><path class="cls-3" d="M860.66,72.33" transform="translate(-18.98 -18.33)"/><path class="cls-3" d="M860.66,72.33v54" transform="translate(-18.98 -18.33)"/><path class="cls-3" d="M860.66,126.33" transform="translate(-18.98 -18.33)"/><path class="cls-3" d="M415.16,126.33" transform="translate(-18.98 -18.33)"/><path class="cls-3" d="M442.16,180.33h-27" transform="translate(-18.98 -18.33)"/><path class="cls-3" d="M415.16,180.33v-54" transform="translate(-18.98 -18.33)"/><path class="cls-3" d="M442.16,234.33v-54" transform="translate(-18.98 -18.33)"/><path class="cls-3" d="M442.16,234.33" transform="translate(-18.98 -18.33)"/><path class="cls-3" d="M442.16,180.33" transform="translate(-18.98 -18.33)"/><path class="cls-3" d="M415.16,288.33v-54" transform="translate(-18.98 -18.33)"/><path class="cls-3" d="M469.16,288.33h-54" transform="translate(-18.98 -18.33)"/><path class="cls-3" d="M469.16,288.33" transform="translate(-18.98 -18.33)"/><path class="cls-3" d="M469.16,234.33" transform="translate(-18.98 -18.33)"/><path class="cls-3" d="M415.16,234.33h27" transform="translate(-18.98 -18.33)"/><path class="cls-3" d="M469.16,234.33" transform="translate(-18.98 -18.33)"/><path class="cls-3" d="M590.66,288.33" transform="translate(-18.98 -18.33)"/><path class="cls-3" d="M469.16,288.33h121.5" transform="translate(-18.98 -18.33)"/><path class="cls-3" d="M469.16,234.33" transform="translate(-18.98 -18.33)"/><path class="cls-3" d="M469.16,288.33" transform="translate(-18.98 -18.33)"/><path class="cls-3" d="M590.66,288.33" transform="translate(-18.98 -18.33)"/><path class="cls-3" d="M671.66,288.33h-81" transform="translate(-18.98 -18.33)"/><path class="cls-3" d="M671.66,288.33" transform="translate(-18.98 -18.33)"/><path class="cls-3" d="M671.66,288.33" transform="translate(-18.98 -18.33)"/><path class="cls-3" d="M725.66,288.33h-54" transform="translate(-18.98 -18.33)"/><path class="cls-3" d="M725.66,288.33" transform="translate(-18.98 -18.33)"/><path class="cls-3" d="M860.66,180.33" transform="translate(-18.98 -18.33)"/><path class="cls-3" d="M860.66,180.33v54" transform="translate(-18.98 -18.33)"/><path class="cls-3" d="M860.66,234.33" transform="translate(-18.98 -18.33)"/><path class="cls-3" d="M860.66,288.33h-135" transform="translate(-18.98 -18.33)"/><path class="cls-3" d="M860.66,234.33v54" transform="translate(-18.98 -18.33)"/><path class="cls-3" d="M19,18.33" transform="translate(-18.98 -18.33)"/><path class="cls-3" d="M19,18.33" transform="translate(-18.98 -18.33)"/><path class="cls-3" d="M19,72.33v-54" transform="translate(-18.98 -18.33)"/><path class="cls-3" d="M19,72.33" transform="translate(-18.98 -18.33)"/><path class="cls-3" d="M73,18.33" transform="translate(-18.98 -18.33)"/><path class="cls-3" d="M19,18.33H73" transform="translate(-18.98 -18.33)"/><path class="cls-3" d="M73,18.33h54" transform="translate(-18.98 -18.33)"/><path class="cls-3" d="M127,18.33" transform="translate(-18.98 -18.33)"/><path class="cls-3" d="M73,18.33" transform="translate(-18.98 -18.33)"/><path class="cls-3" d="M127,18.33h54" transform="translate(-18.98 -18.33)"/><path class="cls-3" d="M181,18.33" transform="translate(-18.98 -18.33)"/><path class="cls-3" d="M127,18.33" transform="translate(-18.98 -18.33)"/><path class="cls-3" d="M181,18.33h54" transform="translate(-18.98 -18.33)"/><path class="cls-3" d="M235,18.33" transform="translate(-18.98 -18.33)"/><path class="cls-3" d="M181,18.33" transform="translate(-18.98 -18.33)"/><path class="cls-3" d="M235,18.33h54" transform="translate(-18.98 -18.33)"/><path class="cls-3" d="M289,18.33" transform="translate(-18.98 -18.33)"/><path class="cls-3" d="M235,18.33" transform="translate(-18.98 -18.33)"/><path class="cls-3" d="M289,18.33h54" transform="translate(-18.98 -18.33)"/><path class="cls-3" d="M370,72.33" transform="translate(-18.98 -18.33)"/><path class="cls-3" d="M343,18.33" transform="translate(-18.98 -18.33)"/><path class="cls-3" d="M370,72.33" transform="translate(-18.98 -18.33)"/><path class="cls-3" d="M289,18.33" transform="translate(-18.98 -18.33)"/><path class="cls-3" d="M343,18.33h54" transform="translate(-18.98 -18.33)"/><path class="cls-3" d="M397,18.33v54" transform="translate(-18.98 -18.33)"/><path class="cls-3" d="M397,72.33H370" transform="translate(-18.98 -18.33)"/><path class="cls-3" d="M343,18.33" transform="translate(-18.98 -18.33)"/><path class="cls-3" d="M370,72.33" transform="translate(-18.98 -18.33)"/><path class="cls-3" d="M19,72.33" transform="translate(-18.98 -18.33)"/><path class="cls-3" d="M19,126.33" transform="translate(-18.98 -18.33)"/><path class="cls-3" d="M19,126.33v-54" transform="translate(-18.98 -18.33)"/><path class="cls-3" d="M370,126.33" transform="translate(-18.98 -18.33)"/><path class="cls-3" d="M370,72.33v54" transform="translate(-18.98 -18.33)"/><path class="cls-3" d="M370,72.33" transform="translate(-18.98 -18.33)"/><path class="cls-3" d="M19,126.33" transform="translate(-18.98 -18.33)"/><path class="cls-3" d="M19,180.33" transform="translate(-18.98 -18.33)"/><path class="cls-3" d="M19,180.33v-54" transform="translate(-18.98 -18.33)"/><path class="cls-3" d="M370,126.33" transform="translate(-18.98 -18.33)"/><path class="cls-3" d="M370,126.33" transform="translate(-18.98 -18.33)"/><path class="cls-3" d="M370,126.33h13.5" transform="translate(-18.98 -18.33)"/><path class="cls-3" d="M383.48,126.33v54" transform="translate(-18.98 -18.33)"/><path class="cls-3" d="M383.48,180.33" transform="translate(-18.98 -18.33)"/><path class="cls-3" d="M370,126.33" transform="translate(-18.98 -18.33)"/><path class="cls-3" d="M19,180.33" transform="translate(-18.98 -18.33)"/><path class="cls-3" d="M19,234.33" transform="translate(-18.98 -18.33)"/><path class="cls-3" d="M19,234.33v-54" transform="translate(-18.98 -18.33)"/><path class="cls-3" d="M410.48,234.33h-27" transform="translate(-18.98 -18.33)"/><path class="cls-3" d="M410.48,180.33v54" transform="translate(-18.98 -18.33)"/><path class="cls-3" d="M383.48,180.33h27" transform="translate(-18.98 -18.33)"/><path class="cls-3" d="M100,288.33" transform="translate(-18.98 -18.33)"/><path class="cls-3" d="M154,288.33H100" transform="translate(-18.98 -18.33)"/><path class="cls-3" d="M154,288.33" transform="translate(-18.98 -18.33)"/><path class="cls-3" d="M383.48,234.33" transform="translate(-18.98 -18.33)"/><path class="cls-3" d="M383.48,234.33v54" transform="translate(-18.98 -18.33)"/><path class="cls-3" d="M235,288.33h148.5" transform="translate(-18.98 -18.33)"/><path class="cls-3" d="M235,288.33" transform="translate(-18.98 -18.33)"/><path class="cls-3" d="M235,288.33" transform="translate(-18.98 -18.33)"/><path class="cls-3" d="M235,288.33H154" transform="translate(-18.98 -18.33)"/><path class="cls-3" d="M154,288.33" transform="translate(-18.98 -18.33)"/><path class="cls-3" d="M100,288.33H19" transform="translate(-18.98 -18.33)"/><path class="cls-3" d="M19,288.33v-54" transform="translate(-18.98 -18.33)"/><path class="cls-3" d="M19,301.8" transform="translate(-18.98 -18.33)"/><path class="cls-3" d="M19,301.8" transform="translate(-18.98 -18.33)"/><path class="cls-3" d="M19,355.8v-54" transform="translate(-18.98 -18.33)"/><path class="cls-3" d="M19,355.8" transform="translate(-18.98 -18.33)"/><path class="cls-3" d="M73,301.8" transform="translate(-18.98 -18.33)"/><path class="cls-3" d="M19,301.8H73" transform="translate(-18.98 -18.33)"/><path class="cls-3" d="M73,301.8h54" transform="translate(-18.98 -18.33)"/><path class="cls-3" d="M127,301.8" transform="translate(-18.98 -18.33)"/><path class="cls-3" d="M73,301.8" transform="translate(-18.98 -18.33)"/><path class="cls-3" d="M127,301.8h54" transform="translate(-18.98 -18.33)"/><path class="cls-3" d="M181,301.8" transform="translate(-18.98 -18.33)"/><path class="cls-3" d="M127,301.8" transform="translate(-18.98 -18.33)"/><path class="cls-3" d="M181,301.8h54" transform="translate(-18.98 -18.33)"/><path class="cls-3" d="M235,301.8" transform="translate(-18.98 -18.33)"/><path class="cls-3" d="M181,301.8" transform="translate(-18.98 -18.33)"/><path class="cls-3" d="M235,301.8h54" transform="translate(-18.98 -18.33)"/><path class="cls-3" d="M289,301.8" transform="translate(-18.98 -18.33)"/><path class="cls-3" d="M235,301.8" transform="translate(-18.98 -18.33)"/><path class="cls-3" d="M289,301.8h54" transform="translate(-18.98 -18.33)"/><path class="cls-3" d="M370,355.8" transform="translate(-18.98 -18.33)"/><path class="cls-3" d="M343,301.8" transform="translate(-18.98 -18.33)"/><path class="cls-3" d="M370,355.8" transform="translate(-18.98 -18.33)"/><path class="cls-3" d="M289,301.8" transform="translate(-18.98 -18.33)"/><path class="cls-3" d="M343,301.8h54" transform="translate(-18.98 -18.33)"/><path class="cls-3" d="M397,301.8v54" transform="translate(-18.98 -18.33)"/><path class="cls-3" d="M397,355.8H370" transform="translate(-18.98 -18.33)"/><path class="cls-3" d="M343,301.8" transform="translate(-18.98 -18.33)"/><path class="cls-3" d="M370,355.8" transform="translate(-18.98 -18.33)"/><path class="cls-3" d="M19,355.8" transform="translate(-18.98 -18.33)"/><path class="cls-3" d="M19,409.8" transform="translate(-18.98 -18.33)"/><path class="cls-3" d="M19,409.8v-54" transform="translate(-18.98 -18.33)"/><path class="cls-3" d="M370,409.8" transform="translate(-18.98 -18.33)"/><path class="cls-3" d="M370,355.8v54" transform="translate(-18.98 -18.33)"/><path class="cls-3" d="M370,355.8" transform="translate(-18.98 -18.33)"/><path class="cls-3" d="M19,409.8" transform="translate(-18.98 -18.33)"/><path class="cls-3" d="M19,463.8" transform="translate(-18.98 -18.33)"/><path class="cls-3" d="M19,463.8v-54" transform="translate(-18.98 -18.33)"/><path class="cls-3" d="M370,409.8" transform="translate(-18.98 -18.33)"/><path class="cls-3" d="M370,409.8" transform="translate(-18.98 -18.33)"/><path class="cls-3" d="M370,409.8h13.5" transform="translate(-18.98 -18.33)"/><path class="cls-3" d="M383.48,409.8v54" transform="translate(-18.98 -18.33)"/><path class="cls-3" d="M383.48,463.8" transform="translate(-18.98 -18.33)"/><path class="cls-3" d="M370,409.8" transform="translate(-18.98 -18.33)"/><path class="cls-3" d="M19,463.8" transform="translate(-18.98 -18.33)"/><path class="cls-3" d="M19,517.8" transform="translate(-18.98 -18.33)"/><path class="cls-3" d="M19,517.8v-54" transform="translate(-18.98 -18.33)"/><path class="cls-3" d="M410.48,517.8h-27" transform="translate(-18.98 -18.33)"/><path class="cls-3" d="M410.48,463.8v54" transform="translate(-18.98 -18.33)"/><path class="cls-3" d="M383.48,463.8h27" transform="translate(-18.98 -18.33)"/><path class="cls-3" d="M100,571.8" transform="translate(-18.98 -18.33)"/><path class="cls-3" d="M154,571.8H100" transform="translate(-18.98 -18.33)"/><path class="cls-3" d="M154,571.8" transform="translate(-18.98 -18.33)"/><path class="cls-3" d="M383.48,517.8" transform="translate(-18.98 -18.33)"/><path class="cls-3" d="M383.48,517.8v54" transform="translate(-18.98 -18.33)"/><path class="cls-3" d="M235,571.8h148.5" transform="translate(-18.98 -18.33)"/><path class="cls-3" d="M235,571.8" transform="translate(-18.98 -18.33)"/><path class="cls-3" d="M235,571.8" transform="translate(-18.98 -18.33)"/><path class="cls-3" d="M235,571.8H154" transform="translate(-18.98 -18.33)"/><path class="cls-3" d="M154,571.8" transform="translate(-18.98 -18.33)"/><path class="cls-3" d="M100,571.8H19" transform="translate(-18.98 -18.33)"/><path class="cls-3" d="M19,571.8v-54" transform="translate(-18.98 -18.33)"/><path class="cls-3" d="M860.66,301.8" transform="translate(-18.98 -18.33)"/><path class="cls-3" d="M860.66,301.8" transform="translate(-18.98 -18.33)"/><path class="cls-3" d="M860.66,463.8" transform="translate(-18.98 -18.33)"/><path class="cls-3" d="M860.66,409.8v54" transform="translate(-18.98 -18.33)"/><path class="cls-3" d="M860.66,409.8" transform="translate(-18.98 -18.33)"/><path class="cls-3" d="M428.66,301.8h54" transform="translate(-18.98 -18.33)"/><path class="cls-3" d="M482.66,301.8" transform="translate(-18.98 -18.33)"/><path class="cls-3" d="M428.66,355.8" transform="translate(-18.98 -18.33)"/><path class="cls-3" d="M428.66,355.8v-54" transform="translate(-18.98 -18.33)"/><path class="cls-3" d="M482.66,301.8h54" transform="translate(-18.98 -18.33)"/><path class="cls-3" d="M536.66,301.8" transform="translate(-18.98 -18.33)"/><path class="cls-3" d="M482.66,301.8" transform="translate(-18.98 -18.33)"/><path class="cls-3" d="M536.66,301.8h54" transform="translate(-18.98 -18.33)"/><path class="cls-3" d="M590.66,301.8" transform="translate(-18.98 -18.33)"/><path class="cls-3" d="M536.66,301.8" transform="translate(-18.98 -18.33)"/><path class="cls-3" d="M590.66,301.8" transform="translate(-18.98 -18.33)"/><path class="cls-3" d="M644.66,301.8" transform="translate(-18.98 -18.33)"/><path class="cls-3" d="M590.66,301.8h54" transform="translate(-18.98 -18.33)"/><path class="cls-3" d="M644.66,301.8" transform="translate(-18.98 -18.33)"/><path class="cls-3" d="M698.66,301.8" transform="translate(-18.98 -18.33)"/><path class="cls-3" d="M644.66,301.8h54" transform="translate(-18.98 -18.33)"/><path class="cls-3" d="M698.66,301.8h54" transform="translate(-18.98 -18.33)"/><path class="cls-3" d="M752.66,301.8" transform="translate(-18.98 -18.33)"/><path class="cls-3" d="M698.66,301.8" transform="translate(-18.98 -18.33)"/><path class="cls-3" d="M752.66,301.8h54" transform="translate(-18.98 -18.33)"/><path class="cls-3" d="M806.66,301.8" transform="translate(-18.98 -18.33)"/><path class="cls-3" d="M752.66,301.8" transform="translate(-18.98 -18.33)"/><path class="cls-3" d="M806.66,301.8h54" transform="translate(-18.98 -18.33)"/><path class="cls-3" d="M860.66,301.8v54" transform="translate(-18.98 -18.33)"/><path class="cls-3" d="M860.66,355.8" transform="translate(-18.98 -18.33)"/><path class="cls-3" d="M806.66,301.8" transform="translate(-18.98 -18.33)"/><path class="cls-3" d="M401.66,409.8v-54" transform="translate(-18.98 -18.33)"/><path class="cls-3" d="M415.16,409.8h-13.5" transform="translate(-18.98 -18.33)"/><path class="cls-3" d="M428.66,355.8" transform="translate(-18.98 -18.33)"/><path class="cls-3" d="M401.66,355.8h27" transform="translate(-18.98 -18.33)"/><path class="cls-3" d="M428.66,355.8" transform="translate(-18.98 -18.33)"/><path class="cls-3" d="M428.66,355.8" transform="translate(-18.98 -18.33)"/><path class="cls-3" d="M860.66,355.8" transform="translate(-18.98 -18.33)"/><path class="cls-3" d="M860.66,355.8v54" transform="translate(-18.98 -18.33)"/><path class="cls-3" d="M860.66,409.8" transform="translate(-18.98 -18.33)"/><path class="cls-3" d="M415.16,409.8" transform="translate(-18.98 -18.33)"/><path class="cls-3" d="M469.16,463.8" transform="translate(-18.98 -18.33)"/><path class="cls-3" d="M442.16,463.8h-27" transform="translate(-18.98 -18.33)"/><path class="cls-3" d="M415.16,463.8v-54" transform="translate(-18.98 -18.33)"/><path class="cls-3" d="M469.16,463.8" transform="translate(-18.98 -18.33)"/><path class="cls-3" d="M469.16,463.8" transform="translate(-18.98 -18.33)"/><path class="cls-3" d="M685.16,463.8" transform="translate(-18.98 -18.33)"/><path class="cls-3" d="M685.16,463.8" transform="translate(-18.98 -18.33)"/><path class="cls-3" d="M685.16,463.8" transform="translate(-18.98 -18.33)"/><path class="cls-3" d="M685.16,463.8" transform="translate(-18.98 -18.33)"/><path class="cls-3" d="M442.16,517.8v-54" transform="translate(-18.98 -18.33)"/><path class="cls-3" d="M442.16,517.8" transform="translate(-18.98 -18.33)"/><path class="cls-3" d="M442.16,463.8" transform="translate(-18.98 -18.33)"/><path class="cls-3" d="M415.16,571.8v-54" transform="translate(-18.98 -18.33)"/><path class="cls-3" d="M469.16,571.8h-54" transform="translate(-18.98 -18.33)"/><path class="cls-3" d="M469.16,571.8" transform="translate(-18.98 -18.33)"/><path class="cls-3" d="M469.16,517.8" transform="translate(-18.98 -18.33)"/><path class="cls-3" d="M415.16,517.8h27" transform="translate(-18.98 -18.33)"/><path class="cls-3" d="M469.16,517.8" transform="translate(-18.98 -18.33)"/><path class="cls-3" d="M590.66,571.8" transform="translate(-18.98 -18.33)"/><path class="cls-3" d="M469.16,571.8h121.5" transform="translate(-18.98 -18.33)"/><path class="cls-3" d="M469.16,517.8" transform="translate(-18.98 -18.33)"/><path class="cls-3" d="M469.16,571.8" transform="translate(-18.98 -18.33)"/><path class="cls-3" d="M590.66,571.8" transform="translate(-18.98 -18.33)"/><path class="cls-3" d="M671.66,571.8h-81" transform="translate(-18.98 -18.33)"/><path class="cls-3" d="M671.66,571.8" transform="translate(-18.98 -18.33)"/><path class="cls-3" d="M671.66,571.8" transform="translate(-18.98 -18.33)"/><path class="cls-3" d="M725.66,571.8h-54" transform="translate(-18.98 -18.33)"/><path class="cls-3" d="M725.66,571.8" transform="translate(-18.98 -18.33)"/><path class="cls-3" d="M860.66,463.8" transform="translate(-18.98 -18.33)"/><path class="cls-3" d="M860.66,463.8v54" transform="translate(-18.98 -18.33)"/><path class="cls-3" d="M860.66,517.8" transform="translate(-18.98 -18.33)"/><path class="cls-3" d="M860.66,571.8h-135" transform="translate(-18.98 -18.33)"/><path class="cls-3" d="M860.66,517.8v54" transform="translate(-18.98 -18.33)"/></g></svg>