G04 #@! TF.GenerationSoftware,KiCad,Pcbnew,(5.1.5-0-10_14)*
G04 #@! TF.CreationDate,2020-08-12T23:03:47+09:00*
G04 #@! TF.ProjectId,iroha60-left,69726f68-6136-4302-9d6c-6566742e6b69,rev?*
G04 #@! TF.SameCoordinates,Original*
G04 #@! TF.FileFunction,Legend,Bot*
G04 #@! TF.FilePolarity,Positive*
%FSLAX46Y46*%
G04 Gerber Fmt 4.6, Leading zero omitted, Abs format (unit mm)*
G04 Created by KiCad (PCBNEW (5.1.5-0-10_14)) date 2020-08-12 23:03:47*
%MOMM*%
%LPD*%
G04 APERTURE LIST*
%ADD10C,0.150000*%
%ADD11C,0.125000*%
G04 APERTURE END LIST*
D10*
X37960000Y-25240000D02*
X36460000Y-25240000D01*
X37960000Y-30640000D02*
X37960000Y-25240000D01*
X36460000Y-30640000D02*
X37960000Y-30640000D01*
X36460000Y-25240000D02*
X36460000Y-30640000D01*
X36710000Y-28440000D02*
X37710000Y-28440000D01*
X37710000Y-27440000D02*
X37210000Y-28340000D01*
X36710000Y-27440000D02*
X37710000Y-27440000D01*
X37210000Y-28340000D02*
X36710000Y-27440000D01*
X56960000Y-25240000D02*
X55460000Y-25240000D01*
X56960000Y-30640000D02*
X56960000Y-25240000D01*
X55460000Y-30640000D02*
X56960000Y-30640000D01*
X55460000Y-25240000D02*
X55460000Y-30640000D01*
X55710000Y-28440000D02*
X56710000Y-28440000D01*
X56710000Y-27440000D02*
X56210000Y-28340000D01*
X55710000Y-27440000D02*
X56710000Y-27440000D01*
X56210000Y-28340000D02*
X55710000Y-27440000D01*
X76060000Y-25240000D02*
X74560000Y-25240000D01*
X76060000Y-30640000D02*
X76060000Y-25240000D01*
X74560000Y-30640000D02*
X76060000Y-30640000D01*
X74560000Y-25240000D02*
X74560000Y-30640000D01*
X74810000Y-28440000D02*
X75810000Y-28440000D01*
X75810000Y-27440000D02*
X75310000Y-28340000D01*
X74810000Y-27440000D02*
X75810000Y-27440000D01*
X75310000Y-28340000D02*
X74810000Y-27440000D01*
X95110000Y-25240000D02*
X93610000Y-25240000D01*
X95110000Y-30640000D02*
X95110000Y-25240000D01*
X93610000Y-30640000D02*
X95110000Y-30640000D01*
X93610000Y-25240000D02*
X93610000Y-30640000D01*
X93860000Y-28440000D02*
X94860000Y-28440000D01*
X94860000Y-27440000D02*
X94360000Y-28340000D01*
X93860000Y-27440000D02*
X94860000Y-27440000D01*
X94360000Y-28340000D02*
X93860000Y-27440000D01*
X98160000Y-25240000D02*
X96660000Y-25240000D01*
X98160000Y-30640000D02*
X98160000Y-25240000D01*
X96660000Y-30640000D02*
X98160000Y-30640000D01*
X96660000Y-25240000D02*
X96660000Y-30640000D01*
X96910000Y-28440000D02*
X97910000Y-28440000D01*
X97910000Y-27440000D02*
X97410000Y-28340000D01*
X96910000Y-27440000D02*
X97910000Y-27440000D01*
X97410000Y-28340000D02*
X96910000Y-27440000D01*
X133210000Y-25240000D02*
X131710000Y-25240000D01*
X133210000Y-30640000D02*
X133210000Y-25240000D01*
X131710000Y-30640000D02*
X133210000Y-30640000D01*
X131710000Y-25240000D02*
X131710000Y-30640000D01*
X131960000Y-28440000D02*
X132960000Y-28440000D01*
X132960000Y-27440000D02*
X132460000Y-28340000D01*
X131960000Y-27440000D02*
X132960000Y-27440000D01*
X132460000Y-28340000D02*
X131960000Y-27440000D01*
X136260000Y-25240000D02*
X134760000Y-25240000D01*
X136260000Y-30640000D02*
X136260000Y-25240000D01*
X134760000Y-30640000D02*
X136260000Y-30640000D01*
X134760000Y-25240000D02*
X134760000Y-30640000D01*
X135010000Y-28440000D02*
X136010000Y-28440000D01*
X136010000Y-27440000D02*
X135510000Y-28340000D01*
X135010000Y-27440000D02*
X136010000Y-27440000D01*
X135510000Y-28340000D02*
X135010000Y-27440000D01*
X65785000Y-47390000D02*
X65285000Y-46490000D01*
X65285000Y-46490000D02*
X66285000Y-46490000D01*
X66285000Y-46490000D02*
X65785000Y-47390000D01*
X65285000Y-47490000D02*
X66285000Y-47490000D01*
X65035000Y-44290000D02*
X65035000Y-49690000D01*
X65035000Y-49690000D02*
X66535000Y-49690000D01*
X66535000Y-49690000D02*
X66535000Y-44290000D01*
X66535000Y-44290000D02*
X65035000Y-44290000D01*
X68835000Y-47340000D02*
X68335000Y-46440000D01*
X68335000Y-46440000D02*
X69335000Y-46440000D01*
X69335000Y-46440000D02*
X68835000Y-47340000D01*
X68335000Y-47440000D02*
X69335000Y-47440000D01*
X68085000Y-44240000D02*
X68085000Y-49640000D01*
X68085000Y-49640000D02*
X69585000Y-49640000D01*
X69585000Y-49640000D02*
X69585000Y-44240000D01*
X69585000Y-44240000D02*
X68085000Y-44240000D01*
X84835000Y-47390000D02*
X84335000Y-46490000D01*
X84335000Y-46490000D02*
X85335000Y-46490000D01*
X85335000Y-46490000D02*
X84835000Y-47390000D01*
X84335000Y-47490000D02*
X85335000Y-47490000D01*
X84085000Y-44290000D02*
X84085000Y-49690000D01*
X84085000Y-49690000D02*
X85585000Y-49690000D01*
X85585000Y-49690000D02*
X85585000Y-44290000D01*
X85585000Y-44290000D02*
X84085000Y-44290000D01*
X103885000Y-47390000D02*
X103385000Y-46490000D01*
X103385000Y-46490000D02*
X104385000Y-46490000D01*
X104385000Y-46490000D02*
X103885000Y-47390000D01*
X103385000Y-47490000D02*
X104385000Y-47490000D01*
X103135000Y-44290000D02*
X103135000Y-49690000D01*
X103135000Y-49690000D02*
X104635000Y-49690000D01*
X104635000Y-49690000D02*
X104635000Y-44290000D01*
X104635000Y-44290000D02*
X103135000Y-44290000D01*
X122935000Y-47390000D02*
X122435000Y-46490000D01*
X122435000Y-46490000D02*
X123435000Y-46490000D01*
X123435000Y-46490000D02*
X122935000Y-47390000D01*
X122435000Y-47490000D02*
X123435000Y-47490000D01*
X122185000Y-44290000D02*
X122185000Y-49690000D01*
X122185000Y-49690000D02*
X123685000Y-49690000D01*
X123685000Y-49690000D02*
X123685000Y-44290000D01*
X123685000Y-44290000D02*
X122185000Y-44290000D01*
X125985000Y-47390000D02*
X125485000Y-46490000D01*
X125485000Y-46490000D02*
X126485000Y-46490000D01*
X126485000Y-46490000D02*
X125985000Y-47390000D01*
X125485000Y-47490000D02*
X126485000Y-47490000D01*
X125235000Y-44290000D02*
X125235000Y-49690000D01*
X125235000Y-49690000D02*
X126735000Y-49690000D01*
X126735000Y-49690000D02*
X126735000Y-44290000D01*
X126735000Y-44290000D02*
X125235000Y-44290000D01*
X45103750Y-63115000D02*
X43603750Y-63115000D01*
X45103750Y-68515000D02*
X45103750Y-63115000D01*
X43603750Y-68515000D02*
X45103750Y-68515000D01*
X43603750Y-63115000D02*
X43603750Y-68515000D01*
X43853750Y-66315000D02*
X44853750Y-66315000D01*
X44853750Y-65315000D02*
X44353750Y-66215000D01*
X43853750Y-65315000D02*
X44853750Y-65315000D01*
X44353750Y-66215000D02*
X43853750Y-65315000D01*
X71297500Y-63340000D02*
X69797500Y-63340000D01*
X71297500Y-68740000D02*
X71297500Y-63340000D01*
X69797500Y-68740000D02*
X71297500Y-68740000D01*
X69797500Y-63340000D02*
X69797500Y-68740000D01*
X70047500Y-66540000D02*
X71047500Y-66540000D01*
X71047500Y-65540000D02*
X70547500Y-66440000D01*
X70047500Y-65540000D02*
X71047500Y-65540000D01*
X70547500Y-66440000D02*
X70047500Y-65540000D01*
X89597500Y-66440000D02*
X89097500Y-65540000D01*
X89097500Y-65540000D02*
X90097500Y-65540000D01*
X90097500Y-65540000D02*
X89597500Y-66440000D01*
X89097500Y-66540000D02*
X90097500Y-66540000D01*
X88847500Y-63340000D02*
X88847500Y-68740000D01*
X88847500Y-68740000D02*
X90347500Y-68740000D01*
X90347500Y-68740000D02*
X90347500Y-63340000D01*
X90347500Y-63340000D02*
X88847500Y-63340000D01*
X109397500Y-63340000D02*
X107897500Y-63340000D01*
X109397500Y-68740000D02*
X109397500Y-63340000D01*
X107897500Y-68740000D02*
X109397500Y-68740000D01*
X107897500Y-63340000D02*
X107897500Y-68740000D01*
X108147500Y-66540000D02*
X109147500Y-66540000D01*
X109147500Y-65540000D02*
X108647500Y-66440000D01*
X108147500Y-65540000D02*
X109147500Y-65540000D01*
X108647500Y-66440000D02*
X108147500Y-65540000D01*
X128447500Y-63340000D02*
X126947500Y-63340000D01*
X128447500Y-68740000D02*
X128447500Y-63340000D01*
X126947500Y-68740000D02*
X128447500Y-68740000D01*
X126947500Y-63340000D02*
X126947500Y-68740000D01*
X127197500Y-66540000D02*
X128197500Y-66540000D01*
X128197500Y-65540000D02*
X127697500Y-66440000D01*
X127197500Y-65540000D02*
X128197500Y-65540000D01*
X127697500Y-66440000D02*
X127197500Y-65540000D01*
X131497500Y-63240000D02*
X129997500Y-63240000D01*
X131497500Y-68640000D02*
X131497500Y-63240000D01*
X129997500Y-68640000D02*
X131497500Y-68640000D01*
X129997500Y-63240000D02*
X129997500Y-68640000D01*
X130247500Y-66440000D02*
X131247500Y-66440000D01*
X131247500Y-65440000D02*
X130747500Y-66340000D01*
X130247500Y-65440000D02*
X131247500Y-65440000D01*
X130747500Y-66340000D02*
X130247500Y-65440000D01*
X61822500Y-82390000D02*
X60322500Y-82390000D01*
X61822500Y-87790000D02*
X61822500Y-82390000D01*
X60322500Y-87790000D02*
X61822500Y-87790000D01*
X60322500Y-82390000D02*
X60322500Y-87790000D01*
X60572500Y-85590000D02*
X61572500Y-85590000D01*
X61572500Y-84590000D02*
X61072500Y-85490000D01*
X60572500Y-84590000D02*
X61572500Y-84590000D01*
X61072500Y-85490000D02*
X60572500Y-84590000D01*
X80822500Y-82390000D02*
X79322500Y-82390000D01*
X80822500Y-87790000D02*
X80822500Y-82390000D01*
X79322500Y-87790000D02*
X80822500Y-87790000D01*
X79322500Y-82390000D02*
X79322500Y-87790000D01*
X79572500Y-85590000D02*
X80572500Y-85590000D01*
X80572500Y-84590000D02*
X80072500Y-85490000D01*
X79572500Y-84590000D02*
X80572500Y-84590000D01*
X80072500Y-85490000D02*
X79572500Y-84590000D01*
X99122500Y-85680000D02*
X98622500Y-84780000D01*
X98622500Y-84780000D02*
X99622500Y-84780000D01*
X99622500Y-84780000D02*
X99122500Y-85680000D01*
X98622500Y-85780000D02*
X99622500Y-85780000D01*
X98372500Y-82580000D02*
X98372500Y-87980000D01*
X98372500Y-87980000D02*
X99872500Y-87980000D01*
X99872500Y-87980000D02*
X99872500Y-82580000D01*
X99872500Y-82580000D02*
X98372500Y-82580000D01*
X118172500Y-85680000D02*
X117672500Y-84780000D01*
X117672500Y-84780000D02*
X118672500Y-84780000D01*
X118672500Y-84780000D02*
X118172500Y-85680000D01*
X117672500Y-85780000D02*
X118672500Y-85780000D01*
X117422500Y-82580000D02*
X117422500Y-87980000D01*
X117422500Y-87980000D02*
X118922500Y-87980000D01*
X118922500Y-87980000D02*
X118922500Y-82580000D01*
X118922500Y-82580000D02*
X117422500Y-82580000D01*
X137222500Y-85680000D02*
X136722500Y-84780000D01*
X136722500Y-84780000D02*
X137722500Y-84780000D01*
X137722500Y-84780000D02*
X137222500Y-85680000D01*
X136722500Y-85780000D02*
X137722500Y-85780000D01*
X136472500Y-82580000D02*
X136472500Y-87980000D01*
X136472500Y-87980000D02*
X137972500Y-87980000D01*
X137972500Y-87980000D02*
X137972500Y-82580000D01*
X137972500Y-82580000D02*
X136472500Y-82580000D01*
X140272500Y-85680000D02*
X139772500Y-84780000D01*
X139772500Y-84780000D02*
X140772500Y-84780000D01*
X140772500Y-84780000D02*
X140272500Y-85680000D01*
X139772500Y-85780000D02*
X140772500Y-85780000D01*
X139522500Y-82580000D02*
X139522500Y-87980000D01*
X139522500Y-87980000D02*
X141022500Y-87980000D01*
X141022500Y-87980000D02*
X141022500Y-82580000D01*
X141022500Y-82580000D02*
X139522500Y-82580000D01*
X65785000Y-104540000D02*
X65285000Y-103640000D01*
X65285000Y-103640000D02*
X66285000Y-103640000D01*
X66285000Y-103640000D02*
X65785000Y-104540000D01*
X65285000Y-104640000D02*
X66285000Y-104640000D01*
X65035000Y-101440000D02*
X65035000Y-106840000D01*
X65035000Y-106840000D02*
X66535000Y-106840000D01*
X66535000Y-106840000D02*
X66535000Y-101440000D01*
X66535000Y-101440000D02*
X65035000Y-101440000D01*
X89597500Y-104540000D02*
X89097500Y-103640000D01*
X89097500Y-103640000D02*
X90097500Y-103640000D01*
X90097500Y-103640000D02*
X89597500Y-104540000D01*
X89097500Y-104640000D02*
X90097500Y-104640000D01*
X88847500Y-101440000D02*
X88847500Y-106840000D01*
X88847500Y-106840000D02*
X90347500Y-106840000D01*
X90347500Y-106840000D02*
X90347500Y-101440000D01*
X90347500Y-101440000D02*
X88847500Y-101440000D01*
X97597500Y-104540000D02*
X97097500Y-103640000D01*
X97097500Y-103640000D02*
X98097500Y-103640000D01*
X98097500Y-103640000D02*
X97597500Y-104540000D01*
X97097500Y-104640000D02*
X98097500Y-104640000D01*
X96847500Y-101440000D02*
X96847500Y-106840000D01*
X96847500Y-106840000D02*
X98347500Y-106840000D01*
X98347500Y-106840000D02*
X98347500Y-101440000D01*
X98347500Y-101440000D02*
X96847500Y-101440000D01*
X117935000Y-30415000D02*
X117935000Y-18415000D01*
X111935000Y-30415000D02*
X117935000Y-30415000D01*
X111935000Y-18415000D02*
X111935000Y-30415000D01*
X117935000Y-18415000D02*
X111935000Y-18415000D01*
X20316250Y-69040000D02*
X20316250Y-63040000D01*
X20316250Y-63040000D02*
X20566250Y-63040000D01*
X20316250Y-69040000D02*
X20566250Y-69040000D01*
X23816250Y-69040000D02*
X23566250Y-69040000D01*
X23816250Y-69040000D02*
X23816250Y-63040000D01*
X23816250Y-63040000D02*
X23566250Y-63040000D01*
X52704500Y-53376400D02*
X22224500Y-53376400D01*
X52704500Y-55916400D02*
X52704500Y-53376400D01*
X22224500Y-55916400D02*
X52704500Y-55916400D01*
X22224500Y-53376400D02*
X22224500Y-55916400D01*
X52704500Y-38156400D02*
X22224500Y-38156400D01*
X52704500Y-40696400D02*
X52704500Y-38156400D01*
X22224500Y-40696400D02*
X52704500Y-40696400D01*
X22224500Y-38156400D02*
X22224500Y-40696400D01*
D11*
X36186190Y-28309047D02*
X35686190Y-28309047D01*
X35686190Y-28190000D01*
X35710000Y-28118571D01*
X35757619Y-28070952D01*
X35805238Y-28047142D01*
X35900476Y-28023333D01*
X35971904Y-28023333D01*
X36067142Y-28047142D01*
X36114761Y-28070952D01*
X36162380Y-28118571D01*
X36186190Y-28190000D01*
X36186190Y-28309047D01*
X36186190Y-27547142D02*
X36186190Y-27832857D01*
X36186190Y-27690000D02*
X35686190Y-27690000D01*
X35757619Y-27737619D01*
X35805238Y-27785238D01*
X35829047Y-27832857D01*
X55186190Y-27570952D02*
X54686190Y-27570952D01*
X54686190Y-27690000D01*
X54710000Y-27761428D01*
X54757619Y-27809047D01*
X54805238Y-27832857D01*
X54900476Y-27856666D01*
X54971904Y-27856666D01*
X55067142Y-27832857D01*
X55114761Y-27809047D01*
X55162380Y-27761428D01*
X55186190Y-27690000D01*
X55186190Y-27570952D01*
X54733809Y-28047142D02*
X54710000Y-28070952D01*
X54686190Y-28118571D01*
X54686190Y-28237619D01*
X54710000Y-28285238D01*
X54733809Y-28309047D01*
X54781428Y-28332857D01*
X54829047Y-28332857D01*
X54900476Y-28309047D01*
X55186190Y-28023333D01*
X55186190Y-28332857D01*
X74286190Y-27570952D02*
X73786190Y-27570952D01*
X73786190Y-27690000D01*
X73810000Y-27761428D01*
X73857619Y-27809047D01*
X73905238Y-27832857D01*
X74000476Y-27856666D01*
X74071904Y-27856666D01*
X74167142Y-27832857D01*
X74214761Y-27809047D01*
X74262380Y-27761428D01*
X74286190Y-27690000D01*
X74286190Y-27570952D01*
X73786190Y-28023333D02*
X73786190Y-28332857D01*
X73976666Y-28166190D01*
X73976666Y-28237619D01*
X74000476Y-28285238D01*
X74024285Y-28309047D01*
X74071904Y-28332857D01*
X74190952Y-28332857D01*
X74238571Y-28309047D01*
X74262380Y-28285238D01*
X74286190Y-28237619D01*
X74286190Y-28094761D01*
X74262380Y-28047142D01*
X74238571Y-28023333D01*
X93336190Y-27570952D02*
X92836190Y-27570952D01*
X92836190Y-27690000D01*
X92860000Y-27761428D01*
X92907619Y-27809047D01*
X92955238Y-27832857D01*
X93050476Y-27856666D01*
X93121904Y-27856666D01*
X93217142Y-27832857D01*
X93264761Y-27809047D01*
X93312380Y-27761428D01*
X93336190Y-27690000D01*
X93336190Y-27570952D01*
X93002857Y-28285238D02*
X93336190Y-28285238D01*
X92812380Y-28166190D02*
X93169523Y-28047142D01*
X93169523Y-28356666D01*
X96386190Y-27570952D02*
X95886190Y-27570952D01*
X95886190Y-27690000D01*
X95910000Y-27761428D01*
X95957619Y-27809047D01*
X96005238Y-27832857D01*
X96100476Y-27856666D01*
X96171904Y-27856666D01*
X96267142Y-27832857D01*
X96314761Y-27809047D01*
X96362380Y-27761428D01*
X96386190Y-27690000D01*
X96386190Y-27570952D01*
X95886190Y-28309047D02*
X95886190Y-28070952D01*
X96124285Y-28047142D01*
X96100476Y-28070952D01*
X96076666Y-28118571D01*
X96076666Y-28237619D01*
X96100476Y-28285238D01*
X96124285Y-28309047D01*
X96171904Y-28332857D01*
X96290952Y-28332857D01*
X96338571Y-28309047D01*
X96362380Y-28285238D01*
X96386190Y-28237619D01*
X96386190Y-28118571D01*
X96362380Y-28070952D01*
X96338571Y-28047142D01*
X131436190Y-27570952D02*
X130936190Y-27570952D01*
X130936190Y-27690000D01*
X130960000Y-27761428D01*
X131007619Y-27809047D01*
X131055238Y-27832857D01*
X131150476Y-27856666D01*
X131221904Y-27856666D01*
X131317142Y-27832857D01*
X131364761Y-27809047D01*
X131412380Y-27761428D01*
X131436190Y-27690000D01*
X131436190Y-27570952D01*
X130936190Y-28285238D02*
X130936190Y-28190000D01*
X130960000Y-28142380D01*
X130983809Y-28118571D01*
X131055238Y-28070952D01*
X131150476Y-28047142D01*
X131340952Y-28047142D01*
X131388571Y-28070952D01*
X131412380Y-28094761D01*
X131436190Y-28142380D01*
X131436190Y-28237619D01*
X131412380Y-28285238D01*
X131388571Y-28309047D01*
X131340952Y-28332857D01*
X131221904Y-28332857D01*
X131174285Y-28309047D01*
X131150476Y-28285238D01*
X131126666Y-28237619D01*
X131126666Y-28142380D01*
X131150476Y-28094761D01*
X131174285Y-28070952D01*
X131221904Y-28047142D01*
X134486190Y-27570952D02*
X133986190Y-27570952D01*
X133986190Y-27690000D01*
X134010000Y-27761428D01*
X134057619Y-27809047D01*
X134105238Y-27832857D01*
X134200476Y-27856666D01*
X134271904Y-27856666D01*
X134367142Y-27832857D01*
X134414761Y-27809047D01*
X134462380Y-27761428D01*
X134486190Y-27690000D01*
X134486190Y-27570952D01*
X133986190Y-28023333D02*
X133986190Y-28356666D01*
X134486190Y-28142380D01*
X64761190Y-46620952D02*
X64261190Y-46620952D01*
X64261190Y-46740000D01*
X64285000Y-46811428D01*
X64332619Y-46859047D01*
X64380238Y-46882857D01*
X64475476Y-46906666D01*
X64546904Y-46906666D01*
X64642142Y-46882857D01*
X64689761Y-46859047D01*
X64737380Y-46811428D01*
X64761190Y-46740000D01*
X64761190Y-46620952D01*
X64475476Y-47192380D02*
X64451666Y-47144761D01*
X64427857Y-47120952D01*
X64380238Y-47097142D01*
X64356428Y-47097142D01*
X64308809Y-47120952D01*
X64285000Y-47144761D01*
X64261190Y-47192380D01*
X64261190Y-47287619D01*
X64285000Y-47335238D01*
X64308809Y-47359047D01*
X64356428Y-47382857D01*
X64380238Y-47382857D01*
X64427857Y-47359047D01*
X64451666Y-47335238D01*
X64475476Y-47287619D01*
X64475476Y-47192380D01*
X64499285Y-47144761D01*
X64523095Y-47120952D01*
X64570714Y-47097142D01*
X64665952Y-47097142D01*
X64713571Y-47120952D01*
X64737380Y-47144761D01*
X64761190Y-47192380D01*
X64761190Y-47287619D01*
X64737380Y-47335238D01*
X64713571Y-47359047D01*
X64665952Y-47382857D01*
X64570714Y-47382857D01*
X64523095Y-47359047D01*
X64499285Y-47335238D01*
X64475476Y-47287619D01*
X67811190Y-46570952D02*
X67311190Y-46570952D01*
X67311190Y-46690000D01*
X67335000Y-46761428D01*
X67382619Y-46809047D01*
X67430238Y-46832857D01*
X67525476Y-46856666D01*
X67596904Y-46856666D01*
X67692142Y-46832857D01*
X67739761Y-46809047D01*
X67787380Y-46761428D01*
X67811190Y-46690000D01*
X67811190Y-46570952D01*
X67811190Y-47094761D02*
X67811190Y-47190000D01*
X67787380Y-47237619D01*
X67763571Y-47261428D01*
X67692142Y-47309047D01*
X67596904Y-47332857D01*
X67406428Y-47332857D01*
X67358809Y-47309047D01*
X67335000Y-47285238D01*
X67311190Y-47237619D01*
X67311190Y-47142380D01*
X67335000Y-47094761D01*
X67358809Y-47070952D01*
X67406428Y-47047142D01*
X67525476Y-47047142D01*
X67573095Y-47070952D01*
X67596904Y-47094761D01*
X67620714Y-47142380D01*
X67620714Y-47237619D01*
X67596904Y-47285238D01*
X67573095Y-47309047D01*
X67525476Y-47332857D01*
X83811190Y-46382857D02*
X83311190Y-46382857D01*
X83311190Y-46501904D01*
X83335000Y-46573333D01*
X83382619Y-46620952D01*
X83430238Y-46644761D01*
X83525476Y-46668571D01*
X83596904Y-46668571D01*
X83692142Y-46644761D01*
X83739761Y-46620952D01*
X83787380Y-46573333D01*
X83811190Y-46501904D01*
X83811190Y-46382857D01*
X83811190Y-47144761D02*
X83811190Y-46859047D01*
X83811190Y-47001904D02*
X83311190Y-47001904D01*
X83382619Y-46954285D01*
X83430238Y-46906666D01*
X83454047Y-46859047D01*
X83311190Y-47454285D02*
X83311190Y-47501904D01*
X83335000Y-47549523D01*
X83358809Y-47573333D01*
X83406428Y-47597142D01*
X83501666Y-47620952D01*
X83620714Y-47620952D01*
X83715952Y-47597142D01*
X83763571Y-47573333D01*
X83787380Y-47549523D01*
X83811190Y-47501904D01*
X83811190Y-47454285D01*
X83787380Y-47406666D01*
X83763571Y-47382857D01*
X83715952Y-47359047D01*
X83620714Y-47335238D01*
X83501666Y-47335238D01*
X83406428Y-47359047D01*
X83358809Y-47382857D01*
X83335000Y-47406666D01*
X83311190Y-47454285D01*
X102861190Y-46382857D02*
X102361190Y-46382857D01*
X102361190Y-46501904D01*
X102385000Y-46573333D01*
X102432619Y-46620952D01*
X102480238Y-46644761D01*
X102575476Y-46668571D01*
X102646904Y-46668571D01*
X102742142Y-46644761D01*
X102789761Y-46620952D01*
X102837380Y-46573333D01*
X102861190Y-46501904D01*
X102861190Y-46382857D01*
X102861190Y-47144761D02*
X102861190Y-46859047D01*
X102861190Y-47001904D02*
X102361190Y-47001904D01*
X102432619Y-46954285D01*
X102480238Y-46906666D01*
X102504047Y-46859047D01*
X102861190Y-47620952D02*
X102861190Y-47335238D01*
X102861190Y-47478095D02*
X102361190Y-47478095D01*
X102432619Y-47430476D01*
X102480238Y-47382857D01*
X102504047Y-47335238D01*
X121911190Y-46382857D02*
X121411190Y-46382857D01*
X121411190Y-46501904D01*
X121435000Y-46573333D01*
X121482619Y-46620952D01*
X121530238Y-46644761D01*
X121625476Y-46668571D01*
X121696904Y-46668571D01*
X121792142Y-46644761D01*
X121839761Y-46620952D01*
X121887380Y-46573333D01*
X121911190Y-46501904D01*
X121911190Y-46382857D01*
X121911190Y-47144761D02*
X121911190Y-46859047D01*
X121911190Y-47001904D02*
X121411190Y-47001904D01*
X121482619Y-46954285D01*
X121530238Y-46906666D01*
X121554047Y-46859047D01*
X121458809Y-47335238D02*
X121435000Y-47359047D01*
X121411190Y-47406666D01*
X121411190Y-47525714D01*
X121435000Y-47573333D01*
X121458809Y-47597142D01*
X121506428Y-47620952D01*
X121554047Y-47620952D01*
X121625476Y-47597142D01*
X121911190Y-47311428D01*
X121911190Y-47620952D01*
X124961190Y-46382857D02*
X124461190Y-46382857D01*
X124461190Y-46501904D01*
X124485000Y-46573333D01*
X124532619Y-46620952D01*
X124580238Y-46644761D01*
X124675476Y-46668571D01*
X124746904Y-46668571D01*
X124842142Y-46644761D01*
X124889761Y-46620952D01*
X124937380Y-46573333D01*
X124961190Y-46501904D01*
X124961190Y-46382857D01*
X124961190Y-47144761D02*
X124961190Y-46859047D01*
X124961190Y-47001904D02*
X124461190Y-47001904D01*
X124532619Y-46954285D01*
X124580238Y-46906666D01*
X124604047Y-46859047D01*
X124461190Y-47311428D02*
X124461190Y-47620952D01*
X124651666Y-47454285D01*
X124651666Y-47525714D01*
X124675476Y-47573333D01*
X124699285Y-47597142D01*
X124746904Y-47620952D01*
X124865952Y-47620952D01*
X124913571Y-47597142D01*
X124937380Y-47573333D01*
X124961190Y-47525714D01*
X124961190Y-47382857D01*
X124937380Y-47335238D01*
X124913571Y-47311428D01*
X43329940Y-65207857D02*
X42829940Y-65207857D01*
X42829940Y-65326904D01*
X42853750Y-65398333D01*
X42901369Y-65445952D01*
X42948988Y-65469761D01*
X43044226Y-65493571D01*
X43115654Y-65493571D01*
X43210892Y-65469761D01*
X43258511Y-65445952D01*
X43306130Y-65398333D01*
X43329940Y-65326904D01*
X43329940Y-65207857D01*
X43329940Y-65969761D02*
X43329940Y-65684047D01*
X43329940Y-65826904D02*
X42829940Y-65826904D01*
X42901369Y-65779285D01*
X42948988Y-65731666D01*
X42972797Y-65684047D01*
X42996607Y-66398333D02*
X43329940Y-66398333D01*
X42806130Y-66279285D02*
X43163273Y-66160238D01*
X43163273Y-66469761D01*
X69523690Y-65432857D02*
X69023690Y-65432857D01*
X69023690Y-65551904D01*
X69047500Y-65623333D01*
X69095119Y-65670952D01*
X69142738Y-65694761D01*
X69237976Y-65718571D01*
X69309404Y-65718571D01*
X69404642Y-65694761D01*
X69452261Y-65670952D01*
X69499880Y-65623333D01*
X69523690Y-65551904D01*
X69523690Y-65432857D01*
X69523690Y-66194761D02*
X69523690Y-65909047D01*
X69523690Y-66051904D02*
X69023690Y-66051904D01*
X69095119Y-66004285D01*
X69142738Y-65956666D01*
X69166547Y-65909047D01*
X69023690Y-66647142D02*
X69023690Y-66409047D01*
X69261785Y-66385238D01*
X69237976Y-66409047D01*
X69214166Y-66456666D01*
X69214166Y-66575714D01*
X69237976Y-66623333D01*
X69261785Y-66647142D01*
X69309404Y-66670952D01*
X69428452Y-66670952D01*
X69476071Y-66647142D01*
X69499880Y-66623333D01*
X69523690Y-66575714D01*
X69523690Y-66456666D01*
X69499880Y-66409047D01*
X69476071Y-66385238D01*
X88573690Y-65432857D02*
X88073690Y-65432857D01*
X88073690Y-65551904D01*
X88097500Y-65623333D01*
X88145119Y-65670952D01*
X88192738Y-65694761D01*
X88287976Y-65718571D01*
X88359404Y-65718571D01*
X88454642Y-65694761D01*
X88502261Y-65670952D01*
X88549880Y-65623333D01*
X88573690Y-65551904D01*
X88573690Y-65432857D01*
X88573690Y-66194761D02*
X88573690Y-65909047D01*
X88573690Y-66051904D02*
X88073690Y-66051904D01*
X88145119Y-66004285D01*
X88192738Y-65956666D01*
X88216547Y-65909047D01*
X88073690Y-66623333D02*
X88073690Y-66528095D01*
X88097500Y-66480476D01*
X88121309Y-66456666D01*
X88192738Y-66409047D01*
X88287976Y-66385238D01*
X88478452Y-66385238D01*
X88526071Y-66409047D01*
X88549880Y-66432857D01*
X88573690Y-66480476D01*
X88573690Y-66575714D01*
X88549880Y-66623333D01*
X88526071Y-66647142D01*
X88478452Y-66670952D01*
X88359404Y-66670952D01*
X88311785Y-66647142D01*
X88287976Y-66623333D01*
X88264166Y-66575714D01*
X88264166Y-66480476D01*
X88287976Y-66432857D01*
X88311785Y-66409047D01*
X88359404Y-66385238D01*
X107623690Y-65432857D02*
X107123690Y-65432857D01*
X107123690Y-65551904D01*
X107147500Y-65623333D01*
X107195119Y-65670952D01*
X107242738Y-65694761D01*
X107337976Y-65718571D01*
X107409404Y-65718571D01*
X107504642Y-65694761D01*
X107552261Y-65670952D01*
X107599880Y-65623333D01*
X107623690Y-65551904D01*
X107623690Y-65432857D01*
X107623690Y-66194761D02*
X107623690Y-65909047D01*
X107623690Y-66051904D02*
X107123690Y-66051904D01*
X107195119Y-66004285D01*
X107242738Y-65956666D01*
X107266547Y-65909047D01*
X107123690Y-66361428D02*
X107123690Y-66694761D01*
X107623690Y-66480476D01*
X126673690Y-65432857D02*
X126173690Y-65432857D01*
X126173690Y-65551904D01*
X126197500Y-65623333D01*
X126245119Y-65670952D01*
X126292738Y-65694761D01*
X126387976Y-65718571D01*
X126459404Y-65718571D01*
X126554642Y-65694761D01*
X126602261Y-65670952D01*
X126649880Y-65623333D01*
X126673690Y-65551904D01*
X126673690Y-65432857D01*
X126673690Y-66194761D02*
X126673690Y-65909047D01*
X126673690Y-66051904D02*
X126173690Y-66051904D01*
X126245119Y-66004285D01*
X126292738Y-65956666D01*
X126316547Y-65909047D01*
X126387976Y-66480476D02*
X126364166Y-66432857D01*
X126340357Y-66409047D01*
X126292738Y-66385238D01*
X126268928Y-66385238D01*
X126221309Y-66409047D01*
X126197500Y-66432857D01*
X126173690Y-66480476D01*
X126173690Y-66575714D01*
X126197500Y-66623333D01*
X126221309Y-66647142D01*
X126268928Y-66670952D01*
X126292738Y-66670952D01*
X126340357Y-66647142D01*
X126364166Y-66623333D01*
X126387976Y-66575714D01*
X126387976Y-66480476D01*
X126411785Y-66432857D01*
X126435595Y-66409047D01*
X126483214Y-66385238D01*
X126578452Y-66385238D01*
X126626071Y-66409047D01*
X126649880Y-66432857D01*
X126673690Y-66480476D01*
X126673690Y-66575714D01*
X126649880Y-66623333D01*
X126626071Y-66647142D01*
X126578452Y-66670952D01*
X126483214Y-66670952D01*
X126435595Y-66647142D01*
X126411785Y-66623333D01*
X126387976Y-66575714D01*
X129723690Y-65332857D02*
X129223690Y-65332857D01*
X129223690Y-65451904D01*
X129247500Y-65523333D01*
X129295119Y-65570952D01*
X129342738Y-65594761D01*
X129437976Y-65618571D01*
X129509404Y-65618571D01*
X129604642Y-65594761D01*
X129652261Y-65570952D01*
X129699880Y-65523333D01*
X129723690Y-65451904D01*
X129723690Y-65332857D01*
X129723690Y-66094761D02*
X129723690Y-65809047D01*
X129723690Y-65951904D02*
X129223690Y-65951904D01*
X129295119Y-65904285D01*
X129342738Y-65856666D01*
X129366547Y-65809047D01*
X129723690Y-66332857D02*
X129723690Y-66428095D01*
X129699880Y-66475714D01*
X129676071Y-66499523D01*
X129604642Y-66547142D01*
X129509404Y-66570952D01*
X129318928Y-66570952D01*
X129271309Y-66547142D01*
X129247500Y-66523333D01*
X129223690Y-66475714D01*
X129223690Y-66380476D01*
X129247500Y-66332857D01*
X129271309Y-66309047D01*
X129318928Y-66285238D01*
X129437976Y-66285238D01*
X129485595Y-66309047D01*
X129509404Y-66332857D01*
X129533214Y-66380476D01*
X129533214Y-66475714D01*
X129509404Y-66523333D01*
X129485595Y-66547142D01*
X129437976Y-66570952D01*
X60048690Y-84482857D02*
X59548690Y-84482857D01*
X59548690Y-84601904D01*
X59572500Y-84673333D01*
X59620119Y-84720952D01*
X59667738Y-84744761D01*
X59762976Y-84768571D01*
X59834404Y-84768571D01*
X59929642Y-84744761D01*
X59977261Y-84720952D01*
X60024880Y-84673333D01*
X60048690Y-84601904D01*
X60048690Y-84482857D01*
X59596309Y-84959047D02*
X59572500Y-84982857D01*
X59548690Y-85030476D01*
X59548690Y-85149523D01*
X59572500Y-85197142D01*
X59596309Y-85220952D01*
X59643928Y-85244761D01*
X59691547Y-85244761D01*
X59762976Y-85220952D01*
X60048690Y-84935238D01*
X60048690Y-85244761D01*
X59548690Y-85554285D02*
X59548690Y-85601904D01*
X59572500Y-85649523D01*
X59596309Y-85673333D01*
X59643928Y-85697142D01*
X59739166Y-85720952D01*
X59858214Y-85720952D01*
X59953452Y-85697142D01*
X60001071Y-85673333D01*
X60024880Y-85649523D01*
X60048690Y-85601904D01*
X60048690Y-85554285D01*
X60024880Y-85506666D01*
X60001071Y-85482857D01*
X59953452Y-85459047D01*
X59858214Y-85435238D01*
X59739166Y-85435238D01*
X59643928Y-85459047D01*
X59596309Y-85482857D01*
X59572500Y-85506666D01*
X59548690Y-85554285D01*
X79048690Y-84482857D02*
X78548690Y-84482857D01*
X78548690Y-84601904D01*
X78572500Y-84673333D01*
X78620119Y-84720952D01*
X78667738Y-84744761D01*
X78762976Y-84768571D01*
X78834404Y-84768571D01*
X78929642Y-84744761D01*
X78977261Y-84720952D01*
X79024880Y-84673333D01*
X79048690Y-84601904D01*
X79048690Y-84482857D01*
X78596309Y-84959047D02*
X78572500Y-84982857D01*
X78548690Y-85030476D01*
X78548690Y-85149523D01*
X78572500Y-85197142D01*
X78596309Y-85220952D01*
X78643928Y-85244761D01*
X78691547Y-85244761D01*
X78762976Y-85220952D01*
X79048690Y-84935238D01*
X79048690Y-85244761D01*
X79048690Y-85720952D02*
X79048690Y-85435238D01*
X79048690Y-85578095D02*
X78548690Y-85578095D01*
X78620119Y-85530476D01*
X78667738Y-85482857D01*
X78691547Y-85435238D01*
X98098690Y-84672857D02*
X97598690Y-84672857D01*
X97598690Y-84791904D01*
X97622500Y-84863333D01*
X97670119Y-84910952D01*
X97717738Y-84934761D01*
X97812976Y-84958571D01*
X97884404Y-84958571D01*
X97979642Y-84934761D01*
X98027261Y-84910952D01*
X98074880Y-84863333D01*
X98098690Y-84791904D01*
X98098690Y-84672857D01*
X97646309Y-85149047D02*
X97622500Y-85172857D01*
X97598690Y-85220476D01*
X97598690Y-85339523D01*
X97622500Y-85387142D01*
X97646309Y-85410952D01*
X97693928Y-85434761D01*
X97741547Y-85434761D01*
X97812976Y-85410952D01*
X98098690Y-85125238D01*
X98098690Y-85434761D01*
X97646309Y-85625238D02*
X97622500Y-85649047D01*
X97598690Y-85696666D01*
X97598690Y-85815714D01*
X97622500Y-85863333D01*
X97646309Y-85887142D01*
X97693928Y-85910952D01*
X97741547Y-85910952D01*
X97812976Y-85887142D01*
X98098690Y-85601428D01*
X98098690Y-85910952D01*
X117148690Y-84672857D02*
X116648690Y-84672857D01*
X116648690Y-84791904D01*
X116672500Y-84863333D01*
X116720119Y-84910952D01*
X116767738Y-84934761D01*
X116862976Y-84958571D01*
X116934404Y-84958571D01*
X117029642Y-84934761D01*
X117077261Y-84910952D01*
X117124880Y-84863333D01*
X117148690Y-84791904D01*
X117148690Y-84672857D01*
X116696309Y-85149047D02*
X116672500Y-85172857D01*
X116648690Y-85220476D01*
X116648690Y-85339523D01*
X116672500Y-85387142D01*
X116696309Y-85410952D01*
X116743928Y-85434761D01*
X116791547Y-85434761D01*
X116862976Y-85410952D01*
X117148690Y-85125238D01*
X117148690Y-85434761D01*
X116648690Y-85601428D02*
X116648690Y-85910952D01*
X116839166Y-85744285D01*
X116839166Y-85815714D01*
X116862976Y-85863333D01*
X116886785Y-85887142D01*
X116934404Y-85910952D01*
X117053452Y-85910952D01*
X117101071Y-85887142D01*
X117124880Y-85863333D01*
X117148690Y-85815714D01*
X117148690Y-85672857D01*
X117124880Y-85625238D01*
X117101071Y-85601428D01*
X136198690Y-84672857D02*
X135698690Y-84672857D01*
X135698690Y-84791904D01*
X135722500Y-84863333D01*
X135770119Y-84910952D01*
X135817738Y-84934761D01*
X135912976Y-84958571D01*
X135984404Y-84958571D01*
X136079642Y-84934761D01*
X136127261Y-84910952D01*
X136174880Y-84863333D01*
X136198690Y-84791904D01*
X136198690Y-84672857D01*
X135746309Y-85149047D02*
X135722500Y-85172857D01*
X135698690Y-85220476D01*
X135698690Y-85339523D01*
X135722500Y-85387142D01*
X135746309Y-85410952D01*
X135793928Y-85434761D01*
X135841547Y-85434761D01*
X135912976Y-85410952D01*
X136198690Y-85125238D01*
X136198690Y-85434761D01*
X135865357Y-85863333D02*
X136198690Y-85863333D01*
X135674880Y-85744285D02*
X136032023Y-85625238D01*
X136032023Y-85934761D01*
X139248690Y-84672857D02*
X138748690Y-84672857D01*
X138748690Y-84791904D01*
X138772500Y-84863333D01*
X138820119Y-84910952D01*
X138867738Y-84934761D01*
X138962976Y-84958571D01*
X139034404Y-84958571D01*
X139129642Y-84934761D01*
X139177261Y-84910952D01*
X139224880Y-84863333D01*
X139248690Y-84791904D01*
X139248690Y-84672857D01*
X138796309Y-85149047D02*
X138772500Y-85172857D01*
X138748690Y-85220476D01*
X138748690Y-85339523D01*
X138772500Y-85387142D01*
X138796309Y-85410952D01*
X138843928Y-85434761D01*
X138891547Y-85434761D01*
X138962976Y-85410952D01*
X139248690Y-85125238D01*
X139248690Y-85434761D01*
X138748690Y-85887142D02*
X138748690Y-85649047D01*
X138986785Y-85625238D01*
X138962976Y-85649047D01*
X138939166Y-85696666D01*
X138939166Y-85815714D01*
X138962976Y-85863333D01*
X138986785Y-85887142D01*
X139034404Y-85910952D01*
X139153452Y-85910952D01*
X139201071Y-85887142D01*
X139224880Y-85863333D01*
X139248690Y-85815714D01*
X139248690Y-85696666D01*
X139224880Y-85649047D01*
X139201071Y-85625238D01*
X64761190Y-103532857D02*
X64261190Y-103532857D01*
X64261190Y-103651904D01*
X64285000Y-103723333D01*
X64332619Y-103770952D01*
X64380238Y-103794761D01*
X64475476Y-103818571D01*
X64546904Y-103818571D01*
X64642142Y-103794761D01*
X64689761Y-103770952D01*
X64737380Y-103723333D01*
X64761190Y-103651904D01*
X64761190Y-103532857D01*
X64308809Y-104009047D02*
X64285000Y-104032857D01*
X64261190Y-104080476D01*
X64261190Y-104199523D01*
X64285000Y-104247142D01*
X64308809Y-104270952D01*
X64356428Y-104294761D01*
X64404047Y-104294761D01*
X64475476Y-104270952D01*
X64761190Y-103985238D01*
X64761190Y-104294761D01*
X64261190Y-104723333D02*
X64261190Y-104628095D01*
X64285000Y-104580476D01*
X64308809Y-104556666D01*
X64380238Y-104509047D01*
X64475476Y-104485238D01*
X64665952Y-104485238D01*
X64713571Y-104509047D01*
X64737380Y-104532857D01*
X64761190Y-104580476D01*
X64761190Y-104675714D01*
X64737380Y-104723333D01*
X64713571Y-104747142D01*
X64665952Y-104770952D01*
X64546904Y-104770952D01*
X64499285Y-104747142D01*
X64475476Y-104723333D01*
X64451666Y-104675714D01*
X64451666Y-104580476D01*
X64475476Y-104532857D01*
X64499285Y-104509047D01*
X64546904Y-104485238D01*
X88573690Y-103532857D02*
X88073690Y-103532857D01*
X88073690Y-103651904D01*
X88097500Y-103723333D01*
X88145119Y-103770952D01*
X88192738Y-103794761D01*
X88287976Y-103818571D01*
X88359404Y-103818571D01*
X88454642Y-103794761D01*
X88502261Y-103770952D01*
X88549880Y-103723333D01*
X88573690Y-103651904D01*
X88573690Y-103532857D01*
X88121309Y-104009047D02*
X88097500Y-104032857D01*
X88073690Y-104080476D01*
X88073690Y-104199523D01*
X88097500Y-104247142D01*
X88121309Y-104270952D01*
X88168928Y-104294761D01*
X88216547Y-104294761D01*
X88287976Y-104270952D01*
X88573690Y-103985238D01*
X88573690Y-104294761D01*
X88073690Y-104461428D02*
X88073690Y-104794761D01*
X88573690Y-104580476D01*
X96573690Y-103532857D02*
X96073690Y-103532857D01*
X96073690Y-103651904D01*
X96097500Y-103723333D01*
X96145119Y-103770952D01*
X96192738Y-103794761D01*
X96287976Y-103818571D01*
X96359404Y-103818571D01*
X96454642Y-103794761D01*
X96502261Y-103770952D01*
X96549880Y-103723333D01*
X96573690Y-103651904D01*
X96573690Y-103532857D01*
X96121309Y-104009047D02*
X96097500Y-104032857D01*
X96073690Y-104080476D01*
X96073690Y-104199523D01*
X96097500Y-104247142D01*
X96121309Y-104270952D01*
X96168928Y-104294761D01*
X96216547Y-104294761D01*
X96287976Y-104270952D01*
X96573690Y-103985238D01*
X96573690Y-104294761D01*
X96287976Y-104580476D02*
X96264166Y-104532857D01*
X96240357Y-104509047D01*
X96192738Y-104485238D01*
X96168928Y-104485238D01*
X96121309Y-104509047D01*
X96097500Y-104532857D01*
X96073690Y-104580476D01*
X96073690Y-104675714D01*
X96097500Y-104723333D01*
X96121309Y-104747142D01*
X96168928Y-104770952D01*
X96192738Y-104770952D01*
X96240357Y-104747142D01*
X96264166Y-104723333D01*
X96287976Y-104675714D01*
X96287976Y-104580476D01*
X96311785Y-104532857D01*
X96335595Y-104509047D01*
X96383214Y-104485238D01*
X96478452Y-104485238D01*
X96526071Y-104509047D01*
X96549880Y-104532857D01*
X96573690Y-104580476D01*
X96573690Y-104675714D01*
X96549880Y-104723333D01*
X96526071Y-104747142D01*
X96478452Y-104770952D01*
X96383214Y-104770952D01*
X96335595Y-104747142D01*
X96311785Y-104723333D01*
X96287976Y-104675714D01*
D10*
X117446904Y-24317380D02*
X116875476Y-24317380D01*
X117161190Y-25317380D02*
X117161190Y-24317380D01*
X115970714Y-25317380D02*
X116304047Y-24841190D01*
X116542142Y-25317380D02*
X116542142Y-24317380D01*
X116161190Y-24317380D01*
X116065952Y-24365000D01*
X116018333Y-24412619D01*
X115970714Y-24507857D01*
X115970714Y-24650714D01*
X116018333Y-24745952D01*
X116065952Y-24793571D01*
X116161190Y-24841190D01*
X116542142Y-24841190D01*
X114970714Y-25317380D02*
X115304047Y-24841190D01*
X115542142Y-25317380D02*
X115542142Y-24317380D01*
X115161190Y-24317380D01*
X115065952Y-24365000D01*
X115018333Y-24412619D01*
X114970714Y-24507857D01*
X114970714Y-24650714D01*
X115018333Y-24745952D01*
X115065952Y-24793571D01*
X115161190Y-24841190D01*
X115542142Y-24841190D01*
X114589761Y-25269761D02*
X114446904Y-25317380D01*
X114208809Y-25317380D01*
X114113571Y-25269761D01*
X114065952Y-25222142D01*
X114018333Y-25126904D01*
X114018333Y-25031666D01*
X114065952Y-24936428D01*
X114113571Y-24888809D01*
X114208809Y-24841190D01*
X114399285Y-24793571D01*
X114494523Y-24745952D01*
X114542142Y-24698333D01*
X114589761Y-24603095D01*
X114589761Y-24507857D01*
X114542142Y-24412619D01*
X114494523Y-24365000D01*
X114399285Y-24317380D01*
X114161190Y-24317380D01*
X114018333Y-24365000D01*
X61162083Y-72032380D02*
X60828750Y-73032380D01*
X60495416Y-72032380D01*
X59590654Y-72937142D02*
X59638273Y-72984761D01*
X59781130Y-73032380D01*
X59876369Y-73032380D01*
X60019226Y-72984761D01*
X60114464Y-72889523D01*
X60162083Y-72794285D01*
X60209702Y-72603809D01*
X60209702Y-72460952D01*
X60162083Y-72270476D01*
X60114464Y-72175238D01*
X60019226Y-72080000D01*
X59876369Y-72032380D01*
X59781130Y-72032380D01*
X59638273Y-72080000D01*
X59590654Y-72127619D01*
X58590654Y-72937142D02*
X58638273Y-72984761D01*
X58781130Y-73032380D01*
X58876369Y-73032380D01*
X59019226Y-72984761D01*
X59114464Y-72889523D01*
X59162083Y-72794285D01*
X59209702Y-72603809D01*
X59209702Y-72460952D01*
X59162083Y-72270476D01*
X59114464Y-72175238D01*
X59019226Y-72080000D01*
X58876369Y-72032380D01*
X58781130Y-72032380D01*
X58638273Y-72080000D01*
X58590654Y-72127619D01*
X60471607Y-75472380D02*
X60947797Y-75472380D01*
X60947797Y-74472380D01*
X60138273Y-74948571D02*
X59804940Y-74948571D01*
X59662083Y-75472380D02*
X60138273Y-75472380D01*
X60138273Y-74472380D01*
X59662083Y-74472380D01*
X59233511Y-75472380D02*
X59233511Y-74472380D01*
X58995416Y-74472380D01*
X58852559Y-74520000D01*
X58757321Y-74615238D01*
X58709702Y-74710476D01*
X58662083Y-74900952D01*
X58662083Y-75043809D01*
X58709702Y-75234285D01*
X58757321Y-75329523D01*
X58852559Y-75424761D01*
X58995416Y-75472380D01*
X59233511Y-75472380D01*
X60590654Y-77080000D02*
X60685892Y-77032380D01*
X60828750Y-77032380D01*
X60971607Y-77080000D01*
X61066845Y-77175238D01*
X61114464Y-77270476D01*
X61162083Y-77460952D01*
X61162083Y-77603809D01*
X61114464Y-77794285D01*
X61066845Y-77889523D01*
X60971607Y-77984761D01*
X60828750Y-78032380D01*
X60733511Y-78032380D01*
X60590654Y-77984761D01*
X60543035Y-77937142D01*
X60543035Y-77603809D01*
X60733511Y-77603809D01*
X60114464Y-78032380D02*
X60114464Y-77032380D01*
X59543035Y-78032380D01*
X59543035Y-77032380D01*
X59066845Y-78032380D02*
X59066845Y-77032380D01*
X58828750Y-77032380D01*
X58685892Y-77080000D01*
X58590654Y-77175238D01*
X58543035Y-77270476D01*
X58495416Y-77460952D01*
X58495416Y-77603809D01*
X58543035Y-77794285D01*
X58590654Y-77889523D01*
X58685892Y-77984761D01*
X58828750Y-78032380D01*
X59066845Y-78032380D01*
X21613869Y-67492380D02*
X22090059Y-67825714D01*
X21613869Y-68063809D02*
X22613869Y-68063809D01*
X22613869Y-67682857D01*
X22566250Y-67587619D01*
X22518630Y-67540000D01*
X22423392Y-67492380D01*
X22280535Y-67492380D01*
X22185297Y-67540000D01*
X22137678Y-67587619D01*
X22090059Y-67682857D01*
X22090059Y-68063809D01*
X22137678Y-67063809D02*
X22137678Y-66730476D01*
X21613869Y-66587619D02*
X21613869Y-67063809D01*
X22613869Y-67063809D01*
X22613869Y-66587619D01*
X21661488Y-66206666D02*
X21613869Y-66063809D01*
X21613869Y-65825714D01*
X21661488Y-65730476D01*
X21709107Y-65682857D01*
X21804345Y-65635238D01*
X21899583Y-65635238D01*
X21994821Y-65682857D01*
X22042440Y-65730476D01*
X22090059Y-65825714D01*
X22137678Y-66016190D01*
X22185297Y-66111428D01*
X22232916Y-66159047D01*
X22328154Y-66206666D01*
X22423392Y-66206666D01*
X22518630Y-66159047D01*
X22566250Y-66111428D01*
X22613869Y-66016190D01*
X22613869Y-65778095D01*
X22566250Y-65635238D01*
X22137678Y-65206666D02*
X22137678Y-64873333D01*
X21613869Y-64730476D02*
X21613869Y-65206666D01*
X22613869Y-65206666D01*
X22613869Y-64730476D01*
X22613869Y-64444761D02*
X22613869Y-63873333D01*
X21613869Y-64159047D02*
X22613869Y-64159047D01*
D11*
X41613785Y-51609047D02*
X41256642Y-51442380D01*
X41613785Y-51323333D02*
X40863785Y-51323333D01*
X40863785Y-51513809D01*
X40899500Y-51561428D01*
X40935214Y-51585238D01*
X41006642Y-51609047D01*
X41113785Y-51609047D01*
X41185214Y-51585238D01*
X41220928Y-51561428D01*
X41256642Y-51513809D01*
X41256642Y-51323333D01*
X40863785Y-51918571D02*
X40863785Y-52013809D01*
X40899500Y-52061428D01*
X40970928Y-52109047D01*
X41113785Y-52132857D01*
X41363785Y-52132857D01*
X41506642Y-52109047D01*
X41578071Y-52061428D01*
X41613785Y-52013809D01*
X41613785Y-51918571D01*
X41578071Y-51870952D01*
X41506642Y-51823333D01*
X41363785Y-51799523D01*
X41113785Y-51799523D01*
X40970928Y-51823333D01*
X40899500Y-51870952D01*
X40863785Y-51918571D01*
X40863785Y-52299523D02*
X41613785Y-52418571D01*
X41078071Y-52513809D01*
X41613785Y-52609047D01*
X40863785Y-52728095D01*
X41613785Y-53180476D02*
X41613785Y-52894761D01*
X41613785Y-53037619D02*
X40863785Y-53037619D01*
X40970928Y-52990000D01*
X41042357Y-52942380D01*
X41078071Y-52894761D01*
X44090357Y-36492380D02*
X44126071Y-36468571D01*
X44161785Y-36397142D01*
X44161785Y-36349523D01*
X44126071Y-36278095D01*
X44054642Y-36230476D01*
X43983214Y-36206666D01*
X43840357Y-36182857D01*
X43733214Y-36182857D01*
X43590357Y-36206666D01*
X43518928Y-36230476D01*
X43447500Y-36278095D01*
X43411785Y-36349523D01*
X43411785Y-36397142D01*
X43447500Y-36468571D01*
X43483214Y-36492380D01*
X43411785Y-36801904D02*
X43411785Y-36897142D01*
X43447500Y-36944761D01*
X43518928Y-36992380D01*
X43661785Y-37016190D01*
X43911785Y-37016190D01*
X44054642Y-36992380D01*
X44126071Y-36944761D01*
X44161785Y-36897142D01*
X44161785Y-36801904D01*
X44126071Y-36754285D01*
X44054642Y-36706666D01*
X43911785Y-36682857D01*
X43661785Y-36682857D01*
X43518928Y-36706666D01*
X43447500Y-36754285D01*
X43411785Y-36801904D01*
X44161785Y-37468571D02*
X44161785Y-37230476D01*
X43411785Y-37230476D01*
X43661785Y-37849523D02*
X44161785Y-37849523D01*
X43376071Y-37730476D02*
X43911785Y-37611428D01*
X43911785Y-37920952D01*
X44161785Y-51559047D02*
X43804642Y-51392380D01*
X44161785Y-51273333D02*
X43411785Y-51273333D01*
X43411785Y-51463809D01*
X43447500Y-51511428D01*
X43483214Y-51535238D01*
X43554642Y-51559047D01*
X43661785Y-51559047D01*
X43733214Y-51535238D01*
X43768928Y-51511428D01*
X43804642Y-51463809D01*
X43804642Y-51273333D01*
X43411785Y-51868571D02*
X43411785Y-51963809D01*
X43447500Y-52011428D01*
X43518928Y-52059047D01*
X43661785Y-52082857D01*
X43911785Y-52082857D01*
X44054642Y-52059047D01*
X44126071Y-52011428D01*
X44161785Y-51963809D01*
X44161785Y-51868571D01*
X44126071Y-51820952D01*
X44054642Y-51773333D01*
X43911785Y-51749523D01*
X43661785Y-51749523D01*
X43518928Y-51773333D01*
X43447500Y-51820952D01*
X43411785Y-51868571D01*
X43411785Y-52249523D02*
X44161785Y-52368571D01*
X43626071Y-52463809D01*
X44161785Y-52559047D01*
X43411785Y-52678095D01*
X43483214Y-52844761D02*
X43447500Y-52868571D01*
X43411785Y-52916190D01*
X43411785Y-53035238D01*
X43447500Y-53082857D01*
X43483214Y-53106666D01*
X43554642Y-53130476D01*
X43626071Y-53130476D01*
X43733214Y-53106666D01*
X44161785Y-52820952D01*
X44161785Y-53130476D01*
X46685857Y-36492380D02*
X46721571Y-36468571D01*
X46757285Y-36397142D01*
X46757285Y-36349523D01*
X46721571Y-36278095D01*
X46650142Y-36230476D01*
X46578714Y-36206666D01*
X46435857Y-36182857D01*
X46328714Y-36182857D01*
X46185857Y-36206666D01*
X46114428Y-36230476D01*
X46043000Y-36278095D01*
X46007285Y-36349523D01*
X46007285Y-36397142D01*
X46043000Y-36468571D01*
X46078714Y-36492380D01*
X46007285Y-36801904D02*
X46007285Y-36897142D01*
X46043000Y-36944761D01*
X46114428Y-36992380D01*
X46257285Y-37016190D01*
X46507285Y-37016190D01*
X46650142Y-36992380D01*
X46721571Y-36944761D01*
X46757285Y-36897142D01*
X46757285Y-36801904D01*
X46721571Y-36754285D01*
X46650142Y-36706666D01*
X46507285Y-36682857D01*
X46257285Y-36682857D01*
X46114428Y-36706666D01*
X46043000Y-36754285D01*
X46007285Y-36801904D01*
X46757285Y-37468571D02*
X46757285Y-37230476D01*
X46007285Y-37230476D01*
X46007285Y-37873333D02*
X46007285Y-37635238D01*
X46364428Y-37611428D01*
X46328714Y-37635238D01*
X46293000Y-37682857D01*
X46293000Y-37801904D01*
X46328714Y-37849523D01*
X46364428Y-37873333D01*
X46435857Y-37897142D01*
X46614428Y-37897142D01*
X46685857Y-37873333D01*
X46721571Y-37849523D01*
X46757285Y-37801904D01*
X46757285Y-37682857D01*
X46721571Y-37635238D01*
X46685857Y-37611428D01*
X46757285Y-51559047D02*
X46400142Y-51392380D01*
X46757285Y-51273333D02*
X46007285Y-51273333D01*
X46007285Y-51463809D01*
X46043000Y-51511428D01*
X46078714Y-51535238D01*
X46150142Y-51559047D01*
X46257285Y-51559047D01*
X46328714Y-51535238D01*
X46364428Y-51511428D01*
X46400142Y-51463809D01*
X46400142Y-51273333D01*
X46007285Y-51868571D02*
X46007285Y-51963809D01*
X46043000Y-52011428D01*
X46114428Y-52059047D01*
X46257285Y-52082857D01*
X46507285Y-52082857D01*
X46650142Y-52059047D01*
X46721571Y-52011428D01*
X46757285Y-51963809D01*
X46757285Y-51868571D01*
X46721571Y-51820952D01*
X46650142Y-51773333D01*
X46507285Y-51749523D01*
X46257285Y-51749523D01*
X46114428Y-51773333D01*
X46043000Y-51820952D01*
X46007285Y-51868571D01*
X46007285Y-52249523D02*
X46757285Y-52368571D01*
X46221571Y-52463809D01*
X46757285Y-52559047D01*
X46007285Y-52678095D01*
X46007285Y-52820952D02*
X46007285Y-53130476D01*
X46293000Y-52963809D01*
X46293000Y-53035238D01*
X46328714Y-53082857D01*
X46364428Y-53106666D01*
X46435857Y-53130476D01*
X46614428Y-53130476D01*
X46685857Y-53106666D01*
X46721571Y-53082857D01*
X46757285Y-53035238D01*
X46757285Y-52892380D01*
X46721571Y-52844761D01*
X46685857Y-52820952D01*
X48868928Y-36837619D02*
X48904642Y-36909047D01*
X48940357Y-36932857D01*
X49011785Y-36956666D01*
X49118928Y-36956666D01*
X49190357Y-36932857D01*
X49226071Y-36909047D01*
X49261785Y-36861428D01*
X49261785Y-36670952D01*
X48511785Y-36670952D01*
X48511785Y-36837619D01*
X48547500Y-36885238D01*
X48583214Y-36909047D01*
X48654642Y-36932857D01*
X48726071Y-36932857D01*
X48797500Y-36909047D01*
X48833214Y-36885238D01*
X48868928Y-36837619D01*
X48868928Y-36670952D01*
X48583214Y-37147142D02*
X48547500Y-37170952D01*
X48511785Y-37218571D01*
X48511785Y-37337619D01*
X48547500Y-37385238D01*
X48583214Y-37409047D01*
X48654642Y-37432857D01*
X48726071Y-37432857D01*
X48833214Y-37409047D01*
X49261785Y-37123333D01*
X49261785Y-37432857D01*
X48840928Y-51987619D02*
X48876642Y-52059047D01*
X48912357Y-52082857D01*
X48983785Y-52106666D01*
X49090928Y-52106666D01*
X49162357Y-52082857D01*
X49198071Y-52059047D01*
X49233785Y-52011428D01*
X49233785Y-51820952D01*
X48483785Y-51820952D01*
X48483785Y-51987619D01*
X48519500Y-52035238D01*
X48555214Y-52059047D01*
X48626642Y-52082857D01*
X48698071Y-52082857D01*
X48769500Y-52059047D01*
X48805214Y-52035238D01*
X48840928Y-51987619D01*
X48840928Y-51820952D01*
X48733785Y-52535238D02*
X49233785Y-52535238D01*
X48448071Y-52416190D02*
X48983785Y-52297142D01*
X48983785Y-52606666D01*
X51444428Y-51987619D02*
X51480142Y-52059047D01*
X51515857Y-52082857D01*
X51587285Y-52106666D01*
X51694428Y-52106666D01*
X51765857Y-52082857D01*
X51801571Y-52059047D01*
X51837285Y-52011428D01*
X51837285Y-51820952D01*
X51087285Y-51820952D01*
X51087285Y-51987619D01*
X51123000Y-52035238D01*
X51158714Y-52059047D01*
X51230142Y-52082857D01*
X51301571Y-52082857D01*
X51373000Y-52059047D01*
X51408714Y-52035238D01*
X51444428Y-51987619D01*
X51444428Y-51820952D01*
X51087285Y-52559047D02*
X51087285Y-52320952D01*
X51444428Y-52297142D01*
X51408714Y-52320952D01*
X51373000Y-52368571D01*
X51373000Y-52487619D01*
X51408714Y-52535238D01*
X51444428Y-52559047D01*
X51515857Y-52582857D01*
X51694428Y-52582857D01*
X51765857Y-52559047D01*
X51801571Y-52535238D01*
X51837285Y-52487619D01*
X51837285Y-52368571D01*
X51801571Y-52320952D01*
X51765857Y-52297142D01*
X51418928Y-36737619D02*
X51454642Y-36809047D01*
X51490357Y-36832857D01*
X51561785Y-36856666D01*
X51668928Y-36856666D01*
X51740357Y-36832857D01*
X51776071Y-36809047D01*
X51811785Y-36761428D01*
X51811785Y-36570952D01*
X51061785Y-36570952D01*
X51061785Y-36737619D01*
X51097500Y-36785238D01*
X51133214Y-36809047D01*
X51204642Y-36832857D01*
X51276071Y-36832857D01*
X51347500Y-36809047D01*
X51383214Y-36785238D01*
X51418928Y-36737619D01*
X51418928Y-36570952D01*
X51061785Y-37285238D02*
X51061785Y-37190000D01*
X51097500Y-37142380D01*
X51133214Y-37118571D01*
X51240357Y-37070952D01*
X51383214Y-37047142D01*
X51668928Y-37047142D01*
X51740357Y-37070952D01*
X51776071Y-37094761D01*
X51811785Y-37142380D01*
X51811785Y-37237619D01*
X51776071Y-37285238D01*
X51740357Y-37309047D01*
X51668928Y-37332857D01*
X51490357Y-37332857D01*
X51418928Y-37309047D01*
X51383214Y-37285238D01*
X51347500Y-37237619D01*
X51347500Y-37142380D01*
X51383214Y-37094761D01*
X51418928Y-37070952D01*
X51490357Y-37047142D01*
X33940357Y-36542380D02*
X33976071Y-36518571D01*
X34011785Y-36447142D01*
X34011785Y-36399523D01*
X33976071Y-36328095D01*
X33904642Y-36280476D01*
X33833214Y-36256666D01*
X33690357Y-36232857D01*
X33583214Y-36232857D01*
X33440357Y-36256666D01*
X33368928Y-36280476D01*
X33297500Y-36328095D01*
X33261785Y-36399523D01*
X33261785Y-36447142D01*
X33297500Y-36518571D01*
X33333214Y-36542380D01*
X33261785Y-36851904D02*
X33261785Y-36947142D01*
X33297500Y-36994761D01*
X33368928Y-37042380D01*
X33511785Y-37066190D01*
X33761785Y-37066190D01*
X33904642Y-37042380D01*
X33976071Y-36994761D01*
X34011785Y-36947142D01*
X34011785Y-36851904D01*
X33976071Y-36804285D01*
X33904642Y-36756666D01*
X33761785Y-36732857D01*
X33511785Y-36732857D01*
X33368928Y-36756666D01*
X33297500Y-36804285D01*
X33261785Y-36851904D01*
X34011785Y-37518571D02*
X34011785Y-37280476D01*
X33261785Y-37280476D01*
X33261785Y-37780476D02*
X33261785Y-37828095D01*
X33297500Y-37875714D01*
X33333214Y-37899523D01*
X33404642Y-37923333D01*
X33547500Y-37947142D01*
X33726071Y-37947142D01*
X33868928Y-37923333D01*
X33940357Y-37899523D01*
X33976071Y-37875714D01*
X34011785Y-37828095D01*
X34011785Y-37780476D01*
X33976071Y-37732857D01*
X33940357Y-37709047D01*
X33868928Y-37685238D01*
X33726071Y-37661428D01*
X33547500Y-37661428D01*
X33404642Y-37685238D01*
X33333214Y-37709047D01*
X33297500Y-37732857D01*
X33261785Y-37780476D01*
X33958071Y-51843857D02*
X33993785Y-51915285D01*
X33993785Y-52034333D01*
X33958071Y-52081952D01*
X33922357Y-52105761D01*
X33850928Y-52129571D01*
X33779500Y-52129571D01*
X33708071Y-52105761D01*
X33672357Y-52081952D01*
X33636642Y-52034333D01*
X33600928Y-51939095D01*
X33565214Y-51891476D01*
X33529500Y-51867666D01*
X33458071Y-51843857D01*
X33386642Y-51843857D01*
X33315214Y-51867666D01*
X33279500Y-51891476D01*
X33243785Y-51939095D01*
X33243785Y-52058142D01*
X33279500Y-52129571D01*
X33993785Y-52343857D02*
X33243785Y-52343857D01*
X33243785Y-52462904D01*
X33279500Y-52534333D01*
X33350928Y-52581952D01*
X33422357Y-52605761D01*
X33565214Y-52629571D01*
X33672357Y-52629571D01*
X33815214Y-52605761D01*
X33886642Y-52581952D01*
X33958071Y-52534333D01*
X33993785Y-52462904D01*
X33993785Y-52343857D01*
X33779500Y-52820047D02*
X33779500Y-53058142D01*
X33993785Y-52772428D02*
X33243785Y-52939095D01*
X33993785Y-53105761D01*
X36462357Y-36592380D02*
X36498071Y-36568571D01*
X36533785Y-36497142D01*
X36533785Y-36449523D01*
X36498071Y-36378095D01*
X36426642Y-36330476D01*
X36355214Y-36306666D01*
X36212357Y-36282857D01*
X36105214Y-36282857D01*
X35962357Y-36306666D01*
X35890928Y-36330476D01*
X35819500Y-36378095D01*
X35783785Y-36449523D01*
X35783785Y-36497142D01*
X35819500Y-36568571D01*
X35855214Y-36592380D01*
X35783785Y-36901904D02*
X35783785Y-36997142D01*
X35819500Y-37044761D01*
X35890928Y-37092380D01*
X36033785Y-37116190D01*
X36283785Y-37116190D01*
X36426642Y-37092380D01*
X36498071Y-37044761D01*
X36533785Y-36997142D01*
X36533785Y-36901904D01*
X36498071Y-36854285D01*
X36426642Y-36806666D01*
X36283785Y-36782857D01*
X36033785Y-36782857D01*
X35890928Y-36806666D01*
X35819500Y-36854285D01*
X35783785Y-36901904D01*
X36533785Y-37568571D02*
X36533785Y-37330476D01*
X35783785Y-37330476D01*
X36533785Y-37997142D02*
X36533785Y-37711428D01*
X36533785Y-37854285D02*
X35783785Y-37854285D01*
X35890928Y-37806666D01*
X35962357Y-37759047D01*
X35998071Y-37711428D01*
X36498071Y-51855761D02*
X36533785Y-51927190D01*
X36533785Y-52046238D01*
X36498071Y-52093857D01*
X36462357Y-52117666D01*
X36390928Y-52141476D01*
X36319500Y-52141476D01*
X36248071Y-52117666D01*
X36212357Y-52093857D01*
X36176642Y-52046238D01*
X36140928Y-51951000D01*
X36105214Y-51903380D01*
X36069500Y-51879571D01*
X35998071Y-51855761D01*
X35926642Y-51855761D01*
X35855214Y-51879571D01*
X35819500Y-51903380D01*
X35783785Y-51951000D01*
X35783785Y-52070047D01*
X35819500Y-52141476D01*
X36462357Y-52641476D02*
X36498071Y-52617666D01*
X36533785Y-52546238D01*
X36533785Y-52498619D01*
X36498071Y-52427190D01*
X36426642Y-52379571D01*
X36355214Y-52355761D01*
X36212357Y-52331952D01*
X36105214Y-52331952D01*
X35962357Y-52355761D01*
X35890928Y-52379571D01*
X35819500Y-52427190D01*
X35783785Y-52498619D01*
X35783785Y-52546238D01*
X35819500Y-52617666D01*
X35855214Y-52641476D01*
X36533785Y-53093857D02*
X36533785Y-52855761D01*
X35783785Y-52855761D01*
X39002357Y-36542380D02*
X39038071Y-36518571D01*
X39073785Y-36447142D01*
X39073785Y-36399523D01*
X39038071Y-36328095D01*
X38966642Y-36280476D01*
X38895214Y-36256666D01*
X38752357Y-36232857D01*
X38645214Y-36232857D01*
X38502357Y-36256666D01*
X38430928Y-36280476D01*
X38359500Y-36328095D01*
X38323785Y-36399523D01*
X38323785Y-36447142D01*
X38359500Y-36518571D01*
X38395214Y-36542380D01*
X38323785Y-36851904D02*
X38323785Y-36947142D01*
X38359500Y-36994761D01*
X38430928Y-37042380D01*
X38573785Y-37066190D01*
X38823785Y-37066190D01*
X38966642Y-37042380D01*
X39038071Y-36994761D01*
X39073785Y-36947142D01*
X39073785Y-36851904D01*
X39038071Y-36804285D01*
X38966642Y-36756666D01*
X38823785Y-36732857D01*
X38573785Y-36732857D01*
X38430928Y-36756666D01*
X38359500Y-36804285D01*
X38323785Y-36851904D01*
X39073785Y-37518571D02*
X39073785Y-37280476D01*
X38323785Y-37280476D01*
X38395214Y-37661428D02*
X38359500Y-37685238D01*
X38323785Y-37732857D01*
X38323785Y-37851904D01*
X38359500Y-37899523D01*
X38395214Y-37923333D01*
X38466642Y-37947142D01*
X38538071Y-37947142D01*
X38645214Y-37923333D01*
X39073785Y-37637619D01*
X39073785Y-37947142D01*
X39111785Y-51559047D02*
X38754642Y-51392380D01*
X39111785Y-51273333D02*
X38361785Y-51273333D01*
X38361785Y-51463809D01*
X38397500Y-51511428D01*
X38433214Y-51535238D01*
X38504642Y-51559047D01*
X38611785Y-51559047D01*
X38683214Y-51535238D01*
X38718928Y-51511428D01*
X38754642Y-51463809D01*
X38754642Y-51273333D01*
X38361785Y-51868571D02*
X38361785Y-51963809D01*
X38397500Y-52011428D01*
X38468928Y-52059047D01*
X38611785Y-52082857D01*
X38861785Y-52082857D01*
X39004642Y-52059047D01*
X39076071Y-52011428D01*
X39111785Y-51963809D01*
X39111785Y-51868571D01*
X39076071Y-51820952D01*
X39004642Y-51773333D01*
X38861785Y-51749523D01*
X38611785Y-51749523D01*
X38468928Y-51773333D01*
X38397500Y-51820952D01*
X38361785Y-51868571D01*
X38361785Y-52249523D02*
X39111785Y-52368571D01*
X38576071Y-52463809D01*
X39111785Y-52559047D01*
X38361785Y-52678095D01*
X38361785Y-52963809D02*
X38361785Y-53011428D01*
X38397500Y-53059047D01*
X38433214Y-53082857D01*
X38504642Y-53106666D01*
X38647500Y-53130476D01*
X38826071Y-53130476D01*
X38968928Y-53106666D01*
X39040357Y-53082857D01*
X39076071Y-53059047D01*
X39111785Y-53011428D01*
X39111785Y-52963809D01*
X39076071Y-52916190D01*
X39040357Y-52892380D01*
X38968928Y-52868571D01*
X38826071Y-52844761D01*
X38647500Y-52844761D01*
X38504642Y-52868571D01*
X38433214Y-52892380D01*
X38397500Y-52916190D01*
X38361785Y-52963809D01*
X41590357Y-36442380D02*
X41626071Y-36418571D01*
X41661785Y-36347142D01*
X41661785Y-36299523D01*
X41626071Y-36228095D01*
X41554642Y-36180476D01*
X41483214Y-36156666D01*
X41340357Y-36132857D01*
X41233214Y-36132857D01*
X41090357Y-36156666D01*
X41018928Y-36180476D01*
X40947500Y-36228095D01*
X40911785Y-36299523D01*
X40911785Y-36347142D01*
X40947500Y-36418571D01*
X40983214Y-36442380D01*
X40911785Y-36751904D02*
X40911785Y-36847142D01*
X40947500Y-36894761D01*
X41018928Y-36942380D01*
X41161785Y-36966190D01*
X41411785Y-36966190D01*
X41554642Y-36942380D01*
X41626071Y-36894761D01*
X41661785Y-36847142D01*
X41661785Y-36751904D01*
X41626071Y-36704285D01*
X41554642Y-36656666D01*
X41411785Y-36632857D01*
X41161785Y-36632857D01*
X41018928Y-36656666D01*
X40947500Y-36704285D01*
X40911785Y-36751904D01*
X41661785Y-37418571D02*
X41661785Y-37180476D01*
X40911785Y-37180476D01*
X40911785Y-37537619D02*
X40911785Y-37847142D01*
X41197500Y-37680476D01*
X41197500Y-37751904D01*
X41233214Y-37799523D01*
X41268928Y-37823333D01*
X41340357Y-37847142D01*
X41518928Y-37847142D01*
X41590357Y-37823333D01*
X41626071Y-37799523D01*
X41661785Y-37751904D01*
X41661785Y-37609047D01*
X41626071Y-37561428D01*
X41590357Y-37537619D01*
X30803000Y-52070047D02*
X30767285Y-52022428D01*
X30767285Y-51951000D01*
X30803000Y-51879571D01*
X30874428Y-51831952D01*
X30945857Y-51808142D01*
X31088714Y-51784333D01*
X31195857Y-51784333D01*
X31338714Y-51808142D01*
X31410142Y-51831952D01*
X31481571Y-51879571D01*
X31517285Y-51951000D01*
X31517285Y-51998619D01*
X31481571Y-52070047D01*
X31445857Y-52093857D01*
X31195857Y-52093857D01*
X31195857Y-51998619D01*
X31517285Y-52308142D02*
X30767285Y-52308142D01*
X31517285Y-52593857D01*
X30767285Y-52593857D01*
X31517285Y-52831952D02*
X30767285Y-52831952D01*
X30767285Y-52951000D01*
X30803000Y-53022428D01*
X30874428Y-53070047D01*
X30945857Y-53093857D01*
X31088714Y-53117666D01*
X31195857Y-53117666D01*
X31338714Y-53093857D01*
X31410142Y-53070047D01*
X31481571Y-53022428D01*
X31517285Y-52951000D01*
X31517285Y-52831952D01*
X30703785Y-36607833D02*
X31453785Y-36774500D01*
X30703785Y-36941166D01*
X31382357Y-37393547D02*
X31418071Y-37369738D01*
X31453785Y-37298309D01*
X31453785Y-37250690D01*
X31418071Y-37179261D01*
X31346642Y-37131642D01*
X31275214Y-37107833D01*
X31132357Y-37084023D01*
X31025214Y-37084023D01*
X30882357Y-37107833D01*
X30810928Y-37131642D01*
X30739500Y-37179261D01*
X30703785Y-37250690D01*
X30703785Y-37298309D01*
X30739500Y-37369738D01*
X30775214Y-37393547D01*
X31382357Y-37893547D02*
X31418071Y-37869738D01*
X31453785Y-37798309D01*
X31453785Y-37750690D01*
X31418071Y-37679261D01*
X31346642Y-37631642D01*
X31275214Y-37607833D01*
X31132357Y-37584023D01*
X31025214Y-37584023D01*
X30882357Y-37607833D01*
X30810928Y-37631642D01*
X30739500Y-37679261D01*
X30703785Y-37750690D01*
X30703785Y-37798309D01*
X30739500Y-37869738D01*
X30775214Y-37893547D01*
X28263000Y-52133547D02*
X28227285Y-52085928D01*
X28227285Y-52014500D01*
X28263000Y-51943071D01*
X28334428Y-51895452D01*
X28405857Y-51871642D01*
X28548714Y-51847833D01*
X28655857Y-51847833D01*
X28798714Y-51871642D01*
X28870142Y-51895452D01*
X28941571Y-51943071D01*
X28977285Y-52014500D01*
X28977285Y-52062119D01*
X28941571Y-52133547D01*
X28905857Y-52157357D01*
X28655857Y-52157357D01*
X28655857Y-52062119D01*
X28977285Y-52371642D02*
X28227285Y-52371642D01*
X28977285Y-52657357D01*
X28227285Y-52657357D01*
X28977285Y-52895452D02*
X28227285Y-52895452D01*
X28227285Y-53014500D01*
X28263000Y-53085928D01*
X28334428Y-53133547D01*
X28405857Y-53157357D01*
X28548714Y-53181166D01*
X28655857Y-53181166D01*
X28798714Y-53157357D01*
X28870142Y-53133547D01*
X28941571Y-53085928D01*
X28977285Y-53014500D01*
X28977285Y-52895452D01*
X28977285Y-37000690D02*
X28620142Y-36834023D01*
X28977285Y-36714976D02*
X28227285Y-36714976D01*
X28227285Y-36905452D01*
X28263000Y-36953071D01*
X28298714Y-36976880D01*
X28370142Y-37000690D01*
X28477285Y-37000690D01*
X28548714Y-36976880D01*
X28584428Y-36953071D01*
X28620142Y-36905452D01*
X28620142Y-36714976D01*
X28941571Y-37191166D02*
X28977285Y-37262595D01*
X28977285Y-37381642D01*
X28941571Y-37429261D01*
X28905857Y-37453071D01*
X28834428Y-37476880D01*
X28763000Y-37476880D01*
X28691571Y-37453071D01*
X28655857Y-37429261D01*
X28620142Y-37381642D01*
X28584428Y-37286404D01*
X28548714Y-37238785D01*
X28513000Y-37214976D01*
X28441571Y-37191166D01*
X28370142Y-37191166D01*
X28298714Y-37214976D01*
X28263000Y-37238785D01*
X28227285Y-37286404D01*
X28227285Y-37405452D01*
X28263000Y-37476880D01*
X28227285Y-37619738D02*
X28227285Y-37905452D01*
X28977285Y-37762595D02*
X28227285Y-37762595D01*
X26361785Y-51590000D02*
X25611785Y-51590000D01*
X25611785Y-51709047D01*
X25647500Y-51780476D01*
X25718928Y-51828095D01*
X25790357Y-51851904D01*
X25933214Y-51875714D01*
X26040357Y-51875714D01*
X26183214Y-51851904D01*
X26254642Y-51828095D01*
X26326071Y-51780476D01*
X26361785Y-51709047D01*
X26361785Y-51590000D01*
X26147500Y-52066190D02*
X26147500Y-52304285D01*
X26361785Y-52018571D02*
X25611785Y-52185238D01*
X26361785Y-52351904D01*
X25611785Y-52447142D02*
X25611785Y-52732857D01*
X26361785Y-52590000D02*
X25611785Y-52590000D01*
X26147500Y-52875714D02*
X26147500Y-53113809D01*
X26361785Y-52828095D02*
X25611785Y-52994761D01*
X26361785Y-53161428D01*
X25659500Y-36893547D02*
X25623785Y-36845928D01*
X25623785Y-36774500D01*
X25659500Y-36703071D01*
X25730928Y-36655452D01*
X25802357Y-36631642D01*
X25945214Y-36607833D01*
X26052357Y-36607833D01*
X26195214Y-36631642D01*
X26266642Y-36655452D01*
X26338071Y-36703071D01*
X26373785Y-36774500D01*
X26373785Y-36822119D01*
X26338071Y-36893547D01*
X26302357Y-36917357D01*
X26052357Y-36917357D01*
X26052357Y-36822119D01*
X26373785Y-37131642D02*
X25623785Y-37131642D01*
X26373785Y-37417357D01*
X25623785Y-37417357D01*
X26373785Y-37655452D02*
X25623785Y-37655452D01*
X25623785Y-37774500D01*
X25659500Y-37845928D01*
X25730928Y-37893547D01*
X25802357Y-37917357D01*
X25945214Y-37941166D01*
X26052357Y-37941166D01*
X26195214Y-37917357D01*
X26266642Y-37893547D01*
X26338071Y-37845928D01*
X26373785Y-37774500D01*
X26373785Y-37655452D01*
X23833785Y-52168571D02*
X23833785Y-51930476D01*
X23083785Y-51930476D01*
X23440928Y-52335238D02*
X23440928Y-52501904D01*
X23833785Y-52573333D02*
X23833785Y-52335238D01*
X23083785Y-52335238D01*
X23083785Y-52573333D01*
X23833785Y-52787619D02*
X23083785Y-52787619D01*
X23083785Y-52906666D01*
X23119500Y-52978095D01*
X23190928Y-53025714D01*
X23262357Y-53049523D01*
X23405214Y-53073333D01*
X23512357Y-53073333D01*
X23655214Y-53049523D01*
X23726642Y-53025714D01*
X23798071Y-52978095D01*
X23833785Y-52906666D01*
X23833785Y-52787619D01*
X23833785Y-36929261D02*
X23476642Y-36762595D01*
X23833785Y-36643547D02*
X23083785Y-36643547D01*
X23083785Y-36834023D01*
X23119500Y-36881642D01*
X23155214Y-36905452D01*
X23226642Y-36929261D01*
X23333785Y-36929261D01*
X23405214Y-36905452D01*
X23440928Y-36881642D01*
X23476642Y-36834023D01*
X23476642Y-36643547D01*
X23619500Y-37119738D02*
X23619500Y-37357833D01*
X23833785Y-37072119D02*
X23083785Y-37238785D01*
X23833785Y-37405452D01*
X23083785Y-37524500D02*
X23833785Y-37643547D01*
X23298071Y-37738785D01*
X23833785Y-37834023D01*
X23083785Y-37953071D01*
D10*
M02*
