G04 #@! TF.GenerationSoftware,KiCad,Pcbnew,(5.1.5-0-10_14)*
G04 #@! TF.CreationDate,2020-08-12T23:03:47+09:00*
G04 #@! TF.ProjectId,iroha60-left,69726f68-6136-4302-9d6c-6566742e6b69,rev?*
G04 #@! TF.SameCoordinates,Original*
G04 #@! TF.FileFunction,Legend,Top*
G04 #@! TF.FilePolarity,Positive*
%FSLAX46Y46*%
G04 Gerber Fmt 4.6, Leading zero omitted, Abs format (unit mm)*
G04 Created by KiCad (PCBNEW (5.1.5-0-10_14)) date 2020-08-12 23:03:47*
%MOMM*%
%LPD*%
G04 APERTURE LIST*
%ADD10C,0.300000*%
%ADD11C,0.150000*%
G04 APERTURE END LIST*
D10*
X65685892Y-110233571D02*
X65685892Y-109233571D01*
X65685892Y-108733571D02*
X65614464Y-108805000D01*
X65685892Y-108876428D01*
X65757321Y-108805000D01*
X65685892Y-108733571D01*
X65685892Y-108876428D01*
X66400178Y-110233571D02*
X66400178Y-109233571D01*
X66400178Y-109519285D02*
X66471607Y-109376428D01*
X66543035Y-109305000D01*
X66685892Y-109233571D01*
X66828750Y-109233571D01*
X67543035Y-110233571D02*
X67400178Y-110162142D01*
X67328750Y-110090714D01*
X67257321Y-109947857D01*
X67257321Y-109519285D01*
X67328750Y-109376428D01*
X67400178Y-109305000D01*
X67543035Y-109233571D01*
X67757321Y-109233571D01*
X67900178Y-109305000D01*
X67971607Y-109376428D01*
X68043035Y-109519285D01*
X68043035Y-109947857D01*
X67971607Y-110090714D01*
X67900178Y-110162142D01*
X67757321Y-110233571D01*
X67543035Y-110233571D01*
X68685892Y-110233571D02*
X68685892Y-108733571D01*
X69328750Y-110233571D02*
X69328750Y-109447857D01*
X69257321Y-109305000D01*
X69114464Y-109233571D01*
X68900178Y-109233571D01*
X68757321Y-109305000D01*
X68685892Y-109376428D01*
X70685892Y-110233571D02*
X70685892Y-109447857D01*
X70614464Y-109305000D01*
X70471607Y-109233571D01*
X70185892Y-109233571D01*
X70043035Y-109305000D01*
X70685892Y-110162142D02*
X70543035Y-110233571D01*
X70185892Y-110233571D01*
X70043035Y-110162142D01*
X69971607Y-110019285D01*
X69971607Y-109876428D01*
X70043035Y-109733571D01*
X70185892Y-109662142D01*
X70543035Y-109662142D01*
X70685892Y-109590714D01*
X72043035Y-108733571D02*
X71757321Y-108733571D01*
X71614464Y-108805000D01*
X71543035Y-108876428D01*
X71400178Y-109090714D01*
X71328750Y-109376428D01*
X71328750Y-109947857D01*
X71400178Y-110090714D01*
X71471607Y-110162142D01*
X71614464Y-110233571D01*
X71900178Y-110233571D01*
X72043035Y-110162142D01*
X72114464Y-110090714D01*
X72185892Y-109947857D01*
X72185892Y-109590714D01*
X72114464Y-109447857D01*
X72043035Y-109376428D01*
X71900178Y-109305000D01*
X71614464Y-109305000D01*
X71471607Y-109376428D01*
X71400178Y-109447857D01*
X71328750Y-109590714D01*
X73114464Y-108733571D02*
X73257321Y-108733571D01*
X73400178Y-108805000D01*
X73471607Y-108876428D01*
X73543035Y-109019285D01*
X73614464Y-109305000D01*
X73614464Y-109662142D01*
X73543035Y-109947857D01*
X73471607Y-110090714D01*
X73400178Y-110162142D01*
X73257321Y-110233571D01*
X73114464Y-110233571D01*
X72971607Y-110162142D01*
X72900178Y-110090714D01*
X72828750Y-109947857D01*
X72757321Y-109662142D01*
X72757321Y-109305000D01*
X72828750Y-109019285D01*
X72900178Y-108876428D01*
X72971607Y-108805000D01*
X73114464Y-108733571D01*
X75400178Y-110233571D02*
X75400178Y-109233571D01*
X75400178Y-109519285D02*
X75471607Y-109376428D01*
X75543035Y-109305000D01*
X75685892Y-109233571D01*
X75828750Y-109233571D01*
X76900178Y-110162142D02*
X76757321Y-110233571D01*
X76471607Y-110233571D01*
X76328750Y-110162142D01*
X76257321Y-110019285D01*
X76257321Y-109447857D01*
X76328750Y-109305000D01*
X76471607Y-109233571D01*
X76757321Y-109233571D01*
X76900178Y-109305000D01*
X76971607Y-109447857D01*
X76971607Y-109590714D01*
X76257321Y-109733571D01*
X77471607Y-109233571D02*
X77828750Y-110233571D01*
X78185892Y-109233571D01*
X78757321Y-110090714D02*
X78828750Y-110162142D01*
X78757321Y-110233571D01*
X78685892Y-110162142D01*
X78757321Y-110090714D01*
X78757321Y-110233571D01*
X80257321Y-110233571D02*
X79400178Y-110233571D01*
X79828750Y-110233571D02*
X79828750Y-108733571D01*
X79685892Y-108947857D01*
X79543035Y-109090714D01*
X79400178Y-109162142D01*
X81971607Y-108876428D02*
X82043035Y-108805000D01*
X82185892Y-108733571D01*
X82543035Y-108733571D01*
X82685892Y-108805000D01*
X82757321Y-108876428D01*
X82828750Y-109019285D01*
X82828750Y-109162142D01*
X82757321Y-109376428D01*
X81900178Y-110233571D01*
X82828750Y-110233571D01*
X83757321Y-108733571D02*
X83900178Y-108733571D01*
X84043035Y-108805000D01*
X84114464Y-108876428D01*
X84185892Y-109019285D01*
X84257321Y-109305000D01*
X84257321Y-109662142D01*
X84185892Y-109947857D01*
X84114464Y-110090714D01*
X84043035Y-110162142D01*
X83900178Y-110233571D01*
X83757321Y-110233571D01*
X83614464Y-110162142D01*
X83543035Y-110090714D01*
X83471607Y-109947857D01*
X83400178Y-109662142D01*
X83400178Y-109305000D01*
X83471607Y-109019285D01*
X83543035Y-108876428D01*
X83614464Y-108805000D01*
X83757321Y-108733571D01*
X84828750Y-108876428D02*
X84900178Y-108805000D01*
X85043035Y-108733571D01*
X85400178Y-108733571D01*
X85543035Y-108805000D01*
X85614464Y-108876428D01*
X85685892Y-109019285D01*
X85685892Y-109162142D01*
X85614464Y-109376428D01*
X84757321Y-110233571D01*
X85685892Y-110233571D01*
X86614464Y-108733571D02*
X86757321Y-108733571D01*
X86900178Y-108805000D01*
X86971607Y-108876428D01*
X87043035Y-109019285D01*
X87114464Y-109305000D01*
X87114464Y-109662142D01*
X87043035Y-109947857D01*
X86971607Y-110090714D01*
X86900178Y-110162142D01*
X86757321Y-110233571D01*
X86614464Y-110233571D01*
X86471607Y-110162142D01*
X86400178Y-110090714D01*
X86328750Y-109947857D01*
X86257321Y-109662142D01*
X86257321Y-109305000D01*
X86328750Y-109019285D01*
X86400178Y-108876428D01*
X86471607Y-108805000D01*
X86614464Y-108733571D01*
X87757321Y-109662142D02*
X88900178Y-109662142D01*
X89900178Y-108733571D02*
X90043035Y-108733571D01*
X90185892Y-108805000D01*
X90257321Y-108876428D01*
X90328750Y-109019285D01*
X90400178Y-109305000D01*
X90400178Y-109662142D01*
X90328750Y-109947857D01*
X90257321Y-110090714D01*
X90185892Y-110162142D01*
X90043035Y-110233571D01*
X89900178Y-110233571D01*
X89757321Y-110162142D01*
X89685892Y-110090714D01*
X89614464Y-109947857D01*
X89543035Y-109662142D01*
X89543035Y-109305000D01*
X89614464Y-109019285D01*
X89685892Y-108876428D01*
X89757321Y-108805000D01*
X89900178Y-108733571D01*
X91257321Y-109376428D02*
X91114464Y-109305000D01*
X91043035Y-109233571D01*
X90971607Y-109090714D01*
X90971607Y-109019285D01*
X91043035Y-108876428D01*
X91114464Y-108805000D01*
X91257321Y-108733571D01*
X91543035Y-108733571D01*
X91685892Y-108805000D01*
X91757321Y-108876428D01*
X91828750Y-109019285D01*
X91828750Y-109090714D01*
X91757321Y-109233571D01*
X91685892Y-109305000D01*
X91543035Y-109376428D01*
X91257321Y-109376428D01*
X91114464Y-109447857D01*
X91043035Y-109519285D01*
X90971607Y-109662142D01*
X90971607Y-109947857D01*
X91043035Y-110090714D01*
X91114464Y-110162142D01*
X91257321Y-110233571D01*
X91543035Y-110233571D01*
X91685892Y-110162142D01*
X91757321Y-110090714D01*
X91828750Y-109947857D01*
X91828750Y-109662142D01*
X91757321Y-109519285D01*
X91685892Y-109447857D01*
X91543035Y-109376428D01*
X92471607Y-109662142D02*
X93614464Y-109662142D01*
X95114464Y-110233571D02*
X94257321Y-110233571D01*
X94685892Y-110233571D02*
X94685892Y-108733571D01*
X94543035Y-108947857D01*
X94400178Y-109090714D01*
X94257321Y-109162142D01*
X95685892Y-108876428D02*
X95757321Y-108805000D01*
X95900178Y-108733571D01*
X96257321Y-108733571D01*
X96400178Y-108805000D01*
X96471607Y-108876428D01*
X96543035Y-109019285D01*
X96543035Y-109162142D01*
X96471607Y-109376428D01*
X95614464Y-110233571D01*
X96543035Y-110233571D01*
X69185892Y-112783571D02*
X69185892Y-111283571D01*
X69543035Y-111283571D01*
X69757321Y-111355000D01*
X69900178Y-111497857D01*
X69971607Y-111640714D01*
X70043035Y-111926428D01*
X70043035Y-112140714D01*
X69971607Y-112426428D01*
X69900178Y-112569285D01*
X69757321Y-112712142D01*
X69543035Y-112783571D01*
X69185892Y-112783571D01*
X71257321Y-112712142D02*
X71114464Y-112783571D01*
X70828750Y-112783571D01*
X70685892Y-112712142D01*
X70614464Y-112569285D01*
X70614464Y-111997857D01*
X70685892Y-111855000D01*
X70828750Y-111783571D01*
X71114464Y-111783571D01*
X71257321Y-111855000D01*
X71328750Y-111997857D01*
X71328750Y-112140714D01*
X70614464Y-112283571D01*
X71900178Y-112712142D02*
X72043035Y-112783571D01*
X72328750Y-112783571D01*
X72471607Y-112712142D01*
X72543035Y-112569285D01*
X72543035Y-112497857D01*
X72471607Y-112355000D01*
X72328750Y-112283571D01*
X72114464Y-112283571D01*
X71971607Y-112212142D01*
X71900178Y-112069285D01*
X71900178Y-111997857D01*
X71971607Y-111855000D01*
X72114464Y-111783571D01*
X72328750Y-111783571D01*
X72471607Y-111855000D01*
X73185892Y-112783571D02*
X73185892Y-111783571D01*
X73185892Y-111283571D02*
X73114464Y-111355000D01*
X73185892Y-111426428D01*
X73257321Y-111355000D01*
X73185892Y-111283571D01*
X73185892Y-111426428D01*
X74543035Y-111783571D02*
X74543035Y-112997857D01*
X74471607Y-113140714D01*
X74400178Y-113212142D01*
X74257321Y-113283571D01*
X74043035Y-113283571D01*
X73900178Y-113212142D01*
X74543035Y-112712142D02*
X74400178Y-112783571D01*
X74114464Y-112783571D01*
X73971607Y-112712142D01*
X73900178Y-112640714D01*
X73828750Y-112497857D01*
X73828750Y-112069285D01*
X73900178Y-111926428D01*
X73971607Y-111855000D01*
X74114464Y-111783571D01*
X74400178Y-111783571D01*
X74543035Y-111855000D01*
X75257321Y-111783571D02*
X75257321Y-112783571D01*
X75257321Y-111926428D02*
X75328750Y-111855000D01*
X75471607Y-111783571D01*
X75685892Y-111783571D01*
X75828750Y-111855000D01*
X75900178Y-111997857D01*
X75900178Y-112783571D01*
X77185892Y-112712142D02*
X77043035Y-112783571D01*
X76757321Y-112783571D01*
X76614464Y-112712142D01*
X76543035Y-112569285D01*
X76543035Y-111997857D01*
X76614464Y-111855000D01*
X76757321Y-111783571D01*
X77043035Y-111783571D01*
X77185892Y-111855000D01*
X77257321Y-111997857D01*
X77257321Y-112140714D01*
X76543035Y-112283571D01*
X78543035Y-112783571D02*
X78543035Y-111283571D01*
X78543035Y-112712142D02*
X78400178Y-112783571D01*
X78114464Y-112783571D01*
X77971607Y-112712142D01*
X77900178Y-112640714D01*
X77828750Y-112497857D01*
X77828750Y-112069285D01*
X77900178Y-111926428D01*
X77971607Y-111855000D01*
X78114464Y-111783571D01*
X78400178Y-111783571D01*
X78543035Y-111855000D01*
X80400178Y-112783571D02*
X80400178Y-111283571D01*
X80400178Y-111855000D02*
X80543035Y-111783571D01*
X80828750Y-111783571D01*
X80971607Y-111855000D01*
X81043035Y-111926428D01*
X81114464Y-112069285D01*
X81114464Y-112497857D01*
X81043035Y-112640714D01*
X80971607Y-112712142D01*
X80828750Y-112783571D01*
X80543035Y-112783571D01*
X80400178Y-112712142D01*
X81614464Y-111783571D02*
X81971607Y-112783571D01*
X82328750Y-111783571D02*
X81971607Y-112783571D01*
X81828750Y-113140714D01*
X81757321Y-113212142D01*
X81614464Y-113283571D01*
X84043035Y-112783571D02*
X84043035Y-111283571D01*
X84185892Y-112212142D02*
X84614464Y-112783571D01*
X84614464Y-111783571D02*
X84043035Y-112355000D01*
X85257321Y-112783571D02*
X85257321Y-111783571D01*
X85257321Y-111283571D02*
X85185892Y-111355000D01*
X85257321Y-111426428D01*
X85328750Y-111355000D01*
X85257321Y-111283571D01*
X85257321Y-111426428D01*
X85971607Y-112783571D02*
X85971607Y-111783571D01*
X85971607Y-112069285D02*
X86043035Y-111926428D01*
X86114464Y-111855000D01*
X86257321Y-111783571D01*
X86400178Y-111783571D01*
X87114464Y-112783571D02*
X86971607Y-112712142D01*
X86900178Y-112640714D01*
X86828750Y-112497857D01*
X86828750Y-112069285D01*
X86900178Y-111926428D01*
X86971607Y-111855000D01*
X87114464Y-111783571D01*
X87328750Y-111783571D01*
X87471607Y-111855000D01*
X87543035Y-111926428D01*
X87614464Y-112069285D01*
X87614464Y-112497857D01*
X87543035Y-112640714D01*
X87471607Y-112712142D01*
X87328750Y-112783571D01*
X87114464Y-112783571D01*
X88257321Y-111783571D02*
X88257321Y-112783571D01*
X88257321Y-111926428D02*
X88328750Y-111855000D01*
X88471607Y-111783571D01*
X88685892Y-111783571D01*
X88828750Y-111855000D01*
X88900178Y-111997857D01*
X88900178Y-112783571D01*
X89828750Y-112783571D02*
X89685892Y-112712142D01*
X89614464Y-112640714D01*
X89543035Y-112497857D01*
X89543035Y-112069285D01*
X89614464Y-111926428D01*
X89685892Y-111855000D01*
X89828750Y-111783571D01*
X90043035Y-111783571D01*
X90185892Y-111855000D01*
X90257321Y-111926428D01*
X90328750Y-112069285D01*
X90328750Y-112497857D01*
X90257321Y-112640714D01*
X90185892Y-112712142D01*
X90043035Y-112783571D01*
X89828750Y-112783571D01*
X90971607Y-111783571D02*
X90971607Y-112783571D01*
X90971607Y-111926428D02*
X91043035Y-111855000D01*
X91185892Y-111783571D01*
X91400178Y-111783571D01*
X91543035Y-111855000D01*
X91614464Y-111997857D01*
X91614464Y-112783571D01*
X92543035Y-112783571D02*
X92400178Y-112712142D01*
X92328750Y-112640714D01*
X92257321Y-112497857D01*
X92257321Y-112069285D01*
X92328750Y-111926428D01*
X92400178Y-111855000D01*
X92543035Y-111783571D01*
X92757321Y-111783571D01*
X92900178Y-111855000D01*
X92971607Y-111926428D01*
X93043035Y-112069285D01*
X93043035Y-112497857D01*
X92971607Y-112640714D01*
X92900178Y-112712142D01*
X92757321Y-112783571D01*
X92543035Y-112783571D01*
D11*
X37960000Y-25240000D02*
X36460000Y-25240000D01*
X37960000Y-30640000D02*
X37960000Y-25240000D01*
X36460000Y-30640000D02*
X37960000Y-30640000D01*
X36460000Y-25240000D02*
X36460000Y-30640000D01*
X36710000Y-28440000D02*
X37710000Y-28440000D01*
X37710000Y-27440000D02*
X37210000Y-28340000D01*
X36710000Y-27440000D02*
X37710000Y-27440000D01*
X37210000Y-28340000D02*
X36710000Y-27440000D01*
X56960000Y-25240000D02*
X55460000Y-25240000D01*
X56960000Y-30640000D02*
X56960000Y-25240000D01*
X55460000Y-30640000D02*
X56960000Y-30640000D01*
X55460000Y-25240000D02*
X55460000Y-30640000D01*
X55710000Y-28440000D02*
X56710000Y-28440000D01*
X56710000Y-27440000D02*
X56210000Y-28340000D01*
X55710000Y-27440000D02*
X56710000Y-27440000D01*
X56210000Y-28340000D02*
X55710000Y-27440000D01*
X76060000Y-25240000D02*
X74560000Y-25240000D01*
X76060000Y-30640000D02*
X76060000Y-25240000D01*
X74560000Y-30640000D02*
X76060000Y-30640000D01*
X74560000Y-25240000D02*
X74560000Y-30640000D01*
X74810000Y-28440000D02*
X75810000Y-28440000D01*
X75810000Y-27440000D02*
X75310000Y-28340000D01*
X74810000Y-27440000D02*
X75810000Y-27440000D01*
X75310000Y-28340000D02*
X74810000Y-27440000D01*
X95110000Y-25240000D02*
X93610000Y-25240000D01*
X95110000Y-30640000D02*
X95110000Y-25240000D01*
X93610000Y-30640000D02*
X95110000Y-30640000D01*
X93610000Y-25240000D02*
X93610000Y-30640000D01*
X93860000Y-28440000D02*
X94860000Y-28440000D01*
X94860000Y-27440000D02*
X94360000Y-28340000D01*
X93860000Y-27440000D02*
X94860000Y-27440000D01*
X94360000Y-28340000D02*
X93860000Y-27440000D01*
X98160000Y-25240000D02*
X96660000Y-25240000D01*
X98160000Y-30640000D02*
X98160000Y-25240000D01*
X96660000Y-30640000D02*
X98160000Y-30640000D01*
X96660000Y-25240000D02*
X96660000Y-30640000D01*
X96910000Y-28440000D02*
X97910000Y-28440000D01*
X97910000Y-27440000D02*
X97410000Y-28340000D01*
X96910000Y-27440000D02*
X97910000Y-27440000D01*
X97410000Y-28340000D02*
X96910000Y-27440000D01*
X133210000Y-25240000D02*
X131710000Y-25240000D01*
X133210000Y-30640000D02*
X133210000Y-25240000D01*
X131710000Y-30640000D02*
X133210000Y-30640000D01*
X131710000Y-25240000D02*
X131710000Y-30640000D01*
X131960000Y-28440000D02*
X132960000Y-28440000D01*
X132960000Y-27440000D02*
X132460000Y-28340000D01*
X131960000Y-27440000D02*
X132960000Y-27440000D01*
X132460000Y-28340000D02*
X131960000Y-27440000D01*
X136260000Y-25240000D02*
X134760000Y-25240000D01*
X136260000Y-30640000D02*
X136260000Y-25240000D01*
X134760000Y-30640000D02*
X136260000Y-30640000D01*
X134760000Y-25240000D02*
X134760000Y-30640000D01*
X135010000Y-28440000D02*
X136010000Y-28440000D01*
X136010000Y-27440000D02*
X135510000Y-28340000D01*
X135010000Y-27440000D02*
X136010000Y-27440000D01*
X135510000Y-28340000D02*
X135010000Y-27440000D01*
X65785000Y-47390000D02*
X65285000Y-46490000D01*
X65285000Y-46490000D02*
X66285000Y-46490000D01*
X66285000Y-46490000D02*
X65785000Y-47390000D01*
X65285000Y-47490000D02*
X66285000Y-47490000D01*
X65035000Y-44290000D02*
X65035000Y-49690000D01*
X65035000Y-49690000D02*
X66535000Y-49690000D01*
X66535000Y-49690000D02*
X66535000Y-44290000D01*
X66535000Y-44290000D02*
X65035000Y-44290000D01*
X68835000Y-47340000D02*
X68335000Y-46440000D01*
X68335000Y-46440000D02*
X69335000Y-46440000D01*
X69335000Y-46440000D02*
X68835000Y-47340000D01*
X68335000Y-47440000D02*
X69335000Y-47440000D01*
X68085000Y-44240000D02*
X68085000Y-49640000D01*
X68085000Y-49640000D02*
X69585000Y-49640000D01*
X69585000Y-49640000D02*
X69585000Y-44240000D01*
X69585000Y-44240000D02*
X68085000Y-44240000D01*
X84835000Y-47390000D02*
X84335000Y-46490000D01*
X84335000Y-46490000D02*
X85335000Y-46490000D01*
X85335000Y-46490000D02*
X84835000Y-47390000D01*
X84335000Y-47490000D02*
X85335000Y-47490000D01*
X84085000Y-44290000D02*
X84085000Y-49690000D01*
X84085000Y-49690000D02*
X85585000Y-49690000D01*
X85585000Y-49690000D02*
X85585000Y-44290000D01*
X85585000Y-44290000D02*
X84085000Y-44290000D01*
X103885000Y-47390000D02*
X103385000Y-46490000D01*
X103385000Y-46490000D02*
X104385000Y-46490000D01*
X104385000Y-46490000D02*
X103885000Y-47390000D01*
X103385000Y-47490000D02*
X104385000Y-47490000D01*
X103135000Y-44290000D02*
X103135000Y-49690000D01*
X103135000Y-49690000D02*
X104635000Y-49690000D01*
X104635000Y-49690000D02*
X104635000Y-44290000D01*
X104635000Y-44290000D02*
X103135000Y-44290000D01*
X122935000Y-47390000D02*
X122435000Y-46490000D01*
X122435000Y-46490000D02*
X123435000Y-46490000D01*
X123435000Y-46490000D02*
X122935000Y-47390000D01*
X122435000Y-47490000D02*
X123435000Y-47490000D01*
X122185000Y-44290000D02*
X122185000Y-49690000D01*
X122185000Y-49690000D02*
X123685000Y-49690000D01*
X123685000Y-49690000D02*
X123685000Y-44290000D01*
X123685000Y-44290000D02*
X122185000Y-44290000D01*
X125985000Y-47390000D02*
X125485000Y-46490000D01*
X125485000Y-46490000D02*
X126485000Y-46490000D01*
X126485000Y-46490000D02*
X125985000Y-47390000D01*
X125485000Y-47490000D02*
X126485000Y-47490000D01*
X125235000Y-44290000D02*
X125235000Y-49690000D01*
X125235000Y-49690000D02*
X126735000Y-49690000D01*
X126735000Y-49690000D02*
X126735000Y-44290000D01*
X126735000Y-44290000D02*
X125235000Y-44290000D01*
X45103750Y-63115000D02*
X43603750Y-63115000D01*
X45103750Y-68515000D02*
X45103750Y-63115000D01*
X43603750Y-68515000D02*
X45103750Y-68515000D01*
X43603750Y-63115000D02*
X43603750Y-68515000D01*
X43853750Y-66315000D02*
X44853750Y-66315000D01*
X44853750Y-65315000D02*
X44353750Y-66215000D01*
X43853750Y-65315000D02*
X44853750Y-65315000D01*
X44353750Y-66215000D02*
X43853750Y-65315000D01*
X71297500Y-63340000D02*
X69797500Y-63340000D01*
X71297500Y-68740000D02*
X71297500Y-63340000D01*
X69797500Y-68740000D02*
X71297500Y-68740000D01*
X69797500Y-63340000D02*
X69797500Y-68740000D01*
X70047500Y-66540000D02*
X71047500Y-66540000D01*
X71047500Y-65540000D02*
X70547500Y-66440000D01*
X70047500Y-65540000D02*
X71047500Y-65540000D01*
X70547500Y-66440000D02*
X70047500Y-65540000D01*
X89597500Y-66440000D02*
X89097500Y-65540000D01*
X89097500Y-65540000D02*
X90097500Y-65540000D01*
X90097500Y-65540000D02*
X89597500Y-66440000D01*
X89097500Y-66540000D02*
X90097500Y-66540000D01*
X88847500Y-63340000D02*
X88847500Y-68740000D01*
X88847500Y-68740000D02*
X90347500Y-68740000D01*
X90347500Y-68740000D02*
X90347500Y-63340000D01*
X90347500Y-63340000D02*
X88847500Y-63340000D01*
X109397500Y-63340000D02*
X107897500Y-63340000D01*
X109397500Y-68740000D02*
X109397500Y-63340000D01*
X107897500Y-68740000D02*
X109397500Y-68740000D01*
X107897500Y-63340000D02*
X107897500Y-68740000D01*
X108147500Y-66540000D02*
X109147500Y-66540000D01*
X109147500Y-65540000D02*
X108647500Y-66440000D01*
X108147500Y-65540000D02*
X109147500Y-65540000D01*
X108647500Y-66440000D02*
X108147500Y-65540000D01*
X128447500Y-63340000D02*
X126947500Y-63340000D01*
X128447500Y-68740000D02*
X128447500Y-63340000D01*
X126947500Y-68740000D02*
X128447500Y-68740000D01*
X126947500Y-63340000D02*
X126947500Y-68740000D01*
X127197500Y-66540000D02*
X128197500Y-66540000D01*
X128197500Y-65540000D02*
X127697500Y-66440000D01*
X127197500Y-65540000D02*
X128197500Y-65540000D01*
X127697500Y-66440000D02*
X127197500Y-65540000D01*
X131497500Y-63240000D02*
X129997500Y-63240000D01*
X131497500Y-68640000D02*
X131497500Y-63240000D01*
X129997500Y-68640000D02*
X131497500Y-68640000D01*
X129997500Y-63240000D02*
X129997500Y-68640000D01*
X130247500Y-66440000D02*
X131247500Y-66440000D01*
X131247500Y-65440000D02*
X130747500Y-66340000D01*
X130247500Y-65440000D02*
X131247500Y-65440000D01*
X130747500Y-66340000D02*
X130247500Y-65440000D01*
X61822500Y-82390000D02*
X60322500Y-82390000D01*
X61822500Y-87790000D02*
X61822500Y-82390000D01*
X60322500Y-87790000D02*
X61822500Y-87790000D01*
X60322500Y-82390000D02*
X60322500Y-87790000D01*
X60572500Y-85590000D02*
X61572500Y-85590000D01*
X61572500Y-84590000D02*
X61072500Y-85490000D01*
X60572500Y-84590000D02*
X61572500Y-84590000D01*
X61072500Y-85490000D02*
X60572500Y-84590000D01*
X80822500Y-82390000D02*
X79322500Y-82390000D01*
X80822500Y-87790000D02*
X80822500Y-82390000D01*
X79322500Y-87790000D02*
X80822500Y-87790000D01*
X79322500Y-82390000D02*
X79322500Y-87790000D01*
X79572500Y-85590000D02*
X80572500Y-85590000D01*
X80572500Y-84590000D02*
X80072500Y-85490000D01*
X79572500Y-84590000D02*
X80572500Y-84590000D01*
X80072500Y-85490000D02*
X79572500Y-84590000D01*
X99122500Y-85680000D02*
X98622500Y-84780000D01*
X98622500Y-84780000D02*
X99622500Y-84780000D01*
X99622500Y-84780000D02*
X99122500Y-85680000D01*
X98622500Y-85780000D02*
X99622500Y-85780000D01*
X98372500Y-82580000D02*
X98372500Y-87980000D01*
X98372500Y-87980000D02*
X99872500Y-87980000D01*
X99872500Y-87980000D02*
X99872500Y-82580000D01*
X99872500Y-82580000D02*
X98372500Y-82580000D01*
X118172500Y-85680000D02*
X117672500Y-84780000D01*
X117672500Y-84780000D02*
X118672500Y-84780000D01*
X118672500Y-84780000D02*
X118172500Y-85680000D01*
X117672500Y-85780000D02*
X118672500Y-85780000D01*
X117422500Y-82580000D02*
X117422500Y-87980000D01*
X117422500Y-87980000D02*
X118922500Y-87980000D01*
X118922500Y-87980000D02*
X118922500Y-82580000D01*
X118922500Y-82580000D02*
X117422500Y-82580000D01*
X137222500Y-85680000D02*
X136722500Y-84780000D01*
X136722500Y-84780000D02*
X137722500Y-84780000D01*
X137722500Y-84780000D02*
X137222500Y-85680000D01*
X136722500Y-85780000D02*
X137722500Y-85780000D01*
X136472500Y-82580000D02*
X136472500Y-87980000D01*
X136472500Y-87980000D02*
X137972500Y-87980000D01*
X137972500Y-87980000D02*
X137972500Y-82580000D01*
X137972500Y-82580000D02*
X136472500Y-82580000D01*
X140272500Y-85680000D02*
X139772500Y-84780000D01*
X139772500Y-84780000D02*
X140772500Y-84780000D01*
X140772500Y-84780000D02*
X140272500Y-85680000D01*
X139772500Y-85780000D02*
X140772500Y-85780000D01*
X139522500Y-82580000D02*
X139522500Y-87980000D01*
X139522500Y-87980000D02*
X141022500Y-87980000D01*
X141022500Y-87980000D02*
X141022500Y-82580000D01*
X141022500Y-82580000D02*
X139522500Y-82580000D01*
X65785000Y-104540000D02*
X65285000Y-103640000D01*
X65285000Y-103640000D02*
X66285000Y-103640000D01*
X66285000Y-103640000D02*
X65785000Y-104540000D01*
X65285000Y-104640000D02*
X66285000Y-104640000D01*
X65035000Y-101440000D02*
X65035000Y-106840000D01*
X65035000Y-106840000D02*
X66535000Y-106840000D01*
X66535000Y-106840000D02*
X66535000Y-101440000D01*
X66535000Y-101440000D02*
X65035000Y-101440000D01*
X89597500Y-104540000D02*
X89097500Y-103640000D01*
X89097500Y-103640000D02*
X90097500Y-103640000D01*
X90097500Y-103640000D02*
X89597500Y-104540000D01*
X89097500Y-104640000D02*
X90097500Y-104640000D01*
X88847500Y-101440000D02*
X88847500Y-106840000D01*
X88847500Y-106840000D02*
X90347500Y-106840000D01*
X90347500Y-106840000D02*
X90347500Y-101440000D01*
X90347500Y-101440000D02*
X88847500Y-101440000D01*
X97597500Y-104540000D02*
X97097500Y-103640000D01*
X97097500Y-103640000D02*
X98097500Y-103640000D01*
X98097500Y-103640000D02*
X97597500Y-104540000D01*
X97097500Y-104640000D02*
X98097500Y-104640000D01*
X96847500Y-101440000D02*
X96847500Y-106840000D01*
X96847500Y-106840000D02*
X98347500Y-106840000D01*
X98347500Y-106840000D02*
X98347500Y-101440000D01*
X98347500Y-101440000D02*
X96847500Y-101440000D01*
X27876666Y-31519761D02*
X28019523Y-31567380D01*
X28257619Y-31567380D01*
X28352857Y-31519761D01*
X28400476Y-31472142D01*
X28448095Y-31376904D01*
X28448095Y-31281666D01*
X28400476Y-31186428D01*
X28352857Y-31138809D01*
X28257619Y-31091190D01*
X28067142Y-31043571D01*
X27971904Y-30995952D01*
X27924285Y-30948333D01*
X27876666Y-30853095D01*
X27876666Y-30757857D01*
X27924285Y-30662619D01*
X27971904Y-30615000D01*
X28067142Y-30567380D01*
X28305238Y-30567380D01*
X28448095Y-30615000D01*
X28781428Y-30567380D02*
X29019523Y-31567380D01*
X29210000Y-30853095D01*
X29400476Y-31567380D01*
X29638571Y-30567380D01*
X30543333Y-31567380D02*
X29971904Y-31567380D01*
X30257619Y-31567380D02*
X30257619Y-30567380D01*
X30162380Y-30710238D01*
X30067142Y-30805476D01*
X29971904Y-30853095D01*
X46926666Y-31519761D02*
X47069523Y-31567380D01*
X47307619Y-31567380D01*
X47402857Y-31519761D01*
X47450476Y-31472142D01*
X47498095Y-31376904D01*
X47498095Y-31281666D01*
X47450476Y-31186428D01*
X47402857Y-31138809D01*
X47307619Y-31091190D01*
X47117142Y-31043571D01*
X47021904Y-30995952D01*
X46974285Y-30948333D01*
X46926666Y-30853095D01*
X46926666Y-30757857D01*
X46974285Y-30662619D01*
X47021904Y-30615000D01*
X47117142Y-30567380D01*
X47355238Y-30567380D01*
X47498095Y-30615000D01*
X47831428Y-30567380D02*
X48069523Y-31567380D01*
X48260000Y-30853095D01*
X48450476Y-31567380D01*
X48688571Y-30567380D01*
X49021904Y-30662619D02*
X49069523Y-30615000D01*
X49164761Y-30567380D01*
X49402857Y-30567380D01*
X49498095Y-30615000D01*
X49545714Y-30662619D01*
X49593333Y-30757857D01*
X49593333Y-30853095D01*
X49545714Y-30995952D01*
X48974285Y-31567380D01*
X49593333Y-31567380D01*
X65976666Y-31519761D02*
X66119523Y-31567380D01*
X66357619Y-31567380D01*
X66452857Y-31519761D01*
X66500476Y-31472142D01*
X66548095Y-31376904D01*
X66548095Y-31281666D01*
X66500476Y-31186428D01*
X66452857Y-31138809D01*
X66357619Y-31091190D01*
X66167142Y-31043571D01*
X66071904Y-30995952D01*
X66024285Y-30948333D01*
X65976666Y-30853095D01*
X65976666Y-30757857D01*
X66024285Y-30662619D01*
X66071904Y-30615000D01*
X66167142Y-30567380D01*
X66405238Y-30567380D01*
X66548095Y-30615000D01*
X66881428Y-30567380D02*
X67119523Y-31567380D01*
X67310000Y-30853095D01*
X67500476Y-31567380D01*
X67738571Y-30567380D01*
X68024285Y-30567380D02*
X68643333Y-30567380D01*
X68310000Y-30948333D01*
X68452857Y-30948333D01*
X68548095Y-30995952D01*
X68595714Y-31043571D01*
X68643333Y-31138809D01*
X68643333Y-31376904D01*
X68595714Y-31472142D01*
X68548095Y-31519761D01*
X68452857Y-31567380D01*
X68167142Y-31567380D01*
X68071904Y-31519761D01*
X68024285Y-31472142D01*
X85026666Y-31519761D02*
X85169523Y-31567380D01*
X85407619Y-31567380D01*
X85502857Y-31519761D01*
X85550476Y-31472142D01*
X85598095Y-31376904D01*
X85598095Y-31281666D01*
X85550476Y-31186428D01*
X85502857Y-31138809D01*
X85407619Y-31091190D01*
X85217142Y-31043571D01*
X85121904Y-30995952D01*
X85074285Y-30948333D01*
X85026666Y-30853095D01*
X85026666Y-30757857D01*
X85074285Y-30662619D01*
X85121904Y-30615000D01*
X85217142Y-30567380D01*
X85455238Y-30567380D01*
X85598095Y-30615000D01*
X85931428Y-30567380D02*
X86169523Y-31567380D01*
X86360000Y-30853095D01*
X86550476Y-31567380D01*
X86788571Y-30567380D01*
X87598095Y-30900714D02*
X87598095Y-31567380D01*
X87360000Y-30519761D02*
X87121904Y-31234047D01*
X87740952Y-31234047D01*
X104076666Y-31519761D02*
X104219523Y-31567380D01*
X104457619Y-31567380D01*
X104552857Y-31519761D01*
X104600476Y-31472142D01*
X104648095Y-31376904D01*
X104648095Y-31281666D01*
X104600476Y-31186428D01*
X104552857Y-31138809D01*
X104457619Y-31091190D01*
X104267142Y-31043571D01*
X104171904Y-30995952D01*
X104124285Y-30948333D01*
X104076666Y-30853095D01*
X104076666Y-30757857D01*
X104124285Y-30662619D01*
X104171904Y-30615000D01*
X104267142Y-30567380D01*
X104505238Y-30567380D01*
X104648095Y-30615000D01*
X104981428Y-30567380D02*
X105219523Y-31567380D01*
X105410000Y-30853095D01*
X105600476Y-31567380D01*
X105838571Y-30567380D01*
X106695714Y-30567380D02*
X106219523Y-30567380D01*
X106171904Y-31043571D01*
X106219523Y-30995952D01*
X106314761Y-30948333D01*
X106552857Y-30948333D01*
X106648095Y-30995952D01*
X106695714Y-31043571D01*
X106743333Y-31138809D01*
X106743333Y-31376904D01*
X106695714Y-31472142D01*
X106648095Y-31519761D01*
X106552857Y-31567380D01*
X106314761Y-31567380D01*
X106219523Y-31519761D01*
X106171904Y-31472142D01*
X123126666Y-31519761D02*
X123269523Y-31567380D01*
X123507619Y-31567380D01*
X123602857Y-31519761D01*
X123650476Y-31472142D01*
X123698095Y-31376904D01*
X123698095Y-31281666D01*
X123650476Y-31186428D01*
X123602857Y-31138809D01*
X123507619Y-31091190D01*
X123317142Y-31043571D01*
X123221904Y-30995952D01*
X123174285Y-30948333D01*
X123126666Y-30853095D01*
X123126666Y-30757857D01*
X123174285Y-30662619D01*
X123221904Y-30615000D01*
X123317142Y-30567380D01*
X123555238Y-30567380D01*
X123698095Y-30615000D01*
X124031428Y-30567380D02*
X124269523Y-31567380D01*
X124460000Y-30853095D01*
X124650476Y-31567380D01*
X124888571Y-30567380D01*
X125698095Y-30567380D02*
X125507619Y-30567380D01*
X125412380Y-30615000D01*
X125364761Y-30662619D01*
X125269523Y-30805476D01*
X125221904Y-30995952D01*
X125221904Y-31376904D01*
X125269523Y-31472142D01*
X125317142Y-31519761D01*
X125412380Y-31567380D01*
X125602857Y-31567380D01*
X125698095Y-31519761D01*
X125745714Y-31472142D01*
X125793333Y-31376904D01*
X125793333Y-31138809D01*
X125745714Y-31043571D01*
X125698095Y-30995952D01*
X125602857Y-30948333D01*
X125412380Y-30948333D01*
X125317142Y-30995952D01*
X125269523Y-31043571D01*
X125221904Y-31138809D01*
X142176666Y-31519761D02*
X142319523Y-31567380D01*
X142557619Y-31567380D01*
X142652857Y-31519761D01*
X142700476Y-31472142D01*
X142748095Y-31376904D01*
X142748095Y-31281666D01*
X142700476Y-31186428D01*
X142652857Y-31138809D01*
X142557619Y-31091190D01*
X142367142Y-31043571D01*
X142271904Y-30995952D01*
X142224285Y-30948333D01*
X142176666Y-30853095D01*
X142176666Y-30757857D01*
X142224285Y-30662619D01*
X142271904Y-30615000D01*
X142367142Y-30567380D01*
X142605238Y-30567380D01*
X142748095Y-30615000D01*
X143081428Y-30567380D02*
X143319523Y-31567380D01*
X143510000Y-30853095D01*
X143700476Y-31567380D01*
X143938571Y-30567380D01*
X144224285Y-30567380D02*
X144890952Y-30567380D01*
X144462380Y-31567380D01*
X32639166Y-50569761D02*
X32782023Y-50617380D01*
X33020119Y-50617380D01*
X33115357Y-50569761D01*
X33162976Y-50522142D01*
X33210595Y-50426904D01*
X33210595Y-50331666D01*
X33162976Y-50236428D01*
X33115357Y-50188809D01*
X33020119Y-50141190D01*
X32829642Y-50093571D01*
X32734404Y-50045952D01*
X32686785Y-49998333D01*
X32639166Y-49903095D01*
X32639166Y-49807857D01*
X32686785Y-49712619D01*
X32734404Y-49665000D01*
X32829642Y-49617380D01*
X33067738Y-49617380D01*
X33210595Y-49665000D01*
X33543928Y-49617380D02*
X33782023Y-50617380D01*
X33972500Y-49903095D01*
X34162976Y-50617380D01*
X34401071Y-49617380D01*
X34924880Y-50045952D02*
X34829642Y-49998333D01*
X34782023Y-49950714D01*
X34734404Y-49855476D01*
X34734404Y-49807857D01*
X34782023Y-49712619D01*
X34829642Y-49665000D01*
X34924880Y-49617380D01*
X35115357Y-49617380D01*
X35210595Y-49665000D01*
X35258214Y-49712619D01*
X35305833Y-49807857D01*
X35305833Y-49855476D01*
X35258214Y-49950714D01*
X35210595Y-49998333D01*
X35115357Y-50045952D01*
X34924880Y-50045952D01*
X34829642Y-50093571D01*
X34782023Y-50141190D01*
X34734404Y-50236428D01*
X34734404Y-50426904D01*
X34782023Y-50522142D01*
X34829642Y-50569761D01*
X34924880Y-50617380D01*
X35115357Y-50617380D01*
X35210595Y-50569761D01*
X35258214Y-50522142D01*
X35305833Y-50426904D01*
X35305833Y-50236428D01*
X35258214Y-50141190D01*
X35210595Y-50093571D01*
X35115357Y-50045952D01*
X56451666Y-50569761D02*
X56594523Y-50617380D01*
X56832619Y-50617380D01*
X56927857Y-50569761D01*
X56975476Y-50522142D01*
X57023095Y-50426904D01*
X57023095Y-50331666D01*
X56975476Y-50236428D01*
X56927857Y-50188809D01*
X56832619Y-50141190D01*
X56642142Y-50093571D01*
X56546904Y-50045952D01*
X56499285Y-49998333D01*
X56451666Y-49903095D01*
X56451666Y-49807857D01*
X56499285Y-49712619D01*
X56546904Y-49665000D01*
X56642142Y-49617380D01*
X56880238Y-49617380D01*
X57023095Y-49665000D01*
X57356428Y-49617380D02*
X57594523Y-50617380D01*
X57785000Y-49903095D01*
X57975476Y-50617380D01*
X58213571Y-49617380D01*
X58642142Y-50617380D02*
X58832619Y-50617380D01*
X58927857Y-50569761D01*
X58975476Y-50522142D01*
X59070714Y-50379285D01*
X59118333Y-50188809D01*
X59118333Y-49807857D01*
X59070714Y-49712619D01*
X59023095Y-49665000D01*
X58927857Y-49617380D01*
X58737380Y-49617380D01*
X58642142Y-49665000D01*
X58594523Y-49712619D01*
X58546904Y-49807857D01*
X58546904Y-50045952D01*
X58594523Y-50141190D01*
X58642142Y-50188809D01*
X58737380Y-50236428D01*
X58927857Y-50236428D01*
X59023095Y-50188809D01*
X59070714Y-50141190D01*
X59118333Y-50045952D01*
X75025476Y-50569761D02*
X75168333Y-50617380D01*
X75406428Y-50617380D01*
X75501666Y-50569761D01*
X75549285Y-50522142D01*
X75596904Y-50426904D01*
X75596904Y-50331666D01*
X75549285Y-50236428D01*
X75501666Y-50188809D01*
X75406428Y-50141190D01*
X75215952Y-50093571D01*
X75120714Y-50045952D01*
X75073095Y-49998333D01*
X75025476Y-49903095D01*
X75025476Y-49807857D01*
X75073095Y-49712619D01*
X75120714Y-49665000D01*
X75215952Y-49617380D01*
X75454047Y-49617380D01*
X75596904Y-49665000D01*
X75930238Y-49617380D02*
X76168333Y-50617380D01*
X76358809Y-49903095D01*
X76549285Y-50617380D01*
X76787380Y-49617380D01*
X77692142Y-50617380D02*
X77120714Y-50617380D01*
X77406428Y-50617380D02*
X77406428Y-49617380D01*
X77311190Y-49760238D01*
X77215952Y-49855476D01*
X77120714Y-49903095D01*
X78311190Y-49617380D02*
X78406428Y-49617380D01*
X78501666Y-49665000D01*
X78549285Y-49712619D01*
X78596904Y-49807857D01*
X78644523Y-49998333D01*
X78644523Y-50236428D01*
X78596904Y-50426904D01*
X78549285Y-50522142D01*
X78501666Y-50569761D01*
X78406428Y-50617380D01*
X78311190Y-50617380D01*
X78215952Y-50569761D01*
X78168333Y-50522142D01*
X78120714Y-50426904D01*
X78073095Y-50236428D01*
X78073095Y-49998333D01*
X78120714Y-49807857D01*
X78168333Y-49712619D01*
X78215952Y-49665000D01*
X78311190Y-49617380D01*
X94075476Y-50569761D02*
X94218333Y-50617380D01*
X94456428Y-50617380D01*
X94551666Y-50569761D01*
X94599285Y-50522142D01*
X94646904Y-50426904D01*
X94646904Y-50331666D01*
X94599285Y-50236428D01*
X94551666Y-50188809D01*
X94456428Y-50141190D01*
X94265952Y-50093571D01*
X94170714Y-50045952D01*
X94123095Y-49998333D01*
X94075476Y-49903095D01*
X94075476Y-49807857D01*
X94123095Y-49712619D01*
X94170714Y-49665000D01*
X94265952Y-49617380D01*
X94504047Y-49617380D01*
X94646904Y-49665000D01*
X94980238Y-49617380D02*
X95218333Y-50617380D01*
X95408809Y-49903095D01*
X95599285Y-50617380D01*
X95837380Y-49617380D01*
X96742142Y-50617380D02*
X96170714Y-50617380D01*
X96456428Y-50617380D02*
X96456428Y-49617380D01*
X96361190Y-49760238D01*
X96265952Y-49855476D01*
X96170714Y-49903095D01*
X97694523Y-50617380D02*
X97123095Y-50617380D01*
X97408809Y-50617380D02*
X97408809Y-49617380D01*
X97313571Y-49760238D01*
X97218333Y-49855476D01*
X97123095Y-49903095D01*
X113125476Y-50569761D02*
X113268333Y-50617380D01*
X113506428Y-50617380D01*
X113601666Y-50569761D01*
X113649285Y-50522142D01*
X113696904Y-50426904D01*
X113696904Y-50331666D01*
X113649285Y-50236428D01*
X113601666Y-50188809D01*
X113506428Y-50141190D01*
X113315952Y-50093571D01*
X113220714Y-50045952D01*
X113173095Y-49998333D01*
X113125476Y-49903095D01*
X113125476Y-49807857D01*
X113173095Y-49712619D01*
X113220714Y-49665000D01*
X113315952Y-49617380D01*
X113554047Y-49617380D01*
X113696904Y-49665000D01*
X114030238Y-49617380D02*
X114268333Y-50617380D01*
X114458809Y-49903095D01*
X114649285Y-50617380D01*
X114887380Y-49617380D01*
X115792142Y-50617380D02*
X115220714Y-50617380D01*
X115506428Y-50617380D02*
X115506428Y-49617380D01*
X115411190Y-49760238D01*
X115315952Y-49855476D01*
X115220714Y-49903095D01*
X116173095Y-49712619D02*
X116220714Y-49665000D01*
X116315952Y-49617380D01*
X116554047Y-49617380D01*
X116649285Y-49665000D01*
X116696904Y-49712619D01*
X116744523Y-49807857D01*
X116744523Y-49903095D01*
X116696904Y-50045952D01*
X116125476Y-50617380D01*
X116744523Y-50617380D01*
X132175476Y-50569761D02*
X132318333Y-50617380D01*
X132556428Y-50617380D01*
X132651666Y-50569761D01*
X132699285Y-50522142D01*
X132746904Y-50426904D01*
X132746904Y-50331666D01*
X132699285Y-50236428D01*
X132651666Y-50188809D01*
X132556428Y-50141190D01*
X132365952Y-50093571D01*
X132270714Y-50045952D01*
X132223095Y-49998333D01*
X132175476Y-49903095D01*
X132175476Y-49807857D01*
X132223095Y-49712619D01*
X132270714Y-49665000D01*
X132365952Y-49617380D01*
X132604047Y-49617380D01*
X132746904Y-49665000D01*
X133080238Y-49617380D02*
X133318333Y-50617380D01*
X133508809Y-49903095D01*
X133699285Y-50617380D01*
X133937380Y-49617380D01*
X134842142Y-50617380D02*
X134270714Y-50617380D01*
X134556428Y-50617380D02*
X134556428Y-49617380D01*
X134461190Y-49760238D01*
X134365952Y-49855476D01*
X134270714Y-49903095D01*
X135175476Y-49617380D02*
X135794523Y-49617380D01*
X135461190Y-49998333D01*
X135604047Y-49998333D01*
X135699285Y-50045952D01*
X135746904Y-50093571D01*
X135794523Y-50188809D01*
X135794523Y-50426904D01*
X135746904Y-50522142D01*
X135699285Y-50569761D01*
X135604047Y-50617380D01*
X135318333Y-50617380D01*
X135223095Y-50569761D01*
X135175476Y-50522142D01*
X34544226Y-69619761D02*
X34687083Y-69667380D01*
X34925178Y-69667380D01*
X35020416Y-69619761D01*
X35068035Y-69572142D01*
X35115654Y-69476904D01*
X35115654Y-69381666D01*
X35068035Y-69286428D01*
X35020416Y-69238809D01*
X34925178Y-69191190D01*
X34734702Y-69143571D01*
X34639464Y-69095952D01*
X34591845Y-69048333D01*
X34544226Y-68953095D01*
X34544226Y-68857857D01*
X34591845Y-68762619D01*
X34639464Y-68715000D01*
X34734702Y-68667380D01*
X34972797Y-68667380D01*
X35115654Y-68715000D01*
X35448988Y-68667380D02*
X35687083Y-69667380D01*
X35877559Y-68953095D01*
X36068035Y-69667380D01*
X36306130Y-68667380D01*
X37210892Y-69667380D02*
X36639464Y-69667380D01*
X36925178Y-69667380D02*
X36925178Y-68667380D01*
X36829940Y-68810238D01*
X36734702Y-68905476D01*
X36639464Y-68953095D01*
X38068035Y-69000714D02*
X38068035Y-69667380D01*
X37829940Y-68619761D02*
X37591845Y-69334047D01*
X38210892Y-69334047D01*
X60737976Y-69619761D02*
X60880833Y-69667380D01*
X61118928Y-69667380D01*
X61214166Y-69619761D01*
X61261785Y-69572142D01*
X61309404Y-69476904D01*
X61309404Y-69381666D01*
X61261785Y-69286428D01*
X61214166Y-69238809D01*
X61118928Y-69191190D01*
X60928452Y-69143571D01*
X60833214Y-69095952D01*
X60785595Y-69048333D01*
X60737976Y-68953095D01*
X60737976Y-68857857D01*
X60785595Y-68762619D01*
X60833214Y-68715000D01*
X60928452Y-68667380D01*
X61166547Y-68667380D01*
X61309404Y-68715000D01*
X61642738Y-68667380D02*
X61880833Y-69667380D01*
X62071309Y-68953095D01*
X62261785Y-69667380D01*
X62499880Y-68667380D01*
X63404642Y-69667380D02*
X62833214Y-69667380D01*
X63118928Y-69667380D02*
X63118928Y-68667380D01*
X63023690Y-68810238D01*
X62928452Y-68905476D01*
X62833214Y-68953095D01*
X64309404Y-68667380D02*
X63833214Y-68667380D01*
X63785595Y-69143571D01*
X63833214Y-69095952D01*
X63928452Y-69048333D01*
X64166547Y-69048333D01*
X64261785Y-69095952D01*
X64309404Y-69143571D01*
X64357023Y-69238809D01*
X64357023Y-69476904D01*
X64309404Y-69572142D01*
X64261785Y-69619761D01*
X64166547Y-69667380D01*
X63928452Y-69667380D01*
X63833214Y-69619761D01*
X63785595Y-69572142D01*
X79787976Y-69619761D02*
X79930833Y-69667380D01*
X80168928Y-69667380D01*
X80264166Y-69619761D01*
X80311785Y-69572142D01*
X80359404Y-69476904D01*
X80359404Y-69381666D01*
X80311785Y-69286428D01*
X80264166Y-69238809D01*
X80168928Y-69191190D01*
X79978452Y-69143571D01*
X79883214Y-69095952D01*
X79835595Y-69048333D01*
X79787976Y-68953095D01*
X79787976Y-68857857D01*
X79835595Y-68762619D01*
X79883214Y-68715000D01*
X79978452Y-68667380D01*
X80216547Y-68667380D01*
X80359404Y-68715000D01*
X80692738Y-68667380D02*
X80930833Y-69667380D01*
X81121309Y-68953095D01*
X81311785Y-69667380D01*
X81549880Y-68667380D01*
X82454642Y-69667380D02*
X81883214Y-69667380D01*
X82168928Y-69667380D02*
X82168928Y-68667380D01*
X82073690Y-68810238D01*
X81978452Y-68905476D01*
X81883214Y-68953095D01*
X83311785Y-68667380D02*
X83121309Y-68667380D01*
X83026071Y-68715000D01*
X82978452Y-68762619D01*
X82883214Y-68905476D01*
X82835595Y-69095952D01*
X82835595Y-69476904D01*
X82883214Y-69572142D01*
X82930833Y-69619761D01*
X83026071Y-69667380D01*
X83216547Y-69667380D01*
X83311785Y-69619761D01*
X83359404Y-69572142D01*
X83407023Y-69476904D01*
X83407023Y-69238809D01*
X83359404Y-69143571D01*
X83311785Y-69095952D01*
X83216547Y-69048333D01*
X83026071Y-69048333D01*
X82930833Y-69095952D01*
X82883214Y-69143571D01*
X82835595Y-69238809D01*
X98837976Y-69619761D02*
X98980833Y-69667380D01*
X99218928Y-69667380D01*
X99314166Y-69619761D01*
X99361785Y-69572142D01*
X99409404Y-69476904D01*
X99409404Y-69381666D01*
X99361785Y-69286428D01*
X99314166Y-69238809D01*
X99218928Y-69191190D01*
X99028452Y-69143571D01*
X98933214Y-69095952D01*
X98885595Y-69048333D01*
X98837976Y-68953095D01*
X98837976Y-68857857D01*
X98885595Y-68762619D01*
X98933214Y-68715000D01*
X99028452Y-68667380D01*
X99266547Y-68667380D01*
X99409404Y-68715000D01*
X99742738Y-68667380D02*
X99980833Y-69667380D01*
X100171309Y-68953095D01*
X100361785Y-69667380D01*
X100599880Y-68667380D01*
X101504642Y-69667380D02*
X100933214Y-69667380D01*
X101218928Y-69667380D02*
X101218928Y-68667380D01*
X101123690Y-68810238D01*
X101028452Y-68905476D01*
X100933214Y-68953095D01*
X101837976Y-68667380D02*
X102504642Y-68667380D01*
X102076071Y-69667380D01*
X117887976Y-69619761D02*
X118030833Y-69667380D01*
X118268928Y-69667380D01*
X118364166Y-69619761D01*
X118411785Y-69572142D01*
X118459404Y-69476904D01*
X118459404Y-69381666D01*
X118411785Y-69286428D01*
X118364166Y-69238809D01*
X118268928Y-69191190D01*
X118078452Y-69143571D01*
X117983214Y-69095952D01*
X117935595Y-69048333D01*
X117887976Y-68953095D01*
X117887976Y-68857857D01*
X117935595Y-68762619D01*
X117983214Y-68715000D01*
X118078452Y-68667380D01*
X118316547Y-68667380D01*
X118459404Y-68715000D01*
X118792738Y-68667380D02*
X119030833Y-69667380D01*
X119221309Y-68953095D01*
X119411785Y-69667380D01*
X119649880Y-68667380D01*
X120554642Y-69667380D02*
X119983214Y-69667380D01*
X120268928Y-69667380D02*
X120268928Y-68667380D01*
X120173690Y-68810238D01*
X120078452Y-68905476D01*
X119983214Y-68953095D01*
X121126071Y-69095952D02*
X121030833Y-69048333D01*
X120983214Y-69000714D01*
X120935595Y-68905476D01*
X120935595Y-68857857D01*
X120983214Y-68762619D01*
X121030833Y-68715000D01*
X121126071Y-68667380D01*
X121316547Y-68667380D01*
X121411785Y-68715000D01*
X121459404Y-68762619D01*
X121507023Y-68857857D01*
X121507023Y-68905476D01*
X121459404Y-69000714D01*
X121411785Y-69048333D01*
X121316547Y-69095952D01*
X121126071Y-69095952D01*
X121030833Y-69143571D01*
X120983214Y-69191190D01*
X120935595Y-69286428D01*
X120935595Y-69476904D01*
X120983214Y-69572142D01*
X121030833Y-69619761D01*
X121126071Y-69667380D01*
X121316547Y-69667380D01*
X121411785Y-69619761D01*
X121459404Y-69572142D01*
X121507023Y-69476904D01*
X121507023Y-69286428D01*
X121459404Y-69191190D01*
X121411785Y-69143571D01*
X121316547Y-69095952D01*
X136937976Y-69619761D02*
X137080833Y-69667380D01*
X137318928Y-69667380D01*
X137414166Y-69619761D01*
X137461785Y-69572142D01*
X137509404Y-69476904D01*
X137509404Y-69381666D01*
X137461785Y-69286428D01*
X137414166Y-69238809D01*
X137318928Y-69191190D01*
X137128452Y-69143571D01*
X137033214Y-69095952D01*
X136985595Y-69048333D01*
X136937976Y-68953095D01*
X136937976Y-68857857D01*
X136985595Y-68762619D01*
X137033214Y-68715000D01*
X137128452Y-68667380D01*
X137366547Y-68667380D01*
X137509404Y-68715000D01*
X137842738Y-68667380D02*
X138080833Y-69667380D01*
X138271309Y-68953095D01*
X138461785Y-69667380D01*
X138699880Y-68667380D01*
X139604642Y-69667380D02*
X139033214Y-69667380D01*
X139318928Y-69667380D02*
X139318928Y-68667380D01*
X139223690Y-68810238D01*
X139128452Y-68905476D01*
X139033214Y-68953095D01*
X140080833Y-69667380D02*
X140271309Y-69667380D01*
X140366547Y-69619761D01*
X140414166Y-69572142D01*
X140509404Y-69429285D01*
X140557023Y-69238809D01*
X140557023Y-68857857D01*
X140509404Y-68762619D01*
X140461785Y-68715000D01*
X140366547Y-68667380D01*
X140176071Y-68667380D01*
X140080833Y-68715000D01*
X140033214Y-68762619D01*
X139985595Y-68857857D01*
X139985595Y-69095952D01*
X140033214Y-69191190D01*
X140080833Y-69238809D01*
X140176071Y-69286428D01*
X140366547Y-69286428D01*
X140461785Y-69238809D01*
X140509404Y-69191190D01*
X140557023Y-69095952D01*
X39306726Y-88669761D02*
X39449583Y-88717380D01*
X39687678Y-88717380D01*
X39782916Y-88669761D01*
X39830535Y-88622142D01*
X39878154Y-88526904D01*
X39878154Y-88431666D01*
X39830535Y-88336428D01*
X39782916Y-88288809D01*
X39687678Y-88241190D01*
X39497202Y-88193571D01*
X39401964Y-88145952D01*
X39354345Y-88098333D01*
X39306726Y-88003095D01*
X39306726Y-87907857D01*
X39354345Y-87812619D01*
X39401964Y-87765000D01*
X39497202Y-87717380D01*
X39735297Y-87717380D01*
X39878154Y-87765000D01*
X40211488Y-87717380D02*
X40449583Y-88717380D01*
X40640059Y-88003095D01*
X40830535Y-88717380D01*
X41068630Y-87717380D01*
X41401964Y-87812619D02*
X41449583Y-87765000D01*
X41544821Y-87717380D01*
X41782916Y-87717380D01*
X41878154Y-87765000D01*
X41925773Y-87812619D01*
X41973392Y-87907857D01*
X41973392Y-88003095D01*
X41925773Y-88145952D01*
X41354345Y-88717380D01*
X41973392Y-88717380D01*
X42592440Y-87717380D02*
X42687678Y-87717380D01*
X42782916Y-87765000D01*
X42830535Y-87812619D01*
X42878154Y-87907857D01*
X42925773Y-88098333D01*
X42925773Y-88336428D01*
X42878154Y-88526904D01*
X42830535Y-88622142D01*
X42782916Y-88669761D01*
X42687678Y-88717380D01*
X42592440Y-88717380D01*
X42497202Y-88669761D01*
X42449583Y-88622142D01*
X42401964Y-88526904D01*
X42354345Y-88336428D01*
X42354345Y-88098333D01*
X42401964Y-87907857D01*
X42449583Y-87812619D01*
X42497202Y-87765000D01*
X42592440Y-87717380D01*
X70262976Y-88669761D02*
X70405833Y-88717380D01*
X70643928Y-88717380D01*
X70739166Y-88669761D01*
X70786785Y-88622142D01*
X70834404Y-88526904D01*
X70834404Y-88431666D01*
X70786785Y-88336428D01*
X70739166Y-88288809D01*
X70643928Y-88241190D01*
X70453452Y-88193571D01*
X70358214Y-88145952D01*
X70310595Y-88098333D01*
X70262976Y-88003095D01*
X70262976Y-87907857D01*
X70310595Y-87812619D01*
X70358214Y-87765000D01*
X70453452Y-87717380D01*
X70691547Y-87717380D01*
X70834404Y-87765000D01*
X71167738Y-87717380D02*
X71405833Y-88717380D01*
X71596309Y-88003095D01*
X71786785Y-88717380D01*
X72024880Y-87717380D01*
X72358214Y-87812619D02*
X72405833Y-87765000D01*
X72501071Y-87717380D01*
X72739166Y-87717380D01*
X72834404Y-87765000D01*
X72882023Y-87812619D01*
X72929642Y-87907857D01*
X72929642Y-88003095D01*
X72882023Y-88145952D01*
X72310595Y-88717380D01*
X72929642Y-88717380D01*
X73882023Y-88717380D02*
X73310595Y-88717380D01*
X73596309Y-88717380D02*
X73596309Y-87717380D01*
X73501071Y-87860238D01*
X73405833Y-87955476D01*
X73310595Y-88003095D01*
X89312976Y-88669761D02*
X89455833Y-88717380D01*
X89693928Y-88717380D01*
X89789166Y-88669761D01*
X89836785Y-88622142D01*
X89884404Y-88526904D01*
X89884404Y-88431666D01*
X89836785Y-88336428D01*
X89789166Y-88288809D01*
X89693928Y-88241190D01*
X89503452Y-88193571D01*
X89408214Y-88145952D01*
X89360595Y-88098333D01*
X89312976Y-88003095D01*
X89312976Y-87907857D01*
X89360595Y-87812619D01*
X89408214Y-87765000D01*
X89503452Y-87717380D01*
X89741547Y-87717380D01*
X89884404Y-87765000D01*
X90217738Y-87717380D02*
X90455833Y-88717380D01*
X90646309Y-88003095D01*
X90836785Y-88717380D01*
X91074880Y-87717380D01*
X91408214Y-87812619D02*
X91455833Y-87765000D01*
X91551071Y-87717380D01*
X91789166Y-87717380D01*
X91884404Y-87765000D01*
X91932023Y-87812619D01*
X91979642Y-87907857D01*
X91979642Y-88003095D01*
X91932023Y-88145952D01*
X91360595Y-88717380D01*
X91979642Y-88717380D01*
X92360595Y-87812619D02*
X92408214Y-87765000D01*
X92503452Y-87717380D01*
X92741547Y-87717380D01*
X92836785Y-87765000D01*
X92884404Y-87812619D01*
X92932023Y-87907857D01*
X92932023Y-88003095D01*
X92884404Y-88145952D01*
X92312976Y-88717380D01*
X92932023Y-88717380D01*
X108362976Y-88669761D02*
X108505833Y-88717380D01*
X108743928Y-88717380D01*
X108839166Y-88669761D01*
X108886785Y-88622142D01*
X108934404Y-88526904D01*
X108934404Y-88431666D01*
X108886785Y-88336428D01*
X108839166Y-88288809D01*
X108743928Y-88241190D01*
X108553452Y-88193571D01*
X108458214Y-88145952D01*
X108410595Y-88098333D01*
X108362976Y-88003095D01*
X108362976Y-87907857D01*
X108410595Y-87812619D01*
X108458214Y-87765000D01*
X108553452Y-87717380D01*
X108791547Y-87717380D01*
X108934404Y-87765000D01*
X109267738Y-87717380D02*
X109505833Y-88717380D01*
X109696309Y-88003095D01*
X109886785Y-88717380D01*
X110124880Y-87717380D01*
X110458214Y-87812619D02*
X110505833Y-87765000D01*
X110601071Y-87717380D01*
X110839166Y-87717380D01*
X110934404Y-87765000D01*
X110982023Y-87812619D01*
X111029642Y-87907857D01*
X111029642Y-88003095D01*
X110982023Y-88145952D01*
X110410595Y-88717380D01*
X111029642Y-88717380D01*
X111362976Y-87717380D02*
X111982023Y-87717380D01*
X111648690Y-88098333D01*
X111791547Y-88098333D01*
X111886785Y-88145952D01*
X111934404Y-88193571D01*
X111982023Y-88288809D01*
X111982023Y-88526904D01*
X111934404Y-88622142D01*
X111886785Y-88669761D01*
X111791547Y-88717380D01*
X111505833Y-88717380D01*
X111410595Y-88669761D01*
X111362976Y-88622142D01*
X127412976Y-88669761D02*
X127555833Y-88717380D01*
X127793928Y-88717380D01*
X127889166Y-88669761D01*
X127936785Y-88622142D01*
X127984404Y-88526904D01*
X127984404Y-88431666D01*
X127936785Y-88336428D01*
X127889166Y-88288809D01*
X127793928Y-88241190D01*
X127603452Y-88193571D01*
X127508214Y-88145952D01*
X127460595Y-88098333D01*
X127412976Y-88003095D01*
X127412976Y-87907857D01*
X127460595Y-87812619D01*
X127508214Y-87765000D01*
X127603452Y-87717380D01*
X127841547Y-87717380D01*
X127984404Y-87765000D01*
X128317738Y-87717380D02*
X128555833Y-88717380D01*
X128746309Y-88003095D01*
X128936785Y-88717380D01*
X129174880Y-87717380D01*
X129508214Y-87812619D02*
X129555833Y-87765000D01*
X129651071Y-87717380D01*
X129889166Y-87717380D01*
X129984404Y-87765000D01*
X130032023Y-87812619D01*
X130079642Y-87907857D01*
X130079642Y-88003095D01*
X130032023Y-88145952D01*
X129460595Y-88717380D01*
X130079642Y-88717380D01*
X130936785Y-88050714D02*
X130936785Y-88717380D01*
X130698690Y-87669761D02*
X130460595Y-88384047D01*
X131079642Y-88384047D01*
X146462976Y-88669761D02*
X146605833Y-88717380D01*
X146843928Y-88717380D01*
X146939166Y-88669761D01*
X146986785Y-88622142D01*
X147034404Y-88526904D01*
X147034404Y-88431666D01*
X146986785Y-88336428D01*
X146939166Y-88288809D01*
X146843928Y-88241190D01*
X146653452Y-88193571D01*
X146558214Y-88145952D01*
X146510595Y-88098333D01*
X146462976Y-88003095D01*
X146462976Y-87907857D01*
X146510595Y-87812619D01*
X146558214Y-87765000D01*
X146653452Y-87717380D01*
X146891547Y-87717380D01*
X147034404Y-87765000D01*
X147367738Y-87717380D02*
X147605833Y-88717380D01*
X147796309Y-88003095D01*
X147986785Y-88717380D01*
X148224880Y-87717380D01*
X148558214Y-87812619D02*
X148605833Y-87765000D01*
X148701071Y-87717380D01*
X148939166Y-87717380D01*
X149034404Y-87765000D01*
X149082023Y-87812619D01*
X149129642Y-87907857D01*
X149129642Y-88003095D01*
X149082023Y-88145952D01*
X148510595Y-88717380D01*
X149129642Y-88717380D01*
X150034404Y-87717380D02*
X149558214Y-87717380D01*
X149510595Y-88193571D01*
X149558214Y-88145952D01*
X149653452Y-88098333D01*
X149891547Y-88098333D01*
X149986785Y-88145952D01*
X150034404Y-88193571D01*
X150082023Y-88288809D01*
X150082023Y-88526904D01*
X150034404Y-88622142D01*
X149986785Y-88669761D01*
X149891547Y-88717380D01*
X149653452Y-88717380D01*
X149558214Y-88669761D01*
X149510595Y-88622142D01*
X55975476Y-107719761D02*
X56118333Y-107767380D01*
X56356428Y-107767380D01*
X56451666Y-107719761D01*
X56499285Y-107672142D01*
X56546904Y-107576904D01*
X56546904Y-107481666D01*
X56499285Y-107386428D01*
X56451666Y-107338809D01*
X56356428Y-107291190D01*
X56165952Y-107243571D01*
X56070714Y-107195952D01*
X56023095Y-107148333D01*
X55975476Y-107053095D01*
X55975476Y-106957857D01*
X56023095Y-106862619D01*
X56070714Y-106815000D01*
X56165952Y-106767380D01*
X56404047Y-106767380D01*
X56546904Y-106815000D01*
X56880238Y-106767380D02*
X57118333Y-107767380D01*
X57308809Y-107053095D01*
X57499285Y-107767380D01*
X57737380Y-106767380D01*
X58070714Y-106862619D02*
X58118333Y-106815000D01*
X58213571Y-106767380D01*
X58451666Y-106767380D01*
X58546904Y-106815000D01*
X58594523Y-106862619D01*
X58642142Y-106957857D01*
X58642142Y-107053095D01*
X58594523Y-107195952D01*
X58023095Y-107767380D01*
X58642142Y-107767380D01*
X59499285Y-106767380D02*
X59308809Y-106767380D01*
X59213571Y-106815000D01*
X59165952Y-106862619D01*
X59070714Y-107005476D01*
X59023095Y-107195952D01*
X59023095Y-107576904D01*
X59070714Y-107672142D01*
X59118333Y-107719761D01*
X59213571Y-107767380D01*
X59404047Y-107767380D01*
X59499285Y-107719761D01*
X59546904Y-107672142D01*
X59594523Y-107576904D01*
X59594523Y-107338809D01*
X59546904Y-107243571D01*
X59499285Y-107195952D01*
X59404047Y-107148333D01*
X59213571Y-107148333D01*
X59118333Y-107195952D01*
X59070714Y-107243571D01*
X59023095Y-107338809D01*
X120269226Y-107719761D02*
X120412083Y-107767380D01*
X120650178Y-107767380D01*
X120745416Y-107719761D01*
X120793035Y-107672142D01*
X120840654Y-107576904D01*
X120840654Y-107481666D01*
X120793035Y-107386428D01*
X120745416Y-107338809D01*
X120650178Y-107291190D01*
X120459702Y-107243571D01*
X120364464Y-107195952D01*
X120316845Y-107148333D01*
X120269226Y-107053095D01*
X120269226Y-106957857D01*
X120316845Y-106862619D01*
X120364464Y-106815000D01*
X120459702Y-106767380D01*
X120697797Y-106767380D01*
X120840654Y-106815000D01*
X121173988Y-106767380D02*
X121412083Y-107767380D01*
X121602559Y-107053095D01*
X121793035Y-107767380D01*
X122031130Y-106767380D01*
X122364464Y-106862619D02*
X122412083Y-106815000D01*
X122507321Y-106767380D01*
X122745416Y-106767380D01*
X122840654Y-106815000D01*
X122888273Y-106862619D01*
X122935892Y-106957857D01*
X122935892Y-107053095D01*
X122888273Y-107195952D01*
X122316845Y-107767380D01*
X122935892Y-107767380D01*
X123507321Y-107195952D02*
X123412083Y-107148333D01*
X123364464Y-107100714D01*
X123316845Y-107005476D01*
X123316845Y-106957857D01*
X123364464Y-106862619D01*
X123412083Y-106815000D01*
X123507321Y-106767380D01*
X123697797Y-106767380D01*
X123793035Y-106815000D01*
X123840654Y-106862619D01*
X123888273Y-106957857D01*
X123888273Y-107005476D01*
X123840654Y-107100714D01*
X123793035Y-107148333D01*
X123697797Y-107195952D01*
X123507321Y-107195952D01*
X123412083Y-107243571D01*
X123364464Y-107291190D01*
X123316845Y-107386428D01*
X123316845Y-107576904D01*
X123364464Y-107672142D01*
X123412083Y-107719761D01*
X123507321Y-107767380D01*
X123697797Y-107767380D01*
X123793035Y-107719761D01*
X123840654Y-107672142D01*
X123888273Y-107576904D01*
X123888273Y-107386428D01*
X123840654Y-107291190D01*
X123793035Y-107243571D01*
X123697797Y-107195952D01*
X79787976Y-107719761D02*
X79930833Y-107767380D01*
X80168928Y-107767380D01*
X80264166Y-107719761D01*
X80311785Y-107672142D01*
X80359404Y-107576904D01*
X80359404Y-107481666D01*
X80311785Y-107386428D01*
X80264166Y-107338809D01*
X80168928Y-107291190D01*
X79978452Y-107243571D01*
X79883214Y-107195952D01*
X79835595Y-107148333D01*
X79787976Y-107053095D01*
X79787976Y-106957857D01*
X79835595Y-106862619D01*
X79883214Y-106815000D01*
X79978452Y-106767380D01*
X80216547Y-106767380D01*
X80359404Y-106815000D01*
X80692738Y-106767380D02*
X80930833Y-107767380D01*
X81121309Y-107053095D01*
X81311785Y-107767380D01*
X81549880Y-106767380D01*
X81883214Y-106862619D02*
X81930833Y-106815000D01*
X82026071Y-106767380D01*
X82264166Y-106767380D01*
X82359404Y-106815000D01*
X82407023Y-106862619D01*
X82454642Y-106957857D01*
X82454642Y-107053095D01*
X82407023Y-107195952D01*
X81835595Y-107767380D01*
X82454642Y-107767380D01*
X82787976Y-106767380D02*
X83454642Y-106767380D01*
X83026071Y-107767380D01*
M02*
